<svg width="207" height="210" viewBox="0 0 207 210" fill="none" xmlns="http://www.w3.org/2000/svg">
<path d="M174.269 171.352L168.399 174.889L163.222 170.399L164.772 177.074L158.902 180.611L165.729 181.2L167.279 187.875L169.949 181.564L176.777 182.152L171.599 177.663L174.269 171.352Z" fill="#92220F"/>
<path d="M154.755 185.939L149.95 188.834L145.712 185.159L146.981 190.623L142.176 193.518L147.765 194L149.034 199.464L151.219 194.298L156.807 194.78L152.569 191.105L154.755 185.939Z" fill="#92220F"/>
<path d="M134.704 195.263L130.965 197.516L127.666 194.656L128.654 198.909L124.914 201.162L129.264 201.537L130.252 205.79L131.952 201.769L136.302 202.144L133.004 199.284L134.704 195.263Z" fill="#92220F"/>
<path d="M115.232 201.624L112.557 203.235L110.198 201.19L110.904 204.231L108.23 205.843L111.341 206.111L112.047 209.153L113.263 206.277L116.374 206.545L114.015 204.5L115.232 201.624Z" fill="#92220F"/>
<path d="M43.7659 170.399L38.5889 174.889L32.7189 171.352L35.3889 177.663L30.2109 182.152L37.0389 181.564L39.7089 187.875L41.2579 181.2L48.0859 180.611L42.2159 177.074L43.7659 170.399Z" fill="#92220F"/>
<path d="M61.2786 185.159L57.0406 188.834L52.2356 185.939L54.4216 191.105L50.1836 194.78L55.7716 194.298L57.9566 199.464L59.2256 194L64.8146 193.518L60.0096 190.623L61.2786 185.159Z" fill="#92220F"/>
<path d="M79.3235 194.656L76.0245 197.516L72.2855 195.263L73.9855 199.284L70.6875 202.144L75.0375 201.769L76.7375 205.79L77.7255 201.537L82.0755 201.162L78.3355 198.909L79.3235 194.656Z" fill="#92220F"/>
<path d="M96.7893 201.19L94.4303 203.235L91.7553 201.624L92.9723 204.5L90.6133 206.545L93.7243 206.277L94.9403 209.153L95.6463 206.111L98.7573 205.843L96.0833 204.231L96.7893 201.19Z" fill="#92220F"/>
<path d="M142.074 168.701H65.1562C83.8662 181.832 101.587 185.804 103.488 186.193C103.488 186.193 122.223 182.582 142.074 168.701Z" fill="#92220F"/>
<path d="M104.16 37.0911C113.872 37.0911 121.884 29.1691 122.059 19.2301C122.237 9.10014 114.235 0.744141 104.183 0.744141C94.1308 0.744141 86.1188 9.10014 86.2838 19.2301C86.4448 29.1691 94.4468 37.0911 104.16 37.0911Z" fill="#92220F"/>
<path d="M30.1641 35.2932L30.1691 35.3642C36.3751 35.8732 45.9951 37.9652 56.5961 44.9952C65.6191 50.9792 75.2141 60.4532 83.7341 75.2552C91.7661 89.2122 98.6751 107.648 103.08 131.658H103.913C108.318 107.649 115.226 89.2132 123.259 75.2552C131.778 60.4532 141.374 50.9792 150.397 44.9952C160.999 37.9642 170.618 35.8732 176.824 35.3642L176.829 35.2932C176.829 35.2932 162.835 34.4622 146.476 38.3222C138.342 40.2422 129.675 43.3132 121.967 48.1892C121.355 48.5762 120.75 48.9742 120.151 49.3842C113.281 54.0892 107.352 60.3032 103.497 68.4762C99.6421 60.3032 93.7141 54.0892 86.8431 49.3842C86.2451 48.9742 85.6391 48.5762 85.0271 48.1892C77.3191 43.3122 68.6521 40.2422 60.5181 38.3222C44.1581 34.4612 30.1641 35.2932 30.1641 35.2932Z" fill="#92220F"/>
<path d="M14.06 168.702V142.591H0.167969L7.58597 159.071L0.167969 175.55H27.107V168.702H14.06Z" fill="#183041"/>
<path d="M206.826 142.591H192.934V168.702H179.887V175.55H206.826L199.408 159.07L206.826 142.591Z" fill="#183041"/>
<path d="M148.161 170.185C126.534 186.473 105.287 190.702 104.393 190.875L103.463 191.054L102.536 190.864C100.752 190.499 78.7298 185.706 57.1458 168.701H49.6758C73.5438 189.457 99.5928 195.127 101.58 195.534L103.434 195.914L105.296 195.556C106.234 195.374 128.539 190.932 151.03 173.993C153.167 172.383 155.349 170.616 157.543 168.701H150.083C149.439 169.208 148.798 169.705 148.161 170.185Z" fill="#183041"/>
<path d="M111.095 142.012H109.609V148.042H110.815C111.965 148.042 112.666 147.537 112.666 145.966V144.031C112.665 142.629 112.188 142.012 111.095 142.012Z" fill="#183041"/>
<path d="M123.735 121.718C130.741 118.492 138.641 116.479 146.576 115.157C159.177 113.057 171.34 113.344 178.219 115.015L179.24 35.8564L173.312 107.734C167.341 106.845 156.517 106.908 142.954 110.249C135.411 112.107 127.794 114.814 121.054 118.915C120.651 119.159 120.257 119.416 119.851 119.655C114.14 123.028 109.607 127.181 106.023 131.656H106.551C110.279 128.26 115.908 125.103 122.443 122.312C122.878 122.128 123.302 121.917 123.735 121.718Z" fill="#183041"/>
<path d="M184.01 54.128L181.754 122.421C173.985 119.992 162.524 119.236 150.916 120.249C142.58 120.977 134.406 122.35 127.157 124.736C126.694 124.888 126.238 125.05 125.777 125.189C119.215 127.165 113.568 129.409 109.535 131.657H114.011C117.939 130.309 122.789 128.925 128.336 127.816C128.824 127.718 129.311 127.608 129.804 127.504C137.283 125.92 145.731 125.109 154.461 125.055C165.087 124.99 177.85 126.78 186.484 129.944L184.048 54.127H184.01V54.128Z" fill="#183041"/>
<path d="M87.1429 119.657C86.7369 119.417 86.3429 119.161 85.9399 118.917C79.1989 114.816 71.5829 112.109 64.0399 110.251C50.4769 106.909 39.6529 106.846 33.6819 107.736L27.7539 35.8584L28.7749 115.017C35.6539 113.346 47.8169 113.059 60.4179 115.159C68.3519 116.481 76.2529 118.494 83.2589 121.72C83.6909 121.919 84.1159 122.13 84.5509 122.316C91.0869 125.106 96.7149 128.264 100.443 131.66H100.971C97.3869 127.182 92.8539 123.029 87.1429 119.657Z" fill="#183041"/>
<path d="M52.5298 125.057C61.2598 125.11 69.7068 125.922 77.1868 127.506C77.6798 127.61 78.1668 127.72 78.6548 127.818C84.2018 128.927 89.0518 130.311 92.9798 131.659H97.4568C93.4238 129.411 87.7768 127.167 81.2148 125.191C80.7538 125.052 80.2968 124.89 79.8348 124.738C72.5858 122.352 64.4118 120.979 56.0758 120.251C44.4678 119.238 33.0058 119.993 25.2378 122.423L22.9818 54.1299H22.9438L20.5078 129.947C29.1408 126.782 41.9038 124.992 52.5298 125.057Z" fill="#183041"/>
<path d="M109.538 131.658H106.551H106.023H103.914H103.081H100.972H100.444H97.4575H92.9805H18.1445V164.618H188.851V131.658H114.015H109.538ZM51.5145 154.154C51.5145 157.295 49.9435 159.09 46.9145 159.09C43.8855 159.09 42.3145 157.295 42.3145 154.154V139.206H45.3995V154.351C45.3995 155.753 46.0165 156.258 46.9985 156.258C47.9805 156.258 48.5975 155.753 48.5975 154.351V139.206H51.5145V154.154ZM66.1795 158.838H63.0105L59.1685 144.619V158.838H56.3925V139.206H60.2625L63.4315 150.957V139.206H66.1805L66.1795 158.838ZM74.2805 158.838H71.1955V139.206H74.2805V158.838ZM86.1425 158.838H81.5425L78.5135 139.206H81.6265L83.9825 155.22L86.3385 139.206H89.1715L86.1425 158.838ZM101.817 142.011H96.4875V147.48H100.723V150.285H96.4875V156.034H101.817V158.839H93.4025V139.207H101.817V142.011ZM157.024 139.206L159.38 148.152L161.736 139.206H164.68L160.782 152.331V158.838H157.697V152.331L153.799 139.206H157.024ZM141.125 139.206H150.66V142.011H147.435V158.838H144.35V142.011H141.125V139.206ZM133.891 139.206H136.976V158.838H133.891V139.206ZM120.124 152.921H123.041V154.323C123.041 155.725 123.658 156.23 124.639 156.23C125.621 156.23 126.238 155.725 126.238 154.323C126.238 150.284 120.208 149.527 120.208 143.918C120.208 140.777 121.75 138.982 124.751 138.982C127.752 138.982 129.294 140.777 129.294 143.918V144.535H126.378V143.722C126.378 142.32 125.817 141.787 124.835 141.787C123.853 141.787 123.293 142.32 123.293 143.722C123.293 147.76 129.323 148.518 129.323 154.127C129.323 157.269 127.752 159.064 124.723 159.064C121.694 159.064 120.123 157.269 120.123 154.127V152.921H120.124ZM115.752 143.721V145.263C115.752 147.283 115.107 148.6 113.733 149.246C115.275 149.891 115.78 151.378 115.78 153.425V156.454C115.78 157.408 115.808 158.109 116.116 158.838H112.975C112.806 158.333 112.695 158.024 112.695 156.426V153.341C112.695 151.518 112.078 150.845 110.676 150.845H109.61V158.838H106.525V139.206H111.181C114.378 139.206 115.752 140.693 115.752 143.721Z" fill="#183041"/>
</svg>
