<svg width="202" height="217" viewBox="0 0 202 217" fill="none" xmlns="http://www.w3.org/2000/svg">
<path d="M195.499 79.5737C186.424 53.9407 192.008 38.0377 194.831 32.3897L199.508 23.0317L190.115 18.4227C181.248 14.0737 173.097 11.9597 165.198 11.9597C163.613 11.9597 162.018 12.0477 160.456 12.2197C155.683 12.7477 151.562 14.2117 147.925 15.5037C144.522 16.7117 141.583 17.7557 138.938 17.7557C131.818 17.7557 125.311 13.5467 122.363 7.03467L119.602 0.930664H82.6141L79.8541 7.03366C76.9051 13.5477 70.3981 17.7567 63.2781 17.7567C60.6331 17.7567 57.6941 16.7127 54.2921 15.5047C50.6551 14.2127 46.5341 12.7487 41.7611 12.2207C40.1991 12.0487 38.6041 11.9607 37.0191 11.9607C29.1201 11.9607 20.9691 14.0747 12.1021 18.4237L2.70907 23.0317L7.38607 32.3887C10.2081 38.0367 15.7921 53.9397 6.72207 79.5657C-2.06893 104.345 -1.18294 130.343 9.15206 150.893C17.4391 167.374 30.9941 178.904 48.3511 184.234C76.0451 192.745 92.8491 208.929 92.9911 209.068L100.004 216.04L107.304 209.373C107.486 209.21 125.764 192.871 153.864 184.234C171.222 178.904 184.778 167.374 193.065 150.893C203.4 130.344 204.287 104.347 195.499 79.5737ZM188.427 148.561C180.791 163.746 168.313 174.366 152.34 179.272C122.879 188.326 103.997 205.362 103.81 205.534L100.156 208.871L96.6521 205.387C96.4801 205.217 79.0781 188.247 49.8761 179.272C33.9041 174.367 21.4261 163.746 13.7901 148.561C4.08806 129.268 3.29508 104.753 11.6151 81.3027C21.3521 53.7947 15.1491 36.3097 12.0311 30.0687L9.69204 25.3897L14.3891 23.0857C22.5281 19.0937 29.9301 17.1537 37.0191 17.1537C38.4151 17.1537 39.8191 17.2307 41.1901 17.3827C45.3631 17.8437 49.0191 19.1427 52.5541 20.3987C56.2491 21.7107 59.7391 22.9507 63.2791 22.9507C72.4351 22.9507 80.798 17.5447 84.585 9.17667L85.965 6.12466H116.252L117.632 9.17667C121.42 17.5437 129.783 22.9507 138.939 22.9507C142.478 22.9507 145.968 21.7117 149.664 20.3987C153.198 19.1437 156.854 17.8447 161.028 17.3827C162.399 17.2307 163.803 17.1537 165.199 17.1537C172.288 17.1537 179.69 19.0937 187.829 23.0857L192.526 25.3897L190.187 30.0687C187.068 36.3097 180.866 53.7947 190.605 81.3067C198.921 104.753 198.129 129.268 188.427 148.561Z" fill="#92220F"/>
<path d="M185.708 83.0384C175.444 54.0404 181.791 35.2494 185.541 27.7474C178.059 24.0774 170.006 21.6124 161.598 22.5424C153.674 23.4184 147.016 28.1414 138.939 28.1414C127.347 28.1414 117.39 21.2314 112.903 11.3164H89.3152C84.8272 21.2314 74.8702 28.1414 63.2792 28.1414C55.2022 28.1414 48.5442 23.4194 40.6202 22.5424C32.2122 21.6124 24.1582 24.0774 16.6772 27.7474C20.4272 35.2504 26.7742 54.0404 16.5102 83.0384C2.86524 121.499 15.3592 163.236 51.4032 174.308C82.3202 183.81 100.31 201.698 100.31 201.698C100.31 201.698 119.9 183.81 150.817 174.308C186.859 163.236 199.353 121.499 185.708 83.0384ZM101.862 22.4894C110.669 22.4894 117.808 29.6284 117.808 38.4354C117.808 47.2424 110.669 54.3814 101.862 54.3814C93.0552 54.3814 85.9162 47.2424 85.9162 38.4354C85.9162 29.6284 93.0552 22.4894 101.862 22.4894ZM32.0472 136.468L32.5282 131.911C77.3942 128.036 98.8223 143.946 98.8223 143.946C98.8223 143.946 75.6062 120.802 32.8202 126.506C32.8202 126.506 39.1932 56.9074 40.1062 57.1134L37.1182 118.094C81.1682 118.567 95.5742 137.629 98.8802 143.716C98.7062 143.267 98.5092 142.846 98.3252 142.41C97.9502 141.52 97.5572 140.654 97.1432 139.814C97.0452 139.615 96.9453 139.417 96.8453 139.221C93.8933 133.428 90.0612 128.791 85.7502 125.117C80.3912 120.551 74.3192 117.436 68.3692 115.318C56.4712 111.081 45.0672 110.826 40.8652 110.902V77.0094V43.1174C40.8652 43.1174 51.9923 42.3464 64.8193 45.9364C71.2333 47.7314 78.0722 50.6164 84.1582 55.2334C84.2192 55.2794 84.2793 55.3254 84.3403 55.3724C93.6403 62.4984 98.9783 73.6434 98.9783 85.3604V108.728C95.0323 90.3144 90.8423 73.1054 72.8973 63.7124C60.7183 57.3374 49.1003 55.8924 49.1003 55.8924L49.0972 56.0614C48.9112 68.8894 57.8662 80.6574 72.1952 86.7344C72.3172 86.7864 72.4393 86.8384 72.5613 86.8904C78.2493 89.3454 84.0263 92.8494 88.9153 97.9104C88.9633 97.9594 89.0102 98.0094 89.0582 98.0594C94.1632 103.395 97.5423 110.528 98.9783 118.325V143.846V143.899C99.0093 143.958 99.0412 144.018 99.0702 144.075C99.0902 144.114 99.1102 144.147 99.1302 144.18C99.0992 144.141 99.0612 144.098 99.0132 144.051L98.9482 144.015C98.9502 144.019 98.9532 144.023 98.9562 144.027C99.0022 144.059 99.0332 144.085 99.0652 144.112C99.0222 144.089 98.9662 144.057 98.8992 144.004C98.8772 143.986 98.8462 143.965 98.8232 143.947C72.4752 133.42 40.0502 135.489 32.0472 136.468ZM70.6163 166.83L66.0962 163.546L61.5762 166.83L63.3022 161.517L58.7822 158.233H64.3692L66.0953 152.92L67.8212 158.233H73.4082L68.8882 161.517L70.6163 166.83ZM107.253 177.216L101.108 172.751L94.9632 177.216L97.3102 169.992L91.1653 165.527H98.7612L101.108 158.303L103.455 165.527H111.051L104.906 169.992L107.253 177.216ZM140.639 166.83L136.119 163.546L131.599 166.83L133.325 161.517L128.805 158.233H134.392L136.118 152.92L137.844 158.233H143.431L138.911 161.517L140.639 166.83ZM105.425 143.946C105.402 143.964 105.371 143.985 105.349 144.003C105.282 144.056 105.226 144.089 105.183 144.111C105.215 144.085 105.246 144.059 105.292 144.026C105.294 144.022 105.297 144.018 105.3 144.014L105.235 144.05C105.187 144.097 105.148 144.14 105.118 144.179C105.138 144.145 105.157 144.113 105.178 144.074C105.207 144.018 105.239 143.958 105.271 143.898V143.845V118.324C106.707 110.526 110.085 103.393 115.19 98.0584C115.238 98.0084 115.286 97.9584 115.333 97.9094C120.222 92.8484 125.998 89.3444 131.686 86.8894C131.808 86.8364 131.93 86.7844 132.052 86.7334C146.381 80.6564 155.336 68.8884 155.15 56.0604L155.147 55.8914C155.147 55.8914 143.529 57.3364 131.35 63.7114C113.406 73.1054 109.215 90.3134 105.27 108.727V85.3594C105.27 73.6434 110.607 62.4984 119.908 55.3714C119.969 55.3244 120.029 55.2784 120.09 55.2324C126.176 50.6154 133.015 47.7304 139.429 45.9354C152.256 42.3454 163.383 43.1164 163.383 43.1164V77.0084V110.9C159.181 110.825 147.777 111.079 135.879 115.316C129.93 117.435 123.857 120.549 118.498 125.115C114.186 128.789 110.355 133.426 107.403 139.219C107.303 139.416 107.203 139.613 107.105 139.812C106.692 140.652 106.299 141.519 105.924 142.408C105.74 142.845 105.543 143.265 105.369 143.714C108.674 137.627 123.081 118.565 167.131 118.092L164.143 57.1114C165.057 56.9054 171.429 126.504 171.429 126.504C128.641 120.801 105.425 143.946 105.425 143.946C105.425 143.946 126.853 128.036 171.719 131.911L172.2 136.468C164.198 135.489 131.772 133.42 105.425 143.946ZM145.44 128.202C145.43 128.203 145.42 128.205 145.409 128.206L145.426 128.199L145.44 128.202Z" fill="#183041"/>
<path d="M105.27 118.326C106.706 110.528 110.084 103.395 115.189 98.0596C115.237 98.0096 115.285 97.9596 115.332 97.9106C120.221 92.8496 125.997 89.3456 131.685 86.8906C131.807 86.8376 131.929 86.7856 132.051 86.7346C146.38 80.6576 155.335 68.8896 155.149 56.0616L155.146 55.8926C155.146 55.8926 143.528 57.3376 131.349 63.7126C113.405 73.1066 109.214 90.3146 105.269 108.729V101.441L105.117 101.977V126.636L105.269 126.531L105.27 118.326Z" fill="#92220F"/>
<path d="M72.8966 63.7126C60.7176 57.3376 49.0996 55.8926 49.0996 55.8926L49.0966 56.0616C48.9106 68.8896 57.8656 80.6576 72.1946 86.7346C72.3166 86.7866 72.4386 86.8386 72.5606 86.8906C78.2486 89.3456 84.0256 92.8496 88.9146 97.9106C88.9626 97.9596 89.0096 98.0096 89.0576 98.0596C94.1626 103.396 97.5416 110.529 98.9776 118.326V108.729C95.0316 90.3146 90.8416 73.1066 72.8966 63.7126Z" fill="#92220F"/>
</svg>
