<svg width="202" height="221" viewBox="0 0 202 221" fill="none" xmlns="http://www.w3.org/2000/svg">
<path d="M194.328 175.562L180.429 190.836L177.327 188.015C174.748 185.668 172.074 183.453 169.316 181.37L165.863 185.289L184.711 201.895L188.1 187.477L201.977 182.299L194.328 175.562Z" fill="#92220F"/>
<path d="M25.2496 188.015L22.1476 190.836L8.24857 175.562L0.601562 182.299L14.4776 187.478L17.8666 201.896L36.7146 185.289L33.2606 181.37C30.5026 183.452 27.8286 185.668 25.2496 188.015Z" fill="#92220F"/>
<path d="M112.406 134.881C111.672 134.822 111.305 134.795 110.571 134.745C110.405 137.195 110.322 138.42 110.156 140.87C110.725 140.908 111.01 140.929 111.578 140.974C112.934 141.08 113.808 140.652 113.96 139.059C114.035 138.274 114.072 137.882 114.147 137.098C114.283 135.677 113.755 134.99 112.406 134.881Z" fill="#92220F"/>
<path d="M197.458 165.889C142.94 116.282 59.6352 116.282 5.11719 165.889C10.8872 172.23 16.6572 178.571 22.4272 184.912C67.1322 144.234 135.443 144.234 180.148 184.912C185.918 178.571 191.688 172.231 197.458 165.889ZM30.2772 175.027C27.5052 177.057 24.9772 176.787 22.9782 174.291C19.1722 169.54 17.2692 167.165 13.4632 162.414C14.7502 161.383 15.3992 160.878 16.7082 159.891C20.4222 164.815 22.2782 167.277 25.9922 172.201C26.8512 173.34 27.7332 173.315 28.6532 172.641C29.5732 171.968 29.8612 171.139 29.0362 169.974C25.4732 164.94 23.6912 162.423 20.1272 157.389C21.3862 156.497 22.0192 156.061 23.2962 155.208C26.6762 160.271 28.3662 162.803 31.7462 167.866C33.5212 170.526 33.0492 172.996 30.2772 175.027ZM48.2432 163.852C44.1642 159.403 42.0372 157.236 37.6162 153.035C40.3482 158.141 41.7142 160.694 44.4452 165.8C43.3552 166.384 42.8132 166.683 41.7342 167.297C37.7832 160.347 35.8072 156.871 31.8552 149.921C33.6072 148.924 34.4912 148.442 36.2692 147.512C39.9402 150.993 41.7192 152.778 45.1572 156.429C43.0672 152.124 42.0222 149.971 39.9322 145.666C41.2102 145.045 41.8522 144.743 43.1412 144.157C46.4502 151.436 48.1052 155.075 51.4132 162.353C50.1402 162.933 49.5052 163.232 48.2432 163.852ZM59.3852 159.067C56.6052 151.571 55.2152 147.823 52.4352 140.326C53.9162 139.777 54.6602 139.513 56.1522 139.007C58.7212 146.579 60.0052 150.365 62.5732 157.936C61.2932 158.37 60.6552 158.596 59.3852 159.067ZM73.1382 154.886C69.9872 147.42 68.3062 143.72 64.7382 136.4C66.2682 135.989 67.0352 135.794 68.5732 135.426C71.2562 141.491 72.5312 144.546 74.9472 150.696C74.5972 144.099 74.4902 140.791 74.4162 134.161C75.8262 133.887 76.5322 133.759 77.9472 133.522C77.7622 141.66 77.7792 145.723 78.0292 153.821C76.0652 154.206 75.0872 154.419 73.1382 154.886ZM88.8382 152.205C88.0132 144.254 87.6002 140.278 86.7742 132.325C91.0062 131.887 93.1302 131.748 97.3782 131.631C97.4102 132.772 97.4262 133.343 97.4572 134.485C94.8212 134.558 93.5032 134.626 90.8722 134.825C91.0402 137.046 91.1252 138.156 91.2932 140.377C93.2992 140.225 94.3042 140.169 96.3132 140.093C96.3562 141.235 96.3772 141.805 96.4202 142.947C94.4542 143.021 93.4712 143.076 91.5082 143.225C91.6852 145.559 91.7742 146.727 91.9502 149.061C94.3082 148.883 95.4892 148.822 97.8512 148.756C97.8832 149.897 97.8982 150.468 97.9302 151.61C94.2892 151.71 92.4672 151.829 88.8382 152.205ZM117.927 137.195C117.85 137.819 117.811 138.13 117.734 138.754C117.482 140.793 116.556 142.024 114.885 142.51C116.615 143.351 117.003 144.936 116.747 147.004C116.595 148.228 116.52 148.84 116.368 150.064C116.249 151.028 116.194 151.74 116.432 152.518C115.08 152.347 114.403 152.271 113.047 152.138C112.916 151.609 112.823 151.284 112.978 149.665C113.098 148.415 113.158 147.789 113.277 146.539C113.454 144.692 112.809 143.933 111.191 143.809C110.699 143.771 110.453 143.753 109.961 143.72C109.741 146.967 109.631 148.591 109.411 151.839C108.077 151.749 107.409 151.713 106.074 151.66C106.393 143.672 106.552 139.678 106.871 131.69C109.221 131.783 110.396 131.855 112.741 132.046C116.769 132.373 118.305 134.134 117.927 137.195ZM137.53 141.295C137.463 141.537 137.429 141.658 137.362 141.9C135.987 141.519 135.297 141.338 133.914 140.994C133.994 140.673 134.034 140.512 134.114 140.191C134.459 138.805 133.912 138.106 132.721 137.827C131.53 137.548 130.731 137.933 130.424 139.328C129.542 143.343 136.31 145.817 134.782 151.319C133.927 154.4 131.795 155.671 128.589 154.925C125.382 154.179 124.043 152.099 124.64 148.957C124.732 148.475 124.777 148.233 124.869 147.751C126.177 147.999 126.83 148.131 128.133 148.414C128.012 148.972 127.951 149.251 127.83 149.808C127.527 151.203 128.089 151.848 129.153 152.095C130.217 152.342 131.007 152.011 131.35 150.625C132.339 146.635 125.61 144.375 126.679 138.765C127.278 135.624 129.55 134.157 133.267 135.023C136.985 135.891 138.385 138.214 137.53 141.295ZM144.379 159.524C143.113 159.039 142.477 158.805 141.2 158.357C143.85 150.814 145.174 147.042 147.824 139.498C149.313 140.021 150.054 140.293 151.531 140.858C148.67 148.326 147.24 152.059 144.379 159.524ZM165.748 150.458C162.537 156.512 160.932 159.54 157.721 165.594C156.508 164.95 155.898 164.637 154.671 164.03C157.708 157.887 159.227 154.815 162.265 148.672C160.8 147.947 160.063 147.596 158.582 146.917C159.058 145.879 159.296 145.36 159.771 144.321C164.241 146.369 166.443 147.496 170.759 149.956C170.194 150.948 169.912 151.445 169.347 152.437C167.916 151.623 167.197 151.227 165.748 150.458ZM173.067 175.292C171.94 174.455 171.371 174.045 170.226 173.245C171.742 171.073 172.501 169.986 174.017 167.814C175.549 162.364 176.228 159.596 177.405 153.994C178.828 154.913 179.534 155.384 180.935 156.35C179.892 160.056 179.334 161.893 178.148 165.531C181.226 163.26 182.795 162.154 185.991 160.003C187.24 160.948 187.859 161.43 189.088 162.414C184.12 165.282 181.703 166.798 177.014 169.973C175.436 172.101 174.646 173.165 173.067 175.292Z" fill="#92220F"/>
<path d="M100.759 212.943C100.362 212.952 100.04 213.271 100.039 213.657C100.038 214.042 100.366 214.347 100.77 214.338L102.275 214.304L102.242 212.91L100.759 212.943Z" fill="#92220F"/>
<path d="M99.2152 212.943L97.7322 212.91L97.6992 214.304L99.2042 214.338C99.6082 214.347 99.9352 214.042 99.9352 213.657C99.9342 213.271 99.6122 212.952 99.2152 212.943Z" fill="#92220F"/>
<path d="M153.815 193.157C153.075 193.702 152.5 194.362 152.084 195.079C151.656 195.779 151.377 196.523 151.271 197.276L150.796 197.596C150.796 197.596 150.136 198.04 149.476 198.484C148.798 198.9 148.12 199.315 148.12 199.315C148.4 198.789 148.617 198.201 148.73 197.551C149.078 195.363 148.268 193.276 146.967 192.159C145.521 192.514 144.277 193.909 143.913 196.071C143.564 197.982 143.988 199.912 145.003 201.159L144.507 201.435C144.507 201.435 143.812 201.821 143.117 202.208C142.773 202.408 142.414 202.58 142.148 202.714C141.881 202.847 141.704 202.937 141.704 202.937C142.024 202.432 142.298 201.883 142.451 201.223C142.971 199.064 142.337 196.93 141.127 195.708C139.652 195.935 138.315 197.253 137.766 199.356C137.279 201.264 137.532 203.191 138.448 204.527L137.93 204.759C137.93 204.759 137.204 205.084 136.478 205.409C135.757 205.746 135.015 206.033 135.015 206.033C135.382 205.572 135.684 205.012 135.892 204.372C136.588 202.269 136.13 200.095 135.021 198.776C134.267 198.808 133.544 199.156 132.914 199.739C132.274 200.298 131.734 201.113 131.375 202.134C130.733 203.99 130.842 205.965 131.641 207.356L131.105 207.542L128.098 208.581C128.494 208.131 128.84 207.595 129.102 206.982C129.969 204.951 129.689 202.75 128.69 201.342C127.936 201.312 127.183 201.586 126.51 202.122C125.837 202.658 125.223 203.395 124.783 204.387C123.987 206.165 123.944 208.173 124.626 209.616C124.626 209.616 124.49 209.657 124.354 209.697C124.216 209.732 124.079 209.767 124.079 209.767L120.994 210.541C121.424 210.122 121.815 209.624 122.126 209.035C123.157 207.091 123.058 204.878 122.175 203.391C120.671 203.182 119.086 204.259 118.032 206.104C117.093 207.802 116.887 209.796 117.449 211.291L116.893 211.405C116.893 211.405 116.698 211.444 116.405 211.502C116.11 211.549 115.718 211.611 115.325 211.673C114.54 211.797 113.754 211.921 113.754 211.921C114.218 211.542 114.647 211.081 115.006 210.523C116.195 208.695 116.267 206.433 115.512 204.902C114.032 204.585 112.356 205.484 111.162 207.276C110.087 208.881 109.72 210.847 110.161 212.385L109.597 212.449C109.597 212.449 108.808 212.553 108.015 212.612C107.221 212.665 106.428 212.719 106.428 212.719C106.921 212.383 107.387 211.963 107.79 211.44C109.12 209.688 109.374 207.442 108.744 205.855C107.3 205.493 105.546 206.141 104.216 207.892C103.015 209.414 102.492 211.324 102.81 212.899L102.242 212.912L102.275 214.306L102.851 214.293C102.622 215.871 103.244 217.785 104.753 219.205C106.415 220.711 108.656 221.23 110.231 220.471C110.604 218.753 109.77 216.691 108.108 215.19C107.603 214.728 107.066 214.375 106.524 214.109C106.524 214.109 107.33 214.055 108.135 214C108.94 213.941 109.741 213.835 109.741 213.835L110.314 213.77C110.212 215.369 110.982 217.207 112.602 218.509C114.388 219.938 116.649 220.162 118.171 219.351C118.405 217.608 117.407 215.623 115.626 214.236C115.086 213.82 114.523 213.516 113.962 213.299C113.962 213.299 114.76 213.173 115.557 213.047C115.956 212.984 116.355 212.921 116.654 212.874C116.951 212.815 117.149 212.776 117.149 212.776L117.714 212.661C117.742 214.265 118.656 216.03 120.374 217.186C122.279 218.504 124.54 218.499 125.995 217.58C126.093 215.847 124.926 213.901 123.044 212.688C122.473 212.32 121.888 212.067 121.312 211.9L124.445 211.114C124.445 211.114 124.585 211.078 124.724 211.043C124.862 211.002 125 210.961 125 210.961C125.158 212.56 126.211 214.241 128.014 215.244C129.008 215.792 130.086 216.081 131.07 216.043C132.054 216.005 132.963 215.703 133.646 215.174C133.602 213.435 132.282 211.594 130.312 210.547C129.714 210.229 129.113 210.031 128.524 209.909L131.577 208.854L132.122 208.665C132.407 210.238 133.603 211.858 135.474 212.692C136.51 213.161 137.596 213.331 138.586 213.243C139.566 213.132 140.442 212.745 141.079 212.16C140.893 210.428 139.43 208.703 137.385 207.827C136.766 207.564 136.15 207.415 135.546 207.321C135.546 207.321 136.299 207.029 137.031 206.687C137.768 206.357 138.505 206.027 138.505 206.027L139.031 205.791C139.435 207.322 140.775 208.872 142.704 209.546C144.841 210.307 147.09 209.868 148.245 208.559C147.919 206.845 146.322 205.246 144.218 204.546C143.583 204.34 142.94 204.207 142.337 204.178C142.337 204.178 142.517 204.088 142.788 203.952C143.059 203.816 143.422 203.641 143.772 203.438C144.478 203.046 145.184 202.654 145.184 202.654L145.688 202.374C146.22 203.877 147.663 205.284 149.658 205.832C151.835 206.397 154.059 205.805 155.097 204.398C154.631 202.711 152.918 201.257 150.761 200.722C150.098 200.548 149.458 200.485 148.854 200.502C148.854 200.502 149.542 200.08 150.231 199.658C150.901 199.208 151.571 198.757 151.571 198.757L152.053 198.432C152.795 198.606 153.627 198.624 154.464 198.442C155.289 198.244 156.13 197.86 156.912 197.283C158.799 195.897 159.648 193.758 159.384 192.05C157.679 191.441 155.589 191.856 153.815 193.157Z" fill="#92220F"/>
<path d="M97.166 212.898C97.483 211.323 96.96 209.413 95.76 207.891C94.43 206.14 92.676 205.491 91.232 205.854C90.602 207.44 90.856 209.687 92.186 211.439C92.589 211.962 93.055 212.382 93.548 212.718C93.548 212.718 92.754 212.665 91.961 212.611C91.168 212.553 90.379 212.448 90.379 212.448L89.815 212.384C90.256 210.846 89.889 208.88 88.814 207.275C87.62 205.483 85.945 204.584 84.464 204.901C83.709 206.432 83.78 208.694 84.97 210.522C85.329 211.08 85.758 211.541 86.222 211.92C86.222 211.92 85.436 211.796 84.651 211.672C84.258 211.61 83.865 211.548 83.571 211.501C83.279 211.443 83.083 211.404 83.083 211.404L82.527 211.29C83.09 209.795 82.884 207.801 81.944 206.103C80.89 204.259 79.305 203.181 77.801 203.39C76.918 204.877 76.819 207.091 77.85 209.034C78.161 209.623 78.552 210.12 78.982 210.54L75.896 209.766C75.896 209.766 75.758 209.731 75.621 209.696C75.485 209.655 75.349 209.615 75.349 209.615C76.03 208.172 75.987 206.164 75.191 204.386C74.752 203.393 74.137 202.657 73.464 202.121C72.791 201.585 72.038 201.31 71.284 201.341C70.285 202.748 70.005 204.95 70.872 206.981C71.134 207.595 71.48 208.13 71.876 208.58L68.869 207.541L68.333 207.355C69.132 205.964 69.241 203.989 68.599 202.133C68.24 201.111 67.7 200.297 67.06 199.738C66.43 199.155 65.707 198.808 64.953 198.775C63.844 200.094 63.386 202.269 64.082 204.371C64.291 205.01 64.593 205.571 64.959 206.032C64.959 206.032 64.217 205.745 63.496 205.408C62.77 205.083 62.044 204.758 62.044 204.758L61.526 204.526C62.441 203.19 62.694 201.264 62.208 199.355C61.659 197.252 60.323 195.935 58.847 195.707C57.637 196.93 57.003 199.064 57.523 201.222C57.676 201.882 57.95 202.431 58.27 202.936C58.27 202.936 58.092 202.847 57.825 202.713C57.559 202.579 57.2 202.406 56.856 202.207C56.161 201.821 55.465 201.434 55.465 201.434L54.969 201.158C55.984 199.91 56.408 197.98 56.059 196.07C55.694 193.908 54.451 192.513 53.005 192.158C51.703 193.275 50.894 195.361 51.242 197.55C51.355 198.2 51.571 198.788 51.852 199.314C51.852 199.314 51.174 198.898 50.496 198.483C49.836 198.039 49.176 197.595 49.176 197.595L48.701 197.275C48.595 196.522 48.315 195.778 47.888 195.078C47.472 194.361 46.897 193.701 46.157 193.156C44.383 191.855 42.293 191.439 40.59 192.048C40.326 193.757 41.176 195.895 43.062 197.281C43.844 197.858 44.685 198.242 45.51 198.44C46.347 198.622 47.179 198.604 47.921 198.43L48.403 198.755C48.403 198.755 49.073 199.205 49.743 199.656C50.431 200.078 51.12 200.5 51.12 200.5C50.516 200.484 49.875 200.546 49.213 200.72C47.055 201.254 45.343 202.709 44.877 204.396C45.916 205.804 48.139 206.395 50.316 205.83C52.31 205.283 53.754 203.875 54.286 202.372L54.79 202.652C54.79 202.652 55.496 203.044 56.202 203.436C56.552 203.638 56.915 203.814 57.186 203.95C57.457 204.086 57.637 204.176 57.637 204.176C57.035 204.205 56.391 204.339 55.756 204.544C53.651 205.245 52.055 206.843 51.729 208.557C52.884 209.867 55.133 210.305 57.27 209.544C59.199 208.87 60.539 207.319 60.943 205.789L61.469 206.025C61.469 206.025 62.206 206.355 62.943 206.685C63.675 207.027 64.428 207.319 64.428 207.319C63.823 207.413 63.208 207.563 62.589 207.825C60.544 208.701 59.081 210.425 58.895 212.158C59.533 212.742 60.408 213.13 61.388 213.241C62.378 213.328 63.464 213.158 64.5 212.69C66.371 211.856 67.568 210.236 67.852 208.663L68.397 208.852L71.45 209.907C70.862 210.029 70.261 210.227 69.663 210.545C67.693 211.592 66.373 213.433 66.329 215.172C67.013 215.701 67.921 216.003 68.905 216.041C69.889 216.079 70.967 215.789 71.961 215.242C73.764 214.239 74.817 212.558 74.975 210.959C74.975 210.959 75.113 211 75.251 211.041C75.391 211.077 75.53 211.112 75.53 211.112L78.663 211.898C78.087 212.065 77.502 212.318 76.931 212.686C75.05 213.899 73.882 215.845 73.98 217.578C75.435 218.497 77.696 218.502 79.601 217.184C81.319 216.028 82.233 214.263 82.261 212.659L82.826 212.774C82.826 212.774 83.024 212.813 83.321 212.872C83.62 212.919 84.019 212.982 84.418 213.045C85.216 213.171 86.013 213.297 86.013 213.297C85.452 213.514 84.889 213.818 84.349 214.234C82.568 215.621 81.57 217.607 81.804 219.349C83.325 220.16 85.587 219.936 87.373 218.507C88.993 217.205 89.763 215.367 89.661 213.768L90.234 213.833C90.234 213.833 91.035 213.939 91.84 213.998C92.646 214.053 93.451 214.107 93.451 214.107C92.909 214.373 92.372 214.726 91.867 215.188C90.206 216.688 89.371 218.751 89.744 220.469C91.319 221.228 93.56 220.709 95.222 219.203C96.731 217.783 97.353 215.869 97.124 214.291L97.7 214.304L97.733 212.91L97.166 212.898Z" fill="#92220F"/>
<path d="M56.168 37.8701V54.9141C56.168 56.5181 56.612 58.8261 57.41 60.2241C57.412 60.2281 57.415 60.2331 57.417 60.2371C58.312 61.8201 59.45 63.2641 60.743 64.5491C63.454 67.2441 66.765 69.3241 70.218 70.9671C76.713 74.0571 83.907 75.6601 91.051 76.3691C93.978 76.6591 96.922 76.7791 99.864 76.7441C99.866 76.7441 99.869 76.7441 99.869 76.7441H99.874C102.816 76.7791 105.761 76.6591 108.687 76.3691C115.831 75.6611 123.026 74.0571 129.52 70.9671C132.973 69.3241 136.284 67.2451 138.995 64.5491C140.288 63.2631 141.426 61.8201 142.321 60.2371C142.323 60.2331 142.326 60.2291 142.328 60.2241C143.125 58.8261 143.57 56.5181 143.57 54.9141V37.8701L99.869 55.2081L56.168 37.8701Z" fill="#183041"/>
<path d="M88.4846 192.174C88.0936 192.099 87.6936 192.021 87.2836 191.942C86.4656 191.775 85.6066 191.623 84.7186 191.425C83.8366 191.204 82.9186 190.975 81.9656 190.737C81.0156 190.492 80.0505 190.167 79.0435 189.872C75.0455 188.599 70.6476 186.798 66.1476 184.293C61.6426 181.801 57.0906 178.528 52.7626 174.558C51.6286 173.492 50.5146 172.363 49.4166 171.2C48.5566 171.645 47.7006 172.099 46.8516 172.567C48.2206 173.945 49.6246 175.251 51.0396 176.487C55.6726 180.442 60.4896 183.644 65.2106 186.041C69.9286 188.45 74.4956 190.131 78.6226 191.283C79.6616 191.549 80.6556 191.844 81.6326 192.058C82.6106 192.266 83.5546 192.466 84.4606 192.658C85.3706 192.828 86.2506 192.952 87.0876 193.091C87.5066 193.157 87.9156 193.22 88.3146 193.283C88.7166 193.327 89.1076 193.37 89.4896 193.411C90.2526 193.494 90.9736 193.573 91.6526 193.647C92.3346 193.702 92.9776 193.729 93.5736 193.767C94.7666 193.844 95.7786 193.897 96.5916 193.884C98.2236 193.896 99.0936 193.902 99.0936 193.902V193.895C99.6016 193.899 99.8686 193.901 99.8686 193.901C99.8686 193.901 100.136 193.899 100.644 193.895V193.902C100.644 193.902 101.514 193.896 103.146 193.884C103.959 193.897 104.971 193.845 106.165 193.767C106.761 193.729 107.403 193.702 108.085 193.647C108.764 193.573 109.486 193.494 110.248 193.411C110.63 193.369 111.021 193.326 111.423 193.283C111.822 193.221 112.231 193.157 112.65 193.091C113.486 192.952 114.367 192.827 115.277 192.658C116.183 192.466 117.126 192.266 118.105 192.058C119.082 191.843 120.077 191.548 121.116 191.283C125.242 190.13 129.81 188.45 134.527 186.041C139.249 183.644 144.066 180.442 148.699 176.487C150.453 174.953 152.198 173.325 153.87 171.567C153.002 171.11 152.127 170.667 151.248 170.234C149.864 171.757 148.428 173.195 146.977 174.559C142.649 178.529 138.097 181.802 133.592 184.294C129.092 186.799 124.694 188.6 120.696 189.873C119.69 190.169 118.725 190.494 117.775 190.738C116.822 190.976 115.904 191.205 115.022 191.426C114.134 191.624 113.275 191.777 112.457 191.943C112.047 192.022 111.647 192.1 111.256 192.175C110.863 192.232 110.479 192.288 110.105 192.342C109.851 192.379 109.608 192.414 109.363 192.45C111.404 191.76 113.67 190.742 116.009 189.286C119.012 187.427 122.132 184.876 125.042 181.647C127.963 178.431 130.757 174.605 133.189 170.267C134.289 168.323 135.325 166.273 136.302 164.153C135.008 163.731 133.707 163.329 132.398 162.954C131.648 164.896 130.851 166.788 129.989 168.589C129.937 168.699 129.882 168.804 129.83 168.913C120.518 171.5 110.927 172.791 101.317 172.846L102.048 158.609C101.794 158.607 101.541 158.6 101.287 158.6C100.087 158.6 98.8896 158.626 97.6936 158.664L98.4206 172.825C90.7846 172.672 83.1546 171.755 75.6646 170.08C73.8796 169.681 71.8966 169.218 69.7966 168.686C69.7806 168.653 69.7646 168.622 69.7486 168.59C68.9996 167.025 68.3056 165.385 67.6396 163.713C66.3576 164.112 65.0846 164.539 63.8176 164.984C64.2036 165.798 64.5966 166.605 65.0016 167.393C63.6136 166.993 62.1996 166.561 60.7776 166.097C57.5176 167.349 54.3156 168.751 51.1826 170.303C54.7386 171.419 58.2556 172.325 61.4706 173.095C64.0516 173.713 66.6526 174.24 69.2646 174.687C70.9796 177.243 72.8096 179.575 74.6936 181.649C77.6036 184.878 80.7226 187.429 83.7266 189.288C86.0646 190.744 88.3316 191.762 90.3726 192.452C90.1276 192.416 89.8846 192.381 89.6306 192.344C89.2616 192.287 88.8776 192.231 88.4846 192.174ZM101.166 175.822C110.912 174.841 120.529 172.617 129.736 169.107C127.764 173.174 125.461 176.806 123.01 179.909C120.464 183.158 117.684 185.767 114.966 187.72C112.25 189.682 109.59 190.965 107.311 191.748C106.177 192.173 105.12 192.392 104.208 192.627C103.29 192.791 102.512 192.923 101.864 193.009C101.142 193.065 100.615 193.105 100.277 193.131L101.166 175.822ZM84.7766 187.72C82.0586 185.767 79.2796 183.158 76.7336 179.909C75.6126 178.49 74.5256 176.956 73.4836 175.327C81.8096 176.449 90.2366 176.702 98.5886 176.05L99.4656 193.132C99.1266 193.106 98.6006 193.066 97.8786 193.01C97.2306 192.924 96.4526 192.792 95.5336 192.628C94.6216 192.392 93.5646 192.174 92.4306 191.749C90.1526 190.965 87.4926 189.682 84.7766 187.72Z" fill="#183041"/>
<path d="M169.069 127.681C169.008 128.52 169.001 129.365 168.897 130.2L168.625 132.708C168.277 135.196 167.844 137.672 167.262 140.101C168.496 140.721 169.719 141.361 170.936 142.016C171.769 139.184 172.412 136.279 172.929 133.34L173.313 130.684C173.454 129.799 173.497 128.903 173.593 128.01C173.679 127.117 173.768 126.223 173.789 125.325L173.902 122.572C173.871 120.815 173.928 119.139 173.781 117.275C173.728 116.544 173.698 115.802 173.634 115.075C173.634 115.075 172.351 101.628 169.001 94.9767C167.273 90.4857 165.137 86.2167 162.654 82.2837L161.982 81.2007L161.265 80.1537C160.783 79.4607 160.322 78.7557 159.827 78.0807C158.812 76.7497 157.836 75.4047 156.757 74.1667C154.674 71.6247 152.414 69.3257 150.127 67.1827C149.206 66.3387 148.271 65.5407 147.332 64.7617C146.307 66.3457 145.092 67.8567 143.682 69.2577C143.4 69.5387 143.102 69.8127 142.805 70.0877C143.728 70.7967 144.647 71.5257 145.557 72.2997C147.7 74.1707 149.836 76.1867 151.816 78.4377C152.844 79.5307 153.774 80.7287 154.748 81.9097C155.223 82.5097 155.665 83.1397 156.13 83.7577L156.822 84.6927L157.472 85.6627C160.992 90.8177 163.882 96.6727 165.908 102.94C166.074 103.446 166.226 103.957 166.375 104.47C166.375 104.47 168.275 111.893 168.614 115.075L168.617 115.095C168.752 115.927 168.787 116.737 168.879 117.562C169.077 119.161 169.089 120.972 169.18 122.692L169.161 125.158C169.175 126.001 169.12 126.841 169.069 127.681Z" fill="#183041"/>
<path d="M52.4167 64.7646C51.4767 65.5436 50.5407 66.3387 49.6187 67.1837C47.3317 69.3267 45.0717 71.6256 42.9887 74.1676C41.9097 75.4066 40.9338 76.7516 39.9188 78.0816C39.4238 78.7566 38.9627 79.4606 38.4807 80.1546L37.7638 81.2016L37.0918 82.2846C33.4568 88.0436 30.5488 94.5146 28.6038 101.364C27.6148 104.785 26.9468 108.316 26.4488 111.871L26.1548 114.551C26.0448 115.439 26.0298 116.37 25.9648 117.277C25.8168 119.141 25.8747 120.816 25.8438 122.574L25.9568 125.327C25.9778 126.225 26.0667 127.119 26.1527 128.012C26.2487 128.904 26.2917 129.8 26.4327 130.686L26.8167 133.342C27.4147 136.744 28.1728 140.105 29.2128 143.353C30.4078 142.681 31.6078 142.02 32.8198 141.382C32.0698 138.544 31.5298 135.638 31.1208 132.71L30.8488 130.202C30.7448 129.367 30.7378 128.523 30.6768 127.683C30.6548 127.321 30.6338 126.959 30.6158 126.597C31.4378 127.124 32.2097 127.603 32.8557 128.027C37.1297 130.836 41.6898 133.165 46.4258 135.095C51.2228 133.167 56.1167 131.485 61.0967 130.073C61.0237 127.597 61.0128 125.115 61.0958 122.635C61.1728 121.342 61.2177 119.817 61.3217 118.485C61.4427 117.137 61.5138 115.815 61.6858 114.452C61.8298 113.098 61.9848 111.75 62.1908 110.413C62.3648 109.072 62.6027 107.746 62.8337 106.427C63.2547 104.052 63.7728 101.723 64.3548 99.4386C66.8238 100.116 69.2358 100.711 71.4968 101.242C79.1858 103.046 87.0368 104.122 94.9108 104.456L95.9457 124.6C97.7227 124.536 99.5028 124.494 101.288 124.494C102.126 124.494 102.963 124.509 103.8 124.523L104.829 104.482C115.173 104.092 125.454 102.393 135.362 99.3356C135.955 101.653 136.481 104.016 136.908 106.426C137.14 107.745 137.378 109.071 137.552 110.412C137.759 111.749 137.914 113.097 138.057 114.451C138.229 115.813 138.3 117.136 138.421 118.484C138.525 119.816 138.57 121.341 138.647 122.634C138.721 124.859 138.724 127.086 138.669 129.308C140.788 129.864 142.894 130.465 144.984 131.114C145.277 128.304 145.484 125.473 145.584 122.634C145.602 121.106 145.656 119.808 145.647 118.322C145.62 116.854 145.637 115.359 145.556 113.92C145.502 112.47 145.435 111.021 145.314 109.579C145.226 108.134 145.07 106.698 144.919 105.266C144.304 99.5377 143.215 93.9297 141.752 88.5757C140.422 83.6637 138.69 78.9977 136.674 74.6487C135.322 75.4677 133.894 76.2436 132.376 76.9656C130.811 77.7096 129.175 78.3876 127.479 79.0056C129.542 82.7266 131.415 86.8566 132.953 91.3076C133.775 93.6686 134.525 96.1106 135.186 98.6166C125.27 100.689 115.117 101.404 105.016 100.832L105.919 83.2406C105.099 83.2886 104.276 83.3256 103.449 83.3496C103.427 83.3506 103.404 83.3517 103.382 83.3517C102.569 83.3747 101.754 83.3897 100.938 83.3907C100.914 83.3907 100.891 83.3916 100.867 83.3916C100.535 83.3916 100.202 83.3897 99.8687 83.3857C99.7907 83.3867 99.7128 83.3866 99.6348 83.3866C99.4428 83.3886 99.2398 83.3896 99.0268 83.3896C98.9758 83.3896 98.9237 83.3907 98.8727 83.3907C98.8477 83.3907 98.8238 83.3896 98.7988 83.3896C97.9838 83.3886 97.1688 83.3736 96.3568 83.3506C96.3358 83.3496 96.3138 83.3486 96.2928 83.3486C95.4648 83.3246 94.6407 83.2867 93.8207 83.2397L94.6707 99.7916C91.7537 99.3706 88.8488 98.8556 85.9658 98.2216C80.5198 97.0246 73.3117 95.3086 66.3167 92.7486C66.4757 92.2696 66.6238 91.7796 66.7878 91.3076C68.3258 86.8566 70.1977 82.7266 72.2607 79.0056C70.5657 78.3876 68.9298 77.7096 67.3658 76.9656C65.8448 76.2416 64.4118 75.4636 63.0568 74.6426C61.0418 78.9916 59.3187 83.6647 57.9887 88.5757C57.9417 88.7477 57.8988 88.9216 57.8528 89.0946C53.2198 86.7206 49.1238 83.8426 46.2768 80.3446C46.8128 79.6916 47.3548 79.0486 47.9278 78.4396C49.9078 76.1886 52.0428 74.1726 54.1868 72.3016C55.0978 71.5266 56.0177 70.8007 56.9417 70.0927C56.6437 69.8177 56.3458 69.5416 56.0618 69.2596C54.6558 67.8586 53.4407 66.3486 52.4167 64.7646ZM56.0797 96.8376C55.5527 99.6056 55.1298 102.421 54.8248 105.265C54.6728 106.697 54.5177 108.133 54.4297 109.578C54.3087 111.02 54.2407 112.469 54.1877 113.919C54.1067 115.358 54.1237 116.853 54.0967 118.321C54.0877 119.807 54.1408 121.105 54.1598 122.633C54.2288 124.594 54.3608 126.548 54.5208 128.498C46.4068 124.997 39.0498 120.241 33.6078 113.743C32.9858 113.052 32.2917 112.55 31.5677 112.209C32.1407 109.057 32.8508 105.944 33.8378 102.942C35.5208 97.7357 37.8078 92.8206 40.5488 88.3486C44.8258 92.0346 50.3487 94.7556 56.0797 96.8376Z" fill="#183041"/>
<path d="M184.198 68.6191C184.757 66.4981 184.204 64.3661 182.816 63.4311C181.142 63.9631 179.735 65.6571 179.179 67.7761C179.004 68.4231 178.94 69.0441 178.953 69.6261C178.953 69.6261 178.541 68.9801 178.13 68.3341C177.932 68.0051 177.697 67.7021 177.531 67.4681C177.363 67.2351 177.251 67.0801 177.251 67.0801L176.931 66.6361C178.373 65.9391 179.623 64.4021 180.014 62.4221C180.225 61.3321 180.168 60.2581 179.84 59.3771C179.501 58.5051 178.939 57.7931 178.234 57.3621C176.622 58.0061 175.308 59.8341 174.939 61.9711C174.824 62.6221 174.833 63.2251 174.889 63.8061C174.889 63.8061 174.78 63.6481 174.595 63.4281C174.414 63.2051 174.172 62.9081 173.931 62.6101C173.448 62.0161 172.965 61.4211 172.965 61.4211L172.62 60.9971C174.002 60.1951 175.138 58.5621 175.396 56.5431C175.655 54.3381 174.674 52.4161 173.229 51.6391C171.678 52.3981 170.499 54.3261 170.273 56.5031C170.205 57.1631 170.243 57.7801 170.351 58.3471L168.285 56.0841L167.916 55.6801C169.233 54.7751 170.253 53.0501 170.312 51.0621C170.378 48.8681 169.344 46.9321 167.795 46.3211C166.281 47.2221 165.304 49.1781 165.228 51.3821C165.205 52.0511 165.283 52.6701 165.428 53.2331C165.428 53.2331 164.88 52.6981 164.332 52.1631C164.063 51.8901 163.781 51.6311 163.559 51.4481C163.342 51.2591 163.198 51.1341 163.198 51.1341L162.782 50.7721C162.784 49.3011 162.103 47.6511 160.673 46.4831C158.917 45.1231 156.774 44.8061 155.205 45.5121C154.996 47.2711 155.771 49.2101 157.422 50.4861C158.769 51.5871 160.365 52.0241 161.853 51.8131L162.263 52.1691C162.263 52.1691 162.405 52.2931 162.619 52.4781C162.837 52.6591 163.115 52.9141 163.38 53.1831C163.92 53.7101 164.46 54.2371 164.46 54.2371C163.901 54.1131 163.297 54.0651 162.656 54.1321C160.537 54.3511 158.695 55.7041 157.929 57.2091C158.568 58.4831 160.155 59.2871 162.287 59.0541C164.207 58.8441 165.952 57.9261 166.912 56.6471L167.275 57.0451L169.31 59.2741C168.755 59.1141 168.15 59.0271 167.5 59.0491C165.354 59.1221 163.47 60.2791 162.566 61.7461C163.053 63.1141 164.672 63.9491 166.788 63.9021C168.669 63.8801 170.49 63.0881 171.545 61.8841L171.885 62.3021C171.885 62.3021 172.361 62.8881 172.837 63.4731C173.075 63.7661 173.313 64.0581 173.491 64.2781C173.673 64.4951 173.78 64.6501 173.78 64.6501C173.248 64.4411 172.632 64.3231 171.98 64.2981C169.813 64.2241 167.84 65.2411 166.834 66.6301C167.04 67.3201 167.53 67.9021 168.241 68.3211C168.941 68.7481 169.814 69.0491 170.871 69.1051C172.768 69.2121 174.652 68.5551 175.791 67.4381L176.106 67.8751C176.106 67.8751 176.216 68.0281 176.382 68.2581C176.545 68.4891 176.777 68.7881 176.971 69.1111C177.376 69.7481 177.781 70.3841 177.781 70.3841C177.265 70.1361 176.688 69.9521 176.05 69.8721C173.921 69.6181 171.834 70.5101 170.743 71.8061C170.921 72.4921 171.342 73.1251 171.985 73.6191C172.634 74.1091 173.516 74.4541 174.57 74.5871C176.476 74.8241 178.406 74.3111 179.627 73.2841L179.89 73.7541L181.36 76.3901C180.857 76.1081 180.288 75.8851 179.651 75.7591C177.547 75.3421 175.452 76.0431 174.238 77.2671C174.405 78.7081 175.768 79.8991 177.863 80.3201C179.696 80.7261 181.648 80.3691 182.949 79.4361L183.183 79.9211L184.497 82.6381C184.009 82.3221 183.451 82.0601 182.818 81.8891C180.729 81.3241 178.578 81.8661 177.281 82.9901C177.366 84.4261 178.674 85.6981 180.651 86.3141C182.469 86.8501 184.451 86.6411 185.815 85.8121L186.021 86.3101C186.021 86.3101 186.309 87.0071 186.597 87.7051C186.844 88.4181 187.09 89.1311 187.09 89.1311C186.647 88.7721 186.129 88.4601 185.528 88.2361C183.476 87.5171 181.273 87.9001 179.904 88.9171C179.945 90.3291 180.992 91.7571 182.997 92.4941C184.79 93.1611 186.791 93.1021 188.211 92.3821L188.383 92.8921L189.195 95.7991C188.772 95.4091 188.272 95.0611 187.683 94.7921C185.738 93.9041 183.542 94.1071 182.077 95.0221C181.905 96.4641 182.94 97.9391 184.887 98.8271C186.626 99.6291 188.563 99.7391 190.057 99.1241L190.171 99.6511L190.808 102.601C190.408 102.181 189.929 101.797 189.355 101.486C187.461 100.456 185.247 100.491 183.724 101.29C183.595 102 183.767 102.741 184.21 103.433C184.663 104.123 185.363 104.77 186.251 105.295C187.887 106.235 189.86 106.485 191.38 105.989L191.462 106.522C191.462 106.522 191.576 107.268 191.691 108.014C191.822 108.758 191.883 109.51 191.883 109.51C191.55 109.057 191.092 108.639 190.534 108.286C188.701 107.117 186.482 106.984 184.911 107.662C184.736 108.359 184.876 109.108 185.262 109.832C185.613 110.561 186.238 111.263 187.112 111.852C188.692 112.913 190.648 113.311 192.198 112.933L192.247 113.469C192.247 113.469 192.264 113.657 192.29 113.939C192.319 114.221 192.352 114.597 192.355 114.974C192.378 115.728 192.401 116.483 192.401 116.483C192.084 116.007 191.683 115.554 191.175 115.158C189.489 113.85 187.225 113.552 185.63 114.107C185.22 115.468 185.794 117.15 187.493 118.457C189.007 119.635 190.936 120.179 192.505 119.919C192.505 119.919 192.508 120.054 192.512 120.188C192.511 120.323 192.509 120.457 192.509 120.457C192.509 120.457 192.501 121.212 192.493 121.966C192.471 122.72 192.449 123.475 192.449 123.475C192.162 122.976 191.79 122.494 191.307 122.061C189.687 120.629 187.52 120.161 185.858 120.595C185.301 121.923 185.854 123.646 187.404 125.075C188.815 126.362 190.663 127.048 192.261 126.907L192.222 127.444C192.222 127.444 192.166 128.197 192.09 128.947C192.025 129.699 191.935 130.448 191.935 130.448C191.695 129.93 191.354 129.42 190.899 128.952C189.41 127.404 187.262 126.773 185.582 127.081C184.926 128.361 185.348 130.119 186.785 131.661C188.091 133.05 189.893 133.876 191.491 133.857L191.407 134.389C191.407 134.389 191.285 135.134 191.163 135.878C191.03 136.621 190.896 137.363 190.896 137.363C190.687 136.826 190.387 136.293 189.974 135.791C188.603 134.133 186.512 133.342 184.812 133.52C184.073 134.748 184.337 136.527 185.668 138.177C186.85 139.659 188.595 140.623 190.188 140.726L190.066 141.251C190.066 141.251 189.887 141.984 189.708 142.717C189.515 143.447 189.323 144.176 189.323 144.176C189.157 143.625 188.903 143.071 188.531 142.54C187.278 140.778 185.273 139.834 183.556 139.88C182.715 141.045 182.86 142.843 184.047 144.587C185.124 146.159 186.773 147.249 188.359 147.476L188.2 147.99L187.76 149.326C187.641 149.683 187.84 150.075 188.204 150.201C188.568 150.327 188.961 150.134 189.082 149.77L189.528 148.413L189.69 147.891C191.114 148.61 193.112 148.672 194.914 147.776C196.912 146.789 198.026 144.925 197.849 143.279C196.359 142.393 194.106 142.464 192.178 143.47C191.585 143.773 191.086 144.141 190.667 144.541C190.667 144.541 190.862 143.8 191.058 143.059C191.24 142.315 191.421 141.57 191.421 141.57L191.544 141.037C193.025 141.646 195.005 141.55 196.745 140.521C198.649 139.381 199.634 137.441 199.321 135.813C197.76 135.043 195.538 135.289 193.68 136.437C193.114 136.785 192.648 137.191 192.263 137.622C192.263 137.622 192.398 136.868 192.534 136.114C192.658 135.358 192.781 134.602 192.781 134.602L192.866 134.062C194.387 134.555 196.365 134.31 198.008 133.149C199.835 131.869 200.647 129.859 200.223 128.261C198.606 127.612 196.412 128.026 194.643 129.313C194.11 129.704 193.678 130.144 193.317 130.603C193.317 130.603 193.408 129.842 193.474 129.079C193.551 128.317 193.608 127.553 193.608 127.553L193.648 127.007C195.197 127.382 197.162 126.988 198.708 125.706C200.432 124.292 201.09 122.228 200.546 120.668C198.895 120.143 196.716 120.72 195.067 122.136C194.559 122.566 194.155 123.037 193.838 123.522C193.838 123.522 193.861 122.756 193.883 121.991C193.891 121.225 193.899 120.459 193.899 120.459C193.899 120.459 193.901 120.322 193.902 120.186C193.899 120.049 193.895 119.913 193.895 119.913C195.481 120.171 197.376 119.63 198.812 118.236C200.378 116.699 200.987 114.587 200.282 113.074C198.566 112.676 196.505 113.412 194.93 114.95C194.449 115.417 194.076 115.917 193.789 116.425C193.789 116.425 193.766 115.659 193.742 114.894C193.739 114.511 193.706 114.129 193.676 113.843C193.65 113.557 193.632 113.366 193.632 113.366L193.582 112.821C195.179 112.959 197.036 112.277 198.381 110.775C199.126 109.946 199.599 108.996 199.798 108.068C199.963 107.144 199.828 106.246 199.441 105.515C197.724 105.245 195.663 106.145 194.262 107.792C193.841 108.291 193.53 108.816 193.264 109.346C193.264 109.346 193.201 108.582 193.069 107.827C192.953 107.07 192.837 106.313 192.837 106.313L192.754 105.772C194.353 105.788 196.161 104.965 197.407 103.362C198.114 102.473 198.489 101.494 198.57 100.562C198.661 99.6281 198.482 98.7371 198.048 98.0361C196.323 97.8971 194.329 98.9541 193.035 100.708C192.643 101.24 192.364 101.789 192.173 102.331L191.527 99.3351L191.412 98.8001C192.99 98.6981 194.78 97.7271 195.863 96.0421C197.044 94.1871 197.059 92.0141 196.11 90.6751C194.387 90.6671 192.472 91.8761 191.294 93.7311C190.937 94.2941 190.694 94.8641 190.536 95.4221L189.711 92.4711L189.536 91.9531C191.125 91.7231 192.773 90.6371 193.726 88.8721C194.766 86.9301 194.712 84.7261 193.561 83.5041C191.821 83.6361 190.033 84.9791 189.046 86.9011C188.727 87.4921 188.52 88.0831 188.398 88.6541C188.398 88.6541 188.147 87.9301 187.897 87.2061C187.605 86.4981 187.312 85.7901 187.312 85.7901L187.103 85.2841C188.665 84.9341 190.233 83.7211 191.069 81.8801C192.036 79.8281 191.659 77.7081 190.482 76.5461C188.768 76.8061 187.072 78.2901 186.223 80.2891C185.966 80.8951 185.823 81.4921 185.764 82.0621L184.43 79.3031L184.192 78.8111C185.719 78.3441 187.198 77.0101 187.911 75.1001C188.64 73.0221 188.142 70.9151 186.907 69.8311C185.225 70.2181 183.639 71.8311 182.923 73.9021C182.706 74.5301 182.602 75.1401 182.579 75.7181L181.086 73.0421L180.819 72.5651C182.318 71.9851 183.68 70.5491 184.198 68.6191Z" fill="#183041"/>
<path d="M6.14284 129.319C4.37384 128.033 2.17885 127.619 0.562849 128.267C0.138849 129.865 0.950845 131.875 2.77784 133.155C4.42084 134.316 6.39884 134.561 7.91984 134.068L8.00483 134.608C8.00483 134.608 8.12884 135.364 8.25184 136.12C8.38684 136.874 8.52284 137.628 8.52284 137.628C8.13784 137.197 7.67185 136.791 7.10585 136.443C5.24685 135.295 3.02486 135.048 1.46486 135.819C1.15086 137.448 2.13685 139.388 4.04085 140.527C5.78085 141.557 7.76083 141.653 9.24183 141.044L9.36586 141.576C9.36586 141.576 9.54783 142.32 9.72883 143.065C9.92383 143.806 10.1199 144.547 10.1199 144.547C9.70085 144.147 9.20184 143.778 8.60884 143.475C6.68084 142.469 4.42786 142.398 2.93886 143.284C2.76186 144.93 3.87585 146.794 5.87385 147.781C7.67585 148.678 9.67385 148.615 11.0979 147.896L11.2598 148.419L11.7059 149.776C11.8269 150.14 12.2199 150.332 12.5849 150.206C12.9489 150.08 13.1479 149.688 13.0289 149.331L12.5888 147.995L12.4288 147.481C14.0148 147.254 15.6639 146.163 16.7409 144.592C17.9289 142.848 18.0728 141.05 17.2328 139.885C15.5158 139.839 13.5109 140.784 12.2579 142.545C11.8859 143.076 11.6318 143.631 11.4658 144.182C11.4658 144.182 11.2729 143.451 11.0809 142.722C10.9019 141.989 10.7238 141.256 10.7238 141.256L10.6018 140.731C12.1948 140.628 13.9398 139.664 15.1218 138.182C16.4528 136.532 16.7169 134.753 15.9779 133.525C14.2769 133.346 12.1868 134.137 10.8158 135.796C10.4028 136.297 10.1028 136.831 9.89384 137.368C9.89384 137.368 9.76084 136.625 9.62684 135.882C9.50484 135.137 9.38286 134.393 9.38286 134.393L9.29884 133.861C10.8978 133.88 12.6998 133.054 14.0048 131.665C15.4418 130.123 15.8638 128.366 15.2078 127.085C13.5278 126.777 11.3799 127.407 9.89085 128.956C9.43585 129.425 9.09484 129.934 8.85484 130.453C8.85484 130.453 8.76484 129.704 8.69984 128.952C8.62384 128.201 8.56785 127.449 8.56785 127.449L8.52885 126.912C10.1269 127.052 11.9748 126.367 13.3858 125.08C14.9358 123.651 15.4888 121.928 14.9328 120.6C13.2708 120.166 11.1038 120.633 9.48384 122.066C9.00084 122.499 8.62884 122.981 8.34184 123.48C8.34184 123.48 8.31983 122.726 8.29783 121.971C8.28983 121.216 8.28184 120.462 8.28184 120.462C8.28184 120.462 8.28085 120.327 8.27885 120.193C8.28185 120.058 8.28584 119.924 8.28584 119.924C9.85584 120.184 11.7848 119.64 13.2978 118.462C14.9978 117.155 15.5708 115.472 15.1608 114.112C13.5658 113.556 11.3019 113.854 9.61586 115.163C9.10886 115.559 8.70685 116.012 8.39085 116.488C8.39085 116.488 8.41384 115.734 8.43684 114.979C8.43984 114.601 8.47184 114.226 8.50184 113.944C8.52784 113.662 8.54484 113.474 8.54484 113.474L8.59385 112.938C10.1429 113.316 12.0998 112.917 13.6788 111.857C14.5528 111.268 15.1779 110.566 15.5289 109.837C15.9149 109.113 16.0548 108.364 15.8798 107.667C14.3078 106.988 12.0888 107.122 10.2568 108.291C9.69785 108.644 9.24084 109.062 8.90684 109.515C8.90684 109.515 8.96783 108.762 9.09883 108.019C9.21283 107.273 9.32783 106.527 9.32783 106.527L9.40983 105.994C10.9298 106.489 12.9028 106.24 14.5388 105.3C15.4268 104.775 16.1268 104.127 16.5798 103.438C17.0218 102.746 17.1948 102.005 17.0658 101.295C15.5428 100.496 13.3289 100.461 11.4349 101.491C10.8609 101.802 10.3809 102.186 9.98185 102.606L10.6188 99.6565L10.7319 99.1295C12.2269 99.7445 14.1628 99.6345 15.9028 98.8325C17.8498 97.9445 18.8858 96.4695 18.7128 95.0275C17.2478 94.1125 15.0519 93.9085 13.1069 94.7975C12.5179 95.0655 12.0178 95.4135 11.5948 95.8045L12.4068 92.8975L12.5788 92.3875C13.9988 93.1075 16.0008 93.1675 17.7928 92.4995C19.7968 91.7625 20.8448 90.3355 20.8858 88.9225C19.5168 87.9055 17.3139 87.5225 15.2619 88.2415C14.6609 88.4665 14.1428 88.7775 13.6998 89.1365C13.6998 89.1365 13.9469 88.4235 14.1929 87.7105C14.4809 87.0125 14.7688 86.3155 14.7688 86.3155L14.9748 85.8175C16.3398 86.6465 18.3218 86.8565 20.1398 86.3195C22.1158 85.7035 23.4248 84.4315 23.5088 82.9955C22.2118 81.8715 20.0608 81.3285 17.9718 81.8945C17.3388 82.0655 16.7808 82.3275 16.2928 82.6435L17.6069 79.9265L17.8408 79.4415C19.1418 80.3745 21.0938 80.7315 22.9268 80.3255C25.0218 79.9045 26.3848 78.7135 26.5518 77.2725C25.3368 76.0475 23.2428 75.3475 21.1388 75.7645C20.5018 75.8895 19.9329 76.1135 19.4299 76.3955L20.8999 73.7595L21.1629 73.2895C22.3849 74.3165 24.3138 74.8285 26.2198 74.5925C27.2738 74.4595 28.1559 74.1145 28.8049 73.6245C29.4479 73.1305 29.8689 72.4965 30.0469 71.8115C28.9559 70.5155 26.8689 69.6235 24.7399 69.8775C24.1019 69.9585 23.5248 70.1425 23.0088 70.3905C23.0088 70.3905 23.4138 69.7535 23.8188 69.1175C24.0138 68.7935 24.2459 68.4955 24.4089 68.2645C24.5749 68.0355 24.6849 67.8815 24.6849 67.8815L25.0018 67.4405C26.1408 68.5575 28.0249 69.2145 29.9219 69.1075C30.9789 69.0515 31.8528 68.7505 32.5518 68.3235C33.2628 67.9045 33.7528 67.3215 33.9588 66.6325C32.9518 65.2445 30.9798 64.2265 28.8128 64.3005C28.1608 64.3255 27.5448 64.4435 27.0128 64.6525C27.0128 64.6525 27.1198 64.4965 27.3018 64.2805C27.4808 64.0605 27.7188 63.7685 27.9568 63.4755C28.4328 62.8895 28.9089 62.3045 28.9089 62.3045L29.2489 61.8865C30.3039 63.0895 32.1248 63.8815 34.0058 63.9045C36.1218 63.9515 37.7409 63.1165 38.2279 61.7485C37.3229 60.2815 35.4398 59.1245 33.2938 59.0515C32.6438 59.0285 32.0388 59.1165 31.4838 59.2765L33.5188 57.0475L33.8818 56.6495C34.8418 57.9285 36.5868 58.8465 38.5068 59.0565C40.6388 59.2895 42.2258 58.4845 42.8648 57.2115C42.0988 55.7065 40.2558 54.3535 38.1378 54.1345C37.4968 54.0685 36.8928 54.1165 36.3338 54.2395C36.3338 54.2395 36.8738 53.7125 37.4138 53.1855C37.6788 52.9165 37.9568 52.6615 38.1748 52.4805C38.3888 52.2945 38.5308 52.1705 38.5308 52.1705L38.9408 51.8145C40.4288 52.0255 42.0248 51.5895 43.3718 50.4875C45.0238 49.2115 45.7978 47.2715 45.5888 45.5135C44.0198 44.8065 41.8768 45.1245 40.1208 46.4845C38.6908 47.6525 38.0099 49.3025 38.0119 50.7735L37.5958 51.1355C37.5958 51.1355 37.4518 51.2615 37.2348 51.4495C37.0138 51.6335 36.7318 51.8925 36.4618 52.1645C35.9138 52.6995 35.3659 53.2345 35.3659 53.2345C35.5109 52.6705 35.5888 52.0525 35.5658 51.3835C35.4898 49.1795 34.5129 47.2235 32.9989 46.3225C31.4499 46.9335 30.4149 48.8695 30.4819 51.0635C30.5409 53.0515 31.5608 54.7765 32.8778 55.6815L32.5088 56.0855L30.4429 58.3485C30.5519 57.7815 30.5888 57.1645 30.5218 56.5045C30.2958 54.3275 29.1178 52.3995 27.5658 51.6405C26.1208 52.4175 25.1388 54.3385 25.3988 56.5445C25.6568 58.5635 26.7938 60.1975 28.1748 60.9985L27.8298 61.4225C27.8298 61.4225 27.3468 62.0175 26.8638 62.6115C26.6218 62.9085 26.3808 63.2065 26.1998 63.4295C26.0148 63.6495 25.9068 63.8075 25.9068 63.8075C25.9628 63.2265 25.9719 62.6235 25.8569 61.9725C25.4869 59.8355 24.1728 58.0075 22.5618 57.3635C21.8568 57.7945 21.2949 58.5065 20.9559 59.3785C20.6279 60.2585 20.5708 61.3335 20.7818 62.4235C21.1738 64.4035 22.4229 65.9405 23.8649 66.6375L23.5448 67.0815C23.5448 67.0815 23.4328 67.2365 23.2648 67.4695C23.0998 67.7045 22.8639 68.0075 22.6669 68.3355C22.2549 68.9815 21.8439 69.6275 21.8439 69.6275C21.8569 69.0445 21.7918 68.4245 21.6178 67.7775C21.0618 65.6585 19.6538 63.9645 17.9808 63.4325C16.5928 64.3675 16.0398 66.5005 16.5988 68.6205C17.1168 70.5515 18.4788 71.9865 19.9698 72.5715L19.7028 73.0495L18.2099 75.7255C18.1859 75.1475 18.0819 74.5385 17.8659 73.9105C17.1499 71.8395 15.5638 70.2265 13.8818 69.8395C12.6468 70.9225 12.1489 73.0305 12.8779 75.1085C13.5909 77.0185 15.0698 78.3525 16.5968 78.8195L16.3588 79.3115L15.0249 82.0705C14.9649 81.5005 14.8228 80.9045 14.5658 80.2975C13.7168 78.2985 12.0208 76.8155 10.3068 76.5545C9.12984 77.7165 8.75283 79.8365 9.71983 81.8885C10.5558 83.7305 12.1238 84.9425 13.6858 85.2925L13.4768 85.7985C13.4768 85.7985 13.1849 86.5065 12.8919 87.2145C12.6419 87.9385 12.3909 88.6625 12.3909 88.6625C12.2689 88.0915 12.0618 87.5015 11.7428 86.9105C10.7558 84.9875 8.96786 83.6455 7.22786 83.5135C6.07686 84.7365 6.02285 86.9395 7.06285 88.8815C8.01685 90.6465 9.66385 91.7315 11.2529 91.9625L11.0778 92.4805L10.2529 95.4315C10.0949 94.8735 9.85185 94.3035 9.49485 93.7405C8.31685 91.8855 6.40185 90.6755 4.67885 90.6845C3.72885 92.0235 3.74486 94.1955 4.92586 96.0515C6.00886 97.7365 7.79884 98.7075 9.37684 98.8095L9.26185 99.3445L8.61586 102.339C8.42386 101.797 8.14486 101.248 7.75386 100.716C6.45986 98.9625 4.46686 97.9055 2.74086 98.0445C2.30786 98.7455 2.12783 99.6365 2.21983 100.57C2.30083 101.503 2.67586 102.481 3.38286 103.37C4.62886 104.973 6.43785 105.796 8.03685 105.78L7.95384 106.321C7.95384 106.321 7.83785 107.078 7.72185 107.835C7.58885 108.59 7.52684 109.354 7.52684 109.354C7.26084 108.824 6.94985 108.3 6.52885 107.801C5.12785 106.154 3.06684 105.255 1.34984 105.524C0.962836 106.255 0.827841 107.153 0.992841 108.077C1.19184 109.005 1.66483 109.955 2.40983 110.784C3.75483 112.285 5.61284 112.967 7.20884 112.83L7.15886 113.375C7.15886 113.375 7.14185 113.566 7.11485 113.852C7.08485 114.138 7.05184 114.519 7.04884 114.903C7.02584 115.669 7.00184 116.434 7.00184 116.434C6.71484 115.926 6.34183 115.426 5.86183 114.959C4.28683 113.421 2.22584 112.685 0.50984 113.083C-0.19516 114.596 0.412841 116.708 1.97984 118.245C3.41484 119.639 5.31083 120.179 6.89683 119.922C6.89683 119.922 6.89384 120.059 6.88984 120.195C6.89084 120.332 6.89284 120.468 6.89284 120.468C6.89284 120.468 6.90086 121.234 6.90886 122C6.93086 122.766 6.95384 123.531 6.95384 123.531C6.63684 123.046 6.23284 122.575 5.72484 122.145C4.07484 120.729 1.89686 120.152 0.244855 120.677C-0.299145 122.237 0.358838 124.301 2.08284 125.715C3.62884 126.997 5.59484 127.391 7.14284 127.016L7.18284 127.562C7.18284 127.562 7.23985 128.326 7.31685 129.088C7.38285 129.851 7.47383 130.612 7.47383 130.612C7.10783 130.15 6.67584 129.71 6.14284 129.319Z" fill="#183041"/>
<path d="M99.8644 47.5642L99.8694 47.5623L99.8754 47.5642V47.5602L183.379 21.0352L99.8754 0.159241V0.15625L99.8694 0.157257L99.8644 0.15625V0.159241L16.3594 21.7733L99.8644 47.5602V47.5642Z" fill="#183041"/>
</svg>
