<svg width="233" height="207" viewBox="0 0 233 207" fill="none" xmlns="http://www.w3.org/2000/svg">
<path d="M29.0317 173.456L25.4637 176.703L9.47569 159.133L0.679688 166.883L16.6417 172.839L20.5397 189.424L42.2197 170.322L38.2477 165.813C35.0747 168.208 31.9987 170.756 29.0317 173.456Z" fill="#92220F"/>
<path d="M174.252 191.473C172.099 183.238 168.977 179.95 161.23 173.197C161.23 173.197 164.388 178.373 164.762 183.696L163.658 183.77C163.658 183.77 134.961 183.77 117.434 205.341C117.434 205.341 129.183 195.903 147.48 193.014C165.778 190.125 174.252 191.473 174.252 191.473Z" fill="#92220F"/>
<path d="M223.52 159.132L207.532 176.702L203.964 173.455C200.997 170.755 197.921 168.207 194.749 165.812L190.777 170.32L212.457 189.422L216.355 172.837L232.317 166.881L223.52 159.132Z" fill="#92220F"/>
<path d="M65.8713 183.769L64.7673 183.695C65.1413 178.373 68.2993 173.196 68.2993 173.196C60.5523 179.949 57.4303 183.238 55.2773 191.472C55.2773 191.472 63.7513 190.124 82.0493 193.013C100.346 195.902 112.095 205.34 112.095 205.34C94.5683 183.769 65.8713 183.769 65.8713 183.769Z" fill="#92220F"/>
<path d="M129.503 116.973C129.572 116.156 129.607 115.748 129.676 114.931C129.801 113.451 129.26 112.745 127.891 112.647C127.147 112.594 126.775 112.569 126.031 112.525C125.878 115.074 125.802 116.349 125.648 118.899C126.227 118.934 126.517 118.952 127.096 118.993C128.476 119.088 129.363 118.631 129.503 116.973Z" fill="#92220F"/>
<path d="M207.211 169.888C213.848 162.594 220.485 155.3 227.122 148.006C164.411 90.9432 68.586 90.9432 5.875 148.006C12.512 155.3 19.149 162.594 25.786 169.888C77.21 123.096 155.788 123.096 207.211 169.888ZM191.673 143.901C192.91 138.162 193.446 135.259 194.349 129.4C195.834 130.225 196.573 130.649 198.042 131.516C197.188 135.413 196.726 137.349 195.736 141.192C198.726 138.584 200.251 137.305 203.357 134.798C204.674 135.647 205.328 136.08 206.629 136.964C201.782 140.392 199.425 142.174 194.853 145.859C193.378 148.188 192.641 149.352 191.167 151.681C189.962 150.918 189.356 150.545 188.137 149.815C189.552 147.45 190.259 146.267 191.673 143.901ZM174.983 123.474C175.424 122.371 175.645 121.819 176.086 120.716C180.685 122.556 182.959 123.568 187.438 125.778C186.913 126.844 186.65 127.376 186.124 128.442C184.637 127.708 183.89 127.352 182.389 126.66C179.406 133.134 177.915 136.371 174.932 142.845C173.659 142.258 173.02 141.973 171.735 141.42C174.554 134.873 175.964 131.6 178.784 125.053C177.27 124.401 176.51 124.085 174.983 123.474ZM163.841 116.386C165.362 116.855 166.121 117.1 167.633 117.608C164.984 125.491 163.659 129.433 161.01 137.316C159.694 136.874 159.034 136.661 157.71 136.253C160.162 128.306 161.388 124.333 163.841 116.386ZM140.515 127.062C140.6 126.558 140.642 126.306 140.727 125.803C142.067 126.028 142.737 126.148 144.073 126.404C143.961 126.987 143.905 127.279 143.793 127.862C143.513 129.32 144.102 129.975 145.197 130.2C146.292 130.425 147.093 130.055 147.41 128.604C148.324 124.426 141.421 122.275 142.409 116.418C142.962 113.138 145.235 111.559 149.012 112.337C152.789 113.115 154.261 115.467 153.471 118.698C153.409 118.952 153.378 119.079 153.316 119.333C151.911 118.99 151.206 118.826 149.795 118.516C149.869 118.179 149.906 118.011 149.98 117.675C150.299 116.225 149.729 115.518 148.516 115.268C147.304 115.017 146.502 115.44 146.219 116.898C145.404 121.097 152.347 123.439 150.935 129.208C150.144 132.439 147.994 133.839 144.687 133.159C141.378 132.476 139.964 130.342 140.515 127.062ZM122.273 109.372C124.651 109.456 125.839 109.52 128.213 109.692C132.289 109.987 133.862 111.786 133.513 114.974C133.442 115.624 133.406 115.948 133.335 116.598C133.103 118.723 132.175 120.019 130.478 120.548C132.248 121.399 132.664 123.038 132.427 125.193C132.287 126.468 132.217 127.106 132.077 128.381C131.967 129.385 131.919 130.126 132.174 130.932C130.784 130.776 130.089 130.707 128.696 130.586C128.556 130.037 128.458 129.701 128.601 128.015C128.711 126.713 128.767 126.062 128.877 124.76C129.04 122.836 128.376 122.057 126.725 121.944C126.223 121.91 125.972 121.894 125.47 121.864C125.267 125.244 125.166 126.933 124.963 130.313C123.593 130.231 122.908 130.198 121.537 130.15C121.832 121.839 121.979 117.683 122.273 109.372ZM112.677 109.321C112.706 110.509 112.721 111.103 112.75 112.29C110.079 112.355 108.743 112.417 106.076 112.596C106.231 114.907 106.309 116.063 106.464 118.374C108.506 118.237 109.528 118.186 111.572 118.118C111.612 119.305 111.631 119.899 111.671 121.087C109.667 121.154 108.665 121.204 106.663 121.338C106.826 123.768 106.908 124.983 107.071 127.413C109.486 127.251 110.696 127.196 113.115 127.136C113.144 128.324 113.159 128.917 113.188 130.105C109.448 130.197 107.578 130.305 103.85 130.648C103.088 122.367 102.708 118.226 101.946 109.945C106.23 109.551 108.379 109.427 112.677 109.321ZM83.492 112.73C86.079 119.117 87.31 122.33 89.649 128.79C89.433 121.924 89.388 118.484 89.426 111.594C90.857 111.348 91.574 111.233 93.008 111.019C92.7 119.473 92.646 123.695 92.74 132.12C90.719 132.471 89.71 132.665 87.7 133.091C84.651 125.236 83.029 121.336 79.591 113.605C81.148 113.235 81.928 113.06 83.492 112.73ZM70.843 115.945C73.22 123.914 74.409 127.899 76.785 135.869C75.458 136.265 74.797 136.471 73.478 136.9C70.904 128.992 69.617 125.038 67.042 117.13C68.558 116.637 69.318 116.4 70.843 115.945ZM50.431 123.582C53.994 127.431 55.721 129.393 59.062 133.384C57.122 128.799 56.153 126.507 54.213 121.923C55.53 121.366 56.191 121.094 57.518 120.568C60.587 128.297 62.121 132.162 65.19 139.891C63.859 140.42 63.196 140.693 61.876 141.257C57.909 136.402 55.843 134.023 51.55 129.376C54.088 134.839 55.357 137.57 57.895 143.032C56.751 143.564 56.181 143.837 55.046 144.396C51.372 136.936 49.534 133.205 45.86 125.745C47.677 124.85 48.592 124.417 50.431 123.582ZM30.03 134.698C33.498 140.095 35.233 142.793 38.701 148.19C39.504 149.44 40.404 149.492 41.384 148.88C42.364 148.268 42.709 147.438 41.939 146.167C38.614 140.68 36.952 137.937 33.628 132.45C34.949 131.649 35.613 131.257 36.948 130.491C40.098 135.984 41.673 138.73 44.823 144.223C46.478 147.109 45.85 149.624 42.89 151.475C39.93 153.326 37.369 152.807 35.499 150.056C31.94 144.819 30.16 142.2 26.601 136.963C27.964 136.039 28.65 135.585 30.03 134.698Z" fill="#92220F"/>
<path d="M29.3583 124.544C31.0483 123.528 32.7493 122.533 34.4703 121.578C29.6853 106.425 30.2333 88.8261 36.2473 71.8721C44.4593 48.6721 39.2773 34.0281 36.6693 28.8091L34.0603 23.5901L39.2983 21.0211C46.2763 17.5981 53.6553 14.6011 61.2293 12.1111L64.9823 10.8781L67.5003 13.9231C71.0973 18.2731 76.3673 20.7681 81.9593 20.7681C89.3213 20.7681 96.0463 16.4191 99.0923 9.69012L100.633 6.28711H129.074L130.614 9.69012C133.659 16.4191 140.384 20.7681 147.747 20.7681C153.349 20.7681 158.627 18.2521 162.229 13.8661L164.742 10.8061C170.135 12.5701 175.484 14.4751 180.741 16.6121C185.841 18.6851 190.659 21.3571 195.713 23.4921C194.836 25.2311 193.953 26.9821 193.074 28.7261C190.446 33.9421 185.222 48.5861 193.471 71.8741C199.275 88.2621 199.974 105.25 195.694 120.048C197.441 120.974 199.17 121.936 200.886 122.924C205.911 106.67 205.302 87.9311 198.93 69.9401C191.427 48.7571 195.952 35.8831 198.246 31.3321C198.246 31.3321 202.993 21.9131 203.338 21.2301C184.591 11.2931 171.063 6.41512 162.825 4.05212C162.808 4.06112 162.784 4.06612 162.773 4.07812C162.56 4.33713 157.755 10.1901 157.755 10.1901C155.257 13.2311 151.609 14.9761 147.748 14.9761C142.655 14.9761 138.001 11.9631 135.891 7.30212L132.811 0.495117H96.8983L93.8173 7.30112C91.7073 11.9631 87.0533 14.9761 81.9603 14.9761C78.1003 14.9761 74.4573 13.2471 71.9643 10.2321L66.9293 4.14212L59.4223 6.60913C51.5943 9.18213 43.9663 12.2811 36.7493 15.8211L26.2723 20.9601L31.4903 31.3981C33.7683 35.9551 38.2603 48.8341 30.7903 69.9361C24.1933 88.5301 23.7753 107.918 29.3583 124.544Z" fill="#183041"/>
<path d="M114.858 175.81C114.925 175.889 114.98 175.936 114.98 175.936V175.676C116.733 173.781 129.325 161.165 157.96 152.363C160.682 151.527 163.238 150.477 165.647 149.255C150.193 142.941 133.535 139.619 116.5 139.619C98.8129 139.619 81.5349 143.203 65.5859 149.996C67.5429 150.902 69.5879 151.702 71.7409 152.364C100.383 161.167 112.968 173.783 114.736 175.677V175.937C114.736 175.937 114.783 175.889 114.858 175.81Z" fill="#183041"/>
<path d="M170.979 193.732C171.4 194.859 172.007 196.779 171.932 198.346C166.709 197.638 163.779 197.38 161.932 197.284C152.841 196.935 139.253 197.751 129.066 204.19C129.066 204.19 147.288 200.525 164.236 203.221C164.641 203.285 165.034 203.349 165.419 203.412C165.419 203.412 166.232 203.539 167.604 203.781C169.947 204.189 171.873 204.566 173.448 204.911C175.516 205.343 177.849 205.867 180.275 206.476C178.461 201.295 175.317 197.078 170.979 193.732Z" fill="#183041"/>
<path d="M67.5989 197.284C65.7519 197.38 62.8219 197.638 57.5989 198.346C57.5239 196.778 58.1309 194.858 58.5519 193.732C54.2139 197.079 51.0699 201.295 49.2539 206.477C51.6809 205.868 54.0129 205.345 56.0819 204.912C57.6569 204.567 59.5829 204.19 61.9259 203.782C63.2979 203.539 64.1109 203.413 64.1109 203.413C64.4959 203.35 64.8889 203.286 65.2949 203.222C82.2429 200.525 100.465 204.191 100.465 204.191C90.2779 197.751 76.6899 196.935 67.5989 197.284Z" fill="#183041"/>
<path d="M161.358 163.435C167.536 161.538 173.168 158.758 178.196 155.19C176.244 154.136 174.268 153.131 172.267 152.18C168.408 154.583 164.196 156.506 159.658 157.899C136.702 164.956 124.833 174.354 120.769 178.095L115.14 183.695L108.945 178.109C104.842 174.354 92.8909 164.922 70.0368 157.899C66.0719 156.681 62.3609 155.05 58.9099 153.058C56.9029 154.051 54.9218 155.098 52.9648 156.196C57.6148 159.282 62.7518 161.72 68.3348 163.435C90.0708 170.115 101.241 178.911 105.067 182.411L115.336 191.669L124.771 182.283C128.599 178.779 139.681 170.098 161.358 163.435Z" fill="#183041"/>
<path d="M141.954 102.311C158.832 104.869 175.156 109.955 190.418 117.374C193.993 104.036 193.266 88.6421 188.012 73.8081C179.121 48.7051 184.687 32.5011 187.903 26.1201C182.548 23.5021 177.03 21.1691 171.371 19.1291C171.274 19.2911 171.22 19.4631 171.118 19.6251L171.318 19.1091C169.793 18.5601 168.25 18.0471 166.704 17.5411C162.198 23.0291 155.403 26.5591 147.746 26.5591C137.77 26.5591 129.199 20.6111 125.337 12.0781H104.367C100.505 20.6111 91.9349 26.5591 81.9579 26.5591C74.3299 26.5591 67.5429 23.0651 63.0359 17.6131C55.7409 20.0111 48.6589 22.8791 41.8479 26.2201C45.0759 32.6771 50.5379 48.8501 41.7039 73.8081C36.2509 89.1791 35.6559 105.153 39.6809 118.815C55.3269 110.836 72.1419 105.332 89.5679 102.534C74.6159 93.9071 61.8919 81.8521 52.5089 67.4131C59.5609 70.9901 67.5379 73.0081 75.9859 73.0081C91.8189 73.0081 105.996 65.9261 115.528 54.7601C111.34 64.4601 109.014 75.1531 109.014 86.3911C109.014 91.2111 109.452 95.9271 110.271 100.511C112.341 100.435 114.415 100.386 116.494 100.386C117.959 100.386 119.421 100.409 120.881 100.447C121.693 95.8831 122.126 91.1881 122.126 86.3911C122.126 75.1541 119.801 64.4601 115.613 54.7601C125.146 65.9261 139.322 73.0081 155.155 73.0081C163.604 73.0081 171.58 70.9901 178.632 67.4131C169.331 81.7301 156.741 93.7001 141.954 102.311ZM85.5109 61.4571C78.5719 62.4991 72.1019 57.7191 71.0599 50.7811C70.0169 43.8421 74.7969 37.3721 81.7359 36.3301C88.6749 35.2881 95.1449 40.0681 96.1869 47.0061C97.2299 53.9451 92.4499 60.4151 85.5109 61.4571ZM160.084 50.7811C159.042 57.7201 152.572 62.5001 145.633 61.4571C138.694 60.4151 133.914 53.9451 134.957 47.0061C135.999 40.0671 142.469 35.2871 149.408 36.3301C156.347 37.3721 161.126 43.8421 160.084 50.7811Z" fill="#183041"/>
</svg>
