<svg width="232" height="211" viewBox="0 0 232 211" fill="none" xmlns="http://www.w3.org/2000/svg">
<path d="M68.0985 141.203C68.5235 142.757 69.4035 143.149 70.5505 142.849C71.6965 142.549 72.2725 141.777 71.8825 140.214C70.7025 135.486 70.1125 133.121 68.9335 128.393C68.5435 126.83 67.6025 126.431 66.3455 126.759C65.0875 127.088 64.4615 127.897 64.8865 129.451C66.1705 134.152 66.8135 136.502 68.0985 141.203Z" fill="#92220F"/>
<path d="M114.603 26.0262H115.228H115.967L120.515 0.365234H115.228H114.603H109.316L113.863 26.0262H114.603Z" fill="#92220F"/>
<path d="M133.332 28.2436L134.039 28.4596L145.89 5.24959L140.834 3.70459L140.237 3.52159L135.181 1.97559L132.027 27.8446L132.734 28.0616L133.332 28.2436Z" fill="#92220F"/>
<path d="M149.994 35.6571L150.608 36.0701L168.727 17.3401L164.344 14.3831L163.826 14.0341L159.442 11.0771L148.863 34.8941L149.476 35.3071L149.994 35.6571Z" fill="#92220F"/>
<path d="M96.5004 28.2436L97.0974 28.0616L97.8044 27.8446L94.6514 1.97559L89.5954 3.52159L88.9974 3.70459L83.9414 5.24959L95.7934 28.4596L96.5004 28.2436Z" fill="#92220F"/>
<path d="M178.108 80.0782L178.162 80.7002L178.227 81.4372L204.186 83.7312L203.725 78.4642L203.671 77.8412L203.21 72.5742L178.043 79.3412L178.108 80.0782Z" fill="#92220F"/>
<path d="M114.954 32.4658C86.9397 32.4658 63.5527 52.2628 58.0117 78.6288C59.5987 77.8908 61.1987 77.1808 62.8417 76.5528C66.4987 75.1528 70.2637 74.0288 74.1017 73.2478C81.7017 71.7018 89.6177 71.4988 97.2037 73.2318C100.789 74.0508 104.284 75.2818 107.551 76.9748C109.194 77.8258 110.779 78.7888 112.292 79.8548C112.997 80.3518 113.687 80.8718 114.359 81.4118C114.543 81.5598 114.726 81.7088 114.907 81.8598C114.967 81.9098 115.027 81.9608 115.088 82.0108C115.207 82.2128 115.327 82.2128 115.447 82.0108C115.886 81.8278 116.352 81.2678 116.733 80.9728C129.114 71.3778 145.656 70.2468 160.385 74.1778C164.086 75.1658 167.703 76.4588 171.21 77.9978C171.415 78.0878 171.616 78.1858 171.821 78.2778C166.146 52.0878 142.844 32.4658 114.954 32.4658Z" fill="#92220F"/>
<path d="M79.8336 35.6571L80.3516 35.3071L80.9646 34.8941L70.3856 11.0771L66.0026 14.0341L65.4846 14.3831L61.1016 17.3401L79.2206 36.0701L79.8336 35.6571Z" fill="#92220F"/>
<path d="M173.199 62.5052L173.433 63.0842L173.71 63.7692L199.206 58.3732L197.225 53.4712L196.991 52.8922L195.011 47.9902L172.922 61.8192L173.199 62.5052Z" fill="#92220F"/>
<path d="M163.371 47.133L163.764 47.619L164.23 48.193L187.034 35.579L183.706 31.47L183.313 30.984L179.986 26.876L162.906 46.559L163.371 47.133Z" fill="#92220F"/>
<path d="M56.3941 63.0842L56.6281 62.5052L56.9051 61.8192L34.8171 47.9902L32.8361 52.8922L32.6021 53.4712L30.6211 58.3732L56.1171 63.7692L56.3941 63.0842Z" fill="#92220F"/>
<path d="M66.0659 47.619L66.4599 47.133L66.9249 46.559L49.8449 26.876L46.5169 30.984L46.1239 31.47L42.7969 35.579L65.6009 48.193L66.0659 47.619Z" fill="#92220F"/>
<path d="M51.6685 80.7002L51.7235 80.0782L51.7875 79.3412L26.6215 72.5742L26.1605 77.8412L26.1055 78.4642L25.6445 83.7312L51.6045 81.4372L51.6685 80.7002Z" fill="#92220F"/>
<path d="M220.831 158.124L209.364 176.192L205.201 173.551C202.278 171.696 199.298 169.955 196.282 168.291L192.496 174.39L216.001 188.981L217.046 172.703L231.171 164.543L220.831 158.124Z" fill="#92220F"/>
<path d="M24.7745 173.551L20.6125 176.192L9.72546 159.036L0.855469 164.542L14.9795 172.702L16.0245 188.98L39.5295 174.389L35.2155 167.439C31.6735 169.347 28.1905 171.383 24.7745 173.551Z" fill="#92220F"/>
<path d="M207.84 169.389C212.76 161.636 217.68 153.883 222.6 146.13C156.913 104.443 73.0591 104.443 7.37109 146.13C12.2911 153.883 17.2111 161.636 22.1311 169.389C78.8101 133.42 151.162 133.42 207.84 169.389ZM182.763 130.278C187.026 131.905 189.141 132.785 193.326 134.674C192.796 135.849 192.53 136.436 192 137.612C189.394 136.435 188.082 135.873 185.445 134.799C184.498 137.127 184.024 138.292 183.077 140.62C185.104 141.445 186.113 141.873 188.12 142.76C187.599 143.939 187.338 144.529 186.817 145.708C184.845 144.836 183.854 144.415 181.863 143.605C180.867 146.053 180.369 147.277 179.374 149.724C181.787 150.706 182.987 151.221 185.371 152.297C184.84 153.472 184.575 154.06 184.045 155.235C180.351 153.567 178.485 152.791 174.722 151.355C177.936 142.924 179.545 138.709 182.763 130.278ZM153.638 139.282C154.694 134.71 155.223 132.424 156.279 127.853C157.092 124.335 159.619 122.77 163.561 123.815C167.504 124.861 168.935 127.477 167.898 130.934C167.646 131.773 167.52 132.193 167.269 133.032C165.823 132.598 165.098 132.389 163.645 131.985C163.904 131.054 164.033 130.588 164.292 129.656C164.723 128.104 164.099 127.292 162.844 126.958C161.587 126.624 160.645 127.019 160.248 128.581C159.049 133.305 158.449 135.666 157.25 140.39C156.853 141.951 157.433 142.694 158.58 142.999C159.726 143.304 160.6 142.947 161.031 141.395C161.476 139.792 161.699 138.991 162.144 137.389C161.467 137.201 161.127 137.108 160.448 136.927C160.781 135.682 160.947 135.059 161.28 133.813C163.408 134.382 164.469 134.683 166.583 135.317C165.761 138.058 165.35 139.429 164.527 142.17C163.49 145.628 161.116 147.04 157.646 146.12C154.176 145.2 152.825 142.8 153.638 139.282ZM133.105 118.572C137.578 119.014 139.811 119.3 144.258 120.003C144.056 121.276 143.956 121.913 143.754 123.187C140.984 122.749 139.596 122.556 136.816 122.221C136.515 124.716 136.365 125.964 136.065 128.46C138.202 128.717 139.268 128.862 141.398 129.182C141.206 130.457 141.11 131.094 140.919 132.369C138.827 132.054 137.779 131.912 135.68 131.66C135.364 134.284 135.206 135.595 134.89 138.219C137.434 138.525 138.703 138.702 141.237 139.103C141.035 140.376 140.935 141.013 140.733 142.287C136.807 141.666 134.837 141.413 130.889 141.023C131.775 132.042 132.218 127.553 133.105 118.572ZM113.336 117.644C113.371 125.379 113.389 129.246 113.424 136.98C115.861 136.969 117.079 136.985 119.515 137.059C119.475 138.348 119.456 138.992 119.416 140.28C115.573 140.162 113.65 140.158 109.807 140.258C109.573 131.237 109.455 126.728 109.221 117.706C110.867 117.664 111.69 117.652 113.336 117.644ZM89.4821 119.24C90.4771 126.911 90.9751 130.745 91.9701 138.416C94.3911 138.102 95.6041 137.966 98.0321 137.738C98.1531 139.022 98.2131 139.663 98.3341 140.947C94.5031 141.307 92.5911 141.542 88.7801 142.119C87.4271 133.197 86.7511 128.737 85.3981 119.814C87.0301 119.567 87.8471 119.452 89.4821 119.24ZM65.5291 123.642C69.4741 122.611 72.1051 124.161 72.9031 127.681C73.9401 132.257 74.4591 134.545 75.4971 139.121C76.2951 142.642 74.8371 145.06 71.3651 145.968C67.8921 146.876 65.4271 145.484 64.4001 142.023C63.0651 137.524 62.3981 135.275 61.0631 130.777C60.0361 127.315 61.5831 124.673 65.5291 123.642ZM40.7581 131.951C44.5701 130.377 47.2991 131.59 48.5681 134.97C48.8761 135.79 49.0301 136.2 49.3381 137.021C47.9171 137.555 47.2081 137.829 45.7951 138.393C45.4371 137.495 45.2581 137.046 44.8991 136.148C44.3021 134.652 43.3071 134.386 42.0931 134.887C40.8781 135.388 40.3581 136.278 40.9881 137.76C42.8961 142.244 43.8491 144.487 45.7571 148.971C46.3881 150.453 47.3081 150.689 48.4171 150.232C49.5251 149.775 50.0101 148.96 49.4131 147.464C48.9351 146.267 48.6961 145.668 48.2191 144.471C49.5821 143.927 50.2651 143.663 51.6371 143.148C52.0581 144.27 52.2691 144.832 52.6901 145.954C53.9591 149.334 52.9191 151.897 49.5641 153.282C46.2101 154.667 43.6481 153.591 42.1621 150.301C40.2311 146.025 39.2661 143.886 37.3351 139.61C35.8501 136.319 36.9471 133.525 40.7581 131.951Z" fill="#92220F"/>
<path d="M39.7109 165.116C46.2169 173.396 55.0429 179.761 66.1459 183.171C99.0869 193.295 113.56 207.804 115.594 209.983V210.283C115.594 210.283 115.648 210.229 115.735 210.138C115.812 210.229 115.875 210.283 115.875 210.283V209.983C117.891 207.804 132.373 193.295 165.305 183.171C176.167 179.835 184.857 173.679 191.323 165.665C167.732 153.653 141.643 147.342 114.987 147.342C88.7299 147.342 63.0199 153.455 39.7109 165.116ZM82.8799 176.526L78.0099 172.988L73.1409 176.526L75.0009 170.802L70.1319 167.264H76.1509L78.0109 161.539L79.8709 167.264H85.8899L81.0209 170.802L82.8799 176.526ZM151.593 167.264L153.453 161.539L155.313 167.264H161.332L156.463 170.802L158.323 176.526L153.454 172.988L148.584 176.526L150.444 170.802L145.575 167.264H151.593ZM118.261 169.527H126.445L119.824 174.337L122.353 182.12L115.732 177.31L109.111 182.12L111.64 174.337L105.019 169.527H113.203L115.732 161.743L118.261 169.527Z" fill="#183041"/>
<path d="M168.726 107.377L168.707 107.376C168.719 107.378 168.73 107.38 168.742 107.383L168.726 107.377Z" fill="#183041"/>
<path d="M90.9579 105.303C85.2399 105.786 80.9629 106.29 80.9629 106.29L81.8268 106.394C76.2488 107.005 48.3088 110.637 24.7668 124.169C21.6308 125.972 19.6208 129.468 19.5898 133.324V133.341C19.5898 133.341 19.7319 133.251 20.0089 133.085C20.0009 133.115 19.9979 133.148 19.9889 133.178C49.2619 117.93 81.7688 109.935 114.987 109.935C148.319 109.935 180.934 117.987 210.286 133.337C210.265 133.254 210.255 133.167 210.232 133.084C210.51 133.251 210.651 133.34 210.651 133.34V133.323C210.62 129.467 208.61 125.97 205.474 124.168C181.931 110.636 153.991 107.004 148.414 106.393L149.279 106.289C149.279 106.289 144.969 105.781 139.219 105.296C132.203 104.377 124.184 103.735 115.337 103.724C106.288 103.714 98.0999 104.366 90.9579 105.303Z" fill="#183041"/>
<path d="M64.7534 106.779L64.7305 106.787C64.7485 106.784 64.7654 106.781 64.7834 106.778C64.7734 106.778 64.7634 106.779 64.7534 106.779Z" fill="#183041"/>
<path d="M86.0378 98.5614C83.0008 98.6534 79.8788 98.9914 76.7618 99.5774C73.6998 100.157 70.6418 100.899 67.6378 101.682C61.6158 103.259 55.7339 105.062 50.1869 106.548C47.4269 107.299 44.7219 107.946 42.1609 108.474C39.5889 109.007 37.1378 109.437 34.8648 109.785C30.3188 110.484 26.4908 110.867 23.8098 111.104C21.1238 111.313 19.5898 111.433 19.5898 111.433C19.5898 111.433 21.1308 111.455 23.8268 111.493C26.5248 111.504 30.3828 111.474 35.0158 111.194C37.3318 111.054 39.8419 110.85 42.4929 110.55C45.1559 110.251 47.9308 109.852 50.8018 109.349C55.3038 108.577 60.0038 107.638 64.7308 106.787L64.7538 106.779C64.7638 106.779 64.7738 106.778 64.7838 106.777C66.0498 106.549 67.3178 106.323 68.5848 106.114C71.5988 105.619 74.5858 105.18 77.5198 104.9C80.3988 104.63 83.2439 104.586 85.9759 104.756C87.6969 104.857 89.3499 105.057 90.9589 105.301C98.1009 104.364 106.289 103.712 115.338 103.723C124.185 103.734 132.204 104.376 139.22 105.295C140.847 105.048 142.529 104.858 144.268 104.756C147 104.586 149.844 104.63 152.724 104.9C155.659 105.18 158.645 105.618 161.659 106.114C164.013 106.504 166.367 106.936 168.71 107.374L168.729 107.375L168.745 107.38C172.375 108.059 175.969 108.753 179.442 109.348C182.313 109.851 185.089 110.25 187.751 110.549C190.402 110.848 192.912 111.053 195.228 111.193C199.861 111.474 203.72 111.503 206.417 111.492C209.113 111.454 210.654 111.432 210.654 111.432C210.654 111.432 209.119 111.312 206.434 111.103C203.753 110.866 199.925 110.483 195.379 109.784C193.106 109.435 190.655 109.006 188.083 108.473C185.522 107.944 182.817 107.297 180.057 106.547C174.51 105.061 168.628 103.259 162.606 101.681C159.602 100.898 156.544 100.156 153.482 99.5764C150.364 98.9914 147.243 98.6524 144.206 98.5604C138.687 98.3734 133.472 98.9524 128.976 99.9294C130.402 99.1784 132.07 98.4674 134.033 97.9124C136.182 97.3004 138.628 96.8184 141.294 96.5624C146.62 96.0134 152.715 96.2684 158.746 97.0824C160.258 97.2764 161.765 97.5214 163.265 97.7804C164.917 98.0584 166.369 98.3074 167.971 98.5474C171.205 99.0104 174.298 99.3824 177.319 99.6484C178.825 99.7964 180.309 99.9124 181.759 100.016C183.208 100.134 184.629 100.208 186.009 100.293C188.77 100.453 191.38 100.556 193.787 100.636C196.195 100.71 198.4 100.753 200.354 100.78C202.308 100.801 204.01 100.807 205.411 100.804C208.214 100.795 209.812 100.753 209.812 100.753C209.812 100.753 208.219 100.642 205.445 100.385C204.058 100.255 202.377 100.088 200.453 99.8834C198.529 99.6724 196.364 99.4214 194.01 99.1214C191.658 98.8164 189.116 98.4684 186.447 98.0544C185.114 97.8424 183.742 97.6374 182.355 97.3874C180.963 97.1514 179.546 96.9014 178.118 96.6184C175.253 96.0854 172.32 95.4304 169.472 94.7354C168.041 94.3754 166.465 93.9414 165.068 93.5614C163.531 93.1354 161.974 92.7204 160.386 92.3554C157.22 91.6064 153.963 90.9914 150.661 90.5654C147.364 90.1304 144.016 89.8944 140.703 89.9094C137.392 89.9094 134.111 90.2014 131.012 90.7544C129.909 90.9484 128.834 91.1864 127.79 91.4554C128.172 91.0444 128.572 90.6354 129.004 90.2354C130.54 88.8134 132.411 87.4754 134.672 86.4184C136.924 85.3554 139.537 84.5314 142.412 84.0724C145.288 83.6264 148.395 83.5214 151.538 83.7324C154.683 83.9404 157.857 84.4594 160.922 85.1914C163.99 85.9234 166.95 86.8644 169.741 87.9094C171.223 88.4614 172.596 88.9684 174.029 89.4724C175.513 89.9534 176.953 90.4354 178.368 90.8114C179.769 91.2284 181.171 91.5504 182.51 91.8864C183.869 92.1814 185.166 92.4904 186.439 92.7174C188.964 93.2214 191.316 93.5514 193.393 93.8334C195.479 94.0924 197.301 94.2754 198.806 94.3894C201.815 94.6254 203.541 94.6324 203.541 94.6324C203.541 94.6324 201.828 94.4724 198.901 93.9754C197.437 93.7314 195.675 93.3904 193.677 92.9564C191.688 92.4994 189.453 91.9744 187.09 91.2684C185.897 90.9404 184.692 90.5294 183.437 90.1314C182.204 89.6934 180.917 89.2684 179.651 88.7524C178.352 88.2704 177.111 87.7084 175.833 87.1554C174.554 86.5584 173.192 85.8924 171.892 85.2534C169.14 83.8944 166.153 82.6064 162.929 81.5054C159.707 80.4054 156.242 79.4934 152.591 78.9164C148.945 78.3384 145.104 78.1024 141.272 78.3464C137.444 78.5994 133.657 79.3794 130.259 80.5824C126.846 81.7764 123.884 83.4164 121.44 85.1794C118.993 86.9474 117.022 88.8334 115.484 90.6544C115.374 90.7844 115.278 90.9104 115.171 91.0394C115.167 91.0354 115.164 91.0304 115.16 91.0264V92.8134L115.087 92.6754V91.0264C115.083 91.0304 115.08 91.0354 115.076 91.0394C114.969 90.9104 114.873 90.7844 114.763 90.6544C113.225 88.8334 111.254 86.9474 108.807 85.1794C106.363 83.4164 103.401 81.7764 99.9879 80.5824C96.5899 79.3794 92.8039 78.5994 88.9749 78.3464C85.1429 78.1024 81.3019 78.3384 77.6559 78.9164C74.0049 79.4934 70.5398 80.4054 67.3178 81.5054C64.0928 82.6064 61.1059 83.8944 58.3549 85.2534C57.0539 85.8924 55.6918 86.5584 54.4138 87.1554C53.1358 87.7084 51.8949 88.2704 50.5959 88.7524C49.3289 89.2684 48.0428 89.6934 46.8098 90.1314C45.5548 90.5284 44.3499 90.9404 43.1569 91.2684C40.7939 91.9744 38.5579 92.4994 36.5699 92.9564C34.5729 93.3904 32.8099 93.7314 31.3459 93.9754C28.4189 94.4714 26.7058 94.6324 26.7058 94.6324C26.7058 94.6324 28.4309 94.6244 31.4409 94.3894C32.9469 94.2754 34.7689 94.0914 36.8539 93.8334C38.9319 93.5514 41.2839 93.2214 43.8079 92.7174C45.0809 92.4904 46.3778 92.1814 47.7368 91.8864C49.0748 91.5504 50.4778 91.2284 51.8788 90.8114C53.2938 90.4354 54.7338 89.9534 56.2178 89.4724C57.6508 88.9684 59.0249 88.4614 60.5059 87.9094C63.2969 86.8644 66.2569 85.9234 69.3249 85.1914C72.3899 84.4594 75.5639 83.9404 78.7089 83.7324C81.8519 83.5214 84.9588 83.6264 87.8348 84.0724C90.7098 84.5304 93.3229 85.3554 95.5749 86.4184C97.8369 87.4754 99.7069 88.8134 101.243 90.2354C101.674 90.6364 102.075 91.0444 102.457 91.4554C101.413 91.1854 100.338 90.9484 99.2348 90.7544C96.1358 90.2014 92.8539 89.9094 89.5439 89.9094C86.2299 89.8954 82.8828 90.1304 79.5858 90.5654C76.2838 90.9914 73.0258 91.6064 69.8608 92.3554C68.2728 92.7204 66.7158 93.1354 65.1788 93.5614C63.7818 93.9424 62.2058 94.3754 60.7748 94.7354C57.9278 95.4304 54.9938 96.0844 52.1288 96.6184C50.7008 96.9014 49.2838 97.1514 47.8918 97.3874C46.5038 97.6374 45.1328 97.8424 43.7998 98.0544C41.1308 98.4694 38.5888 98.8164 36.2368 99.1214C33.8838 99.4214 31.7179 99.6724 29.7939 99.8834C27.8699 100.089 26.1888 100.256 24.8018 100.385C22.0278 100.642 20.4348 100.753 20.4348 100.753C20.4348 100.753 22.0339 100.795 24.8369 100.804C26.2379 100.807 27.9408 100.802 29.8948 100.78C31.8488 100.754 34.0539 100.711 36.4619 100.636C38.8689 100.556 41.4788 100.452 44.2398 100.293C45.6198 100.208 47.0408 100.134 48.4898 100.016C49.9408 99.9124 51.4238 99.7974 52.9298 99.6484C55.9508 99.3824 59.0439 99.0104 62.2779 98.5474C63.8799 98.3074 65.3319 98.0584 66.9839 97.7804C68.4849 97.5214 69.9908 97.2764 71.5028 97.0824C77.5338 96.2684 83.6288 96.0134 88.9548 96.5624C91.6208 96.8184 94.0669 97.3004 96.2159 97.9124C98.1789 98.4674 99.8469 99.1774 101.273 99.9294C96.7719 98.9534 91.5568 98.3754 86.0378 98.5614Z" fill="#183041"/>
</svg>
