<svg width="220" height="208" viewBox="0 0 220 208" fill="none" xmlns="http://www.w3.org/2000/svg">
<path d="M105.62 200.513L104.016 200.075L103.574 201.621L105.219 202.07C105.667 202.182 106.112 201.922 106.213 201.49C106.314 201.057 106.049 200.62 105.62 200.513Z" fill="#183041"/>
<path d="M103.373 193.896C102.441 191.626 100.757 190.304 99.0469 190.331C97.8829 191.914 97.4979 194.494 98.4269 196.814C98.7069 197.519 99.0869 198.129 99.5209 198.652C99.5209 198.652 98.6759 198.352 97.8309 198.052C96.9819 197.762 96.15 197.427 96.15 197.427L95.5529 197.196C96.4909 195.609 96.6759 193.318 95.9699 191.22C95.1989 188.841 93.5689 187.439 91.8599 187.319C90.5819 188.833 90.043 191.342 90.796 193.762C91.028 194.485 91.368 195.11 91.767 195.657C91.767 195.657 90.942 195.305 90.116 194.952C89.301 194.577 88.4849 194.201 88.4849 194.201L87.903 193.933C88.949 192.407 89.281 190.151 88.715 187.995C88.106 185.556 86.544 184.077 84.853 183.832C83.483 185.252 82.776 187.742 83.379 190.192C83.566 190.924 83.863 191.574 84.226 192.146C84.226 192.146 83.4239 191.743 82.6219 191.34C81.8329 190.912 81.0439 190.483 81.0439 190.483L80.4819 190.175C81.6209 188.726 82.106 186.478 81.671 184.3C81.186 181.884 79.7899 180.187 78.0699 179.915C76.6029 181.262 75.7569 183.673 76.2119 186.142C76.3489 186.89 76.601 187.562 76.924 188.161L73.8439 186.315L73.304 185.969C74.53 184.599 75.163 182.378 74.879 180.157C74.721 178.927 74.306 177.885 73.718 177.107C73.136 176.32 72.412 175.752 71.572 175.547C70.028 176.789 69.0229 179.15 69.2999 181.671C69.3779 182.442 69.5909 183.123 69.8849 183.726C69.8849 183.726 69.124 183.248 68.405 182.71C67.677 182.185 66.9479 181.661 66.9479 181.661L66.4279 181.287C67.7429 179.993 68.5079 177.828 68.3489 175.619C68.1829 173.153 67.018 171.296 65.351 170.804C63.724 171.952 62.575 174.234 62.708 176.743C62.748 177.503 62.9109 178.203 63.1539 178.839L60.3389 176.61L59.8359 176.212C61.2309 175.007 62.1299 172.901 62.1509 170.645C62.1799 168.136 61.0349 166.323 59.4669 165.659C57.7919 166.673 56.446 168.926 56.424 171.428C56.42 172.182 56.5439 172.884 56.7509 173.527C56.7509 173.527 56.0749 172.937 55.3989 172.346C55.0549 172.057 54.7339 171.744 54.4929 171.508C54.2509 171.274 54.09 171.118 54.09 171.118L53.629 170.673C55.098 169.564 56.144 167.51 56.291 165.286C56.372 164.053 56.1619 162.959 55.7349 162.087C55.3419 161.182 54.7269 160.502 53.9489 160.135C52.1929 161.053 50.744 163.17 50.525 165.694C50.462 166.455 50.5099 167.192 50.6899 167.831C50.6899 167.831 50.529 167.675 50.288 167.44C50.058 167.194 49.752 166.866 49.445 166.538C48.832 165.882 48.2189 165.227 48.2189 165.227L47.7809 164.759C49.3239 163.747 50.497 161.774 50.775 159.582C51.103 157.129 50.3279 155.081 48.7939 154.27C46.9729 155.075 45.3949 157.085 45.0309 159.571C44.9199 160.324 44.942 161.043 45.054 161.714L42.736 158.972L42.322 158.483C43.936 157.569 45.2059 155.704 45.6829 153.488C46.1969 151.04 45.489 148.994 44.02 148.077C42.172 148.745 40.422 150.682 39.929 153.115C39.774 153.855 39.756 154.569 39.83 155.242C39.83 155.242 39.287 154.527 38.744 153.813C38.472 153.456 38.201 153.098 37.997 152.83C37.795 152.56 37.676 152.37 37.676 152.37L37.3159 151.839C38.9719 151.042 40.407 149.231 40.997 147.069C41.323 145.871 41.3389 144.748 41.0949 143.804C40.9729 143.331 40.7839 142.904 40.5389 142.531C40.3139 142.144 40.0279 141.814 39.6879 141.553C37.8009 142.101 35.9389 143.92 35.2429 146.348C35.0459 147.074 34.9859 147.782 35.0219 148.455C35.0219 148.455 34.5179 147.712 34.0139 146.969C33.5329 146.211 33.0809 145.435 33.0809 145.435L32.7509 144.885C34.4569 144.193 35.9989 142.48 36.7139 140.364C37.1089 139.191 37.1889 138.075 36.9979 137.119C36.7939 136.171 36.4229 135.319 35.7579 134.765C33.8299 135.199 31.886 136.886 31.015 139.28C30.738 140.012 30.6569 140.702 30.6489 141.377C30.6489 141.377 30.5339 141.185 30.3599 140.896C30.1819 140.61 29.9559 140.222 29.7559 139.82C29.3389 139.025 28.9219 138.229 28.9219 138.229L28.624 137.661C30.37 137.076 32.0129 135.463 32.8499 133.396C33.3129 132.251 33.457 131.142 33.32 130.177C33.215 129.195 32.8619 128.337 32.2379 127.738C30.2859 128.055 28.2459 129.622 27.2349 131.959C26.9229 132.669 26.7549 133.375 26.7239 134.039C26.7239 134.039 26.2969 133.249 25.9449 132.422C25.5749 131.604 25.205 130.785 25.205 130.785L24.9409 130.201C26.7199 129.722 28.4559 128.211 29.4119 126.197C29.9409 125.081 30.1489 123.981 30.0679 123.008C30.0239 122.017 29.7179 121.14 29.1309 120.503C27.1639 120.704 25.0359 122.153 23.8889 124.426C23.5379 125.116 23.3239 125.813 23.2549 126.473C23.2549 126.473 23.1619 126.268 23.0239 125.962C22.8869 125.654 22.739 125.23 22.575 124.812C22.254 123.973 21.9329 123.134 21.9329 123.134L21.7039 122.535C23.5079 122.16 25.329 120.753 26.4 118.793C26.993 117.707 27.2639 116.618 27.2399 115.639C27.2129 114.661 26.988 113.752 26.431 113.084C24.457 113.173 22.251 114.503 20.973 116.711C20.572 117.384 20.362 118.053 20.241 118.714C20.241 118.714 20.1609 118.504 20.0399 118.19C19.9109 117.878 19.7679 117.453 19.6379 117.022C19.3669 116.165 19.0969 115.308 19.0969 115.308L18.9039 114.696C20.7249 114.423 22.624 113.119 23.806 111.216C24.461 110.162 24.7949 109.086 24.8279 108.103C24.8479 107.61 24.7789 107.145 24.6599 106.709C24.5549 106.268 24.376 105.864 24.124 105.512C22.157 105.49 19.8589 106.711 18.4849 108.84C18.0889 109.479 17.8289 110.14 17.6699 110.794C17.6699 110.794 17.3989 109.937 17.1279 109.08C16.9049 108.209 16.6829 107.339 16.6829 107.339L16.5259 106.717C18.3569 106.542 20.3269 105.34 21.6169 103.496C23.0489 101.45 23.1919 99.2572 22.1929 97.8112C20.2289 97.6882 17.8609 98.7932 16.4529 100.833C16.0199 101.452 15.7229 102.1 15.5259 102.746C15.5259 102.746 15.3059 101.874 15.0869 101.003C14.9769 100.567 14.8669 100.131 14.7849 99.8052C14.7019 99.4792 14.6699 99.2552 14.6699 99.2552L14.5499 98.6252C16.3849 98.5432 18.418 97.4422 19.812 95.6592C21.354 93.6812 21.6389 91.4812 20.7069 89.9852C18.7229 89.7722 16.3609 90.7542 14.8199 92.7312C14.3529 93.3292 14.0179 93.9642 13.7849 94.6002L13.1129 91.0672L12.9929 90.4362C14.8649 90.4362 16.848 89.4542 18.364 87.7282C20.016 85.8192 20.4269 83.6222 19.5839 82.0772C17.6179 81.7722 15.2079 82.6492 13.5569 84.5582C13.0569 85.1362 12.6869 85.7552 12.4169 86.3812L11.9509 82.8142L11.8679 82.1772C13.7129 82.2652 15.818 81.3612 17.317 79.7162C17.733 79.2602 18.067 78.7832 18.33 78.2982C18.615 77.8092 18.8229 77.3142 18.9529 76.8262C19.2119 75.8512 19.1579 74.9072 18.7819 74.1122C16.8389 73.7202 14.3839 74.4972 12.6299 76.3352C12.0979 76.8912 11.694 77.4942 11.39 78.1092L11.1279 74.5202L11.0809 73.8792C12.9169 74.0462 15.0669 73.2322 16.6559 71.6452C17.5359 70.7652 18.1089 69.7842 18.3669 68.8232C18.4959 68.3422 18.5469 67.8662 18.5179 67.4092C18.5129 66.9492 18.4319 66.5092 18.2659 66.1032C16.3579 65.6292 13.834 66.3122 12.025 68.0742C11.492 68.6072 11.0869 69.1912 10.7809 69.7912C10.7809 69.7912 10.715 68.8942 10.65 67.9972C10.607 67.0992 10.6039 66.1982 10.6039 66.1982L10.593 65.5562C12.416 65.7982 14.6069 65.0712 16.2809 63.5442C18.1349 61.8502 18.7879 59.7012 18.1229 58.0532C16.2029 57.5072 13.71 58.0932 11.856 59.7872C11.294 60.3002 10.8569 60.8692 10.5189 61.4572L10.455 57.8582L10.4439 57.2162C12.2779 57.5262 14.4379 56.8842 16.1569 55.4192C18.1009 53.7932 18.8689 51.6602 18.2939 49.9852C16.4049 49.3702 13.8809 49.8702 11.9379 51.4962C11.3489 51.9882 10.8819 52.5412 10.5129 53.1172L10.6409 49.5182L10.6639 48.8762C12.4699 49.2502 14.6949 48.6852 16.4479 47.2772C18.4029 45.7162 19.105 43.6072 18.666 41.9092C16.809 41.2292 14.2579 41.6462 12.2329 43.2042C11.6449 43.6772 11.1789 44.2142 10.8099 44.7782C10.8099 44.7782 10.8449 43.8782 10.8809 42.9792C10.9589 42.0822 11.038 41.1852 11.038 41.1852L9.43396 41.0752C9.43396 41.0752 9.35492 41.9782 9.27692 42.8802C9.24092 43.7852 9.20496 44.6912 9.20496 44.6912C8.87796 44.0862 8.45194 43.4912 7.90094 42.9392C6.16794 41.1252 3.72596 40.3062 1.76996 40.7612C0.935961 42.4752 1.60192 44.8692 3.40692 46.6882C5.04992 48.3342 7.22993 49.0582 9.05793 48.8172L9.03491 49.4642L8.90595 53.0862C8.57895 52.4932 8.15192 51.9132 7.59992 51.3812C5.77792 49.6262 3.29792 48.8852 1.36792 49.4092C0.670923 51.1622 1.27893 53.5252 3.10193 55.2802C4.78493 56.8702 7.03294 57.5182 8.83594 57.2132L8.84796 57.8602L8.91193 61.4852C8.55293 60.9042 8.09593 60.3412 7.51593 59.8282C5.60193 58.1392 3.08695 57.4832 1.18695 58.0772C0.582953 59.8592 1.31592 62.2082 3.22992 63.8972C4.95892 65.4252 7.17293 65.9882 8.98493 65.6142L8.99695 66.2612C8.99695 66.2612 8.99997 67.1682 9.04297 68.0732C9.10897 68.9772 9.17493 69.8822 9.17493 69.8822C8.78493 69.3162 8.29697 68.7712 7.68897 68.2812C5.73297 66.6642 3.24996 66.1032 1.34296 66.7692C1.19296 67.2202 1.12497 67.7042 1.14197 68.2012C1.18297 68.6982 1.30596 69.2092 1.50696 69.7142C1.90996 70.7232 2.62695 71.7082 3.62995 72.5162C5.44295 73.9772 7.68697 74.4492 9.47797 74.0022L9.52497 74.6482L9.78992 78.2652C9.40092 77.7132 8.91395 77.1862 8.30695 76.7202C6.30595 75.1832 3.76094 74.7232 1.90094 75.4672C1.64994 76.3832 1.74092 77.4162 2.14392 78.4122C2.34592 78.9102 2.62592 79.3982 2.97992 79.8582C3.35692 80.3172 3.81593 80.7472 4.33893 81.1302C6.23393 82.5152 8.50494 82.8892 10.2709 82.3672L10.3549 83.0092L10.825 86.6072C10.404 86.0742 9.88697 85.5692 9.25397 85.1312C7.16497 83.6842 4.59394 83.3312 2.77594 84.1562C2.37794 86.0122 3.37194 88.2752 5.46094 89.7222C7.32494 91.0352 9.68995 91.2972 11.4059 90.6992L11.5269 91.3352L12.205 94.9002C11.753 94.3882 11.207 93.9092 10.549 93.5012C8.37595 92.1542 5.78293 91.9162 4.01093 92.8232C3.71993 94.6972 4.84492 96.9172 7.01892 98.2632C8.98292 99.4822 11.2569 99.6482 12.9769 98.9622L13.098 99.5982C13.098 99.5982 13.1299 99.8232 13.2139 100.153C13.2969 100.483 13.4079 100.923 13.5189 101.363C13.7409 102.243 13.9619 103.123 13.9619 103.123C13.4799 102.635 12.906 102.185 12.223 101.809C9.94996 100.576 7.40592 100.45 5.65192 101.447C5.44892 103.337 6.72095 105.5 8.97095 106.737C11.008 107.857 13.293 107.905 14.973 107.133L15.1309 107.761C15.1309 107.761 15.3559 108.64 15.5809 109.519C15.8539 110.385 16.1279 111.25 16.1279 111.25C15.6169 110.789 15.0159 110.37 14.3109 110.031C12.0509 108.896 9.49196 108.901 7.79096 109.988C7.74896 110.467 7.79495 110.96 7.92395 111.447C8.06695 111.931 8.31596 112.404 8.62696 112.855C9.25596 113.757 10.184 114.559 11.348 115.118C13.452 116.13 15.7399 116.054 17.3749 115.194L17.5699 115.812C17.5699 115.812 17.8439 116.678 18.1169 117.543C18.2479 117.978 18.393 118.408 18.523 118.723C18.645 119.041 18.726 119.253 18.726 119.253C18.189 118.821 17.552 118.439 16.869 118.125C14.571 117.106 11.9909 117.253 10.3599 118.428C10.3459 119.386 10.6339 120.397 11.3199 121.262C12.0019 122.129 12.9779 122.88 14.1749 123.375C16.3389 124.27 18.6209 124.066 20.2039 123.117L20.4359 123.722C20.4359 123.722 20.761 124.57 21.085 125.418C21.251 125.841 21.4019 126.269 21.5399 126.581C21.6799 126.891 21.7739 127.098 21.7739 127.098C21.1989 126.703 20.5839 126.34 19.8729 126.07C17.5169 125.183 14.9459 125.473 13.3859 126.738C13.4189 127.7 13.7989 128.683 14.4929 129.525C15.2259 130.353 16.2459 131.049 17.4719 131.474C19.6869 132.244 21.9539 131.908 23.4789 130.869L23.7459 131.46C23.7459 131.46 24.1199 132.288 24.4949 133.115C24.8509 133.951 25.283 134.751 25.283 134.751C24.687 134.39 24.0469 134.067 23.3229 133.837C20.9179 133.09 18.3659 133.526 16.8839 134.881C16.9759 135.841 17.4109 136.803 18.1589 137.603C18.9399 138.388 19.9989 139.024 21.2479 139.377C23.5039 140.017 25.7459 139.546 27.2059 138.416L27.507 138.99C27.507 138.99 27.929 139.795 28.351 140.599C28.554 141.006 28.783 141.398 28.963 141.688C29.138 141.98 29.2549 142.175 29.2549 142.175C28.6559 141.841 27.9529 141.582 27.2249 141.391C24.7819 140.789 22.2619 141.376 20.8629 142.82C21.0209 143.77 21.4809 144.724 22.3189 145.456C23.1439 146.195 24.238 146.769 25.502 147.047C27.789 147.552 29.9939 146.944 31.3829 145.725L31.7169 146.281C31.7169 146.281 32.175 147.066 32.661 147.833C33.171 148.585 33.681 149.337 33.681 149.337C33.06 149.042 32.365 148.813 31.593 148.69C29.092 148.257 26.6389 148.982 25.3229 150.516C25.4229 150.991 25.6129 151.453 25.8799 151.887C26.1669 152.309 26.5369 152.699 26.9689 153.045C27.8339 153.736 28.956 154.245 30.231 154.447C32.536 154.814 34.6939 154.07 36.0049 152.764L36.369 153.301C36.369 153.301 36.4899 153.493 36.6939 153.766C36.8999 154.037 37.175 154.399 37.45 154.761C38 155.485 38.5499 156.208 38.5499 156.208C37.9169 155.95 37.2119 155.762 36.4379 155.686C33.8679 155.446 31.4709 156.32 30.2559 157.936C30.8249 159.777 32.865 161.294 35.418 161.546C37.716 161.786 39.865 160.868 41.075 159.49L41.494 159.986L43.8409 162.762C43.1979 162.541 42.4889 162.394 41.7159 162.364C39.1669 162.266 36.787 163.329 35.702 165.004C36.4 166.798 38.4729 168.235 41.0629 168.297C43.4279 168.337 45.4809 167.306 46.6039 165.845L47.0469 166.319C47.0469 166.319 47.6679 166.983 48.2889 167.647C48.5989 167.979 48.9099 168.311 49.1429 168.56C49.3879 168.798 49.5499 168.956 49.5499 168.956C48.8699 168.801 48.1739 168.682 47.4039 168.7C44.8739 168.753 42.5769 169.963 41.5989 171.713C41.9929 172.599 42.7309 173.367 43.6879 173.906C44.6769 174.412 45.8869 174.684 47.1829 174.629C49.5269 174.529 51.4999 173.371 52.5269 171.835L52.9929 172.286C52.9929 172.286 53.1559 172.444 53.4019 172.681C53.6459 172.919 53.9709 173.237 54.3189 173.529C55.0029 174.127 55.6879 174.725 55.6879 174.725C55.0139 174.599 54.2849 174.555 53.5089 174.635C50.9599 174.887 48.79 176.204 47.913 178.033C48.784 179.783 51.1319 180.816 53.6769 180.568C55.9869 180.339 57.89 179.042 58.812 177.444L59.3209 177.847L62.171 180.104C61.497 180.014 60.7719 180.011 60.0079 180.134C57.4889 180.542 55.366 182.054 54.632 183.909C55.67 185.527 57.9839 186.526 60.5369 186.072C62.8579 185.649 64.6699 184.237 65.4849 182.583L66.0109 182.962C66.0109 182.962 66.749 183.493 67.486 184.024C68.214 184.568 68.9839 185.052 68.9839 185.052C68.2939 185.022 67.5669 185.072 66.8229 185.229C64.3539 185.773 62.3409 187.409 61.7219 189.317C62.2829 190.103 63.1409 190.73 64.1989 191.046C65.2629 191.352 66.496 191.392 67.752 191.089C70.024 190.544 71.7339 189.031 72.4459 187.323L72.9919 187.673L76.1099 189.542C75.4289 189.54 74.71 189.63 73.968 189.851C71.521 190.58 69.6099 192.353 69.1199 194.286C70.3569 195.753 72.7739 196.448 75.2529 195.662C77.4969 194.953 79.1129 193.325 79.7119 191.58L80.2809 191.892C80.2809 191.892 81.0799 192.325 81.8779 192.759C82.6899 193.167 83.502 193.575 83.502 193.575C82.819 193.622 82.1039 193.763 81.3749 194.035C78.9869 194.903 77.2089 196.764 76.8329 198.742C78.1159 200.211 80.6389 200.627 83.0339 199.744C85.2249 198.905 86.7409 197.159 87.2249 195.385L87.814 195.656C87.814 195.656 88.64 196.036 89.465 196.416C90.301 196.773 91.137 197.13 91.137 197.13C90.459 197.22 89.7529 197.412 89.0439 197.726C86.7229 198.732 85.057 200.722 84.814 202.712C86.198 204.08 88.7379 204.368 91.0789 203.317C93.2219 202.325 94.6089 200.497 94.9739 198.689L95.58 198.923C95.58 198.923 96.4239 199.263 97.2849 199.557C98.1419 199.861 98.9999 200.166 98.9999 200.166C98.3319 200.298 97.6439 200.529 96.9579 200.891C94.6919 202.095 93.1779 204.15 93.0679 206.169C94.5629 207.418 97.126 207.583 99.421 206.332C101.497 205.209 102.744 203.257 102.953 201.429L103.577 201.615L104.019 200.069L103.407 199.887C104.21 198.228 104.208 195.949 103.373 193.896Z" fill="#183041"/>
<path d="M11.096 40.5428C12.489 39.4838 13.517 37.7498 13.7 35.6518C13.92 33.1338 12.8931 30.8508 11.2421 29.6348C9.41305 30.4528 8.00502 32.5358 7.78002 35.1158C7.59202 37.2648 8.30203 39.1818 9.49303 40.4288L9.43602 41.0778L11.04 41.1878L11.096 40.5428Z" fill="#183041"/>
<path d="M212.532 68.2838C211.924 68.7738 211.436 69.3188 211.045 69.8848C211.045 69.8848 211.111 68.9808 211.177 68.0758C211.221 67.1708 211.223 66.2638 211.223 66.2638L211.235 65.6168C213.047 65.9908 215.261 65.4278 216.99 63.8998C218.905 62.2108 219.637 59.8618 219.033 58.0798C217.134 57.4858 214.618 58.1418 212.704 59.8308C212.124 60.3428 211.667 60.9068 211.308 61.4878L211.372 57.8618L211.384 57.2148C213.187 57.5198 215.435 56.8728 217.118 55.2818C218.941 53.5268 219.55 51.1638 218.852 49.4108C216.922 48.8868 214.443 49.6278 212.621 51.3828C212.069 51.9148 211.642 52.4948 211.315 53.0878L211.186 49.4648L211.163 48.8178C212.991 49.0588 215.171 48.3348 216.814 46.6888C218.619 44.8708 219.285 42.4758 218.451 40.7618C216.495 40.3058 214.053 41.1258 212.32 42.9398C211.769 43.4918 211.343 44.0868 211.016 44.6918C211.016 44.6918 210.98 43.7868 210.945 42.8808C210.866 41.9788 210.787 41.0758 210.787 41.0758L210.73 40.4268C211.921 39.1798 212.63 37.2628 212.443 35.1138C212.217 32.5328 210.81 30.4508 208.981 29.6328C207.33 30.8488 206.303 33.1328 206.523 35.6498C206.706 37.7478 207.734 39.4818 209.127 40.5408L209.183 41.1858C209.183 41.1858 209.261 42.0828 209.34 42.9798C209.375 43.8788 209.411 44.7788 209.411 44.7788C209.043 44.2158 208.576 43.6778 207.989 43.2058C205.963 41.6478 203.412 41.2318 201.556 41.9108C201.117 43.6088 201.819 45.7168 203.774 47.2788C205.526 48.6868 207.751 49.2518 209.558 48.8778L209.581 49.5198L209.709 53.1178C209.34 52.5418 208.873 51.9898 208.284 51.4978C206.341 49.8718 203.817 49.3718 201.928 49.9868C201.353 51.6618 202.122 53.7948 204.065 55.4208C205.784 56.8858 207.943 57.5278 209.778 57.2178L209.766 57.8598L209.702 61.4588C209.364 60.8708 208.927 60.3018 208.366 59.7888C206.512 58.0948 204.019 57.5088 202.099 58.0548C201.434 59.7028 202.087 61.8518 203.941 63.5458C205.616 65.0738 207.807 65.7998 209.629 65.5578L209.618 66.1998C209.618 66.1998 209.616 67.1008 209.572 67.9988C209.506 68.8958 209.441 69.7928 209.441 69.7928C209.136 69.1928 208.73 68.6088 208.197 68.0758C206.388 66.3128 203.864 65.6308 201.956 66.1048C201.79 66.5108 201.708 66.9518 201.704 67.4108C201.675 67.8678 201.726 68.3438 201.855 68.8248C202.114 69.7868 202.687 70.7678 203.566 71.6468C205.156 73.2338 207.306 74.0478 209.141 73.8808L209.094 74.5218L208.832 78.1108C208.528 77.4958 208.124 76.8938 207.592 76.3368C205.838 74.4988 203.383 73.7218 201.44 74.1138C201.064 74.9078 201.01 75.8518 201.269 76.8278C201.399 77.3158 201.606 77.8108 201.892 78.2998C202.155 78.7848 202.489 79.2618 202.905 79.7178C204.405 81.3628 206.509 82.2668 208.354 82.1788L208.271 82.8158L207.805 86.3828C207.536 85.7568 207.166 85.1378 206.665 84.5598C205.014 82.6508 202.604 81.7738 200.638 82.0788C199.796 83.6238 200.207 85.8218 201.858 87.7298C203.373 89.4548 205.357 90.4368 207.229 90.4368L207.109 91.0678L206.437 94.6008C206.204 93.9638 205.869 93.3298 205.402 92.7318C203.861 90.7538 201.5 89.7728 199.515 89.9858C198.583 91.4818 198.868 93.6818 200.41 95.6598C201.804 97.4428 203.837 98.5438 205.672 98.6258L205.552 99.2568C205.552 99.2568 205.52 99.4798 205.437 99.8068C205.355 100.134 205.245 100.57 205.135 101.005C204.915 101.877 204.696 102.748 204.696 102.748C204.5 102.102 204.202 101.454 203.769 100.835C202.361 98.7948 199.993 97.6888 198.029 97.8128C197.03 99.2578 197.172 101.451 198.605 103.498C199.896 105.342 201.865 106.544 203.696 106.719L203.539 107.341C203.539 107.341 203.316 108.212 203.094 109.082C202.823 109.939 202.552 110.796 202.552 110.796C202.394 110.142 202.134 109.481 201.737 108.843C200.362 106.713 198.064 105.493 196.098 105.515C195.846 105.867 195.667 106.271 195.562 106.712C195.443 107.148 195.375 107.613 195.394 108.106C195.427 109.089 195.761 110.165 196.416 111.219C197.599 113.122 199.498 114.426 201.319 114.699L201.126 115.311C201.126 115.311 200.855 116.168 200.585 117.024C200.456 117.454 200.312 117.88 200.183 118.192C200.063 118.506 199.982 118.716 199.982 118.716C199.861 118.055 199.651 117.387 199.25 116.714C197.972 114.506 195.766 113.176 193.792 113.087C193.234 113.755 193.01 114.664 192.983 115.642C192.959 116.621 193.23 117.71 193.823 118.796C194.895 120.756 196.716 122.163 198.519 122.538L198.29 123.137C198.29 123.137 197.969 123.976 197.648 124.815C197.484 125.233 197.335 125.657 197.198 125.965C197.059 126.272 196.967 126.476 196.967 126.476C196.898 125.816 196.684 125.119 196.333 124.429C195.186 122.155 193.059 120.707 191.091 120.506C190.504 121.143 190.198 122.021 190.154 123.011C190.073 123.984 190.281 125.084 190.81 126.2C191.766 128.215 193.502 129.725 195.281 130.204L195.017 130.788C195.017 130.788 194.647 131.606 194.277 132.425C193.925 133.252 193.498 134.042 193.498 134.042C193.467 133.378 193.299 132.672 192.987 131.963C191.976 129.627 189.936 128.059 187.984 127.743C187.36 128.342 187.007 129.199 186.902 130.181C186.765 131.146 186.91 132.255 187.372 133.4C188.209 135.467 189.852 137.08 191.598 137.665L191.3 138.233C191.3 138.233 190.883 139.028 190.466 139.824C190.265 140.226 190.04 140.614 189.862 140.9C189.689 141.189 189.573 141.381 189.573 141.381C189.565 140.706 189.484 140.016 189.207 139.285C188.335 136.89 186.392 135.204 184.464 134.769C183.798 135.323 183.427 136.175 183.223 137.123C183.032 138.079 183.112 139.195 183.507 140.368C184.222 142.485 185.764 144.198 187.47 144.889L187.14 145.439C187.14 145.439 186.688 146.215 186.208 146.973C185.704 147.716 185.2 148.459 185.2 148.459C185.236 147.786 185.176 147.078 184.979 146.352C184.283 143.925 182.421 142.105 180.534 141.557C180.193 141.818 179.908 142.148 179.683 142.535C179.438 142.909 179.249 143.336 179.127 143.808C178.883 144.753 178.899 145.875 179.225 147.073C179.815 149.236 181.249 151.046 182.906 151.843L182.546 152.374C182.546 152.374 182.426 152.564 182.225 152.834C182.021 153.102 181.75 153.459 181.478 153.817C180.935 154.532 180.392 155.246 180.392 155.246C180.466 154.573 180.447 153.859 180.293 153.119C179.799 150.686 178.05 148.749 176.202 148.08C174.733 148.997 174.025 151.043 174.538 153.491C175.015 155.707 176.286 157.572 177.899 158.486L177.485 158.975L175.167 161.717C175.279 161.045 175.301 160.327 175.19 159.574C174.825 157.087 173.247 155.077 171.427 154.272C169.893 155.082 169.118 157.131 169.446 159.584C169.724 161.776 170.897 163.749 172.44 164.761L172.002 165.229C172.002 165.229 171.389 165.885 170.776 166.54C170.47 166.868 170.163 167.196 169.934 167.441C169.692 167.676 169.532 167.832 169.532 167.832C169.712 167.193 169.76 166.456 169.697 165.695C169.478 163.171 168.028 161.054 166.272 160.136C165.495 160.503 164.88 161.183 164.486 162.088C164.059 162.96 163.849 164.054 163.93 165.287C164.077 167.511 165.124 169.565 166.592 170.674L166.131 171.119C166.131 171.119 165.97 171.275 165.728 171.509C165.487 171.744 165.166 172.058 164.822 172.347C164.146 172.937 163.47 173.528 163.47 173.528C163.677 172.885 163.801 172.183 163.797 171.429C163.775 168.927 162.429 166.674 160.754 165.66C159.186 166.324 158.041 168.136 158.07 170.645C158.091 172.9 158.991 175.006 160.385 176.211L159.882 176.609L157.067 178.838C157.309 178.202 157.473 177.502 157.513 176.743C157.647 174.235 156.497 171.952 154.87 170.804C153.203 171.296 152.039 173.153 151.872 175.619C151.713 177.828 152.478 179.993 153.793 181.287L153.273 181.661C153.273 181.661 152.544 182.186 151.816 182.71C151.097 183.248 150.336 183.726 150.336 183.726C150.63 183.123 150.843 182.442 150.921 181.671C151.198 179.15 150.192 176.788 148.649 175.547C147.81 175.752 147.085 176.32 146.503 177.107C145.915 177.885 145.5 178.927 145.342 180.157C145.059 182.379 145.691 184.599 146.917 185.969L146.377 186.315L143.297 188.161C143.619 187.562 143.871 186.889 144.009 186.142C144.464 183.673 143.618 181.262 142.151 179.915C140.431 180.187 139.035 181.884 138.55 184.3C138.114 186.478 138.6 188.726 139.739 190.175L139.177 190.483C139.177 190.483 138.388 190.911 137.599 191.34C136.797 191.743 135.995 192.146 135.995 192.146C136.357 191.574 136.655 190.925 136.842 190.192C137.445 187.742 136.738 185.252 135.368 183.832C133.677 184.078 132.115 185.556 131.506 187.995C130.939 190.151 131.271 192.407 132.317 193.933L131.735 194.201C131.735 194.201 130.92 194.576 130.105 194.952C129.28 195.304 128.454 195.656 128.454 195.656C128.852 195.109 129.193 194.484 129.424 193.761C130.177 191.34 129.639 188.831 128.361 187.318C126.652 187.438 125.022 188.84 124.251 191.219C123.544 193.317 123.729 195.608 124.668 197.195L124.071 197.426C124.071 197.426 123.238 197.761 122.39 198.051C121.545 198.351 120.7 198.651 120.7 198.651C121.134 198.127 121.513 197.518 121.794 196.813C122.723 194.494 122.338 191.913 121.174 190.33C119.464 190.302 117.78 191.624 116.848 193.895C116.013 195.949 116.011 198.227 116.814 199.892L116.202 200.074L114.598 200.512C114.17 200.619 113.905 201.056 114.005 201.488C114.106 201.92 114.551 202.18 114.999 202.068L116.644 201.619L117.268 201.433C117.478 203.261 118.724 205.213 120.8 206.336C123.094 207.587 125.658 207.422 127.153 206.173C127.043 204.155 125.528 202.099 123.263 200.895C122.577 200.533 121.889 200.303 121.221 200.17C121.221 200.17 122.078 199.865 122.936 199.561C123.797 199.267 124.641 198.927 124.641 198.927L125.246 198.693C125.611 200.502 126.998 202.329 129.141 203.321C131.482 204.372 134.022 204.084 135.406 202.716C135.163 200.726 133.497 198.736 131.176 197.73C130.467 197.416 129.761 197.224 129.083 197.134C129.083 197.134 129.919 196.777 130.755 196.42C131.581 196.04 132.406 195.66 132.406 195.66L132.995 195.389C133.478 197.163 134.995 198.909 137.186 199.748C139.581 200.631 142.104 200.215 143.388 198.746C143.012 196.768 141.234 194.908 138.846 194.039C138.117 193.767 137.401 193.625 136.719 193.578C136.719 193.578 137.531 193.17 138.343 192.762C139.142 192.329 139.94 191.895 139.94 191.895L140.509 191.583C141.108 193.328 142.724 194.956 144.968 195.665C147.447 196.45 149.865 195.756 151.101 194.289C150.611 192.356 148.701 190.583 146.253 189.854C145.511 189.633 144.791 189.543 144.11 189.545L147.228 187.676L147.774 187.326C148.486 189.034 150.196 190.547 152.468 191.092C153.724 191.394 154.957 191.355 156.021 191.049C157.079 190.733 157.937 190.106 158.498 189.321C157.879 187.413 155.866 185.777 153.397 185.233C152.653 185.076 151.926 185.025 151.236 185.056C151.236 185.056 152.006 184.572 152.734 184.027C153.471 183.496 154.209 182.965 154.209 182.965L154.736 182.586C155.552 184.24 157.363 185.652 159.684 186.075C162.237 186.529 164.551 185.53 165.589 183.912C164.855 182.057 162.733 180.545 160.213 180.137C159.449 180.014 158.724 180.017 158.05 180.107L160.9 177.85L161.409 177.447C162.331 179.046 164.233 180.343 166.544 180.572C169.089 180.82 171.437 179.787 172.308 178.037C171.431 176.208 169.261 174.892 166.712 174.639C165.936 174.559 165.206 174.603 164.533 174.729C164.533 174.729 165.217 174.131 165.902 173.533C166.25 173.241 166.575 172.923 166.819 172.685C167.064 172.448 167.228 172.29 167.228 172.29L167.694 171.839C168.721 173.376 170.694 174.533 173.038 174.633C174.334 174.689 175.544 174.416 176.533 173.91C177.489 173.371 178.228 172.603 178.622 171.717C177.644 169.967 175.347 168.757 172.817 168.704C172.046 168.685 171.35 168.805 170.671 168.96C170.671 168.96 170.834 168.802 171.078 168.564C171.311 168.315 171.621 167.983 171.932 167.651C172.553 166.987 173.174 166.323 173.174 166.323L173.617 165.849C174.74 167.311 176.793 168.342 179.158 168.301C181.748 168.239 183.821 166.802 184.519 165.008C183.434 163.333 181.054 162.271 178.505 162.368C177.732 162.398 177.023 162.544 176.38 162.766L178.727 159.989L179.146 159.493C180.356 160.872 182.505 161.789 184.803 161.549C187.356 161.297 189.396 159.78 189.965 157.939C188.751 156.324 186.354 155.449 183.783 155.689C183.008 155.765 182.304 155.953 181.67 156.212C181.67 156.212 182.22 155.488 182.77 154.765C183.045 154.403 183.32 154.041 183.526 153.77C183.73 153.497 183.851 153.305 183.851 153.305L184.215 152.768C185.526 154.074 187.684 154.818 189.989 154.451C191.264 154.249 192.387 153.74 193.251 153.049C193.683 152.703 194.053 152.313 194.34 151.891C194.607 151.457 194.797 150.995 194.897 150.52C193.582 148.986 191.128 148.261 188.627 148.694C187.854 148.817 187.159 149.046 186.538 149.341C186.538 149.341 187.048 148.589 187.558 147.836C188.044 147.069 188.502 146.284 188.502 146.284L188.836 145.728C190.225 146.947 192.43 147.555 194.717 147.05C195.982 146.772 197.075 146.198 197.9 145.459C198.738 144.726 199.198 143.772 199.356 142.823C197.957 141.38 195.437 140.792 192.994 141.394C192.266 141.584 191.563 141.843 190.964 142.178C190.964 142.178 191.081 141.983 191.256 141.691C191.436 141.402 191.665 141.009 191.868 140.602C192.29 139.797 192.712 138.993 192.712 138.993L193.013 138.419C194.474 139.549 196.715 140.02 198.971 139.38C200.219 139.027 201.279 138.391 202.06 137.606C202.808 136.806 203.243 135.843 203.335 134.884C201.852 133.529 199.301 133.092 196.896 133.84C196.172 134.069 195.531 134.393 194.935 134.754C194.935 134.754 195.367 133.954 195.723 133.118C196.097 132.29 196.471 131.463 196.471 131.463L196.738 130.872C198.264 131.912 200.53 132.248 202.745 131.477C203.97 131.052 204.99 130.356 205.724 129.528C206.419 128.686 206.798 127.703 206.831 126.741C205.271 125.476 202.7 125.186 200.343 126.073C199.632 126.343 199.017 126.706 198.442 127.101C198.442 127.101 198.536 126.894 198.676 126.584C198.814 126.273 198.965 125.844 199.131 125.421C199.456 124.573 199.78 123.725 199.78 123.725L200.012 123.12C201.596 124.069 203.878 124.273 206.041 123.378C207.238 122.884 208.214 122.132 208.897 121.265C209.582 120.399 209.871 119.389 209.857 118.431C208.226 117.256 205.646 117.109 203.348 118.128C202.665 118.442 202.028 118.823 201.491 119.256C201.491 119.256 201.572 119.044 201.694 118.726C201.824 118.411 201.969 117.981 202.1 117.546C202.374 116.68 202.647 115.815 202.647 115.815L202.842 115.197C204.477 116.057 206.765 116.132 208.869 115.121C210.033 114.562 210.962 113.759 211.59 112.858C211.901 112.407 212.15 111.934 212.293 111.45C212.422 110.963 212.468 110.47 212.426 109.991C210.724 108.904 208.165 108.899 205.906 110.034C205.201 110.373 204.599 110.792 204.088 111.254C204.088 111.254 204.362 110.388 204.635 109.522C204.86 108.643 205.085 107.764 205.085 107.764L205.243 107.136C206.923 107.908 209.208 107.86 211.245 106.74C213.495 105.503 214.766 103.341 214.564 101.45C212.809 100.453 210.265 100.579 207.993 101.812C207.31 102.187 206.735 102.638 206.254 103.126C206.254 103.126 206.476 102.246 206.697 101.366C206.808 100.926 206.919 100.486 207.002 100.156C207.086 99.8258 207.118 99.6008 207.118 99.6008L207.239 98.9648C208.959 99.6508 211.233 99.4858 213.197 98.2658C215.371 96.9198 216.497 94.6998 216.205 92.8258C214.433 91.9188 211.84 92.1568 209.667 93.5038C209.008 93.9128 208.462 94.3918 208.01 94.9038L208.688 91.3378L208.809 90.7018C210.525 91.2998 212.889 91.0378 214.754 89.7248C216.844 88.2778 217.837 86.0148 217.439 84.1588C215.621 83.3348 213.049 83.6878 210.961 85.1338C210.328 85.5728 209.811 86.0768 209.39 86.6108L209.86 83.0128L209.944 82.3708C211.71 82.8928 213.981 82.5188 215.876 81.1328C216.4 80.7498 216.858 80.3198 217.235 79.8608C217.59 79.4008 217.87 78.9128 218.071 78.4148C218.475 77.4188 218.565 76.3858 218.314 75.4698C216.454 74.7258 213.909 75.1858 211.908 76.7228C211.301 77.1888 210.814 77.7158 210.425 78.2678L210.69 74.6498L210.737 74.0038C212.528 74.4498 214.772 73.9788 216.584 72.5178C217.587 71.7098 218.304 70.7258 218.707 69.7158C218.908 69.2108 219.031 68.7008 219.072 68.2028C219.088 67.7058 219.02 67.2218 218.87 66.7708C216.972 66.1058 214.488 66.6668 212.532 68.2838Z" fill="#183041"/>
<path d="M194.942 35.984L193.994 27.541L185.509 27.123C171.469 26.432 144.723 23.282 123.34 9.94798C121.622 8.87698 117.968 6.22598 115.931 4.70498L109.964 0.250977L103.991 4.69798C101.423 6.61098 98.133 8.97597 96.572 9.94897C75.189 23.282 48.444 26.433 34.404 27.124L25.919 27.542L24.9709 35.985C17.6689 100.976 39.239 138.147 58.619 157.886C80.383 180.053 104.928 186.358 107.655 187.004L109.957 187.549L112.259 187.004C114.986 186.358 139.531 180.053 161.295 157.886C180.674 138.146 202.243 100.975 194.942 35.984ZM111.107 182.143L109.956 182.416L108.805 182.143C106.221 181.531 82.964 175.554 62.181 154.386C43.561 135.421 22.85 99.581 29.932 36.541L30.406 32.32L34.649 32.111C49.173 31.396 76.8729 28.116 99.2129 14.186C101.016 13.061 104.52 10.529 106.973 8.70298L109.96 6.47897L112.944 8.70598C114.755 10.058 118.706 12.943 120.699 14.185C143.039 28.116 170.74 31.395 185.264 32.11L189.507 32.319L189.981 36.54C197.063 99.58 176.353 135.42 157.732 154.385C136.948 175.554 113.691 181.531 111.107 182.143Z" fill="#183041"/>
<path d="M62.989 102.758C62.967 102.744 62.945 102.731 62.923 102.717C62.923 102.717 62.659 114.901 73.138 120.586C83.617 126.272 83.617 137.101 83.617 137.101C83.617 137.101 61.1989 125.188 50.3589 101.634C39.5209 78.0834 39.027 79.7034 39.027 79.7034C38.363 81.8854 39.5519 86.2064 39.8249 88.3874C42.3749 108.765 49.202 127.435 62.349 142.557C74.948 157.048 90.329 165.963 104.47 172.533C104.399 172.5 106.43 163.928 106.505 163.365C108.218 150.541 105.203 134.873 96.531 125.571C87.482 115.864 73.944 109.545 62.989 102.758Z" fill="#183041"/>
<path d="M169.486 101.634C158.646 125.189 136.228 137.101 136.228 137.101C136.228 137.101 136.228 126.271 146.707 120.586C157.186 114.9 156.922 102.717 156.922 102.717C156.9 102.731 156.878 102.744 156.856 102.758C145.901 109.545 132.363 115.864 123.313 125.572C114.641 134.874 111.626 150.542 113.339 163.366C113.414 163.929 115.445 172.501 115.374 172.534C129.516 165.965 144.897 157.049 157.495 142.558C170.642 127.436 177.469 108.766 180.019 88.3884C180.292 86.2074 181.481 81.8864 180.817 79.7044C180.819 79.7044 180.324 78.0834 169.486 101.634Z" fill="#183041"/>
<path d="M51.204 75.1555C54.032 72.3275 55.5139 71.0175 58.5829 68.6075C57.8829 67.7145 57.534 67.2675 56.834 66.3745C54.823 67.9535 53.839 68.7865 51.925 70.5395C50.356 68.8235 49.571 67.9655 48.002 66.2495C49.628 64.7605 50.459 64.0455 52.151 62.6735C51.438 61.7915 51.081 61.3505 50.368 60.4685C48.623 61.8835 47.766 62.6205 46.089 64.1565C44.596 62.5245 43.85 61.7075 42.358 60.0755C44.594 58.0285 45.742 57.0555 48.091 55.2105C47.392 54.3175 47.042 53.8705 46.342 52.9775C42.527 55.9735 40.684 57.6015 37.168 61.1175C42.783 66.7335 45.59 69.5415 51.204 75.1555Z" fill="#92220F"/>
<path d="M67.6642 62.419C70.6852 60.647 71.4562 58.388 70.0282 55.549C68.2232 51.961 67.3212 50.167 65.5162 46.578C64.0892 43.74 61.3872 43.082 57.6312 45.284C55.2542 46.678 54.0832 47.419 51.7852 48.988C56.2552 55.552 58.4912 58.834 62.9612 65.397C64.8112 64.136 65.7522 63.54 67.6642 62.419ZM58.9992 47.772C60.1602 47.09 61.1152 47.148 61.8062 48.387C63.8172 51.994 64.8232 53.797 66.8342 57.404C67.5252 58.643 67.1692 59.42 66.1752 60.005C65.4702 60.419 65.1202 60.63 64.4232 61.063C61.4352 56.241 59.9412 53.83 56.9532 49.008C57.7672 48.503 58.1762 48.256 58.9992 47.772Z" fill="#92220F"/>
<path d="M81.8198 56.1311C84.9918 55.0141 86.1818 52.8431 85.3138 49.7881C83.6618 43.9711 82.8358 41.0631 81.1838 35.2461C79.6348 35.6841 78.8638 35.9191 77.3298 36.4201C79.2368 42.2421 80.1898 45.1531 82.0958 50.9761C82.5368 52.3241 82.0218 53.0241 80.9568 53.3981C79.8918 53.7721 79.0479 53.5481 78.5479 52.2211C76.3889 46.4871 75.3099 43.6201 73.1509 37.8871C71.5489 38.4891 70.7529 38.8081 69.1719 39.4801C71.5399 45.0441 72.7239 47.8271 75.0919 53.3911C76.3359 56.3131 78.6468 57.2481 81.8198 56.1311Z" fill="#92220F"/>
<path d="M90.6015 48.4404C91.2745 51.5454 93.3466 52.9044 96.6436 52.4044C99.9406 51.9044 101.503 49.9934 101.221 46.8294C101.127 45.7784 101.081 45.2534 100.987 44.2024C99.5895 44.3264 98.8915 44.4024 97.4995 44.5814C97.6445 45.7064 97.7175 46.2694 97.8625 47.3944C98.0445 48.8004 97.4125 49.3924 96.3065 49.5584C95.2005 49.7254 94.4205 49.3454 94.1785 47.9484C93.4455 43.7234 93.0795 41.6114 92.3465 37.3864C92.1045 35.9894 92.8245 35.3124 94.1225 35.1174C95.4205 34.9224 96.3075 35.3564 96.4895 36.7634C96.5985 37.6074 96.6535 38.0284 96.7625 38.8724C98.2445 38.6814 98.9875 38.6014 100.476 38.4694C100.407 37.7014 100.373 37.3174 100.304 36.5484C100.021 33.3854 97.7035 31.7064 93.5845 32.3314C89.4655 32.9564 87.7415 35.2484 88.4155 38.3524C89.2895 42.3874 89.7265 44.4054 90.6015 48.4404Z" fill="#92220F"/>
<path d="M109.635 47.6543C111.377 47.6693 112.248 47.6983 113.987 47.8013C114.146 49.2543 114.22 49.9803 114.358 51.4333C115.727 51.5243 116.411 51.5843 117.776 51.7323C117.261 43.6893 116.835 39.6603 115.645 31.6243C113.176 31.4613 111.939 31.4173 109.466 31.4033C107.702 39.3343 106.988 43.3213 105.898 51.3073C107.145 51.2613 107.769 51.2503 109.017 51.2523C109.253 49.8123 109.377 49.0933 109.635 47.6543ZM112.227 34.9743C112.876 39.0143 113.161 41.0373 113.649 45.0843C112.24 45.0083 111.534 44.9853 110.124 44.9653C110.884 40.9603 111.305 38.9613 112.227 34.9743Z" fill="#92220F"/>
<path d="M124.933 52.8327C126.271 53.0997 126.938 53.2467 128.266 53.5697C129.88 46.9567 130.687 43.6507 132.302 37.0387C133.98 37.4467 134.815 37.6687 136.477 38.1507C136.794 37.0617 136.953 36.5167 137.27 35.4277C132.215 33.9617 129.643 33.3947 124.47 32.5967C124.296 33.7177 124.209 34.2787 124.035 35.3997C125.736 35.6617 126.584 35.8117 128.274 36.1487C126.937 42.8217 126.269 46.1587 124.933 52.8327Z" fill="#92220F"/>
<path d="M139.337 57.1146C142.297 49.7446 143.777 46.0596 146.738 38.6896C145.147 38.0516 144.346 37.7496 142.734 37.1816C140.087 44.6696 138.764 48.4136 136.117 55.9016C137.412 56.3586 138.057 56.6006 139.337 57.1146Z" fill="#92220F"/>
<path d="M148.832 61.9204C151.813 63.6004 154.365 63.1594 156.1 60.4974C158.356 57.0384 159.483 55.3084 161.739 51.8494C163.474 49.1884 162.516 46.3184 158.791 44.2204C155.065 42.1214 152.165 42.8124 150.789 45.6764C149.001 49.3994 148.107 51.2604 146.319 54.9834C144.944 57.8484 145.85 60.2404 148.832 61.9204ZM149.509 56.8234C151.529 53.0404 152.539 51.1484 154.559 47.3654C155.227 46.1144 156.227 46.0314 157.401 46.6924C158.575 47.3534 159.028 48.2554 158.305 49.4764C156.119 53.1664 155.026 55.0114 152.841 58.7014C152.118 59.9214 151.223 60.0124 150.223 59.4484C149.223 58.8844 148.841 58.0754 149.509 56.8234Z" fill="#92220F"/>
<path d="M160.507 69.6264C164.143 65.1704 165.961 62.9424 169.597 58.4864C167.589 64.2744 166.447 67.0974 163.907 72.5664C165.008 73.5724 165.55 74.0904 166.616 75.1554C172.231 69.5404 175.038 66.7334 180.652 61.1194C179.503 59.9704 178.92 59.4104 177.738 58.3174C174.514 61.8094 172.902 63.5554 169.678 67.0474C171.698 62.4424 172.62 60.0804 174.276 55.2584C172.56 53.8094 171.686 53.1124 169.911 51.7734C165.137 58.1194 162.751 61.2924 157.977 67.6384C159 68.4104 159.506 68.8084 160.507 69.6264Z" fill="#92220F"/>
<path d="M122.34 115.289C126.709 111.351 131.89 107.928 137.403 104.8C146.149 99.8384 150.392 90.1974 147.636 81.0674C147.594 80.9274 147.551 80.7874 147.507 80.6484C142.572 85.5514 135.17 91.0534 124.074 96.7514C124.051 96.7634 124.03 96.7734 124.007 96.7854C123.169 97.3044 122.307 97.8204 121.39 98.3264C115.98 101.315 112.628 105.231 110.657 109.474C108.686 105.231 105.334 101.315 99.9238 98.3264C99.0068 97.8194 98.1438 97.3044 97.3068 96.7854C97.2838 96.7734 97.2628 96.7634 97.2398 96.7514C86.1448 91.0534 78.7418 85.5514 73.8068 80.6484C73.7628 80.7874 73.7198 80.9274 73.6778 81.0674C70.9218 90.1974 75.1648 99.8384 83.9108 104.8C89.4238 107.928 94.6048 111.351 98.9738 115.289C103.764 119.605 107.209 125.189 109.415 131.253C109.753 132.71 110.131 134.056 110.506 135.247C110.647 135.239 110.497 135.247 110.639 135.24C110.645 135.219 110.651 135.198 110.657 135.176C110.663 135.197 110.669 135.218 110.675 135.24C110.817 135.247 110.666 135.239 110.808 135.247C111.183 134.056 111.56 132.71 111.899 131.253C114.105 125.189 117.55 119.605 122.34 115.289Z" fill="#92220F"/>
<path d="M125.557 82.2736C128.875 74.2636 125.072 65.0805 117.062 61.7626C109.052 58.4447 99.8685 62.2483 96.5506 70.2583C93.2327 78.2683 97.0364 87.4514 105.046 90.7693C113.056 94.0873 122.239 90.2836 125.557 82.2736Z" fill="#92220F"/>
</svg>
