<svg width="16" height="17" viewBox="0 0 16 17" fill="none" xmlns="http://www.w3.org/2000/svg">
<path d="M2.84764 1.80454C2.88465 1.80442 2.92166 1.8043 2.95979 1.80418C3.06169 1.80391 3.16359 1.80392 3.26549 1.80406C3.3757 1.80413 3.48592 1.80385 3.59614 1.80362C3.81175 1.80322 4.02736 1.80316 4.24297 1.80324C4.41831 1.80329 4.59365 1.80324 4.76899 1.80311C4.79399 1.80309 4.81899 1.80307 4.84475 1.80305C4.89555 1.80301 4.94634 1.80297 4.99714 1.80294C5.473 1.8026 5.94887 1.80266 6.42473 1.80285C6.85953 1.80302 7.29433 1.80266 7.72914 1.80207C8.17621 1.80146 8.62328 1.80121 9.07036 1.80132C9.32111 1.80138 9.57186 1.80131 9.82261 1.80086C10.0361 1.80049 10.2495 1.80045 10.463 1.80083C10.5718 1.80101 10.6805 1.80105 10.7893 1.80067C10.9076 1.80034 11.0258 1.8006 11.144 1.80099C11.178 1.80076 11.2119 1.80053 11.2469 1.80029C11.7263 1.80365 12.1783 1.95429 12.5291 2.2873C12.9644 2.7559 13.0139 3.21905 13.0124 3.82842C13.0126 3.89308 13.0128 3.95774 13.0131 4.0224C13.0136 4.19725 13.0136 4.37209 13.0134 4.54694C13.0133 4.69324 13.0135 4.83955 13.0137 4.98585C13.0141 5.33117 13.0141 5.67649 13.0137 6.02181C13.0134 6.37731 13.0138 6.73281 13.0146 7.08831C13.0153 7.39424 13.0155 7.70017 13.0154 8.0061C13.0153 8.18851 13.0153 8.37091 13.0159 8.55332C13.0164 8.72492 13.0162 8.89651 13.0156 9.06811C13.0155 9.13083 13.0156 9.19355 13.016 9.25627C13.0188 9.8406 12.9233 10.2772 12.5174 10.7248C12.3876 10.849 12.2524 10.935 12.0935 11.0158C12.0735 11.026 12.0535 11.0362 12.0329 11.0467C11.7384 11.1863 11.4581 11.1944 11.1366 11.1727C11.0211 11.165 10.9055 11.1589 10.79 11.1525C10.7654 11.1511 10.7408 11.1497 10.7155 11.1482C10.1968 11.1191 9.67737 11.1039 9.15799 11.092C9.11547 11.091 9.11547 11.091 9.07209 11.09C7.27932 10.9991 7.27932 10.9991 5.72372 11.7499C5.35535 12.1042 5.05056 12.5325 4.80911 12.9816C4.72672 13.0942 4.63045 13.1322 4.50174 13.1779C4.2786 13.2117 4.10144 13.1725 3.90604 13.0627C3.7692 12.9466 3.70187 12.8298 3.65604 12.6564C3.64765 12.5432 3.64876 12.4304 3.64994 12.3168C3.65003 12.2845 3.65011 12.2522 3.65021 12.2189C3.65055 12.116 3.65134 12.0132 3.65213 11.9103C3.65245 11.8404 3.65273 11.7705 3.65299 11.7006C3.65368 11.5296 3.65472 11.3587 3.65604 11.1877C3.62203 11.1882 3.58802 11.1887 3.55298 11.1892C3.42509 11.1909 3.29719 11.192 3.16929 11.1928C3.11425 11.1933 3.05922 11.1939 3.00419 11.1948C2.41665 11.2033 1.91773 11.1228 1.47635 10.6984C1.1668 10.376 0.99509 10.0272 0.995192 9.57754C0.995019 9.53682 0.995019 9.53682 0.994844 9.49527C0.994499 9.40411 0.994379 9.31296 0.99426 9.2218C0.994064 9.15651 0.993856 9.09121 0.993637 9.02592C0.99298 8.81129 0.992656 8.59665 0.992345 8.38202C0.992218 8.30808 0.992089 8.23415 0.991959 8.16021C0.991363 7.81275 0.990919 7.46529 0.990658 7.11783C0.990353 6.71708 0.989531 6.31634 0.988268 5.91559C0.987324 5.60566 0.986862 5.29573 0.986759 4.98579C0.986686 4.80078 0.986407 4.61577 0.985619 4.43076C0.98489 4.25655 0.98476 4.08234 0.985081 3.90812C0.985096 3.84438 0.9849 3.78064 0.98447 3.7169C0.980793 3.13977 1.08319 2.71484 1.48221 2.27558C1.61195 2.15138 1.74719 2.0654 1.90604 1.98456C1.92604 1.97436 1.94604 1.96416 1.96664 1.95365C2.24951 1.81962 2.53886 1.80347 2.84764 1.80454ZM1.89859 2.8703C1.72232 3.08605 1.68263 3.29473 1.68269 3.56763C1.68258 3.59355 1.68246 3.61947 1.68234 3.64618C1.682 3.73316 1.68188 3.82014 1.68176 3.90712C1.68156 3.96944 1.68136 4.03176 1.68114 4.09408C1.68048 4.29886 1.68016 4.50365 1.67984 4.70844C1.67972 4.77897 1.67959 4.8495 1.67946 4.92004C1.67886 5.25144 1.67842 5.58285 1.67816 5.91426C1.67785 6.29662 1.67703 6.67897 1.67577 7.06132C1.67482 7.35698 1.67436 7.65263 1.67426 7.94828C1.67419 8.1248 1.67391 8.30132 1.67312 8.47784C1.67239 8.644 1.67226 8.81015 1.67258 8.97632C1.6726 9.03716 1.6724 9.09801 1.67197 9.15885C1.66927 9.56383 1.68085 9.88644 1.97294 10.1954C2.27641 10.4816 2.60065 10.504 3.00113 10.5057C3.06821 10.5064 3.13529 10.5072 3.20237 10.5079C3.3075 10.509 3.41262 10.51 3.51776 10.5104C3.61965 10.5109 3.72151 10.5121 3.8234 10.5135C3.85488 10.5134 3.88636 10.5134 3.91879 10.5133C4.13657 10.5171 4.13657 10.5171 4.23738 10.5912C4.30783 10.6965 4.31669 10.7575 4.31871 10.8838C4.31964 10.9354 4.31964 10.9354 4.3206 10.9881C4.32112 11.0253 4.32164 11.0626 4.32218 11.101C4.32283 11.1391 4.32348 11.1771 4.32415 11.2164C4.32619 11.3383 4.32803 11.4603 4.32987 11.5822C4.33122 11.6647 4.33258 11.7473 4.33396 11.8298C4.33731 12.0324 4.34049 12.235 4.34354 12.4377C4.54 12.277 4.71745 12.0987 4.89603 11.9188C4.95151 11.8629 5.0071 11.8071 5.06271 11.7514C5.1805 11.6332 5.29816 11.515 5.41581 11.3967C5.55273 11.259 5.68971 11.1214 5.82682 10.9839C5.88162 10.9289 5.93633 10.8738 5.99103 10.8187C6.02444 10.7852 6.05785 10.7517 6.09126 10.7182C6.10647 10.7028 6.12168 10.6874 6.13735 10.6716C6.26674 10.5422 6.32635 10.5275 6.50871 10.5269C6.52909 10.5268 6.54947 10.5267 6.57046 10.5266C6.63907 10.5262 6.70767 10.5261 6.77628 10.526C6.82535 10.5258 6.87442 10.5256 6.92349 10.5254C7.02937 10.5249 7.13524 10.5246 7.24111 10.5243C7.40871 10.5238 7.5763 10.523 7.74389 10.5222C8.22053 10.52 8.69717 10.5181 9.17382 10.5165C9.43692 10.5156 9.70001 10.5145 9.96311 10.5132C10.1295 10.5124 10.2959 10.5118 10.4623 10.5115C10.5662 10.5112 10.6701 10.5106 10.774 10.51C10.8219 10.5098 10.8699 10.5096 10.9178 10.5096C11.3387 10.5094 11.7192 10.4963 12.0389 10.1955C12.257 9.96578 12.317 9.74337 12.3169 9.43274C12.317 9.40682 12.3171 9.3809 12.3172 9.35419C12.3176 9.26721 12.3177 9.18023 12.3178 9.09325C12.318 9.03093 12.3182 8.96861 12.3184 8.90629C12.3191 8.70151 12.3194 8.49672 12.3197 8.29193C12.3199 8.2214 12.32 8.15087 12.3201 8.08033C12.3207 7.74893 12.3212 7.41752 12.3214 7.08611C12.3217 6.70375 12.3226 6.3214 12.3238 5.93905C12.3248 5.64339 12.3252 5.34774 12.3253 5.05209C12.3254 4.87557 12.3257 4.69905 12.3265 4.52253C12.3272 4.35637 12.3273 4.19022 12.327 4.02405C12.327 3.96321 12.3272 3.90237 12.3276 3.84152C12.3303 3.43654 12.3187 3.11393 12.0266 2.805C11.7206 2.51633 11.3932 2.49541 10.9895 2.49601C10.9541 2.49594 10.9186 2.49587 10.8821 2.49579C10.7635 2.4956 10.6448 2.49562 10.5262 2.49565C10.4411 2.49557 10.356 2.49545 10.2708 2.49533C10.0637 2.49507 9.85655 2.49498 9.64941 2.49497C9.48098 2.49495 9.31255 2.49489 9.14412 2.49479C8.66625 2.49451 8.18838 2.49437 7.71052 2.49439C7.6719 2.49439 7.6719 2.49439 7.6325 2.4944C7.59384 2.4944 7.59384 2.4944 7.5544 2.4944C7.13672 2.49441 6.71905 2.49411 6.30137 2.49367C5.87217 2.49322 5.44297 2.49301 5.01377 2.49303C4.77294 2.49304 4.53211 2.49296 4.29129 2.49262C4.08624 2.49234 3.88119 2.49227 3.67614 2.49248C3.57161 2.49258 3.46708 2.49255 3.36255 2.49231C3.24902 2.49207 3.13549 2.49222 3.02196 2.49246C2.97284 2.49222 2.97284 2.49222 2.92274 2.49197C2.51239 2.49389 2.18734 2.56624 1.89859 2.8703Z" fill="#FF0000"/>
<path d="M14.1244 3.99986C14.2266 4.05197 14.3155 4.11679 14.4057 4.18736C14.4313 4.20613 14.4569 4.2249 14.4833 4.24424C14.8463 4.55879 14.9901 5.00594 15.0307 5.46861C15.0412 5.66705 15.0392 5.86583 15.0388 6.06449C15.0388 6.12321 15.039 6.18194 15.0391 6.24066C15.0394 6.39891 15.0393 6.55717 15.0391 6.71542C15.0389 6.88182 15.0391 7.04821 15.0392 7.21461C15.0393 7.49397 15.0391 7.77333 15.0388 8.05269C15.0385 8.37463 15.0386 8.69656 15.0389 9.0185C15.0392 9.29598 15.0393 9.57346 15.0391 9.85094C15.039 10.0162 15.039 10.1815 15.0392 10.3467C15.0394 10.5022 15.0392 10.6576 15.0389 10.8131C15.0388 10.8698 15.0388 10.9265 15.039 10.9832C15.0403 11.5895 15.0182 12.1494 14.5932 12.6249C14.5761 12.6444 14.5591 12.664 14.5415 12.6842C14.2631 12.9842 13.8479 13.172 13.4381 13.1901C13.3681 13.191 13.2982 13.1909 13.2282 13.1904C13.2028 13.1904 13.1774 13.1903 13.1512 13.1903C13.0707 13.1901 12.9901 13.1897 12.9096 13.1893C12.8547 13.1892 12.7999 13.189 12.745 13.1889C12.6111 13.1885 12.4771 13.188 12.3432 13.1874C12.3434 13.2053 12.3436 13.2232 12.3438 13.2416C12.3459 13.4287 12.3473 13.6158 12.3483 13.8029C12.3488 13.8726 12.3494 13.9423 12.3502 14.0121C12.3514 14.1125 12.3519 14.213 12.3523 14.3135C12.3528 14.3445 12.3533 14.3755 12.3538 14.4074C12.3539 14.6485 12.3106 14.8334 12.1444 15.02C12.0086 15.1322 11.8287 15.1925 11.6537 15.203C11.4291 15.1745 11.2802 15.1145 11.1367 14.9315C11.0816 14.8577 11.0274 14.7833 10.9733 14.7087C10.4838 14.0456 9.87452 13.2635 9.0159 13.1303C8.26385 13.0349 7.48379 13.0842 6.73126 13.1557C6.70218 13.1583 6.6731 13.161 6.64314 13.1637C6.58932 13.1688 6.53554 13.1744 6.48183 13.1805C6.32525 13.1954 6.22919 13.1838 6.09317 13.0936C6.0173 12.9884 5.99148 12.9068 5.99942 12.7792C6.0227 12.6471 6.07894 12.5808 6.18692 12.4999C6.33785 12.4544 6.49675 12.4638 6.65291 12.4636C6.69951 12.4633 6.69951 12.4633 6.74705 12.4631C6.84965 12.4626 6.95224 12.4624 7.05484 12.4623C7.12626 12.4621 7.19768 12.4619 7.2691 12.4617C7.41878 12.4614 7.56846 12.4612 7.71814 12.4611C7.90978 12.4609 8.1014 12.4602 8.29303 12.4593C8.44054 12.4587 8.58804 12.4585 8.73554 12.4585C8.80619 12.4584 8.87683 12.4582 8.94747 12.4577C9.04635 12.4572 9.14522 12.4573 9.2441 12.4575C9.27316 12.4572 9.30223 12.4569 9.33218 12.4566C9.57684 12.4582 9.74955 12.5176 9.9249 12.691C9.94135 12.7079 9.95781 12.7248 9.97476 12.7423C9.99277 12.7603 10.0108 12.7782 10.0293 12.7968C10.0883 12.8558 10.1468 12.9153 10.2054 12.9748C10.2464 13.0161 10.2874 13.0573 10.3284 13.0984C10.436 13.2065 10.5432 13.315 10.6504 13.4235C10.7599 13.5343 10.8698 13.6448 10.9797 13.7553C11.195 13.9719 11.4098 14.1889 11.6244 14.4061C11.6245 14.3854 11.6247 14.3647 11.6248 14.3433C11.6261 14.1273 11.6282 13.9114 11.6309 13.6954C11.6318 13.6149 11.6325 13.5343 11.6329 13.4537C11.6336 13.3378 11.635 13.222 11.6366 13.1061C11.6367 13.0701 11.6367 13.0342 11.6367 12.9971C11.6427 12.6698 11.6427 12.6698 11.7807 12.5311C11.9477 12.4417 12.1404 12.4599 12.3252 12.4601C12.396 12.4594 12.4667 12.4588 12.5374 12.4581C12.6483 12.4574 12.7592 12.4569 12.8701 12.4567C12.9775 12.4564 13.085 12.4554 13.1924 12.4542C13.2252 12.4544 13.2581 12.4545 13.2919 12.4547C13.5935 12.4507 13.8157 12.3612 14.0371 12.1561C14.2348 11.9356 14.2853 11.7208 14.2853 11.4324C14.2854 11.4065 14.2855 11.3806 14.2856 11.3539C14.286 11.2669 14.2861 11.1799 14.2862 11.0929C14.2864 11.0306 14.2866 10.9683 14.2868 10.906C14.2875 10.7012 14.2878 10.4964 14.2881 10.2916C14.2882 10.2211 14.2884 10.1505 14.2885 10.08C14.2891 9.7486 14.2895 9.41719 14.2898 9.08579C14.2901 8.70343 14.2909 8.32108 14.2922 7.93872C14.2931 7.64307 14.2936 7.34742 14.2937 7.05176C14.2938 6.87524 14.2941 6.69872 14.2948 6.5222C14.2956 6.35604 14.2957 6.18989 14.2954 6.02373C14.2954 5.96288 14.2956 5.90204 14.296 5.8412C14.2987 5.43309 14.285 5.11461 13.9933 4.80223C13.9186 4.73283 13.8344 4.68088 13.7494 4.62486C13.66 4.51754 13.6375 4.42146 13.6422 4.28111C13.6665 4.16828 13.7304 4.11071 13.8119 4.03111C13.9147 3.97971 14.0138 3.97965 14.1244 3.99986Z" fill="#FF0000"/>
<path d="M7.95783 4.12415C8.14175 4.2798 8.26997 4.44015 8.37555 4.65626C8.38845 4.68039 8.40134 4.70452 8.41462 4.72938C8.56098 5.05108 8.56299 5.51615 8.44977 5.84962C8.42676 5.90057 8.40202 5.95077 8.37555 6.00001C8.36158 6.02712 8.3476 6.05423 8.3332 6.08216C8.19065 6.33859 8.02292 6.49937 7.7779 6.65821C7.56589 6.79575 7.44415 6.90624 7.37555 7.15626C7.37047 7.23429 7.3673 7.31246 7.36579 7.39063C7.35228 7.64522 7.35228 7.64522 7.26813 7.7461C7.15688 7.83836 7.0875 7.85605 6.94135 7.85499C6.82506 7.83514 6.76921 7.77064 6.68805 7.68751C6.58516 7.48171 6.63467 7.11181 6.67817 6.8921C6.80239 6.5313 7.03694 6.24389 7.36188 6.04884C7.55444 5.93087 7.66382 5.80099 7.76227 5.59962C7.82449 5.28232 7.76737 5.06212 7.60602 4.78907C7.42972 4.62205 7.21025 4.53508 6.9693 4.53126C6.78191 4.5524 6.65365 4.60576 6.50055 4.71876C6.46962 4.72907 6.43868 4.73938 6.4068 4.75001C6.37148 4.80679 6.37148 4.80679 6.3443 4.87501C6.33399 4.8968 6.32368 4.9186 6.31305 4.94105C6.26214 5.05301 6.21952 5.15539 6.19001 5.2754C6.14822 5.40075 6.11794 5.43887 6.00055 5.50001C5.89262 5.51883 5.79576 5.52105 5.68805 5.50001C5.5998 5.43156 5.55008 5.38032 5.50055 5.28126C5.46926 4.9433 5.60568 4.63638 5.81305 4.37501C5.88923 4.29102 5.88923 4.29102 5.9693 4.21876C5.98457 4.20373 5.99984 4.18871 6.01557 4.17323C6.54464 3.67683 7.39448 3.70206 7.95783 4.12415Z" fill="#FF0000"/>
<path d="M7.15695 8.49996C7.24521 8.5684 7.29492 8.61965 7.34445 8.71871C7.36251 8.93904 7.36251 8.93904 7.28976 9.05855C7.19331 9.14965 7.13634 9.18199 7.00461 9.19918C6.88055 9.18429 6.81647 9.13963 6.71945 9.06246C6.64233 8.94678 6.63568 8.85293 6.65695 8.71871C6.78104 8.49121 6.90799 8.46394 7.15695 8.49996Z" fill="#FF0000"/>
</svg>
