<?xml version="1.0" encoding="UTF-8"?>
<svg version="1.1" xmlns="http://www.w3.org/2000/svg" width="512" height="512">
<path d="M0 0 C1.18430764 -0.00382555 2.36861529 -0.00765109 3.58881104 -0.01159257 C6.8495538 -0.02007971 10.11015115 -0.0197066 13.37089753 -0.01541197 C16.8979218 -0.0129335 20.42492018 -0.02197275 23.95193481 -0.02944946 C30.85145799 -0.04216736 37.7509422 -0.0439938 44.65047513 -0.0416492 C50.26131282 -0.03986266 55.87213872 -0.04162287 61.48297501 -0.04587364 C62.28301019 -0.04646883 63.08304538 -0.04706402 63.90732405 -0.04767724 C65.53284994 -0.04888906 67.15837582 -0.05010319 68.78390171 -0.05131962 C84.01151009 -0.0621839 99.23909631 -0.06003791 114.46670593 -0.05393478 C128.38042282 -0.04876631 142.29406968 -0.06002118 156.20777272 -0.07903299 C170.51411086 -0.0984306 184.8204159 -0.10666404 199.12676728 -0.10290974 C207.15078736 -0.10100065 215.17474785 -0.10345674 223.19875717 -0.11762428 C230.029549 -0.12956357 236.86024454 -0.13091448 243.69103776 -0.11883412 C247.17206451 -0.11296332 250.65291538 -0.11179575 254.13393021 -0.12383652 C257.91724794 -0.13432166 261.70009723 -0.12618837 265.48339844 -0.11352539 C266.56999815 -0.12089968 267.65659786 -0.12827396 268.77612484 -0.13587171 C284.11657396 -0.02832185 298.58093385 4.79189838 309.80618286 15.44819641 C323.73489295 30.44361184 325.32140555 45.26422864 325.2727356 64.76411438 C325.27844522 66.83329129 325.28541176 68.90246506 325.29353333 70.97163391 C325.31141478 76.56676403 325.31030571 82.16173689 325.30459094 87.75688696 C325.30149169 92.43858335 325.30759976 97.12024986 325.31362969 101.80194199 C325.32765699 112.8521838 325.32612869 123.90234826 325.31472778 134.95259094 C325.30324955 146.32873241 325.31732152 157.70463804 325.34412426 169.08074844 C325.36632052 178.8704935 325.37290975 188.66016475 325.36704785 198.44993317 C325.36368633 204.28697556 325.36603971 210.12386683 325.38329887 215.96088791 C325.39882841 221.45218495 325.39474586 226.94313413 325.37599373 232.43441772 C325.3723244 234.44143739 325.37536758 236.44848318 325.38587952 238.45547867 C325.47628544 257.15409521 322.42154831 271.1260456 309.43118286 285.44819641 C305.27944331 289.42245702 300.95192255 292.17398379 295.86868286 294.76069641 C295.2287439 295.08707092 294.58880493 295.41344543 293.92947388 295.74971008 C284.50449042 300.21555229 275.53381651 300.47484808 265.24569321 299.78193736 C261.55043368 299.53556332 257.85232214 299.33880682 254.15458679 299.13363647 C253.36821087 299.08893518 252.58183495 299.04423388 251.77162945 298.99817801 C235.17247713 298.06635207 218.55105203 297.57944216 201.93118286 297.19819641 C200.57051067 297.16672311 200.57051067 297.16672311 199.18235016 297.13461399 C141.81364984 294.2251016 141.81364984 294.2251016 92.0344696 318.2512207 C80.2464607 329.58799606 70.49341768 343.29382653 62.76687622 357.66679382 C60.13029778 361.26970793 57.04982352 362.48674327 52.93118286 363.94819641 C45.79067868 365.03009098 40.1215045 363.77340181 33.86868286 360.26069641 C29.48984726 356.54722802 27.33510382 352.80795742 25.86868286 347.26069641 C25.60027299 343.63622306 25.63576281 340.02617861 25.67337036 336.39350891 C25.67620026 335.35878448 25.67903015 334.32406006 25.6819458 333.25798035 C25.69310238 329.96709928 25.71819889 326.67649464 25.74368286 323.38569641 C25.7537185 321.14872119 25.76284333 318.91174168 25.77102661 316.67475891 C25.79302691 311.20331111 25.82645948 305.73202352 25.86868286 300.26069641 C24.78039185 300.27640686 23.69210083 300.29211731 22.5708313 300.30830383 C18.47813513 300.36318859 14.38547049 300.39725624 10.29251099 300.42549133 C8.53138737 300.44044609 6.77030012 300.46081737 5.00930786 300.48701477 C-13.79190908 300.75941877 -29.75733646 298.18519706 -43.88131714 284.60444641 C-53.7870966 274.28592614 -59.28175163 263.12430674 -59.27848816 248.73616028 C-59.28400319 247.43291361 -59.28400319 247.43291361 -59.28962964 246.10333872 C-59.30065949 243.18638427 -59.30450918 240.26946546 -59.30831909 237.35249329 C-59.31458439 235.26302477 -59.32123125 233.17355737 -59.32823181 231.08409119 C-59.34927103 224.21588415 -59.35963577 217.3476769 -59.36959839 210.47944641 C-59.37364634 208.11346424 -59.37776328 205.74748218 -59.38194847 203.38150024 C-59.40100178 192.2628086 -59.41523113 181.14412359 -59.42356044 170.02541876 C-59.43332629 157.20138592 -59.45962833 144.37752599 -59.50006133 131.55355406 C-59.53025529 121.63574438 -59.54503254 111.71798415 -59.54834145 101.80012941 C-59.55068867 95.87971609 -59.55960622 89.95948745 -59.58480263 84.03912354 C-59.60814483 78.46423395 -59.61229175 72.88964983 -59.60204124 67.31472397 C-59.60154723 65.27502804 -59.60782774 63.23531677 -59.62159729 61.19566727 C-59.73923973 42.72742917 -56.46256286 29.12954674 -43.69381714 15.07319641 C-39.54207759 11.0989358 -35.21455683 8.34740903 -30.13131714 5.76069641 C-29.49137817 5.4343219 -28.85143921 5.10794739 -28.19210815 4.77168274 C-19.14044304 0.48273006 -9.881256 -0.03422766 0 0 Z M-30.36959839 34.10444641 C-36.01026729 41.00832498 -37.28056485 47.68615359 -37.27848816 56.41905212 C-37.28216485 57.24845885 -37.28584154 58.07786557 -37.28962964 58.93240583 C-37.30065591 61.71583317 -37.30450854 64.49922316 -37.30831909 67.28266907 C-37.31458458 69.27686176 -37.32123146 71.27105328 -37.32823181 73.26524353 C-37.34926586 79.81840706 -37.35963414 86.37157081 -37.36959839 92.92475891 C-37.3736463 95.18182258 -37.37776323 97.43888613 -37.38194847 99.69594955 C-37.40099933 110.30099056 -37.41523014 120.90602461 -37.42356044 131.51107943 C-37.43333042 143.74651069 -37.45964425 155.98176092 -37.50006133 168.2171284 C-37.53023923 177.67801046 -37.54503095 187.13884069 -37.54834145 196.59976995 C-37.55069017 202.24849121 -37.5596276 207.89701906 -37.58480263 213.54568863 C-37.60811724 218.86285277 -37.61230283 224.1796966 -37.60204124 229.49689865 C-37.60154659 231.44390683 -37.60784622 233.39093095 -37.62159729 235.33789062 C-37.70797503 248.29732833 -37.33734797 258.62090419 -27.99069214 268.50679016 C-18.2794188 277.66721397 -7.90367222 278.38317849 4.91165161 278.43647766 C7.05814602 278.45965446 9.20463046 278.48377089 11.35110474 278.50874329 C14.71535157 278.54397487 18.07922429 278.57328775 21.44363403 278.58662415 C24.70425615 278.60205708 27.96381048 278.64220653 31.22415161 278.68647766 C32.23148849 278.68456924 33.23882538 278.68266083 34.27668762 278.68069458 C41.24553688 278.80320053 41.24553688 278.80320053 44.47146606 281.17158508 C46.72595873 284.54249086 47.0094251 286.49571105 47.07400513 290.53657532 C47.10392296 292.18806076 47.10392296 292.18806076 47.13444519 293.87290955 C47.15115768 295.06564484 47.16787018 296.25838013 47.18508911 297.48725891 C47.20587021 298.70521149 47.22665131 299.92316406 47.24806213 301.17802429 C47.3136087 305.08052261 47.37246642 308.98308992 47.43118286 312.88569641 C47.47436321 315.52632863 47.51797734 318.1669538 47.56204224 320.80757141 C47.6692953 327.29187284 47.77105216 333.77624336 47.86868286 340.26069641 C54.15524173 335.11930004 59.83390478 329.41248098 65.54824257 323.6563015 C67.32380131 321.86786518 69.10256533 320.08267176 70.88215637 318.29824829 C74.65133167 314.51771371 78.41653098 310.73323471 82.18118286 306.94819641 C86.56286335 302.54290848 90.94616181 298.13925565 95.33366966 293.73977089 C97.08732726 291.97962467 98.83795217 290.21649951 100.58848572 288.45324707 C101.65740495 287.38069746 102.72646362 286.30828679 103.79568481 285.23603821 C104.28243683 284.74411987 104.76918884 284.25220154 105.27069092 283.74537659 C109.41119509 279.60421942 111.31854975 279.13512321 117.15408325 279.11593628 C117.80618837 279.11240943 118.4582935 279.10888259 119.13015938 279.10524887 C121.3255597 279.09453468 123.52091668 279.09087609 125.71633911 279.08711243 C127.28659754 279.08080888 128.85685417 279.07404331 130.42710876 279.06684875 C133.81508003 279.05215977 137.20304431 279.0404424 140.59103394 279.03090096 C145.95396157 279.01545828 151.31683001 278.99150627 156.67971802 278.96600342 C171.93228408 278.89478436 187.18488478 278.83513909 202.43753052 278.78388977 C210.85667104 278.75552566 219.27575338 278.72010646 227.6948328 278.67723602 C233.01921776 278.65054831 238.34353688 278.63259046 243.66797543 278.62119877 C246.99321247 278.61202797 250.31837018 278.59464435 253.64356041 278.57501984 C255.17772858 278.56758914 256.71191718 278.563466 258.24610329 278.56302452 C271.71394513 278.55602406 283.88913572 278.13628505 294.11868286 268.51069641 C301.0992801 261.15981209 303.0182177 254.04267344 303.01585388 244.1023407 C303.01953057 243.27293398 303.02320726 242.44352725 303.02699536 241.58898699 C303.03802163 238.80555965 303.04187427 236.02216966 303.04568481 233.23872375 C303.0519503 231.24453106 303.05859718 229.25033954 303.06559753 227.25614929 C303.08663158 220.70298576 303.09699987 214.14982201 303.10696411 207.59663391 C303.11101202 205.33957024 303.11512896 203.08250669 303.11931419 200.82544327 C303.13836505 190.22040226 303.15259586 179.61536822 303.16092616 169.01031339 C303.17069614 156.77488214 303.19700997 144.5396319 303.23742706 132.30426443 C303.26760495 122.84338236 303.28239667 113.38255213 303.28570718 103.92162287 C303.2880559 98.27290161 303.29699332 92.62437376 303.32216835 86.97570419 C303.34548297 81.65854005 303.34966855 76.34169622 303.33940697 71.02449417 C303.33891231 69.077486 303.34521194 67.13046187 303.35896301 65.1835022 C303.44534075 52.22406449 303.07471369 41.90048863 293.72805786 32.01460266 C283.93523866 22.7772585 273.45911275 22.10801094 260.54023743 22.12698364 C259.40608455 22.12471809 258.27193168 22.12245253 257.10341054 22.12011832 C253.30665174 22.11379301 249.50992877 22.11460675 245.71316528 22.11543274 C242.98947515 22.11298331 240.26578752 22.10906586 237.542099 22.10525513 C230.91355812 22.09696074 224.28502614 22.09420084 217.65648051 22.09364275 C212.26676222 22.09316703 206.87704685 22.09110948 201.48732948 22.08794212 C186.19550877 22.07913897 170.90369507 22.07452223 155.6118718 22.0752726 C154.37617223 22.07533253 154.37617223 22.07533253 153.11550903 22.07539368 C151.8782951 22.075455 151.8782951 22.075455 150.61608694 22.07551756 C137.25049879 22.07592396 123.88493883 22.06635489 110.51935884 22.05225531 C96.78491622 22.0378813 83.05048733 22.03098569 69.316037 22.03184909 C61.60951027 22.03218069 53.90301309 22.02944945 46.19649315 22.01867104 C39.63494975 22.00955256 33.0734493 22.00740185 26.5119023 22.01418046 C23.16685087 22.01743885 19.8219488 22.01643384 16.47689438 22.00882721 C12.84388275 22.00110177 9.21108627 22.00575599 5.57807922 22.01345825 C4.00640866 22.00574291 4.00640866 22.00574291 2.40298718 21.9978717 C-10.72819836 22.05924265 -21.1297876 24.37450814 -30.36959839 34.10444641 Z " fill="#000000" transform="translate(91.13131713867188,41.73930358886719)"/>
<path d="M0 0 C3.26962933 1.66740233 6.1150629 3.74177275 9 6 C9.81984375 6.60070312 10.6396875 7.20140625 11.484375 7.8203125 C23.10100318 17.88565183 27.70132853 32.19453891 29 47 C29.3380113 53.35015888 29.27436983 59.71117534 29.25878906 66.06811523 C29.2615052 67.94729751 29.2650696 69.82647873 29.26940918 71.70565796 C29.27846204 76.76975112 29.2750183 81.83376203 29.26865101 86.89785647 C29.26355323 92.2226016 29.26829296 97.54734014 29.27142334 102.87208557 C29.27505236 111.81162772 29.27029224 120.75113672 29.26074219 129.69067383 C29.24986305 139.99261777 29.25338362 150.2944825 29.264395 160.59642452 C29.27350228 169.4758555 29.27473628 178.35526278 29.26951766 187.23469692 C29.26641639 192.52286104 29.26593743 197.81098805 29.27259064 203.0991497 C29.27841364 208.07414159 29.27427756 213.04903243 29.26280212 218.02401352 C29.26018168 219.83830028 29.26087522 221.6525957 29.26532745 223.46687889 C29.30850884 242.86798593 28.60010061 260.78433668 15 276 C14.45472656 276.62648438 13.90945313 277.25296875 13.34765625 277.8984375 C4.43781326 287.50010359 -8.84786404 293.50869316 -21.96142578 294.08641052 C-24.20154419 294.11511301 -26.43943627 294.11251126 -28.6796875 294.09765625 C-29.49245148 294.0962413 -30.30521545 294.09482635 -31.14260864 294.09336853 C-33.72011101 294.08780335 -36.2975242 294.0752574 -38.875 294.0625 C-40.63020707 294.0574805 -42.38541552 294.05291838 -44.140625 294.04882812 C-48.42711732 294.03784534 -52.71354357 294.02060492 -57 294 C-56.99333817 294.5732753 -56.98667633 295.1465506 -56.97981262 295.73719788 C-56.91325498 301.72342297 -56.86811483 307.7095423 -56.83520508 313.69604492 C-56.82015259 315.92785922 -56.79970602 318.1596441 -56.77368164 320.39135742 C-56.73714312 323.60603104 -56.72023785 326.82031228 -56.70703125 330.03515625 C-56.69154739 331.02709488 -56.67606354 332.01903351 -56.66011047 333.04103088 C-56.65825185 340.75502803 -58.04341818 346.67208578 -63.359375 352.64453125 C-67.70558158 356.23532573 -73.46394849 358.16408691 -79.0625 358.5 C-86.25056192 357.58723023 -91.01461892 355.66777444 -95.6081562 349.81143665 C-97.37037251 347.44935534 -99.10594743 345.06876029 -100.83442688 342.68190956 C-116.50112802 321.46377065 -135.9969997 296.4357937 -163.47265625 292.17333984 C-187.53847418 289.12157496 -212.50016352 290.69921085 -236.58117676 292.98625183 C-237.51174235 293.07126544 -238.44230795 293.15627905 -239.4010725 293.24386883 C-241.12339365 293.4063044 -242.84436876 293.58411809 -244.56310749 293.7808733 C-249.57367776 294.25864277 -252.64760255 293.88562119 -257 291 C-259.42805788 287.63204875 -260.25424769 285.02087191 -260 280.9375 C-259.25516565 276.71137467 -257.45550813 274.5916311 -254 272 C-249.17044479 270.54380146 -244.08559094 270.84484713 -239.08837891 270.83886719 C-237.59722313 270.83141983 -237.59722313 270.83141983 -236.07594299 270.82382202 C-232.79280908 270.80923685 -229.50972346 270.80240504 -226.2265625 270.796875 C-223.94119262 270.79112129 -221.65582274 270.78536358 -219.37045288 270.77960205 C-214.58062516 270.76910295 -209.79081417 270.7632529 -205.00097656 270.75976562 C-198.86870593 270.75427813 -192.73665701 270.73023986 -186.60445595 270.70179367 C-181.88436234 270.68315667 -177.16432209 270.67796115 -172.44419479 270.67642975 C-170.18360556 270.67340596 -167.9230172 270.66538668 -165.66246414 270.65224457 C-162.49827496 270.63515952 -159.33462696 270.63707034 -156.17041016 270.64355469 C-155.24030624 270.6343399 -154.31020233 270.62512512 -153.35191345 270.6156311 C-145.52269782 270.66580297 -139.99594838 272.5673394 -134.38484192 278.11747742 C-133.85831528 278.65838516 -133.33178864 279.19929291 -132.78930664 279.7565918 C-132.21282379 280.33249054 -131.63634094 280.90838928 -131.04238892 281.5017395 C-129.15532977 283.3915665 -127.28280627 285.29512193 -125.41015625 287.19921875 C-124.09824353 288.51859844 -122.78543992 289.83709283 -121.4717865 291.15473938 C-118.02864919 294.61309688 -114.59769767 298.08329963 -111.16918945 301.55615234 C-107.66372712 305.10264512 -104.1468125 308.63774101 -100.63085938 312.17382812 C-93.74268319 319.10481139 -86.86733339 326.04836909 -80 333 C-79.99635437 332.33680756 -79.99270874 331.67361511 -79.98895264 330.99032593 C-79.94709853 324.07929614 -79.87773176 317.16892865 -79.79248047 310.25830078 C-79.76427841 307.68024321 -79.74306013 305.10209929 -79.72900391 302.52392578 C-79.70756491 298.81498025 -79.66090604 295.10707207 -79.609375 291.3984375 C-79.60814636 290.24822113 -79.60691772 289.09800476 -79.60565186 287.91293335 C-79.41454521 277.43944966 -79.41454521 277.43944966 -75 273 C-69.65555228 270.13817096 -63.49026082 270.72097885 -57.57421875 270.7265625 C-55.31054195 270.7062716 -53.04687011 270.68542078 -50.78320312 270.6640625 C-47.23506469 270.64149258 -43.68712289 270.62499938 -40.13891602 270.61914062 C-36.70032711 270.60957903 -33.26261062 270.57575698 -29.82421875 270.5390625 C-28.7739299 270.54410797 -27.72364105 270.54915344 -26.64152527 270.55435181 C-16.98835482 270.42644894 -9.87840156 267.56215734 -2.79296875 261 C3.53193348 253.94477137 5.14936582 247.07119114 5.14717102 237.84164429 C5.15084771 237.01223756 5.1545244 236.18283084 5.1583125 235.32829058 C5.16933877 232.54486324 5.1731914 229.76147325 5.17700195 226.97802734 C5.18326744 224.98383465 5.18991432 222.98964313 5.19691467 220.99545288 C5.21794872 214.44228935 5.22831701 207.8891256 5.23828125 201.3359375 C5.24232916 199.07887383 5.2464461 196.82181028 5.25063133 194.56474686 C5.26968219 183.95970585 5.283913 173.35467181 5.2922433 162.74961698 C5.30201328 150.51418572 5.32832711 138.27893549 5.36874419 126.04356802 C5.39892209 116.58268595 5.41371381 107.12185572 5.41702431 97.66092646 C5.41937303 92.0122052 5.42831046 86.36367735 5.45348549 80.71500778 C5.4768001 75.39784364 5.48098569 70.08099981 5.47072411 64.76379776 C5.47022945 62.81678959 5.47652908 60.86976546 5.49028015 58.92280579 C5.57732374 45.86346957 5.13996895 35.67214486 -4.1953125 25.67578125 C-6.58695517 23.4549702 -9.27992362 21.79277761 -12 20 C-14.86176618 16.56588058 -15.58279186 13.49106108 -15.4296875 9 C-14.65395507 5.38931815 -12.60947818 3.54734775 -10 1 C-6.71024651 -0.64487674 -3.54136991 -0.64663239 0 0 Z " fill="#000000" transform="translate(452,112)"/>
<path d="M0 0 C5.88532192 4.98056348 9.98856315 10.11172203 13.3671875 17.02734375 C13.7796875 17.79949219 14.1921875 18.57164062 14.6171875 19.3671875 C19.30092521 29.66165268 19.3650947 44.54401204 15.7421875 55.21484375 C15.00583958 56.84514389 14.21404349 58.4516148 13.3671875 60.02734375 C12.91988281 60.89488281 12.47257812 61.76242188 12.01171875 62.65625 C7.45036124 70.86180198 2.08295764 76.00679546 -5.7578125 81.08984375 C-12.54201856 85.49109743 -16.43790182 89.02684681 -18.6328125 97.02734375 C-18.79553602 99.52421614 -18.89700726 102.02564087 -18.9453125 104.52734375 C-19.37745693 112.67406661 -19.37745693 112.67406661 -22.0703125 115.90234375 C-25.63037931 118.85459428 -27.85050336 119.42079409 -32.52734375 119.38671875 C-36.24874703 118.75152561 -38.03594099 116.68755359 -40.6328125 114.02734375 C-43.9255889 107.44179096 -42.34104312 95.60492015 -40.94921875 88.57421875 C-36.97423187 77.02861371 -29.46842166 67.83152716 -19.0703125 61.58984375 C-12.9083504 57.81479554 -9.40822169 53.65886254 -6.2578125 47.21484375 C-4.26692888 37.06133728 -6.09472293 30.01487995 -11.2578125 21.27734375 C-16.89938984 15.93269154 -23.92258155 13.14972837 -31.6328125 13.02734375 C-37.62928836 13.70386923 -41.73362477 15.41127661 -46.6328125 19.02734375 C-47.6228125 19.35734375 -48.6128125 19.68734375 -49.6328125 20.02734375 C-50.76324902 21.84441841 -50.76324902 21.84441841 -51.6328125 24.02734375 C-51.9628125 24.72472656 -52.2928125 25.42210937 -52.6328125 26.140625 C-54.26198298 29.72352726 -55.62594197 32.9994036 -56.5703125 36.83984375 C-57.90742226 40.85117302 -58.87637615 42.07086648 -62.6328125 44.02734375 C-66.08681638 44.62952206 -69.18618904 44.7008219 -72.6328125 44.02734375 C-75.45705538 41.83711457 -77.04789853 40.19717168 -78.6328125 37.02734375 C-79.63417159 26.2126656 -75.26865808 16.39127411 -68.6328125 8.02734375 C-66.1953125 5.33984375 -66.1953125 5.33984375 -63.6328125 3.02734375 C-63.14425781 2.54652344 -62.65570313 2.06570312 -62.15234375 1.5703125 C-45.2222007 -14.31426352 -18.02722985 -13.50704907 0 0 Z " fill="#000000" transform="translate(254.6328125,115.97265625)"/>
<path d="M0 0 C2.82424288 2.19022918 4.41508603 3.83017207 6 7 C6.57791538 14.0505676 6.57791538 14.0505676 4.25 17.875 C1.16344962 20.79007536 -0.65937595 21.82513599 -4.875 22.375 C-8.84487514 21.89861498 -10.89536536 20.46959574 -14 18 C-16.4678316 14.29825261 -16.68072732 11.29506525 -16 7 C-12.02914984 -0.27989195 -7.96657603 -1.15239779 0 0 Z " fill="#000000" transform="translate(229,256)"/>
</svg>
