<svg width="16" height="17" viewBox="0 0 16 17" fill="none" xmlns="http://www.w3.org/2000/svg">
<g clip-path="url(#clip0_3177_7242)">
<path d="M2.06483 4.55768C2.10534 4.55746 2.14586 4.55723 2.18761 4.557C2.23278 4.55691 2.27796 4.55683 2.32313 4.55675C2.37051 4.55655 2.41789 4.55634 2.46527 4.55613C2.62124 4.55547 2.77722 4.55514 2.9332 4.55483C2.98696 4.55471 3.04071 4.55458 3.09447 4.55445C3.34727 4.55385 3.60007 4.55341 3.85288 4.55315C4.14413 4.55284 4.43537 4.55202 4.72662 4.55076C4.952 4.54981 5.17737 4.54935 5.40275 4.54925C5.5372 4.54917 5.67165 4.5489 5.8061 4.54811C5.93289 4.54737 6.05966 4.54725 6.18646 4.54757C6.2327 4.54758 6.27894 4.54739 6.32518 4.54696C6.89431 4.54194 7.34975 4.71019 7.76047 5.09927C7.82218 5.16451 7.86619 5.21779 7.9133 5.29189C7.93159 5.31925 7.94988 5.3466 7.96872 5.37478C7.98935 5.37478 8.00997 5.37478 8.03122 5.37478C8.07812 5.32 8.07812 5.32 8.12692 5.24978C8.41467 4.87263 8.78504 4.6541 9.24997 4.56228C9.41114 4.54916 9.57193 4.5491 9.73353 4.54965C9.7813 4.54947 9.82908 4.54926 9.87686 4.549C10.0056 4.54845 10.1343 4.54848 10.2631 4.54866C10.3708 4.54875 10.4785 4.54856 10.5862 4.54837C10.8403 4.54794 11.0944 4.54798 11.3484 4.54834C11.6102 4.5487 11.8721 4.54826 12.1339 4.54742C12.3592 4.54673 12.5845 4.54652 12.8098 4.5467C12.9441 4.54681 13.0785 4.54673 13.2128 4.5462C13.339 4.54571 13.4652 4.54584 13.5913 4.54643C13.6376 4.54654 13.6838 4.54644 13.73 4.54612C13.7932 4.5457 13.8565 4.54614 13.9197 4.54662C13.955 4.54662 13.9903 4.54663 14.0267 4.54664C14.1735 4.57 14.272 4.64121 14.3691 4.75173C14.4407 4.86861 14.4412 4.96581 14.4405 5.09975C14.4404 5.13752 14.4403 5.17529 14.4402 5.2142C14.44 5.25365 14.4397 5.29311 14.4394 5.33376C14.4393 5.37358 14.4391 5.4134 14.439 5.45443C14.4386 5.55288 14.4381 5.65133 14.4375 5.74978C14.4672 5.74912 14.497 5.74847 14.5277 5.74779C14.6393 5.74551 14.751 5.74409 14.8626 5.74291C14.9107 5.74229 14.9588 5.74144 15.0069 5.74035C15.5933 5.72741 15.5933 5.72741 15.8081 5.9295C15.9385 6.06901 16.0076 6.20755 16.0081 6.40105C16.0083 6.43082 16.0085 6.46059 16.0088 6.49125C16.0087 6.5237 16.0086 6.55615 16.0085 6.58958C16.0087 6.62425 16.0089 6.65891 16.009 6.69463C16.0095 6.81103 16.0095 6.92742 16.0095 7.04382C16.0098 7.12718 16.01 7.21054 16.0103 7.2939C16.011 7.52053 16.0113 7.74716 16.0115 7.97379C16.0116 8.11533 16.0118 8.25687 16.012 8.39842C16.0126 8.79043 16.0131 9.18244 16.0132 9.57445C16.0132 9.59952 16.0132 9.6246 16.0132 9.65044C16.0132 9.70128 16.0132 9.75212 16.0133 9.80295C16.0133 9.82819 16.0133 9.85342 16.0133 9.87943C16.0133 9.91732 16.0133 9.91732 16.0133 9.95599C16.0134 10.3654 16.0142 10.7749 16.0154 11.1843C16.0166 11.6048 16.0172 12.0253 16.0172 12.4458C16.0172 12.6819 16.0175 12.9179 16.0184 13.154C16.0192 13.3549 16.0194 13.5559 16.0189 13.7569C16.0187 13.8594 16.0188 13.9619 16.0194 14.0644C16.0201 14.1756 16.0197 14.2868 16.0192 14.3981C16.0196 14.4303 16.02 14.4625 16.0204 14.4958C16.0174 14.7554 15.9374 14.904 15.7578 15.0877C15.4571 15.29 15.1302 15.263 14.7831 15.2617C14.7222 15.2618 14.6613 15.2619 14.6004 15.2621C14.4334 15.2625 14.2664 15.2623 14.0994 15.262C13.9192 15.2618 13.739 15.2621 13.5588 15.2624C13.2059 15.2628 12.8529 15.2627 12.5 15.2625C12.2132 15.2622 11.9264 15.2622 11.6396 15.2623C11.5987 15.2623 11.5579 15.2624 11.5159 15.2624C11.4329 15.2624 11.35 15.2624 11.2671 15.2625C10.5117 15.2627 9.75628 15.2624 9.00086 15.262C8.31145 15.2615 7.62203 15.2616 6.93262 15.262C6.15782 15.2625 5.38303 15.2627 4.60823 15.2624C4.52562 15.2624 4.443 15.2624 4.36039 15.2623C4.29942 15.2623 4.29942 15.2623 4.23721 15.2623C3.95072 15.2622 3.66424 15.2623 3.37775 15.2626C3.02863 15.2628 2.67952 15.2627 2.3304 15.2622C2.15227 15.262 1.97413 15.2619 1.796 15.2622C1.63293 15.2625 1.46986 15.2623 1.30678 15.2618C1.2478 15.2617 1.18881 15.2618 1.12983 15.262C0.437974 15.2645 0.437974 15.2645 0.207002 15.0525C0.187424 15.0352 0.167847 15.0179 0.147676 15.0001C-0.0121585 14.8139 -0.0135033 14.6403 -0.0121443 14.4062C-0.0123126 14.3715 -0.0124809 14.3368 -0.0126543 14.3011C-0.0131016 14.1848 -0.0128783 14.0685 -0.012656 13.9522C-0.0128342 13.8688 -0.0130486 13.7855 -0.0133059 13.7021C-0.0138431 13.4991 -0.0138693 13.2962 -0.0137055 13.0932C-0.0135791 12.9282 -0.0136243 12.7632 -0.0137913 12.5982C-0.0138147 12.5747 -0.0138383 12.5512 -0.0138624 12.527C-0.0139102 12.4793 -0.0139581 12.4315 -0.0140064 12.3838C-0.0144353 11.9363 -0.0142655 11.4888 -0.013907 11.0413C-0.0135966 10.632 -0.0140008 10.2228 -0.0147486 9.81357C-0.0155109 9.3932 -0.0158111 8.97283 -0.0156033 8.55245C-0.0154942 8.31652 -0.0155638 8.08058 -0.0161111 7.84465C-0.0165713 7.64378 -0.0165907 7.44292 -0.0160463 7.24205C-0.0157804 7.13961 -0.015781 7.03719 -0.0161917 6.93475C-0.0166034 6.82358 -0.0162446 6.71244 -0.015692 6.60127C-0.0159922 6.56906 -0.0162923 6.53684 -0.0166016 6.50365C-0.0142935 6.27794 0.0312092 6.11067 0.178437 5.93655C0.195598 5.92261 0.212759 5.90867 0.230439 5.89431C0.247439 5.87989 0.264438 5.86547 0.281953 5.85061C0.438458 5.75349 0.595224 5.74099 0.775117 5.74368C0.797742 5.74376 0.820366 5.74385 0.843676 5.74394C0.915311 5.74429 0.986933 5.74507 1.05856 5.74587C1.10739 5.74619 1.15622 5.74647 1.20505 5.74673C1.32419 5.74741 1.44333 5.74849 1.56247 5.74978C1.56198 5.7252 1.56149 5.70062 1.56098 5.6753C1.55903 5.56341 1.55781 5.45152 1.55661 5.33962C1.55583 5.30095 1.55504 5.26228 1.55423 5.22243C1.55393 5.18497 1.55363 5.14751 1.55332 5.10891C1.55282 5.07454 1.55233 5.04018 1.55183 5.00477C1.56847 4.85037 1.62159 4.74978 1.7363 4.64626C1.85581 4.56353 1.91956 4.55823 2.06483 4.55768ZM2.06247 5.06228C2.06247 7.79509 2.06247 10.5279 2.06247 13.3435C3.40778 13.3489 3.40777 13.3489 4.75308 13.3528C5.01465 13.3543 5.01465 13.3543 5.13752 13.3551C5.22242 13.3555 5.30731 13.3558 5.39222 13.3558C6.29484 13.3558 7.08183 13.4879 7.74997 14.156C7.75283 13.1478 7.75504 12.1395 7.75635 11.1313C7.75651 11.0121 7.75667 10.8929 7.75684 10.7737C7.75689 10.7381 7.75689 10.7381 7.75694 10.7018C7.75748 10.3183 7.75846 9.93468 7.75961 9.55111C7.76079 9.15719 7.76148 8.76328 7.76173 8.36936C7.7619 8.12651 7.76244 7.88367 7.76346 7.64083C7.7642 7.45426 7.76428 7.26769 7.76411 7.08112C7.76414 7.00484 7.76439 6.92856 7.76487 6.85229C7.76825 6.28898 7.74969 5.84037 7.3486 5.40615C7.11406 5.18266 6.81923 5.05825 6.49686 5.05852C6.45785 5.05848 6.41884 5.05843 6.37866 5.05839C6.33534 5.0585 6.29203 5.05861 6.24872 5.05873C6.2024 5.05874 6.15607 5.05874 6.10975 5.05872C5.98571 5.05871 5.86166 5.05889 5.73762 5.05911C5.62121 5.05929 5.50481 5.0593 5.38841 5.05932C5.04799 5.05949 4.70758 5.05992 4.36716 5.06033C3.22634 5.06129 3.22634 5.06129 2.06247 5.06228ZM8.51767 5.55593C8.30371 5.85687 8.24028 6.1576 8.24245 6.51987C8.2424 6.55262 8.24235 6.58538 8.24229 6.61912C8.24219 6.72847 8.24253 6.83782 8.24288 6.94717C8.24289 7.02571 8.24288 7.10426 8.24285 7.1828C8.24283 7.3517 8.24301 7.52059 8.24336 7.68949C8.24387 7.93368 8.24403 8.17787 8.24411 8.42207C8.24425 8.8183 8.24466 9.21453 8.24526 9.61076C8.24583 9.99555 8.24627 10.3803 8.24654 10.7651C8.24655 10.7889 8.24657 10.8126 8.24659 10.8371C8.24667 10.9562 8.24675 11.0752 8.24683 11.1943C8.24747 12.1816 8.24858 13.1688 8.24997 14.156C8.26479 14.1433 8.27962 14.1305 8.29489 14.1173C8.31444 14.1005 8.33399 14.0837 8.35413 14.0664C8.38314 14.0415 8.38314 14.0415 8.41273 14.016C8.84805 13.6467 9.38024 13.3737 9.96156 13.3698C10.0144 13.3694 10.0144 13.3694 10.0683 13.3689C10.1065 13.3687 10.1447 13.3685 10.184 13.3684C10.2246 13.3681 10.2652 13.3677 10.307 13.3674C10.4178 13.3666 10.5287 13.3659 10.6395 13.3653C10.7555 13.3646 10.8715 13.3638 10.9875 13.3629C11.2069 13.3614 11.4264 13.36 11.6458 13.3586C11.8958 13.3571 12.1457 13.3553 12.3956 13.3536C12.9096 13.3501 13.4235 13.3467 13.9375 13.3435C13.9377 13.3172 13.9378 13.2908 13.938 13.2637C13.9398 13.0154 13.9421 12.7671 13.9448 12.5188C13.9462 12.3912 13.9475 12.2635 13.9483 12.1359C13.9491 12.0127 13.9504 11.8895 13.9519 11.7663C13.9525 11.7193 13.9528 11.6723 13.953 11.6253C13.9533 11.5594 13.9542 11.4936 13.9552 11.4278C13.9557 11.3716 13.9557 11.3716 13.9563 11.3142C13.9697 11.2108 13.9899 11.167 14.0625 11.0935C14.123 11.0769 14.123 11.0769 14.1875 11.0779C14.2194 11.0774 14.2194 11.0774 14.2519 11.0769C14.3407 11.1013 14.3602 11.1395 14.4062 11.2185C14.4181 11.3191 14.4181 11.3191 14.4184 11.4397C14.4186 11.4727 14.4186 11.4727 14.4188 11.5064C14.4193 11.579 14.419 11.6516 14.4187 11.7243C14.4187 11.7749 14.4188 11.8255 14.4189 11.876C14.4191 11.982 14.4189 12.088 14.4184 12.194C14.4179 12.3297 14.4182 12.4654 14.4188 12.6011C14.4191 12.7056 14.419 12.8101 14.4188 12.9145C14.4187 12.9646 14.4188 13.0146 14.419 13.0646C14.4192 13.1346 14.4189 13.2046 14.4184 13.2746C14.4183 13.3144 14.4182 13.3542 14.4181 13.3952C14.4054 13.5071 14.3749 13.564 14.3125 13.656C14.3125 13.6767 14.3125 13.6973 14.3125 13.7185C14.0773 13.8128 13.8742 13.8254 13.6223 13.8238C13.5607 13.824 13.4991 13.8242 13.4375 13.8244C13.3718 13.8245 13.306 13.8243 13.2403 13.8242C13.1026 13.8238 12.9649 13.8242 12.8271 13.8247C12.485 13.8258 12.1428 13.826 11.8007 13.8259C11.5348 13.8259 11.2689 13.8261 11.003 13.8272C10.8887 13.8276 10.7745 13.8278 10.6602 13.8274C9.91843 13.8249 9.29354 13.8565 8.72604 14.3971C8.54416 14.5547 8.54416 14.5547 8.43747 14.7498C9.33523 14.7527 10.233 14.7549 11.1308 14.7563C11.5476 14.7569 11.9644 14.7578 12.3813 14.7592C12.7445 14.7605 13.1078 14.7613 13.471 14.7615C13.6634 14.7617 13.8558 14.7621 14.0482 14.763C14.2292 14.7638 14.4102 14.7641 14.5912 14.7639C14.6577 14.764 14.7242 14.7642 14.7907 14.7647C14.8814 14.7653 14.9721 14.7652 15.0627 14.7648C15.0892 14.7652 15.1156 14.7655 15.1428 14.7659C15.2655 14.7647 15.3297 14.7581 15.4375 14.6942C15.5313 14.5901 15.5351 14.4961 15.5353 14.3595C15.5354 14.3314 15.5356 14.3033 15.5357 14.2743C15.5357 14.2436 15.5356 14.2128 15.5356 14.1811C15.5357 14.1483 15.5358 14.1156 15.5359 14.0818C15.5362 13.9716 15.5362 13.8615 15.5363 13.7513C15.5364 13.6725 15.5366 13.5936 15.5367 13.5148C15.5371 13.3004 15.5373 13.086 15.5375 12.8715C15.5376 12.7377 15.5377 12.6038 15.5378 12.4699C15.5382 12.0992 15.5385 11.7285 15.5386 11.3578C15.5387 11.3341 15.5387 11.3104 15.5387 11.2859C15.5387 11.2621 15.5387 11.2384 15.5387 11.2139C15.5387 11.1657 15.5387 11.1175 15.5387 11.0693C15.5387 11.0454 15.5387 11.0215 15.5387 10.9969C15.5389 10.6096 15.5394 10.2222 15.5401 9.83485C15.5409 9.43715 15.5413 9.03946 15.5413 8.64176C15.5413 8.41847 15.5415 8.19518 15.5421 7.97189C15.5426 7.76192 15.5427 7.55196 15.5424 7.34199C15.5424 7.26486 15.5425 7.18774 15.5428 7.11062C15.5432 7.00545 15.543 6.9003 15.5427 6.79513C15.543 6.76451 15.5432 6.7339 15.5435 6.70235C15.5423 6.53887 15.531 6.42164 15.4375 6.28103C15.3462 6.23537 15.2656 6.2463 15.1638 6.24673C15.1431 6.24677 15.1223 6.24682 15.101 6.24686C15.0348 6.24704 14.9685 6.24743 14.9023 6.24783C14.8574 6.24798 14.8126 6.24812 14.7677 6.24825C14.6576 6.2486 14.5475 6.24914 14.4375 6.24978C14.4374 6.28105 14.4374 6.28105 14.4372 6.31296C14.4354 6.81997 14.433 7.32697 14.4301 7.83397C14.4287 8.07916 14.4275 8.32434 14.4266 8.56952C14.4259 8.78319 14.4249 8.99685 14.4234 9.21051C14.4227 9.32368 14.4221 9.43684 14.4219 9.55001C14.4217 9.67625 14.4207 9.80247 14.4197 9.92871C14.4198 9.96636 14.4198 10.004 14.4199 10.0428C14.4195 10.0771 14.4191 10.1114 14.4187 10.1468C14.4185 10.1766 14.4184 10.2065 14.4182 10.2373C14.4041 10.3257 14.3832 10.3529 14.3125 10.406C14.2165 10.4389 14.1682 10.4408 14.0703 10.4119C14 10.3748 14 10.3748 13.9687 10.3123C13.9654 10.2434 13.9641 10.1744 13.9638 10.1055C13.9636 10.084 13.9635 10.0625 13.9633 10.0403C13.9628 9.96797 13.9626 9.89561 13.9623 9.82325C13.962 9.77152 13.9617 9.71978 13.9614 9.66805C13.9605 9.52731 13.9599 9.38656 13.9592 9.24581C13.9586 9.09884 13.9577 8.95186 13.9569 8.80489C13.9553 8.52643 13.9539 8.24798 13.9526 7.96952C13.951 7.65256 13.9493 7.33561 13.9476 7.01866C13.944 6.36653 13.9407 5.71441 13.9375 5.06228C13.3404 5.05935 12.7433 5.05715 12.1462 5.0558C11.8689 5.05516 11.5917 5.05428 11.3144 5.05285C11.0726 5.0516 10.8309 5.0508 10.5891 5.05052C10.4612 5.05036 10.3333 5.04998 10.2053 5.04906C10.0847 5.04821 9.96409 5.04795 9.84346 5.04814C9.79941 5.04811 9.75536 5.04786 9.71131 5.04738C9.23197 5.04238 8.82893 5.17751 8.51767 5.55593ZM0.499971 6.37478C0.470816 6.46224 0.464783 6.51469 0.464701 6.60505C0.4646 6.63312 0.464499 6.66119 0.464396 6.6901C0.464444 6.72097 0.464492 6.75184 0.464542 6.78365C0.464471 6.81641 0.464401 6.84918 0.464328 6.88294C0.464129 6.99327 0.464155 7.1036 0.464181 7.21394C0.464088 7.29282 0.463981 7.37171 0.463863 7.45059C0.463615 7.64295 0.463518 7.83531 0.4635 8.02767C0.463485 8.184 0.463421 8.34034 0.463322 8.49668C0.463047 8.93976 0.462903 9.38284 0.462926 9.82593C0.462927 9.84982 0.462929 9.87372 0.46293 9.89834C0.462931 9.92226 0.462932 9.94619 0.462934 9.97084C0.462946 10.3586 0.462647 10.7464 0.462207 11.1342C0.461758 11.5322 0.461542 11.9302 0.461569 12.3282C0.46158 12.5517 0.461493 12.7753 0.461157 12.9988C0.460844 13.2089 0.460852 13.4191 0.46108 13.6293C0.461113 13.7065 0.461038 13.7838 0.46085 13.861C0.46061 13.9662 0.460753 14.0715 0.460994 14.1767C0.460834 14.2075 0.460673 14.2382 0.460507 14.2698C0.461587 14.5095 0.461587 14.5095 0.580301 14.712C0.694931 14.7691 0.808206 14.7623 0.93344 14.7611C0.961749 14.7611 0.990058 14.7612 1.01922 14.7613C1.11428 14.7614 1.20933 14.7609 1.30438 14.7604C1.37244 14.7604 1.4405 14.7604 1.50856 14.7605C1.69353 14.7605 1.8785 14.7599 2.06347 14.7593C2.2567 14.7587 2.44992 14.7586 2.64315 14.7585C3.00915 14.7582 3.37515 14.7575 3.74115 14.7565C4.15778 14.7555 4.57442 14.755 4.99106 14.7545C5.8482 14.7535 6.70533 14.7519 7.56247 14.7498C7.2898 14.282 6.82646 14.0104 6.31247 13.8748C6.19984 13.8487 6.09588 13.8395 5.98035 13.8392C5.94531 13.839 5.91026 13.8389 5.87416 13.8387C5.83601 13.8387 5.79785 13.8386 5.75855 13.8386C5.69651 13.8384 5.63447 13.8381 5.57243 13.8379C5.50588 13.8376 5.43934 13.8375 5.37279 13.8373C5.23381 13.837 5.09484 13.8363 4.95587 13.8356C4.56073 13.8337 4.16559 13.832 3.77045 13.831C3.5521 13.8304 3.33375 13.8295 3.1154 13.8282C3 13.8276 2.8846 13.8271 2.76919 13.827C2.64031 13.8269 2.51145 13.8261 2.38257 13.8253C2.34467 13.8254 2.30677 13.8255 2.26772 13.8256C2.06571 13.8236 1.86909 13.8167 1.68747 13.7185C1.6406 13.6384 1.6406 13.6384 1.62497 13.5623C1.61466 13.5417 1.60435 13.521 1.59372 13.4998C1.59033 13.4053 1.58888 13.3115 1.58878 13.217C1.58854 13.1725 1.58854 13.1725 1.58831 13.1271C1.58783 13.0272 1.58757 12.9272 1.5873 12.8272C1.58701 12.7557 1.58669 12.6843 1.58637 12.6128C1.58552 12.4184 1.58486 12.2239 1.58424 12.0295C1.58356 11.8264 1.5827 11.6234 1.58187 11.4204C1.58048 11.0794 1.57921 10.7385 1.57801 10.3975C1.57678 10.0463 1.57549 9.6951 1.57411 9.34388C1.57402 9.32224 1.57394 9.3006 1.57385 9.27831C1.57342 9.16975 1.57299 9.0612 1.57256 8.95264C1.569 8.05169 1.56566 7.15073 1.56247 6.24978C1.43125 6.24668 1.30004 6.24442 1.16879 6.24291C1.12417 6.24228 1.07956 6.24143 1.03494 6.24035C0.970708 6.23883 0.906506 6.23812 0.842256 6.23757C0.803634 6.23692 0.765013 6.23626 0.725221 6.23559C0.606243 6.25243 0.571296 6.28001 0.499971 6.37478Z" fill="#FF0000"/>
<path d="M3.08046 1.73045C3.12691 1.73031 3.17335 1.73011 3.21979 1.72984C3.34702 1.72931 3.47422 1.72976 3.60145 1.73036C3.73881 1.73084 3.87616 1.73042 4.01352 1.73012C4.28245 1.72967 4.55137 1.73005 4.8203 1.73072C5.13352 1.73147 5.44674 1.73141 5.75996 1.73133C6.31885 1.73122 6.87774 1.73187 7.43663 1.73293C7.97887 1.73397 8.52111 1.73441 9.06334 1.73422C9.6539 1.734 10.2445 1.73408 10.835 1.73469C10.8662 1.73473 10.8975 1.73476 10.9297 1.73479C10.9924 1.73486 11.0551 1.73492 11.1179 1.73499C11.3362 1.73521 11.5544 1.73523 11.7727 1.73518C12.0388 1.73514 12.3048 1.73544 12.5709 1.73618C12.7066 1.73655 12.8424 1.73677 12.9781 1.73659C13.1024 1.73643 13.2267 1.7367 13.3509 1.73732C13.3959 1.73747 13.4408 1.73746 13.4857 1.73728C13.9897 1.73542 13.9897 1.73542 14.2129 1.91393C14.3514 2.08812 14.3869 2.2378 14.3874 2.45788C14.3875 2.47994 14.3876 2.502 14.3877 2.52473C14.3878 2.57106 14.3876 2.61738 14.3872 2.6637C14.3867 2.73407 14.3872 2.80438 14.3878 2.87475C14.3877 2.92004 14.3876 2.96532 14.3874 3.01061C14.3873 3.05128 14.3872 3.09194 14.3871 3.13384C14.3654 3.34172 14.2892 3.49049 14.125 3.62487C13.9439 3.72106 13.7955 3.73194 13.5925 3.73031C13.5614 3.73044 13.5303 3.73056 13.4982 3.73069C13.3942 3.73099 13.2903 3.73062 13.1863 3.73026C13.1117 3.73033 13.037 3.73045 12.9624 3.7306C12.7809 3.73086 12.5994 3.73069 12.4178 3.73031C12.2064 3.72989 11.995 3.72994 11.7836 3.73C11.4065 3.7301 11.0293 3.72974 10.6522 3.72913C10.2862 3.72853 9.92027 3.72831 9.5543 3.72849C9.15564 3.72867 8.75698 3.72867 8.35832 3.72831C8.31583 3.72828 8.27333 3.72824 8.23084 3.7282C8.20993 3.72818 8.18902 3.72816 8.16748 3.72814C8.0201 3.72802 7.87273 3.72803 7.72535 3.72809C7.5271 3.72815 7.32886 3.7279 7.13061 3.7274C7.05775 3.72727 6.98488 3.72725 6.91201 3.72733C6.81279 3.72743 6.71357 3.72715 6.61434 3.72677C6.5853 3.72689 6.55627 3.727 6.52636 3.72713C6.48651 3.72685 6.48651 3.72685 6.44585 3.72657C6.42295 3.72655 6.40005 3.72652 6.37645 3.72649C6.30171 3.71729 6.25184 3.69474 6.18749 3.65612C6.12244 3.57249 6.12512 3.52745 6.1289 3.41979C6.15624 3.31237 6.15624 3.31237 6.20483 3.25949C6.31218 3.20207 6.41245 3.20598 6.53117 3.20735C6.55655 3.20727 6.58192 3.20719 6.60806 3.2071C6.69319 3.20695 6.7783 3.20747 6.86342 3.20798C6.9244 3.208 6.98538 3.20799 7.04636 3.20794C7.21202 3.20791 7.37768 3.20846 7.54335 3.20911C7.71643 3.2097 7.88952 3.20976 8.0626 3.20987C8.39042 3.21016 8.71823 3.21093 9.04605 3.21187C9.41923 3.21292 9.79241 3.21343 10.1656 3.2139C10.9333 3.21488 11.701 3.21655 12.4687 3.21862C12.4687 2.89893 12.4687 2.57925 12.4687 2.24987C9.3853 2.24987 6.30186 2.24987 3.12499 2.24987C3.15593 2.353 3.18686 2.45612 3.21874 2.56237C3.23009 2.6582 3.23009 2.6582 3.2285 2.7362C3.22838 2.76202 3.22826 2.78784 3.22814 2.81445C3.21972 2.89654 3.20516 2.97215 3.1869 3.05248C3.18119 3.07775 3.17547 3.10303 3.16958 3.12907C3.16518 3.14831 3.16077 3.16755 3.15624 3.18737C3.18415 3.18748 3.21206 3.1876 3.24082 3.18772C3.50384 3.1889 3.76684 3.19068 4.02985 3.19312C4.16507 3.19435 4.30028 3.19536 4.43551 3.19584C4.566 3.19631 4.69648 3.19739 4.82697 3.19888C4.87676 3.19934 4.92654 3.19959 4.97633 3.19962C5.04608 3.19969 5.11577 3.20054 5.18551 3.20156C5.2252 3.20184 5.26489 3.20212 5.30579 3.2024C5.42318 3.22136 5.46008 3.25028 5.53124 3.34362C5.54894 3.40612 5.54894 3.40612 5.54882 3.46862C5.5495 3.48925 5.55019 3.50987 5.55089 3.53112C5.51928 3.63166 5.46284 3.66258 5.37499 3.71862C5.28197 3.73136 5.20039 3.73699 5.1074 3.73678C5.0675 3.73741 5.0675 3.73741 5.0268 3.73805C4.939 3.73924 4.85122 3.73948 4.76342 3.73962C4.70211 3.74002 4.6408 3.74044 4.57949 3.74088C4.45092 3.74163 4.32237 3.74186 4.19381 3.74178C4.02976 3.74177 3.86579 3.74347 3.70177 3.74563C3.57506 3.74703 3.44837 3.74727 3.32165 3.74721C3.26123 3.74735 3.2008 3.7479 3.14038 3.74887C2.7695 3.75428 2.52974 3.73911 2.24999 3.46862C2.20915 3.43707 2.16797 3.40593 2.12621 3.3756C2.0906 3.34808 2.05503 3.32049 2.01952 3.29284C2.00151 3.27914 1.98351 3.26545 1.96495 3.25134C1.82054 3.13883 1.68432 3.02162 1.62499 2.84362C1.61253 2.67855 1.62644 2.57582 1.71874 2.43737C1.79632 2.357 1.88134 2.28805 1.96874 2.21862C1.98434 2.20618 1.99994 2.19375 2.01601 2.18093C2.2254 2.01471 2.2254 2.01471 2.32247 1.94441C2.35712 1.91915 2.39098 1.89274 2.42387 1.86521C2.62583 1.71334 2.83737 1.72816 3.08046 1.73045ZM12.9687 2.24987C12.9687 2.56956 12.9687 2.88925 12.9687 3.21862C13.1843 3.21959 13.1843 3.21959 13.4043 3.22057C13.4724 3.221 13.4724 3.221 13.5419 3.22144C13.5773 3.22151 13.6128 3.22159 13.6493 3.22167C13.6858 3.22184 13.7223 3.222 13.7599 3.22217C13.8412 3.2282 13.8412 3.2282 13.875 3.18737C13.8829 3.04237 13.8808 2.89702 13.8808 2.75182C13.8812 2.71075 13.8816 2.66969 13.882 2.62737C13.8821 2.58824 13.8821 2.5491 13.8822 2.50878C13.8823 2.47265 13.8824 2.43652 13.8826 2.39929C13.884 2.30798 13.884 2.30798 13.8125 2.24987C13.7245 2.24116 13.7245 2.24116 13.6218 2.24377C13.5877 2.24392 13.5536 2.24408 13.5185 2.24424C13.4532 2.24509 13.4532 2.24509 13.3867 2.24596C13.2488 2.24725 13.1108 2.24854 12.9687 2.24987ZM2.40819 2.52721C2.39097 2.5416 2.37375 2.55598 2.35601 2.57079C2.28709 2.62857 2.21986 2.68625 2.15624 2.74987C2.30061 2.86331 2.44499 2.97675 2.59374 3.09362C2.7146 2.97276 2.71405 2.90571 2.72655 2.7401C2.71711 2.60079 2.679 2.50315 2.62499 2.37487C2.55012 2.37487 2.46585 2.47859 2.40819 2.52721Z" fill="#FF0000"/>
<path d="M9.47632 11.8275C9.5151 11.8273 9.55389 11.8271 9.59385 11.8269C9.70001 11.8264 9.80613 11.8265 9.91229 11.8269C10.0235 11.8272 10.1347 11.8269 10.2459 11.8267C10.4326 11.8265 10.6193 11.8268 10.8061 11.8274C11.0218 11.8281 11.2375 11.8279 11.4533 11.8272C11.6386 11.8266 11.824 11.8265 12.0094 11.8269C12.12 11.8271 12.2307 11.8271 12.3413 11.8267C12.4647 11.8262 12.5881 11.8268 12.7114 11.8275C12.7663 11.8272 12.7663 11.8272 12.8223 11.8268C13.0696 11.8294 13.0696 11.8294 13.1947 11.9033C13.2546 11.974 13.2707 12.0023 13.2677 12.0937C13.2677 12.1143 13.2678 12.135 13.2678 12.1562C13.2422 12.2467 13.197 12.2842 13.1251 12.3437C13.0466 12.3594 13.0466 12.3594 12.9567 12.3596C12.9225 12.3599 12.8884 12.3603 12.8531 12.3607C12.8158 12.3604 12.7785 12.3601 12.74 12.3599C12.7005 12.3601 12.6611 12.3603 12.6205 12.3605C12.5124 12.3611 12.4043 12.3609 12.2962 12.3605C12.1831 12.3602 12.07 12.3605 11.9568 12.3607C11.7668 12.3609 11.5769 12.3606 11.3869 12.36C11.1672 12.3593 10.9476 12.3595 10.728 12.3602C10.5394 12.3608 10.3508 12.3609 10.1622 12.3606C10.0496 12.3604 9.937 12.3603 9.82438 12.3607C9.69883 12.3612 9.5733 12.3606 9.44775 12.3599C9.41041 12.3601 9.37307 12.3604 9.3346 12.3607C9.30042 12.3603 9.26625 12.3599 9.23104 12.3596C9.18652 12.3595 9.18652 12.3595 9.1411 12.3594C9.03946 12.3391 9.00205 12.2981 8.93762 12.2187C8.91992 12.1562 8.91992 12.1562 8.92004 12.0937C8.91936 12.0731 8.91867 12.0525 8.91797 12.0312C8.99519 11.7856 9.26989 11.8261 9.47632 11.8275Z" fill="#FF0000"/>
<path d="M3.28882 11.8275C3.3276 11.8273 3.36639 11.8271 3.40635 11.8269C3.51251 11.8264 3.61863 11.8265 3.72479 11.8269C3.83599 11.8272 3.94719 11.8269 4.05839 11.8267C4.24511 11.8265 4.43184 11.8268 4.61856 11.8274C4.8343 11.8281 5.05002 11.8279 5.26575 11.8272C5.45113 11.8266 5.63651 11.8265 5.82189 11.8269C5.93255 11.8271 6.04319 11.8271 6.15384 11.8267C6.27721 11.8262 6.40056 11.8268 6.52393 11.8275C6.57882 11.8272 6.57882 11.8272 6.63482 11.8268C6.8821 11.8294 6.8821 11.8294 7.00717 11.9033C7.06707 11.974 7.08324 12.0023 7.0802 12.0937C7.08024 12.1143 7.08028 12.135 7.08032 12.1562C7.0547 12.2467 7.00949 12.2842 6.93762 12.3437C6.85914 12.3594 6.85914 12.3594 6.7692 12.3596C6.73503 12.3599 6.70086 12.3603 6.66565 12.3607C6.6283 12.3604 6.59096 12.3601 6.55249 12.3599C6.51305 12.3601 6.47361 12.3603 6.43297 12.3605C6.32488 12.3611 6.21681 12.3609 6.10873 12.3605C5.99559 12.3602 5.88246 12.3605 5.76933 12.3607C5.57934 12.3609 5.38936 12.3606 5.19937 12.36C4.97975 12.3593 4.76014 12.3595 4.54052 12.3602C4.35193 12.3608 4.16334 12.3609 3.97475 12.3606C3.86212 12.3604 3.7495 12.3603 3.63688 12.3607C3.51133 12.3612 3.3858 12.3606 3.26025 12.3599C3.22291 12.3601 3.18557 12.3604 3.1471 12.3607C3.11292 12.3603 3.07875 12.3599 3.04354 12.3596C2.99902 12.3595 2.99902 12.3595 2.9536 12.3594C2.85196 12.3391 2.81455 12.2981 2.75012 12.2187C2.73242 12.1562 2.73242 12.1562 2.73254 12.0937C2.73186 12.0731 2.73117 12.0525 2.73047 12.0312C2.80769 11.7856 3.08239 11.8261 3.28882 11.8275Z" fill="#FF0000"/>
<path d="M9.47632 10.4213C9.5151 10.4211 9.55389 10.4208 9.59385 10.4206C9.70001 10.4202 9.80613 10.4203 9.91229 10.4207C10.0235 10.421 10.1347 10.4207 10.2459 10.4205C10.4326 10.4203 10.6193 10.4206 10.8061 10.4212C11.0218 10.4218 11.2375 10.4216 11.4533 10.4209C11.6386 10.4204 11.824 10.4203 12.0094 10.4206C12.12 10.4208 12.2307 10.4208 12.3413 10.4204C12.4647 10.42 12.5881 10.4206 12.7114 10.4213C12.7663 10.4209 12.7663 10.4209 12.8223 10.4205C13.0696 10.4231 13.0696 10.4231 13.1947 10.4971C13.2546 10.5677 13.2707 10.596 13.2677 10.6875C13.2677 10.7081 13.2678 10.7287 13.2678 10.75C13.2422 10.8404 13.197 10.8779 13.1251 10.9375C13.0466 10.9532 13.0466 10.9532 12.9567 10.9533C12.9225 10.9537 12.8884 10.954 12.8531 10.9544C12.8158 10.9541 12.7785 10.9539 12.74 10.9536C12.7005 10.9539 12.6611 10.9541 12.6205 10.9543C12.5124 10.9549 12.4043 10.9546 12.2962 10.9543C12.1831 10.9539 12.07 10.9542 11.9568 10.9544C11.7668 10.9547 11.5769 10.9544 11.3869 10.9538C11.1672 10.9531 10.9476 10.9533 10.728 10.954C10.5394 10.9546 10.3508 10.9546 10.1622 10.9543C10.0496 10.9541 9.937 10.9541 9.82438 10.9545C9.69883 10.9549 9.5733 10.9543 9.44775 10.9536C9.41041 10.9539 9.37307 10.9541 9.3346 10.9544C9.30042 10.9541 9.26625 10.9537 9.23104 10.9533C9.18652 10.9533 9.18652 10.9533 9.1411 10.9532C9.03946 10.9328 9.00205 10.8919 8.93762 10.8125C8.91992 10.75 8.91992 10.75 8.92004 10.6875C8.91936 10.6668 8.91867 10.6462 8.91797 10.625C8.99519 10.3794 9.26989 10.4199 9.47632 10.4213Z" fill="#FF0000"/>
<path d="M3.28882 10.4213C3.3276 10.4211 3.36639 10.4208 3.40635 10.4206C3.51251 10.4202 3.61863 10.4203 3.72479 10.4207C3.83599 10.421 3.94719 10.4207 4.05839 10.4205C4.24511 10.4203 4.43184 10.4206 4.61856 10.4212C4.8343 10.4218 5.05002 10.4216 5.26575 10.4209C5.45113 10.4204 5.63651 10.4203 5.82189 10.4206C5.93255 10.4208 6.04319 10.4208 6.15384 10.4204C6.27721 10.42 6.40056 10.4206 6.52393 10.4213C6.57882 10.4209 6.57882 10.4209 6.63482 10.4205C6.8821 10.4231 6.8821 10.4231 7.00717 10.4971C7.06707 10.5677 7.08324 10.596 7.0802 10.6875C7.08024 10.7081 7.08028 10.7287 7.08032 10.75C7.0547 10.8404 7.00949 10.8779 6.93762 10.9375C6.85914 10.9532 6.85914 10.9532 6.7692 10.9533C6.73503 10.9537 6.70086 10.954 6.66565 10.9544C6.6283 10.9541 6.59096 10.9539 6.55249 10.9536C6.51305 10.9539 6.47361 10.9541 6.43297 10.9543C6.32488 10.9549 6.21681 10.9546 6.10873 10.9543C5.99559 10.9539 5.88246 10.9542 5.76933 10.9544C5.57934 10.9547 5.38936 10.9544 5.19937 10.9538C4.97975 10.9531 4.76014 10.9533 4.54052 10.954C4.35193 10.9546 4.16334 10.9546 3.97475 10.9543C3.86212 10.9541 3.7495 10.9541 3.63688 10.9545C3.51133 10.9549 3.3858 10.9543 3.26025 10.9536C3.22291 10.9539 3.18557 10.9541 3.1471 10.9544C3.11292 10.9541 3.07875 10.9537 3.04354 10.9533C2.99902 10.9533 2.99902 10.9533 2.9536 10.9532C2.85196 10.9328 2.81455 10.8919 2.75012 10.8125C2.73242 10.75 2.73242 10.75 2.73254 10.6875C2.73186 10.6668 2.73117 10.6462 2.73047 10.625C2.80769 10.3794 3.08239 10.4199 3.28882 10.4213Z" fill="#FF0000"/>
<path d="M9.47632 9.01504C9.5151 9.01482 9.55389 9.0146 9.59385 9.01437C9.70001 9.01392 9.80613 9.01402 9.91229 9.01442C10.0235 9.01474 10.1347 9.01444 10.2459 9.01425C10.4326 9.01402 10.6193 9.01432 10.8061 9.01492C11.0218 9.0156 11.2375 9.01538 11.4533 9.01469C11.6386 9.01412 11.824 9.01404 12.0094 9.01437C12.12 9.01456 12.2307 9.01459 12.3413 9.01417C12.4647 9.01375 12.5881 9.01434 12.7114 9.01504C12.7663 9.01466 12.7663 9.01466 12.8223 9.01427C13.0696 9.01686 13.0696 9.01686 13.1947 9.09082C13.2546 9.16146 13.2707 9.1898 13.2677 9.28121C13.2677 9.30184 13.2678 9.32246 13.2678 9.34371C13.2422 9.43417 13.197 9.47167 13.1251 9.53121C13.0466 9.54694 13.0466 9.54694 12.9567 9.54708C12.9225 9.54744 12.8884 9.54779 12.8531 9.54815C12.8158 9.5479 12.7785 9.54765 12.74 9.54739C12.7005 9.54761 12.6611 9.54782 12.6205 9.54805C12.5124 9.54862 12.4043 9.5484 12.2962 9.548C12.1831 9.54769 12.07 9.54798 11.9568 9.54818C11.7668 9.5484 11.5769 9.5481 11.3869 9.54751C11.1672 9.54683 10.9476 9.54705 10.728 9.54774C10.5394 9.5483 10.3508 9.54838 10.1622 9.54806C10.0496 9.54786 9.937 9.54784 9.82438 9.54825C9.69883 9.54868 9.5733 9.54808 9.44775 9.54739C9.41041 9.54764 9.37307 9.54789 9.3346 9.54815C9.30042 9.5478 9.26625 9.54745 9.23104 9.54708C9.18652 9.54701 9.18652 9.54701 9.1411 9.54694C9.03946 9.52657 9.00205 9.48561 8.93762 9.40621C8.91992 9.34371 8.91992 9.34371 8.92004 9.28121C8.91936 9.26059 8.91867 9.23996 8.91797 9.21871C8.99519 8.97314 9.26989 9.01361 9.47632 9.01504Z" fill="#FF0000"/>
<path d="M3.28882 9.01504C3.3276 9.01482 3.36639 9.0146 3.40635 9.01437C3.51251 9.01392 3.61863 9.01402 3.72479 9.01442C3.83599 9.01474 3.94719 9.01444 4.05839 9.01425C4.24511 9.01402 4.43184 9.01432 4.61856 9.01492C4.8343 9.0156 5.05002 9.01538 5.26575 9.01469C5.45113 9.01412 5.63651 9.01404 5.82189 9.01437C5.93255 9.01456 6.04319 9.01459 6.15384 9.01417C6.27721 9.01375 6.40056 9.01434 6.52393 9.01504C6.57882 9.01466 6.57882 9.01466 6.63482 9.01427C6.8821 9.01686 6.8821 9.01686 7.00717 9.09082C7.06707 9.16146 7.08324 9.1898 7.0802 9.28121C7.08024 9.30184 7.08028 9.32246 7.08032 9.34371C7.0547 9.43417 7.00949 9.47167 6.93762 9.53121C6.85914 9.54694 6.85914 9.54694 6.7692 9.54708C6.73503 9.54744 6.70086 9.54779 6.66565 9.54815C6.6283 9.5479 6.59096 9.54765 6.55249 9.54739C6.51305 9.54761 6.47361 9.54782 6.43297 9.54805C6.32488 9.54862 6.21681 9.5484 6.10873 9.548C5.99559 9.54769 5.88246 9.54798 5.76933 9.54818C5.57934 9.5484 5.38936 9.5481 5.19937 9.54751C4.97975 9.54683 4.76014 9.54705 4.54052 9.54774C4.35193 9.5483 4.16334 9.54838 3.97475 9.54806C3.86212 9.54786 3.7495 9.54784 3.63688 9.54825C3.51133 9.54868 3.3858 9.54808 3.26025 9.54739C3.22291 9.54764 3.18557 9.54789 3.1471 9.54815C3.11292 9.5478 3.07875 9.54745 3.04354 9.54708C2.99902 9.54701 2.99902 9.54701 2.9536 9.54694C2.85196 9.52657 2.81455 9.48561 2.75012 9.40621C2.73242 9.34371 2.73242 9.34371 2.73254 9.28121C2.73186 9.26059 2.73117 9.23996 2.73047 9.21871C2.80769 8.97314 3.08239 9.01361 3.28882 9.01504Z" fill="#FF0000"/>
<path d="M9.47632 7.60879C9.5151 7.60857 9.55389 7.60835 9.59385 7.60812C9.70001 7.60767 9.80613 7.60777 9.91229 7.60817C10.0235 7.60849 10.1347 7.60819 10.2459 7.608C10.4326 7.60777 10.6193 7.60807 10.8061 7.60867C11.0218 7.60935 11.2375 7.60913 11.4533 7.60844C11.6386 7.60787 11.824 7.60779 12.0094 7.60812C12.12 7.60831 12.2307 7.60834 12.3413 7.60792C12.4647 7.6075 12.5881 7.60809 12.7114 7.60879C12.7663 7.60841 12.7663 7.60841 12.8223 7.60802C13.0696 7.61061 13.0696 7.61061 13.1947 7.68457C13.2546 7.75521 13.2707 7.78355 13.2677 7.87496C13.2677 7.89559 13.2678 7.91621 13.2678 7.93746C13.2422 8.02792 13.197 8.06542 13.1251 8.12496C13.0466 8.14069 13.0466 8.14069 12.9567 8.14083C12.9225 8.14119 12.8884 8.14154 12.8531 8.1419C12.8158 8.14165 12.7785 8.1414 12.74 8.14114C12.7005 8.14136 12.6611 8.14157 12.6205 8.1418C12.5124 8.14237 12.4043 8.14215 12.2962 8.14175C12.1831 8.14144 12.07 8.14173 11.9568 8.14193C11.7668 8.14215 11.5769 8.14185 11.3869 8.14126C11.1672 8.14058 10.9476 8.1408 10.728 8.14149C10.5394 8.14205 10.3508 8.14213 10.1622 8.14181C10.0496 8.14161 9.937 8.14159 9.82438 8.142C9.69883 8.14243 9.5733 8.14183 9.44775 8.14114C9.41041 8.14139 9.37307 8.14164 9.3346 8.1419C9.30042 8.14155 9.26625 8.1412 9.23104 8.14083C9.18652 8.14076 9.18652 8.14076 9.1411 8.14069C9.03946 8.12032 9.00205 8.07936 8.93762 7.99996C8.91992 7.93746 8.91992 7.93746 8.92004 7.87496C8.91936 7.85434 8.91867 7.83371 8.91797 7.81246C8.99519 7.56689 9.26989 7.60736 9.47632 7.60879Z" fill="#FF0000"/>
<path d="M3.28882 7.60879C3.3276 7.60857 3.36639 7.60835 3.40635 7.60812C3.51251 7.60767 3.61863 7.60777 3.72479 7.60817C3.83599 7.60849 3.94719 7.60819 4.05839 7.608C4.24511 7.60777 4.43184 7.60807 4.61856 7.60867C4.8343 7.60935 5.05002 7.60913 5.26575 7.60844C5.45113 7.60787 5.63651 7.60779 5.82189 7.60812C5.93255 7.60831 6.04319 7.60834 6.15384 7.60792C6.27721 7.6075 6.40056 7.60809 6.52393 7.60879C6.57882 7.60841 6.57882 7.60841 6.63482 7.60802C6.8821 7.61061 6.8821 7.61061 7.00717 7.68457C7.06707 7.75521 7.08324 7.78355 7.0802 7.87496C7.08024 7.89559 7.08028 7.91621 7.08032 7.93746C7.0547 8.02792 7.00949 8.06542 6.93762 8.12496C6.85914 8.14069 6.85914 8.14069 6.7692 8.14083C6.73503 8.14119 6.70086 8.14154 6.66565 8.1419C6.6283 8.14165 6.59096 8.1414 6.55249 8.14114C6.51305 8.14136 6.47361 8.14157 6.43297 8.1418C6.32488 8.14237 6.21681 8.14215 6.10873 8.14175C5.99559 8.14144 5.88246 8.14173 5.76933 8.14193C5.57934 8.14215 5.38936 8.14185 5.19937 8.14126C4.97975 8.14058 4.76014 8.1408 4.54052 8.14149C4.35193 8.14205 4.16334 8.14213 3.97475 8.14181C3.86212 8.14161 3.7495 8.14159 3.63688 8.142C3.51133 8.14243 3.3858 8.14183 3.26025 8.14114C3.22291 8.14139 3.18557 8.14164 3.1471 8.1419C3.11292 8.14155 3.07875 8.1412 3.04354 8.14083C2.99902 8.14076 2.99902 8.14076 2.9536 8.14069C2.85196 8.12032 2.81455 8.07936 2.75012 7.99996C2.73242 7.93746 2.73242 7.93746 2.73254 7.87496C2.73186 7.85434 2.73117 7.83371 2.73047 7.81246C2.80769 7.56689 3.08239 7.60736 3.28882 7.60879Z" fill="#FF0000"/>
<path d="M9.47632 6.20254C9.5151 6.20232 9.55389 6.2021 9.59385 6.20187C9.70001 6.20142 9.80613 6.20152 9.91229 6.20192C10.0235 6.20224 10.1347 6.20194 10.2459 6.20175C10.4326 6.20152 10.6193 6.20182 10.8061 6.20242C11.0218 6.2031 11.2375 6.20288 11.4533 6.20219C11.6386 6.20162 11.824 6.20154 12.0094 6.20187C12.12 6.20206 12.2307 6.20209 12.3413 6.20167C12.4647 6.20125 12.5881 6.20184 12.7114 6.20254C12.7663 6.20216 12.7663 6.20216 12.8223 6.20177C13.0696 6.20436 13.0696 6.20436 13.1947 6.27832C13.2546 6.34896 13.2707 6.3773 13.2677 6.46871C13.2677 6.48934 13.2678 6.50996 13.2678 6.53121C13.2422 6.62167 13.197 6.65917 13.1251 6.71871C13.0466 6.73444 13.0466 6.73444 12.9567 6.73458C12.9225 6.73494 12.8884 6.73529 12.8531 6.73565C12.8158 6.7354 12.7785 6.73515 12.74 6.73489C12.7005 6.73511 12.6611 6.73532 12.6205 6.73555C12.5124 6.73612 12.4043 6.7359 12.2962 6.7355C12.1831 6.73519 12.07 6.73548 11.9568 6.73568C11.7668 6.7359 11.5769 6.7356 11.3869 6.73501C11.1672 6.73433 10.9476 6.73455 10.728 6.73524C10.5394 6.7358 10.3508 6.73588 10.1622 6.73556C10.0496 6.73536 9.937 6.73534 9.82438 6.73575C9.69883 6.73618 9.5733 6.73558 9.44775 6.73489C9.41041 6.73514 9.37307 6.73539 9.3346 6.73565C9.30042 6.7353 9.26625 6.73495 9.23104 6.73458C9.18652 6.73451 9.18652 6.73451 9.1411 6.73444C9.03946 6.71407 9.00205 6.67311 8.93762 6.59371C8.91992 6.53121 8.91992 6.53121 8.92004 6.46871C8.91936 6.44809 8.91867 6.42746 8.91797 6.40621C8.99519 6.16064 9.26989 6.20111 9.47632 6.20254Z" fill="#FF0000"/>
<path d="M3.28882 6.20254C3.3276 6.20232 3.36639 6.2021 3.40635 6.20187C3.51251 6.20142 3.61863 6.20152 3.72479 6.20192C3.83599 6.20224 3.94719 6.20194 4.05839 6.20175C4.24511 6.20152 4.43184 6.20182 4.61856 6.20242C4.8343 6.2031 5.05002 6.20288 5.26575 6.20219C5.45113 6.20162 5.63651 6.20154 5.82189 6.20187C5.93255 6.20206 6.04319 6.20209 6.15384 6.20167C6.27721 6.20125 6.40056 6.20184 6.52393 6.20254C6.57882 6.20216 6.57882 6.20216 6.63482 6.20177C6.8821 6.20436 6.8821 6.20436 7.00717 6.27832C7.06707 6.34896 7.08324 6.3773 7.0802 6.46871C7.08024 6.48934 7.08028 6.50996 7.08032 6.53121C7.0547 6.62167 7.00949 6.65917 6.93762 6.71871C6.85914 6.73444 6.85914 6.73444 6.7692 6.73458C6.73503 6.73494 6.70086 6.73529 6.66565 6.73565C6.6283 6.7354 6.59096 6.73515 6.55249 6.73489C6.51305 6.73511 6.47361 6.73532 6.43297 6.73555C6.32488 6.73612 6.21681 6.7359 6.10873 6.7355C5.99559 6.73519 5.88246 6.73548 5.76933 6.73568C5.57934 6.7359 5.38936 6.7356 5.19937 6.73501C4.97975 6.73433 4.76014 6.73455 4.54052 6.73524C4.35193 6.7358 4.16334 6.73588 3.97475 6.73556C3.86212 6.73536 3.7495 6.73534 3.63688 6.73575C3.51133 6.73618 3.3858 6.73558 3.26025 6.73489C3.22291 6.73514 3.18557 6.73539 3.1471 6.73565C3.11292 6.7353 3.07875 6.73495 3.04354 6.73458C2.99902 6.73451 2.99902 6.73451 2.9536 6.73444C2.85196 6.71407 2.81455 6.67311 2.75012 6.59371C2.73242 6.53121 2.73242 6.53121 2.73254 6.46871C2.73186 6.44809 2.73117 6.42746 2.73047 6.40621C2.80769 6.16064 3.08239 6.20111 3.28882 6.20254Z" fill="#FF0000"/>
</g>
<defs>
<clipPath id="clip0_3177_7242">
<rect width="16" height="16" fill="white" transform="translate(0 0.5)"/>
</clipPath>
</defs>
</svg>
