<svg width="16" height="17" viewBox="0 0 16 17" fill="none" xmlns="http://www.w3.org/2000/svg">
<path fill-rule="evenodd" clip-rule="evenodd" d="M14.0815 2.30454C13.3005 1.52349 12.0342 1.52348 11.2531 2.30454L10.1333 3.4244L4.86258 8.69504C4.77714 8.7805 4.71653 8.88757 4.68722 9.00477L4.02056 11.6714C3.96376 11.8986 4.03032 12.139 4.19591 12.3045C4.3615 12.4701 4.60182 12.5367 4.82901 12.4799L7.49565 11.8132C7.61292 11.7839 7.71992 11.7233 7.80538 11.6378L13.0377 6.40555L14.1959 5.24734C14.977 4.4663 14.977 3.19996 14.1959 2.41892L14.0815 2.30454ZM12.1959 3.24734C12.4563 2.987 12.8784 2.987 13.1387 3.24734L13.2531 3.36172C13.5135 3.62208 13.5135 4.04419 13.2531 4.30454L12.5755 4.98222L11.5385 3.90476L12.1959 3.24734ZM10.5955 4.84774L11.6325 5.9252L6.99318 10.5645L5.58356 10.9169L5.93596 9.5073L10.5955 4.84774ZM2.66732 5.83313C2.66732 5.46494 2.9658 5.16646 3.33398 5.16646H6.66732C7.03552 5.16646 7.33398 4.86799 7.33398 4.4998C7.33398 4.13161 7.03552 3.83313 6.66732 3.83313H3.33398C2.22942 3.83313 1.33398 4.72856 1.33398 5.83313V13.1664C1.33398 14.271 2.22942 15.1664 3.33398 15.1664H10.6673C11.7719 15.1664 12.6673 14.271 12.6673 13.1664V9.8331C12.6673 9.46497 12.3689 9.16644 12.0007 9.16644C11.6325 9.16644 11.334 9.46497 11.334 9.8331V13.1664C11.334 13.5346 11.0355 13.8331 10.6673 13.8331H3.33398C2.9658 13.8331 2.66732 13.5346 2.66732 13.1664V5.83313Z" fill="#FF0000"/>
</svg>
