<svg width="16" height="17" viewBox="0 0 16 17" fill="none" xmlns="http://www.w3.org/2000/svg">
<g clip-path="url(#clip0_3177_7172)">
<path d="M10.2844 16.2162C10.278 16.1297 10.2012 16.0618 10.2012 15.9629C10.31 15.9258 10.4188 15.895 10.534 15.8703C10.5788 15.8641 10.6044 15.8703 10.6236 15.9073C10.6556 15.9629 10.6876 16.0247 10.7068 16.0865C10.6172 16.1235 10.5276 16.1482 10.4316 16.173C10.3868 16.1853 10.342 16.1791 10.31 16.2224H10.2844V16.2162Z" fill="#FF0000"/>
<path d="M4.69721 5.05322C4.50521 5.31268 4.32601 5.57832 4.15961 5.86249C3.75001 6.57909 3.57081 7.39453 3.64761 8.2038C3.75641 9.37137 4.22361 10.3783 5.11321 11.1876C5.53561 11.5582 6.01561 11.8609 6.54041 12.0833C6.56601 12.0957 6.59801 12.1204 6.64281 12.1019C6.64921 12.0092 6.59801 11.9289 6.59161 11.8301C6.64281 11.8053 6.68121 11.8609 6.73241 11.8301C6.70681 11.7003 6.63641 11.5768 6.59161 11.447C6.64921 11.4162 6.70681 11.4718 6.77081 11.4409C6.73881 11.2988 6.65561 11.1752 6.61721 11.0331C6.68121 11.0331 6.70681 11.0887 6.76441 11.0887C6.74521 10.9652 6.63641 10.8849 6.61081 10.7675C6.66201 10.7304 6.71961 10.786 6.77721 10.7552C6.75801 10.6625 6.71961 10.5822 6.66841 10.5019C6.64921 10.4648 6.61081 10.4772 6.57881 10.4772C6.40601 10.4895 6.23961 10.5204 6.07321 10.5698C5.87481 10.6254 5.67641 10.7057 5.49721 10.8108C5.45881 10.8416 5.40121 10.8416 5.36281 10.7984C5.36281 10.7984 5.35641 10.7922 5.35641 10.786C5.24761 10.6687 5.14521 10.5451 5.03641 10.4277C5.00441 10.3907 4.99161 10.3351 5.00441 10.2918L5.06841 9.51963C5.10041 9.15515 5.12601 8.79067 5.15801 8.43237C5.19001 8.07407 5.21561 7.71577 5.24121 7.35747C5.24121 7.30805 5.27321 7.2648 5.32441 7.25863C5.57401 7.17832 5.83641 7.13507 6.09881 7.12272C6.14361 7.1289 6.18841 7.12272 6.22681 7.10419C6.20121 7.04859 6.17561 6.99299 6.14361 6.94357C6.12441 6.90033 6.07961 6.86326 6.15001 6.82002C6.18201 6.80148 6.15641 6.76442 6.14361 6.74589C6.10521 6.67793 6.06041 6.61616 6.01561 6.5482C6.00281 6.52967 5.98361 6.49878 6.01561 6.48643C6.08601 6.45554 6.05401 6.41847 6.02841 6.38141C5.95801 6.28874 5.88761 6.19608 5.81721 6.10341C5.84921 6.06635 5.89401 6.10341 5.91961 6.0787C5.92601 6.07253 5.92601 6.05399 5.91961 6.04782C5.86201 5.97368 5.79801 5.90573 5.74041 5.8316C5.72761 5.81307 5.69561 5.78836 5.72121 5.76982C5.79801 5.7204 5.73401 5.67716 5.71481 5.63392C5.68921 5.57832 5.65081 5.5289 5.61881 5.47948C5.60601 5.46094 5.58681 5.43623 5.59321 5.42388C5.66361 5.33121 5.56761 5.28797 5.53561 5.22619C5.52281 5.20148 5.50361 5.17677 5.48441 5.15824C5.47801 5.14589 5.45881 5.12735 5.45881 5.115C5.51001 5.02233 5.42041 4.97909 5.38201 4.91731C5.37561 4.90496 5.35641 4.8926 5.35641 4.88025C5.33721 4.71345 5.19001 4.61461 5.14521 4.46017C5.10681 4.36751 5.04921 4.27484 4.97881 4.20689C4.95321 4.16982 4.90841 4.16365 4.87001 4.18218C4.78041 4.20689 4.71001 4.26867 4.65881 4.3428C4.63321 4.39222 4.60761 4.42928 4.56921 4.49106L4.47961 4.32426C4.39001 4.48488 4.42201 4.63314 4.42201 4.78758C4.35801 4.79994 4.32601 4.71963 4.25561 4.73816L4.28761 4.9482C4.26201 4.97909 4.22361 4.94202 4.20441 4.96674C4.18521 4.99145 4.19801 5.02851 4.19801 5.0594C4.21081 5.115 4.21721 5.1706 4.21081 5.22619C4.01241 5.19531 3.88441 5.02233 3.90361 4.80612C3.92281 4.59608 4.02521 4.3984 4.19161 4.25631C4.26841 4.18836 4.35161 4.12658 4.44121 4.07098C4.47321 4.05245 4.51801 4.04009 4.53721 3.99067C4.30681 4.02156 4.13401 4.13894 3.96761 4.27484C3.95481 4.26867 3.94201 4.26249 3.93561 4.25631C3.87801 4.16365 3.87801 4.16365 3.79481 4.22542C3.69881 4.29955 3.60921 4.38604 3.53241 4.49106C3.50681 4.54048 3.46841 4.57755 3.42361 4.61461C3.37241 4.5899 3.37241 4.52195 3.31481 4.49106C3.23801 4.54666 3.20601 4.63314 3.16121 4.71345C3.11641 4.79376 3.07801 4.87407 3.03961 4.95438C2.99481 4.92967 3.00121 4.87407 2.95641 4.86172C2.86041 4.98527 2.84121 5.13353 2.79001 5.27562C2.76441 5.26944 2.76441 5.24473 2.76441 5.23237C2.75801 4.85554 2.84121 4.50959 3.07161 4.20071C3.29561 3.90419 3.60281 3.74975 3.96121 3.67562C4.07641 3.6509 4.19161 3.63237 4.30681 3.62619C4.35161 3.62002 4.39641 3.61384 4.46681 3.60148C4.21081 3.40998 3.94201 3.37291 3.65401 3.39145C3.64121 3.32349 3.69881 3.28025 3.69241 3.21229C3.53881 3.19376 3.41721 3.27407 3.28281 3.32967L3.26361 3.21229C3.13561 3.23083 3.08441 3.34202 3.00761 3.41616C2.95641 3.38527 2.95001 3.32349 2.89241 3.29878C2.74521 3.42233 2.70681 3.60766 2.65561 3.78063C2.63001 3.77446 2.62361 3.75592 2.61721 3.74357C2.59161 3.70033 2.56601 3.71268 2.54041 3.74357C2.49561 3.80534 2.46361 3.87948 2.43801 3.95361C2.43161 3.97214 2.41881 3.99067 2.40601 4.00921C2.34841 3.74357 2.33561 3.49029 2.52121 3.26172C2.71961 3.01461 2.98841 2.88488 3.30201 2.82928C3.52601 2.7984 3.75001 2.81075 3.96121 2.86635C4.01881 2.89106 4.07641 2.89724 4.14041 2.89724C4.08921 2.84164 4.03161 2.79222 3.96121 2.76133C3.85881 2.69955 3.74361 2.65631 3.62841 2.62542C3.58361 2.60071 3.54521 2.58836 3.53881 2.53894C3.53241 2.48951 3.49401 2.47716 3.44921 2.48951C3.38521 2.50187 3.32761 2.5204 3.27001 2.53894C3.23801 2.55129 3.21241 2.56982 3.17401 2.56365L3.16121 2.44009C3.11001 2.42774 3.05241 2.44627 3.01401 2.48334C2.96921 2.51423 2.93081 2.54511 2.88601 2.58218C2.82841 2.40303 2.93081 2.2177 3.11641 2.1621C3.24441 2.11268 3.38521 2.1065 3.52601 2.13121C3.73081 2.16828 3.91001 2.2733 4.08281 2.37832C4.14041 2.40921 4.19801 2.44627 4.26841 2.48951C4.32601 2.19299 4.44121 1.94589 4.71641 1.79762C4.94681 1.67407 5.18361 1.66172 5.43961 1.68025C5.42681 1.71731 5.38841 1.72349 5.36281 1.73585C5.30521 1.76673 5.24761 1.79145 5.19641 1.81616C5.17721 1.82851 5.15161 1.84704 5.16441 1.8594C5.22201 1.95206 5.12601 1.96442 5.08121 2.00148C5.01721 2.05708 4.92121 2.08179 4.92761 2.19299C4.92761 2.22388 4.88921 2.24241 4.86361 2.26712C4.76121 2.35361 4.69081 2.47716 4.67161 2.60689C4.72281 2.60689 4.77401 2.58836 4.81881 2.55747C5.02361 2.45863 5.26041 2.41538 5.49081 2.43392C5.90041 2.45245 6.19481 2.69955 6.27161 3.10728C6.19481 3.05168 6.15001 2.97137 6.05401 2.95284C6.02201 3.00226 6.04121 3.05168 6.02201 3.11963C5.93241 3.00843 5.81721 2.92812 5.67641 2.88488C5.65081 2.9343 5.69561 2.97755 5.67001 3.02079C5.58041 3.00843 5.49081 2.94048 5.38201 2.95901L5.42041 3.11345C5.37561 3.12581 5.33721 3.12581 5.29241 3.11963C5.22841 3.11963 5.15801 3.11963 5.09401 3.12581C4.92121 3.15052 4.83801 3.26172 4.86361 3.44087C4.91481 3.4594 4.94041 3.41616 4.97241 3.39762C5.38841 3.14434 5.80441 3.16905 6.22681 3.37909C6.47641 3.50882 6.61081 3.72504 6.66201 4.02774C6.59801 3.94743 6.56601 3.85477 6.47641 3.81152C6.45081 3.84859 6.47001 3.88565 6.45081 3.94125C6.35481 3.78681 6.23961 3.66326 6.05401 3.63237C6.02841 3.68179 6.04761 3.72504 6.02841 3.76828C5.91321 3.74357 5.79801 3.68797 5.67001 3.68797C5.54841 3.67562 5.43321 3.71886 5.34361 3.79917C5.42681 3.79917 5.51641 3.80534 5.59961 3.81152C5.89401 3.83623 6.13721 3.94125 6.29721 4.18836C6.39321 4.3428 6.45721 4.51577 6.47001 4.69492C6.37401 4.5899 6.34201 4.45399 6.20121 4.41693L6.14361 4.57137C6.04761 4.46635 5.99641 4.33662 5.86201 4.28102C5.83641 4.32426 5.85561 4.36751 5.83641 4.42928C5.77241 4.3428 5.69561 4.25631 5.61241 4.18218C5.52281 4.11423 5.43321 4.05245 5.30521 4.05863C5.32441 4.1204 5.38201 4.16365 5.44601 4.16982C5.48441 4.16982 5.51641 4.20071 5.52281 4.23778C5.53561 4.27484 5.54201 4.31809 5.55481 4.35515C5.57401 4.41075 5.56761 4.4787 5.66361 4.47253C5.68281 4.47253 5.69561 4.49106 5.70201 4.51577C5.70841 4.55284 5.71481 4.5899 5.72121 4.62079C5.74041 4.71345 5.74041 4.71963 5.84281 4.71345C5.88761 4.70728 5.90041 4.73199 5.90681 4.76905C5.91961 4.84936 5.93881 4.92967 5.95161 5.00998C5.97081 5.10882 5.97081 5.10882 6.07321 5.08411C6.12441 5.19531 6.11801 5.31886 6.16281 5.43623L6.25241 5.40535C6.27801 5.41152 6.27801 5.42388 6.27801 5.43006C6.29081 5.51654 6.30361 5.60303 6.32281 5.69569C6.32921 5.7204 6.32921 5.75747 6.37401 5.74511C6.43161 5.73276 6.43801 5.75747 6.43801 5.80071C6.44441 5.8872 6.45081 5.97368 6.45721 6.05399C6.45721 6.0787 6.45721 6.11577 6.50201 6.10959C6.57241 6.09724 6.57881 6.14048 6.57881 6.1899C6.57881 6.25785 6.58521 6.32581 6.58521 6.39376C6.58521 6.43701 6.59161 6.47407 6.64921 6.47407C6.69401 6.47407 6.70041 6.49878 6.70041 6.53585C6.70041 6.61616 6.70041 6.69646 6.70681 6.77677C6.70681 6.81384 6.71321 6.83855 6.75801 6.83855C6.80281 6.83855 6.80921 6.86944 6.80281 6.90033C6.80281 6.9065 6.80281 6.9065 6.80281 6.91268C6.79641 6.97446 6.75161 7.03623 6.79001 7.08565C6.82841 7.13507 6.90521 7.10419 6.96281 7.10419C7.35961 7.14125 7.75001 7.24009 8.10841 7.40689C8.20441 7.45013 8.31961 7.45631 8.42201 7.41307C8.78681 7.28334 9.17081 7.22774 9.56121 7.24627H9.61241C9.70841 7.24627 9.70841 7.24627 9.70841 7.15361C9.70841 7.09183 9.70201 7.03006 9.69561 6.97446C9.69561 6.95592 9.68921 6.92504 9.72121 6.93121C9.79801 6.93739 9.78521 6.88797 9.79161 6.84473C9.79801 6.7706 9.81081 6.69029 9.82361 6.61616C9.93241 6.61616 9.93241 6.61616 9.93881 6.51114C9.94521 6.43083 9.95801 6.35052 9.96441 6.27021C9.96441 6.2455 9.97081 6.22079 10.0092 6.23314C10.0668 6.25168 10.0732 6.21461 10.0796 6.17755C10.1052 6.06017 10.086 5.9428 10.0988 5.82542C10.1564 5.80689 10.182 5.86249 10.2396 5.86249C10.2844 5.75747 10.2524 5.64009 10.278 5.53507C10.3228 5.51654 10.3484 5.55978 10.3932 5.54743L10.4572 5.17677C10.5084 5.16442 10.5212 5.20766 10.5596 5.21384C10.566 5.20766 10.5788 5.20148 10.5788 5.18913C10.598 5.115 10.6108 5.04087 10.63 4.96056C10.6364 4.92349 10.6492 4.87407 10.7068 4.88025C10.7644 4.88643 10.7836 4.85554 10.7836 4.79994C10.7836 4.76905 10.79 4.74434 10.79 4.71345C10.79 4.68256 10.8092 4.65785 10.8412 4.65785C10.8988 4.65785 10.9244 4.62079 10.9372 4.57755C10.9436 4.54048 10.9756 4.50959 11.0204 4.50341C11.0972 4.48488 11.0908 4.40457 11.1356 4.34897C11.0652 4.32426 11.0204 4.36133 10.9756 4.37986C10.8988 4.42311 10.8284 4.48488 10.7772 4.55901C10.694 4.66403 10.6748 4.65785 10.6236 4.54048C10.6172 4.5343 10.6172 4.52812 10.6108 4.51577C10.502 4.56519 10.4892 4.71963 10.3548 4.75052C10.3292 4.69492 10.3548 4.63314 10.31 4.58372C10.2076 4.65168 10.1564 4.76287 10.0476 4.84936C10.0156 4.67021 10.0668 4.49106 10.182 4.34897C10.438 4.04627 10.758 3.9289 11.1676 4.05863C11.1612 4.02774 11.142 4.00303 11.11 3.99067C10.9564 3.90419 10.79 3.86712 10.6172 3.92272C10.502 3.95979 10.502 3.95979 10.438 3.86094C10.342 3.91036 10.2524 3.96596 10.1756 4.04009C10.15 4.0648 10.1308 4.08334 10.0988 4.04009C10.0668 3.99685 10.0348 4.02156 10.0156 4.04627C9.97721 4.07716 9.94521 4.1204 9.88761 4.16982C9.88761 3.99067 9.95161 3.8177 10.0796 3.68797C10.31 3.45322 10.6044 3.39145 10.918 3.45322C11.1292 3.49646 11.334 3.58295 11.5132 3.7065C11.5324 3.72504 11.558 3.73739 11.59 3.74975C11.6348 3.57677 11.5196 3.4038 11.3404 3.36056C11.3276 3.36056 11.3148 3.35438 11.302 3.35438C11.27 3.35438 11.2444 3.35438 11.2124 3.35438C11.1228 3.35438 11.1228 3.35438 11.1292 3.27407C11.1356 3.19376 11.1228 3.18758 11.0396 3.19994C10.9692 3.21847 10.9052 3.24318 10.8412 3.27407C10.8092 3.21847 10.8668 3.16287 10.8412 3.1011C10.7004 3.10728 10.6172 3.21229 10.5212 3.28643C10.4956 3.24318 10.5212 3.19376 10.4892 3.15052C10.3868 3.19376 10.3228 3.28025 10.214 3.3482C10.2268 3.13199 10.2972 2.95901 10.4764 2.84782C10.7836 2.64396 11.1868 2.62542 11.5132 2.7984C11.6156 2.84782 11.7052 2.90959 11.8012 2.97137C11.8332 2.83546 11.7756 2.73662 11.5708 2.55129C11.622 2.4648 11.622 2.44627 11.5516 2.37832C11.5324 2.35979 11.5132 2.34743 11.494 2.3289C11.43 2.28565 11.3596 2.26712 11.3404 2.16828C11.334 2.11268 11.2572 2.08179 11.206 2.0509C11.1548 2.02619 11.1036 2.00148 11.0652 1.95824C11.2252 1.915 11.398 1.92735 11.5516 1.99531C11.878 2.12504 12.0828 2.36596 12.198 2.6872C12.2044 2.73662 12.2236 2.77986 12.2428 2.82311C12.2876 2.82928 12.3068 2.80457 12.3324 2.77986C12.5692 2.60071 12.8764 2.53894 13.1644 2.61924C13.382 2.6872 13.5292 2.88488 13.5292 3.10728C13.5292 3.12581 13.5292 3.15052 13.5036 3.1567C13.4844 3.16287 13.4588 3.15052 13.4524 3.13199C13.4204 3.06403 13.3628 3.01461 13.2988 2.98372C13.2604 3.01461 13.2924 3.06403 13.2604 3.1011C13.1516 3.0455 13.0492 2.97137 12.9148 2.96519C12.8828 2.99608 12.9212 3.03314 12.9084 3.07639C12.7996 3.08257 12.6844 3.05168 12.5756 3.08256C12.4668 3.10728 12.3708 3.16287 12.294 3.24318C12.3452 3.25554 12.3964 3.24936 12.4412 3.23701C12.9596 3.14434 13.3948 3.28025 13.7532 3.6509C13.9964 3.91036 14.0476 4.28102 13.894 4.59608C13.8364 4.48488 13.83 4.35515 13.7724 4.25013C13.7084 4.25013 13.6892 4.31809 13.6316 4.33044C13.5612 4.16365 13.6188 3.95361 13.478 3.80534C13.4332 3.84241 13.4524 3.87948 13.4396 3.91654C13.4332 3.93507 13.4332 3.94743 13.414 3.95361C13.3948 3.95361 13.382 3.94743 13.3692 3.93507C13.35 3.90419 13.3372 3.8733 13.3244 3.84859C13.286 3.78063 13.222 3.72504 13.1452 3.70033C13.1196 3.73739 13.1452 3.78681 13.126 3.83623C13.0172 3.78681 12.934 3.69415 12.806 3.68179C12.7932 3.74357 12.8572 3.79299 12.8252 3.86094C12.5564 3.78681 12.2876 3.75592 12.0252 3.94125C12.134 3.95979 12.2236 3.97832 12.3132 3.99685C12.6204 4.05245 12.902 4.20689 13.1132 4.42928C13.3564 4.67639 13.5164 4.98527 13.5804 5.31268C13.606 5.47948 13.5868 5.65245 13.5356 5.81307C13.5292 5.82542 13.5164 5.83778 13.5036 5.83778C13.4908 5.6648 13.478 5.49801 13.3948 5.33121C13.3308 5.36828 13.3372 5.44241 13.2796 5.48565C13.2284 5.30033 13.222 5.10264 13.0556 4.96674L12.9724 5.16442C12.8636 4.94202 12.7804 4.71963 12.5628 4.59608C12.5244 4.63314 12.5436 4.67639 12.5116 4.72581C12.326 4.52812 12.1596 4.32426 11.8652 4.28102C11.8844 4.33044 11.9292 4.34897 11.9612 4.37986C12.0764 4.46635 12.1788 4.56519 12.2748 4.67639C12.4028 4.83083 12.4796 5.01616 12.4988 5.20766C12.5116 5.38063 12.4412 5.50419 12.294 5.55979C12.2748 5.56596 12.2556 5.56596 12.2364 5.56596C12.23 5.51036 12.262 5.4733 12.2748 5.43006C12.294 5.35592 12.2876 5.34357 12.2108 5.33739C12.1468 5.33121 12.1404 5.31268 12.1596 5.26326C12.1788 5.21384 12.1852 5.16442 12.1788 5.115C12.1276 5.08411 12.0956 5.13353 12.0444 5.12118C12.0124 5.0038 12.0508 4.86789 11.9932 4.75052C11.9356 4.76287 11.9484 4.83083 11.9036 4.86172C11.8716 4.82465 11.8396 4.78141 11.8268 4.73816C11.7884 4.66403 11.7372 4.5899 11.6796 4.52812C11.654 4.49724 11.6092 4.4787 11.5644 4.48488C11.5324 4.49106 11.5004 4.50341 11.526 4.54048C11.5516 4.57755 11.526 4.59608 11.5004 4.61461C11.462 4.6455 11.4236 4.67639 11.3852 4.70728C11.3724 4.71963 11.3532 4.74434 11.3724 4.7567C11.4428 4.80612 11.3916 4.82465 11.3532 4.84936C11.2892 4.88643 11.238 4.93585 11.1932 4.99762C11.206 5.04087 11.2636 5.01616 11.27 5.05322C11.27 5.06558 11.2636 5.07175 11.2508 5.07793C11.1804 5.12117 11.1164 5.1706 11.0588 5.23237C10.9948 5.3065 10.9948 5.31268 11.0844 5.38063C10.9948 5.44241 10.886 5.49183 10.8348 5.59067C10.8604 5.63392 10.9116 5.62774 10.9564 5.64627C10.886 5.74511 10.758 5.79453 10.7132 5.90573C10.7388 5.9428 10.7836 5.93044 10.8156 5.96133C10.7516 6.04164 10.6556 6.09106 10.6044 6.17755C10.6492 6.22079 10.7068 6.20226 10.758 6.22079C10.6556 6.34434 10.5084 6.43083 10.4508 6.58527C10.47 6.63469 10.5212 6.6038 10.5596 6.62851C10.4892 6.715 10.3932 6.78295 10.3484 6.89415L10.4764 6.93739C10.406 7.05477 10.2844 7.12272 10.246 7.2648C10.3548 7.28334 10.4572 7.30187 10.566 7.3204C10.7324 7.35129 10.8988 7.38836 11.0652 7.43778C11.174 7.47484 11.1804 7.47484 11.1868 7.58604C11.1932 7.68488 11.1932 7.77755 11.1932 7.87639L11.2572 10.2548C11.2572 10.2918 11.2572 10.3289 11.2636 10.366C11.2956 10.5019 11.2444 10.644 11.1356 10.7366C11.078 10.7984 11.0204 10.8663 10.9692 10.9343C10.886 11.027 10.886 11.027 10.7772 10.9652C10.566 10.8416 10.3484 10.7428 10.118 10.6563C10.0348 10.6192 9.94521 10.6007 9.84921 10.6007C9.71481 10.6007 9.63801 10.6687 9.62521 10.8046C9.66361 10.8293 9.70201 10.786 9.75961 10.8046C9.74681 10.8849 9.68281 10.9405 9.67001 11.0208C9.71481 11.0579 9.76601 11.0146 9.82361 11.0331C9.81081 11.1073 9.75961 11.1691 9.72761 11.237C9.68921 11.2988 9.67001 11.3667 9.67641 11.4409C9.72761 11.4594 9.77241 11.4223 9.83001 11.4285C9.81081 11.4965 9.78521 11.5706 9.75961 11.6386C9.72761 11.7003 9.72121 11.7683 9.72761 11.8362C9.78521 11.8548 9.82361 11.7992 9.88121 11.8115C9.88121 11.9165 9.81081 12.0092 9.81081 12.1204C9.86841 12.1513 9.92601 12.1142 9.97721 12.0957C10.2588 11.9969 10.5276 11.8671 10.7708 11.7065C11.5004 11.2246 12.0764 10.5575 12.4348 9.77909C12.7164 9.17986 12.838 8.51886 12.7996 7.86403C12.7612 7.24627 12.582 6.64087 12.2876 6.08488C12.1596 5.8316 12.0124 5.59067 11.846 5.3621C11.814 5.31886 11.7884 5.27562 11.7564 5.22619H11.8012C12.5308 5.87484 13.062 6.70264 13.3244 7.62928C13.4972 8.2594 13.5612 8.90805 13.51 9.5567C13.446 10.5266 13.094 11.4532 12.4924 12.2316C11.9548 12.942 11.2444 13.4362 10.406 13.7575C9.89401 13.9552 9.35001 14.0911 8.79961 14.1528C8.60121 14.1714 8.39641 14.1714 8.19801 14.159C7.72441 14.1405 7.25721 14.0663 6.79641 13.949C5.99001 13.7389 5.24761 13.3312 4.63961 12.7691C3.90361 12.0895 3.43001 11.2555 3.09721 10.3351C2.99481 10.0324 2.93081 9.72349 2.89881 9.40843C2.86681 9.11191 2.85401 8.80921 2.87321 8.51268C2.90521 7.45013 3.31481 6.43083 4.03161 5.62774C4.23001 5.40534 4.44121 5.20148 4.67161 5.00998C4.69081 5.00998 4.70361 4.99762 4.71001 4.97909L4.69721 5.05322ZM11.11 10.5945C11.1356 10.5513 11.142 10.5019 11.1292 10.4524C11.1164 9.66789 11.0972 8.88334 11.0844 8.0926C11.0844 7.9567 11.078 7.81461 11.0716 7.6787C11.0652 7.57368 11.0652 7.57368 10.9628 7.5428C10.5916 7.4316 10.2076 7.36982 9.82361 7.36365C9.35641 7.36365 8.88281 7.4316 8.43481 7.56133C8.36441 7.58604 8.28761 7.57986 8.21721 7.55515C7.74361 7.376 7.25081 7.25863 6.74521 7.20921C6.30361 7.17214 5.85561 7.19685 5.42041 7.27716C5.35001 7.28951 5.32441 7.3204 5.32441 7.38836C5.29881 7.89492 5.26041 8.40148 5.23481 8.90187C5.20921 9.3343 5.19001 9.76674 5.16441 10.1992C5.16441 10.2301 5.16441 10.2609 5.16441 10.298C5.16441 10.3351 5.18361 10.3536 5.22201 10.3351L5.38841 10.2857C5.90681 10.1127 6.46361 10.0756 7.00121 10.1806C7.39161 10.2609 7.76281 10.4154 8.08921 10.6378C8.15321 10.6934 8.24921 10.6934 8.31961 10.6501C9.01721 10.2671 9.75961 10.193 10.534 10.3969C10.726 10.4463 10.918 10.5142 11.11 10.5945ZM8.81881 11.7127C8.84441 11.6756 8.90201 11.7065 8.91481 11.6633C8.89561 11.5459 8.82521 11.4409 8.81241 11.3111C8.83161 11.305 8.84441 11.2988 8.85721 11.2988C8.94041 11.2741 8.94041 11.2741 8.91481 11.2061C8.88921 11.1443 8.87001 11.0826 8.83801 11.027C8.81881 10.9899 8.82521 10.9652 8.86361 10.9467C8.88921 10.9343 8.92121 10.9219 8.91481 10.8849C8.89561 10.8108 8.90201 10.7366 8.85721 10.6625C8.67161 10.7366 8.49881 10.8293 8.33241 10.9343C8.27481 10.9714 8.22361 11.027 8.15961 11.027C8.09561 11.027 8.05721 10.9467 8.00601 10.9096C7.98681 10.8911 7.96761 10.8725 7.94841 10.8602C7.85241 10.786 7.75001 10.7243 7.64121 10.6748C7.61561 10.6625 7.58361 10.6501 7.56441 10.681C7.52601 10.7428 7.50041 10.8169 7.48761 10.8849C7.48121 10.9034 7.49401 10.9158 7.50681 10.9219C7.56441 10.9343 7.54521 10.9714 7.53881 11.0084C7.52601 11.064 7.51961 11.1196 7.50681 11.1752C7.50041 11.1999 7.49401 11.2308 7.51321 11.2432C7.57721 11.2741 7.55801 11.3235 7.54521 11.3667C7.52601 11.4594 7.50041 11.5459 7.48121 11.6386C7.47481 11.6694 7.45561 11.7127 7.49401 11.725C7.55161 11.7436 7.53241 11.7745 7.52601 11.8115C7.51961 11.8486 7.49401 11.8857 7.48121 11.9227C7.46841 11.9598 7.46201 11.9907 7.51321 11.9969C7.56441 12.003 7.55161 12.0339 7.53881 12.0648C7.50681 12.1266 7.48121 12.1884 7.44281 12.2501C7.41721 12.2996 7.42361 12.3243 7.48121 12.3366C7.50681 12.3428 7.53241 12.349 7.55801 12.349C7.92281 12.4046 8.29401 12.4231 8.65881 12.4046C8.71641 12.4046 8.77401 12.3922 8.83161 12.386C8.91481 12.3737 8.91481 12.3675 8.88921 12.2934C8.85721 12.2254 8.83161 12.1575 8.81241 12.0833C8.86361 12.0524 8.92761 12.0833 8.97881 12.0401C8.95961 11.9289 8.85721 11.8362 8.81881 11.7127ZM6.56601 7.02388C6.55961 6.98681 6.55321 6.94975 6.54681 6.91886C6.48921 6.67793 6.41881 6.44318 6.33561 6.20843C6.07961 5.45477 5.71481 4.74434 5.26041 4.08334C5.23481 4.04627 5.21561 4.01538 5.19001 3.9845C5.17721 3.96596 5.15801 3.95979 5.13881 3.97214C5.06201 3.99067 5.02361 4.0648 5.04281 4.13894C5.04921 4.15747 5.05561 4.16982 5.06841 4.18836C5.08121 4.20689 5.09401 4.2316 5.10681 4.25013C5.34361 4.60226 5.54841 4.96673 5.73401 5.34357C5.98361 5.87484 6.18201 6.42465 6.33561 6.99299C6.36761 7.11036 6.39321 7.12272 6.50841 7.10419C6.54681 7.08565 6.57241 7.0733 6.56601 7.02388ZM9.99641 7.25863C10.0604 7.27098 10.0924 7.24009 10.1116 7.17214C10.1756 6.93121 10.2524 6.69029 10.3484 6.45554C10.63 5.76365 10.9948 5.10882 11.43 4.50341C11.4556 4.47253 11.4748 4.43546 11.5004 4.40457C11.5132 4.38604 11.526 4.36751 11.5004 4.34897C11.4492 4.31809 11.3916 4.29338 11.3276 4.28102C11.2764 4.27484 11.2636 4.32426 11.238 4.35515C10.7644 5.08411 10.374 5.85631 10.0668 6.6594C10.0028 6.83237 9.94521 7.00534 9.90041 7.17832C9.88121 7.24627 9.88761 7.25245 9.96441 7.25245H9.99641V7.25863ZM9.56121 10.6316C9.45881 10.6192 9.36921 10.6501 9.27961 10.6501C9.19001 10.6501 9.16441 10.6872 9.14521 10.7613C9.04921 11.0826 9.02361 11.4162 9.05561 11.7497C9.06841 11.9289 9.09401 12.1142 9.14521 12.2872C9.16441 12.3675 9.17081 12.3675 9.24761 12.3428C9.32441 12.3181 9.38841 12.2934 9.46521 12.2748C9.51001 12.2687 9.54201 12.2254 9.53561 12.1822C9.52281 12.0463 9.51001 11.9104 9.49721 11.7683C9.47161 11.5212 9.47801 11.2741 9.50361 11.027C9.51641 10.8911 9.53561 10.7675 9.56121 10.6316ZM7.32761 11.1814C7.32761 11.0702 7.32121 10.9528 7.30841 10.8416C7.25081 10.5266 7.30841 10.5698 6.97561 10.5451H6.95001C6.86681 10.5451 6.86681 10.5451 6.87961 10.6254C6.90521 10.8416 6.93081 11.0579 6.93721 11.2802C6.93721 11.5459 6.92441 11.8115 6.88601 12.0772C6.86681 12.2131 6.84761 12.2131 7.01401 12.2501C7.02681 12.2563 7.03961 12.2563 7.05241 12.2563C7.13561 12.2748 7.14841 12.2687 7.16761 12.1945C7.25081 11.8609 7.33401 11.5274 7.32761 11.1814Z" fill="#FF0000"/>
<path d="M6.98881 5.08397C7.00161 5.02837 7.01441 4.98513 7.03361 4.94188L7.45601 3.59517C7.50081 3.45926 7.50081 3.45926 7.38561 3.37277L6.31041 2.58204C6.26561 2.55733 6.22721 2.52026 6.20801 2.47084C6.25281 2.45849 6.29761 2.45231 6.34881 2.45849H7.71841C7.85921 2.45849 7.85921 2.45849 7.90401 2.33493C8.05121 1.91486 8.19841 1.4886 8.34561 1.06852C8.35201 1.0191 8.37761 0.969683 8.41601 0.932617C8.48641 1.12412 8.55681 1.30945 8.62721 1.49478C8.72961 1.76659 8.82561 2.03841 8.92801 2.30405C8.96641 2.40289 8.96641 2.40289 9.08161 2.40289L10.5536 2.45231C10.5728 2.45231 10.592 2.45231 10.624 2.45849C10.6048 2.52026 10.5536 2.54497 10.5152 2.56968C10.2144 2.79208 9.92001 3.01447 9.61921 3.23686C9.57441 3.27393 9.52321 3.311 9.47201 3.34806C9.38241 3.39748 9.36321 3.47161 9.39521 3.56428C9.44001 3.71254 9.48481 3.8608 9.52321 4.00906C9.61921 4.3303 9.70881 4.65771 9.80481 4.97895C9.81761 5.00984 9.82401 5.04073 9.81761 5.07161C9.77921 5.05926 9.74081 5.03455 9.70881 5.00984L8.48641 4.17586C8.37121 4.10173 8.37121 4.10173 8.26241 4.18204C7.89121 4.44767 7.51361 4.71949 7.14241 4.98513C7.09121 5.02837 7.04001 5.06544 6.98881 5.08397ZM9.16481 3.73107C9.19681 3.6693 9.20961 3.59517 9.19041 3.52721C9.16481 3.42219 9.14561 3.311 9.12001 3.20598C9.10721 3.16891 9.11361 3.1442 9.15201 3.12567C9.22241 3.08242 9.29921 3.05154 9.38241 3.033C9.41441 3.02683 9.45281 3.00829 9.47201 3.04536C9.49121 3.08242 9.45281 3.10096 9.42721 3.12567C9.40161 3.15038 9.36321 3.17509 9.33121 3.20598C9.31841 3.22451 9.31841 3.24922 9.33761 3.26157C9.35041 3.27393 9.36961 3.26775 9.38241 3.2554C9.46561 3.18744 9.52961 3.10096 9.58081 3.00829C9.61281 2.94034 9.58081 2.8971 9.50401 2.8971C9.41441 2.90327 9.33121 2.92181 9.24801 2.95887C9.19681 2.9774 9.14561 3.01447 9.08161 3.00212C9.10721 2.8415 9.08161 2.77972 8.94081 2.63764C8.90241 2.68706 8.88961 2.74883 8.90881 2.81061C8.92161 2.85385 8.94081 2.8971 8.95361 2.94034C8.97921 3.033 8.97281 3.04536 8.88321 3.07007C8.78081 3.0886 8.67841 3.11949 8.58241 3.16273C8.50561 3.19362 8.46721 3.27393 8.49281 3.34806C8.49921 3.36042 8.50561 3.37895 8.51841 3.38513C8.53761 3.40984 8.55681 3.43455 8.58241 3.45926C8.63361 3.51486 8.67841 3.57045 8.71681 3.63841C8.74881 3.70636 8.74241 3.71872 8.66561 3.73107C8.51201 3.75578 8.37121 3.65694 8.33921 3.51486C8.33921 3.5025 8.33921 3.49632 8.33281 3.48397C8.33281 3.45308 8.33921 3.41601 8.28801 3.40984C8.24961 3.40366 8.23681 3.42219 8.22401 3.45308C8.19201 3.53957 8.18561 3.53957 8.09601 3.51486C8.05761 3.5025 8.02561 3.49632 7.99361 3.52721C7.96161 3.5581 7.95521 3.60752 7.98081 3.63841C8.04481 3.74343 8.00641 3.81138 7.91681 3.87934C7.82721 3.94729 7.73121 4.00907 7.64161 4.0832C7.62241 4.09555 7.60961 4.11408 7.61601 4.13262C7.62881 4.16351 7.65441 4.15733 7.68001 4.15115C7.80161 4.12026 7.91681 4.06466 8.01281 3.98435C8.08961 3.92876 8.09601 3.84845 8.10881 3.76814C8.11521 3.7249 8.13441 3.70018 8.17921 3.69401C8.21761 3.68165 8.26241 3.69401 8.28801 3.73107C8.38401 3.87934 8.57601 3.94111 8.74881 3.88551C8.80641 3.87316 8.84481 3.82374 8.83841 3.76814C8.85761 3.65694 8.82561 3.54574 8.75521 3.45926C8.72321 3.42219 8.69121 3.37895 8.67201 3.33571C8.63361 3.27393 8.64641 3.2554 8.71041 3.22451C8.78081 3.19362 8.85761 3.17509 8.94081 3.15656C8.99201 3.1442 9.01761 3.16273 9.02401 3.21833C9.03681 3.30482 9.05601 3.38513 9.07521 3.46544C9.09441 3.56428 9.12001 3.65076 9.16481 3.73107ZM8.48641 2.64999C8.47361 2.69323 8.46081 2.72412 8.44801 2.75501C8.43521 2.7859 8.41601 2.82296 8.39041 2.84768C8.37121 2.87856 8.33921 2.89092 8.30721 2.89092C8.26881 2.88474 8.26241 2.84768 8.25601 2.81679C8.24961 2.77354 8.24961 2.73648 8.24961 2.69323C8.24961 2.64381 8.24321 2.59439 8.23041 2.55115C8.22401 2.52644 8.21121 2.49555 8.18561 2.4832C8.16001 2.47084 8.13441 2.50173 8.11521 2.52644C8.07681 2.58204 8.03841 2.64381 7.99361 2.69941C7.93601 2.77354 7.91681 2.77354 7.82721 2.73648C7.82721 2.7859 7.80161 2.86003 7.85281 2.88474C7.90401 2.90945 7.95521 2.85385 8.00001 2.81679C8.02561 2.79208 8.05121 2.76119 8.07041 2.7303C8.08961 2.70559 8.10881 2.6747 8.15361 2.6747C8.16641 2.71177 8.17281 2.74883 8.17281 2.7859C8.17281 2.84768 8.19201 2.90327 8.21761 2.95887C8.26241 3.05154 8.33281 3.07007 8.42241 3.00212C8.43521 2.98976 8.44801 2.9774 8.46081 2.97123C8.53121 2.90327 8.53121 2.90327 8.60801 2.95269C8.68481 3.00829 8.79361 2.98976 8.85121 2.90945C8.87041 2.88474 8.87681 2.86003 8.88321 2.82914C8.89601 2.7859 8.88961 2.73648 8.87681 2.69323C8.84481 2.60675 8.81281 2.52026 8.77441 2.43378C8.76161 2.39053 8.72321 2.35964 8.67201 2.35347C8.65281 2.34729 8.62721 2.35347 8.61441 2.372C8.58881 2.41524 8.61441 2.52644 8.65921 2.54497C8.74241 2.58204 8.74881 2.64999 8.76161 2.72412C8.76801 2.75501 8.76801 2.79208 8.72961 2.81061C8.69761 2.82296 8.65921 2.81679 8.64001 2.7859C8.58241 2.74883 8.53761 2.70559 8.48641 2.64999ZM8.88961 3.21833C8.85121 3.28011 8.84481 3.35424 8.87681 3.41601C8.90241 3.49632 8.92161 3.57663 8.93441 3.66312C8.94721 3.77432 8.96001 3.88551 8.97281 3.99671C8.97281 4.03378 8.98561 4.07084 9.01121 4.10173C9.03681 4.07084 9.04961 4.03378 9.04961 3.99671C9.05601 3.89169 9.04961 3.78667 9.03681 3.68165C9.01761 3.58899 9.00481 3.49632 8.99841 3.40366C9.00481 3.32953 8.96001 3.2554 8.88961 3.21833ZM7.72481 3.50868C7.84001 3.53339 7.90401 3.49632 7.89761 3.39748C7.89121 3.31717 7.92961 3.28011 7.99361 3.2554C8.04481 3.23069 8.08961 3.20598 8.13441 3.18127C8.15361 3.16891 8.17281 3.15038 8.18561 3.13184C8.19841 3.11331 8.19841 3.09478 8.18561 3.07625C8.17281 3.05771 8.14721 3.06389 8.12801 3.07007C8.12161 3.07625 8.11521 3.07625 8.10881 3.08242C8.03201 3.13802 7.94241 3.18744 7.84641 3.22451C7.75681 3.26775 7.74401 3.311 7.79521 3.39748C7.80801 3.41601 7.80161 3.43455 7.78881 3.4469C7.77601 3.47779 7.73121 3.47161 7.72481 3.50868ZM8.27521 2.19285C8.24321 2.24227 8.23681 2.30405 8.24961 2.35964C8.26241 2.42142 8.28801 2.43995 8.35201 2.40907C8.37121 2.39671 8.39681 2.39671 8.42241 2.40289C8.49921 2.42142 8.51841 2.40906 8.53761 2.34111C8.55681 2.27934 8.53761 2.21138 8.48001 2.16814C8.46721 2.21756 8.47361 2.27316 8.44801 2.28551C8.42241 2.29787 8.36481 2.27934 8.32641 2.32258C8.32001 2.29169 8.32001 2.27316 8.31361 2.24845C8.31361 2.22991 8.30081 2.2052 8.27521 2.19285ZM8.24321 4.12644C8.30081 4.12644 8.34561 4.07702 8.34561 4.0276C8.33921 3.972 8.28801 3.92876 8.23681 3.93493C8.18561 3.94111 8.14721 3.97818 8.14081 4.0276C8.14081 4.0832 8.19201 4.12644 8.24321 4.12644ZM8.16001 2.33493C8.16001 2.32876 8.16001 2.3164 8.16001 2.31022C8.14721 2.27934 8.16001 2.22374 8.10881 2.22374C8.05761 2.22374 8.04481 2.26698 8.03201 2.30405C8.03201 2.31022 8.03201 2.32258 8.03201 2.32876C8.03201 2.37818 8.03841 2.4276 8.08961 2.45231C8.12161 2.47084 8.16001 2.40289 8.16001 2.33493ZM8.39041 2.17432C8.42881 2.10018 8.43521 2.02605 8.39681 2.00134C8.38401 1.99517 8.37121 1.99517 8.36481 2.00134C8.33281 2.02605 8.33921 2.11872 8.37761 2.17432C8.37761 2.17432 8.38401 2.17432 8.39041 2.17432Z" fill="#FF0000"/>
<path d="M8.7041 15.864C8.7681 15.6787 8.8577 15.5057 8.9345 15.3327C9.0369 15.1042 9.1393 14.8818 9.2417 14.6532C9.2609 14.5852 9.3249 14.542 9.4017 14.542C9.4721 14.542 9.5425 14.5296 9.6129 14.5173C9.6641 14.4987 9.7217 14.5296 9.7409 14.5791C9.7409 14.5852 9.7409 14.5852 9.7473 14.5914C9.7985 14.7397 9.8561 14.8818 9.9137 15.0238C9.9521 15.1227 9.9841 15.2215 10.0289 15.3204C10.0609 15.3945 10.0737 15.4069 10.1505 15.3821C10.3297 15.3265 10.5089 15.2648 10.6881 15.2092C10.7457 15.1906 10.7457 15.1598 10.7329 15.1165C10.6945 14.9868 10.6561 14.8632 10.6113 14.7335C10.5793 14.6285 10.5793 14.6285 10.6881 14.5852L10.7009 14.5791C10.8545 14.5235 10.8289 14.5296 10.8737 14.6532C10.9185 14.7891 10.9697 14.9188 11.0337 15.0424C11.0721 15.0424 11.1105 15.0238 11.1425 15.0053C11.3217 14.9188 11.4945 14.8385 11.6737 14.752C11.7441 14.715 11.7505 14.715 11.7057 14.6408C11.6417 14.5358 11.5777 14.4308 11.5137 14.332C11.4369 14.2084 11.3601 14.0848 11.2769 13.9613C11.2449 13.9304 11.2513 13.881 11.2769 13.8563C11.2833 13.8501 11.2833 13.8501 11.2897 13.8501C11.4881 13.6833 11.4433 13.6895 11.5649 13.881C11.6865 14.0725 11.8081 14.2702 11.9361 14.4617C11.9873 14.542 11.9937 14.542 12.0705 14.4926C12.1729 14.4246 12.2625 14.3505 12.3649 14.2825C12.4161 14.2516 12.4225 14.2208 12.3905 14.1713C12.3201 14.0663 12.2433 13.9613 12.1729 13.8625C12.1217 13.7821 12.1217 13.776 12.1793 13.7142C12.4353 13.4609 12.6849 13.2076 12.9409 12.9543C13.0177 12.8802 13.0241 12.8802 13.1009 12.9482C13.2609 13.0841 13.4145 13.2262 13.5745 13.3682C13.6193 13.4115 13.6257 13.4424 13.5873 13.4918C13.5681 13.5103 13.5553 13.5289 13.5425 13.5474C13.3185 13.8007 13.0881 14.0416 12.8385 14.2764C12.1601 14.8694 11.3473 15.308 10.4705 15.5675C9.9457 15.7219 9.4017 15.8269 8.8577 15.8764C8.8001 15.8825 8.7489 15.8764 8.7041 15.864ZM12.6145 14.0478C12.8257 13.8686 13.0049 13.6648 13.2033 13.4794C13.2417 13.4486 13.2289 13.4177 13.1969 13.3868C13.1585 13.3559 13.1201 13.325 13.0881 13.2879C13.0433 13.2385 13.0049 13.2447 12.9665 13.2879C12.8513 13.393 12.7361 13.4918 12.6273 13.5968C12.5633 13.6586 12.4417 13.7018 12.4481 13.7945C12.4545 13.8872 12.5313 13.9675 12.6145 14.0478ZM9.1457 15.5057L9.1585 15.5366C9.3313 15.5119 9.5041 15.4872 9.6769 15.4563C9.7345 15.4501 9.7217 15.4069 9.7089 15.3698C9.6769 15.2648 9.6385 15.1598 9.6001 15.0609C9.5745 14.9806 9.5425 14.9003 9.4977 14.8262L9.1457 15.5057Z" fill="#FF0000"/>
<path d="M13.8305 13.0901C13.7729 12.9604 13.7153 12.8306 13.6705 12.7009C13.5553 12.4168 13.4465 12.1264 13.3313 11.8361C13.2929 11.7619 13.3057 11.6754 13.3505 11.6075C13.3761 11.5704 13.3953 11.5334 13.4145 11.4901C13.4401 11.4283 13.4785 11.4283 13.5361 11.4469C13.7345 11.5272 13.9329 11.6013 14.1313 11.6816C14.3105 11.7496 14.3105 11.7496 14.3681 11.5828C14.3873 11.5334 14.4065 11.4839 14.4193 11.4345C14.4577 11.3171 14.4833 11.3171 14.3297 11.2677C14.2273 11.2368 14.1313 11.2121 14.0289 11.1751C13.9393 11.1442 13.9393 11.1442 13.9585 11.0577C14.0161 10.7982 14.0737 10.5449 14.1377 10.2855C14.1505 10.2299 14.1633 10.1743 14.1761 10.1187C14.1825 10.1001 14.1825 10.0816 14.1953 10.0754C14.2721 10.0384 14.3425 10.094 14.4129 10.1063C14.4705 10.1187 14.4513 10.1619 14.4449 10.1928C14.4065 10.372 14.3681 10.5511 14.3361 10.7303C14.3233 10.7797 14.3169 10.8353 14.3041 10.8847C14.2913 10.9218 14.3105 10.965 14.3489 10.9774C14.3553 10.9774 14.3617 10.9835 14.3681 10.9835H14.3809C14.5665 11.0391 14.5665 11.0391 14.6241 10.86C14.6945 10.5882 14.7521 10.3164 14.7841 10.0384C14.7969 9.95189 14.8097 9.85922 14.8161 9.77274C14.8225 9.68625 14.8225 9.68625 14.7393 9.66772C14.6177 9.643 14.4897 9.61829 14.3681 9.60594C14.3169 9.60594 14.2721 9.56887 14.2657 9.51328C14.2657 9.5071 14.2657 9.50092 14.2657 9.49474C14.2657 9.47003 14.2593 9.44532 14.2593 9.42061C14.2529 9.15497 14.2529 8.89552 14.2337 8.62988C14.2273 8.50015 14.2273 8.50015 14.3617 8.50015C14.5409 8.49397 14.7201 8.48779 14.8993 8.48779C15.0081 8.48779 15.0145 8.49397 15.0273 8.59281C15.0913 9.0376 15.1041 9.48857 15.0593 9.93953C14.9889 10.6191 14.8097 11.2801 14.5217 11.904C14.3553 12.2685 14.1633 12.6144 13.9457 12.9542C13.9137 13.0036 13.8753 13.0469 13.8305 13.0901ZM14.8225 9.08084V8.982C14.8225 8.71636 14.8225 8.71636 14.5473 8.72254C14.4897 8.72254 14.4641 8.74107 14.4705 8.80285C14.4769 8.93258 14.4833 9.06849 14.4897 9.20439C14.4961 9.3959 14.4961 9.3959 14.7009 9.40208C14.7201 9.40208 14.7393 9.40208 14.7649 9.40208C14.8161 9.40826 14.8289 9.38355 14.8289 9.33412C14.8225 9.25382 14.8225 9.16733 14.8225 9.08084ZM13.8945 12.5527C13.9969 12.392 14.0737 12.2438 14.1441 12.0955C14.1633 12.0523 14.1313 12.0399 14.0993 12.0276C13.9713 11.972 13.8497 11.9164 13.7217 11.8608C13.6769 11.8361 13.6257 11.8237 13.5745 11.8175C13.6833 12.0646 13.7793 12.2994 13.8945 12.5527Z" fill="#FF0000"/>
<path d="M1.81762 8.85846C1.62562 8.82139 1.43362 8.83375 1.24162 8.80904C1.14562 8.79668 1.14562 8.79668 1.14562 8.71019C1.15842 8.35189 1.19682 7.99977 1.27362 7.64764C1.29922 7.53027 1.29922 7.53027 1.42082 7.54263C1.51042 7.5488 1.59362 7.55498 1.68322 7.56116C1.73442 7.57351 1.77922 7.5488 1.79202 7.49938C1.79202 7.49321 1.79202 7.48703 1.79842 7.48085C1.81762 7.39436 1.84322 7.30788 1.86242 7.22139C1.87522 7.17815 1.86242 7.15344 1.81122 7.14726C1.65122 7.12873 1.64482 7.07313 1.61282 7.27081C1.58722 7.42525 1.58722 7.42525 1.43362 7.37583C1.24162 7.32023 1.04962 7.25846 0.857624 7.19668C0.755224 7.16579 0.755224 7.15961 0.780824 7.06077C0.896024 6.57892 1.07522 6.1156 1.31202 5.67699C1.36962 5.57197 1.36962 5.57197 1.47842 5.62139C1.67042 5.7017 1.86242 5.78819 2.05442 5.86849C2.11202 5.89321 2.11842 5.91792 2.09922 5.97351C2.03522 6.14649 2.03522 6.14649 1.86882 6.07853C1.76642 6.03529 1.67042 5.99205 1.56802 5.9488C1.51042 5.92409 1.47202 5.93027 1.44642 5.98587C1.28642 6.28239 1.15842 6.59745 1.06242 6.91869C1.04322 6.97429 1.06242 6.999 1.11362 7.01753C1.16482 7.03606 1.22242 7.06077 1.28002 7.07931C1.35682 7.10402 1.36322 7.10402 1.38882 7.02988C1.40802 6.97429 1.42082 6.91869 1.44002 6.86927C1.47202 6.78278 1.47202 6.7766 1.56802 6.80749C1.87522 6.8878 2.18242 6.97429 2.48962 7.06077C2.54082 7.07313 2.59202 7.09166 2.64962 7.10402C2.70722 7.11637 2.72002 7.14108 2.70722 7.1905C2.63042 7.41907 2.66242 7.39436 2.45122 7.32641C2.36802 7.3017 2.29122 7.27081 2.21442 7.2461C2.16322 7.22757 2.12482 7.2461 2.11842 7.30788C2.10562 7.39436 2.08642 7.47467 2.08002 7.56116C2.07362 7.62911 2.09922 7.65382 2.16962 7.66C2.25922 7.67236 2.34882 7.69707 2.43842 7.7156C2.49602 7.72795 2.52162 7.75266 2.51522 7.81444C2.50242 8.04301 2.47042 8.27158 2.45122 8.50015C2.43842 8.599 2.42562 8.69166 2.41922 8.7905C2.41282 8.8461 2.38722 8.85846 2.34242 8.85846C2.16322 8.85846 1.99042 8.85846 1.81762 8.85846ZM1.44642 8.35807C1.44642 8.41367 1.44642 8.46309 1.44642 8.50633C1.44642 8.52487 1.44642 8.54958 1.47202 8.56193C1.51682 8.58046 1.56802 8.58046 1.61922 8.56811C1.65762 8.55575 1.65122 8.51251 1.65122 8.48162C1.65762 8.30865 1.68322 8.13568 1.71522 7.9627C1.74722 7.83297 1.74082 7.83297 1.60002 7.80826C1.59362 7.80826 1.59362 7.80826 1.58722 7.80826C1.52322 7.78973 1.49762 7.81444 1.49122 7.87622C1.47202 8.04301 1.45922 8.20363 1.44642 8.35807ZM1.94562 8.34571V8.53722C1.94562 8.56811 1.96482 8.59282 1.99682 8.59282C2.09922 8.61135 2.13762 8.59282 2.14402 8.49398C2.15682 8.30247 2.18242 8.10479 2.22082 7.91946C2.23362 7.88239 2.21442 7.85768 2.16962 7.85151C2.15042 7.85151 2.13122 7.84533 2.10562 7.84533C1.99682 7.8268 1.99042 7.83297 1.97762 7.93182C1.97122 8.06772 1.94562 8.20363 1.94562 8.34571Z" fill="#FF0000"/>
<path d="M1.27959 10.3721C1.33719 10.3721 1.38839 10.3844 1.44599 10.403C1.82359 10.508 2.20119 10.6192 2.57879 10.718C2.66839 10.7365 2.73239 10.8045 2.75159 10.8848C2.82199 11.1319 2.82199 11.0701 2.62999 11.1813C2.43799 11.2925 2.23959 11.3914 2.04759 11.4964C1.96439 11.5458 1.95799 11.5458 2.00279 11.6385C2.07959 11.7991 2.16279 11.9597 2.23959 12.1203C2.26519 12.1759 2.29719 12.1883 2.35479 12.1574C2.47639 12.0956 2.60439 12.04 2.72599 11.9844C2.80919 11.9474 2.81559 11.9474 2.86039 12.0338C2.86679 12.04 2.86679 12.0462 2.87319 12.0586C2.93079 12.1759 2.93079 12.1759 2.80919 12.2377C2.67479 12.2933 2.55319 12.3613 2.43159 12.4416C2.56599 12.6393 2.70679 12.8246 2.84759 13.0099C2.87959 13.0532 2.91159 13.0408 2.95639 13.0161C3.07799 12.942 3.20599 12.8616 3.32759 12.7875C3.41719 12.7319 3.42359 12.7319 3.49399 12.8122C3.69239 13.0346 3.89079 13.257 4.08279 13.4794C4.15319 13.5597 4.15319 13.5597 4.08279 13.64C3.95479 13.7821 3.82679 13.9242 3.69239 14.0663C3.61559 14.1466 3.61559 14.1466 3.53239 14.0725C3.18679 13.7698 2.86679 13.4423 2.57879 13.0902C1.94519 12.3118 1.53559 11.4223 1.28599 10.4709C1.27319 10.4338 1.27319 10.403 1.27959 10.3721ZM3.60279 13.7698C3.64119 13.7142 3.69239 13.6586 3.73079 13.5968C3.78839 13.5165 3.78839 13.5103 3.71799 13.4423C3.62199 13.3435 3.51959 13.2447 3.41719 13.152C3.30839 13.047 3.30839 13.047 3.19319 13.1396C3.09079 13.2199 3.09079 13.2385 3.17399 13.3373C3.28919 13.4671 3.40439 13.5906 3.51959 13.7203C3.54519 13.745 3.57079 13.7636 3.60279 13.7698ZM1.70199 10.7921C1.74039 10.9651 1.79799 11.1319 1.85559 11.2987C2.05399 11.2246 2.45079 11.0145 2.49559 10.9528C2.23959 10.8786 1.97079 10.823 1.70199 10.7921Z" fill="#FF0000"/>
<path d="M4.34532 14.3379C4.33892 13.9302 4.28132 13.5286 4.27492 13.1147C4.36452 13.1642 4.44772 13.2259 4.51812 13.2939C4.55012 13.3186 4.54372 13.3619 4.54372 13.3989C4.57572 13.714 4.60772 14.029 4.63972 14.3441C4.63332 14.3935 4.65252 14.4429 4.67812 14.4862C4.72292 14.4491 4.76132 14.4059 4.78692 14.3564C4.90852 14.1958 5.02372 14.029 5.13892 13.8684C5.20292 13.7819 5.20292 13.7819 5.29892 13.8313L5.35652 13.8622C5.40132 13.8869 5.40772 13.9117 5.38212 13.9487C5.33092 14.029 5.28612 14.1093 5.24132 14.1897C5.15172 14.3441 5.05572 14.4985 4.96612 14.653C4.92132 14.7271 4.92772 14.7333 5.00452 14.7703C5.22212 14.8815 5.44612 14.9866 5.66372 15.0916C5.74052 15.1286 5.74692 15.1286 5.78532 15.0545C5.84932 14.9371 5.91332 14.8259 5.96452 14.7086C5.97732 14.6591 6.02212 14.6344 6.07332 14.6406C6.08612 14.6406 6.09252 14.6468 6.09892 14.653C6.15652 14.6653 6.20772 14.6839 6.25892 14.7086C6.23332 14.8012 6.19492 14.8939 6.15012 14.9866C6.12452 15.0545 6.04772 15.1286 6.07972 15.1966C6.11172 15.2646 6.20772 15.2584 6.27812 15.2893C6.36132 15.3202 6.44452 15.351 6.52132 15.3819C6.63652 15.4252 6.63652 15.4252 6.66852 15.3078C6.70052 15.1904 6.73252 15.073 6.75812 14.9557C6.75812 14.9124 6.79652 14.8815 6.84132 14.8815C6.84772 14.8815 6.84772 14.8815 6.85412 14.8815C6.92452 14.8815 6.99492 14.8877 7.05892 14.9001C7.03332 15.0298 7.00772 15.1595 6.98212 15.2831C6.97572 15.3016 6.97572 15.314 6.96932 15.3325C6.95012 15.4437 6.95652 15.4499 7.06532 15.4684C7.19972 15.4931 7.32772 15.5117 7.46212 15.5364C7.51972 15.5487 7.53892 15.5302 7.54532 15.4808C7.55812 15.3572 7.58372 15.2337 7.59012 15.1101C7.59652 15.0422 7.62852 15.0236 7.69252 15.0236C7.87812 15.0113 7.88452 15.0236 7.85892 15.1966C7.83332 15.3696 7.80772 15.5487 7.78212 15.7279C7.76292 15.8391 7.76292 15.8391 7.64132 15.8329C7.38532 15.8205 7.12932 15.7896 6.87972 15.7402C5.82372 15.5425 4.88292 15.0978 4.01252 14.4924C3.87812 14.3997 3.87812 14.4244 3.99332 14.2885C4.05092 14.2205 4.06372 14.2267 4.14692 14.2638C4.19172 14.2885 4.23652 14.307 4.28132 14.3317C4.31972 14.3379 4.33252 14.3379 4.34532 14.3379Z" fill="#FF0000"/>
<path d="M14.8992 7.9688C14.8992 7.98733 14.8992 8.00587 14.8992 8.0244C14.9056 8.08 14.88 8.10471 14.8224 8.11089C14.5152 8.16649 14.2144 8.22826 13.9072 8.28386C13.7984 8.30239 13.792 8.29622 13.7728 8.18502C13.7728 8.17884 13.7664 8.16649 13.7664 8.16031C13.7536 8.05529 13.7536 8.05529 13.856 8.03058C14.0608 7.98733 14.2656 7.94409 14.4704 7.90085C14.6752 7.85761 14.656 7.88849 14.6048 7.69081C14.5152 7.35104 14.4 7.01745 14.2592 6.69004C14.2208 6.59737 14.2144 6.59737 14.1248 6.63444C13.9072 6.72093 13.9328 6.68386 14.0032 6.88772C14.0736 7.09158 14.1568 7.27691 14.2272 7.46842C14.2592 7.5549 14.2528 7.56108 14.1632 7.58579C14.1376 7.59197 14.1056 7.59815 14.08 7.60432C14.048 7.61668 14.016 7.60432 14.0032 7.57344V7.56726C13.9904 7.54255 13.9776 7.51784 13.9712 7.48695C13.8688 7.21513 13.76 6.94332 13.6576 6.66533C13.6512 6.64062 13.6448 6.62208 13.6384 6.59737C13.632 6.57266 13.6448 6.54795 13.664 6.5356H13.6704C13.8816 6.48 14.0992 6.41822 14.3104 6.36262C14.3552 6.35027 14.368 6.37498 14.3872 6.40587C14.4512 6.51706 14.5088 6.63444 14.5664 6.75799C14.72 7.09776 14.8288 7.46224 14.8864 7.82672C14.8928 7.86378 14.8928 7.9132 14.8992 7.9688Z" fill="#FF0000"/>
<path d="M2.03521 9.5996C2.03521 9.71079 2.03521 9.82817 2.03521 9.93936C2.04801 9.98879 2.00961 10.0382 1.95841 10.0444C1.95201 10.0444 1.95201 10.0444 1.94561 10.0444C1.74721 10.0938 1.54241 10.1309 1.34401 10.1556C1.24801 10.1679 1.24161 10.1618 1.22881 10.0629C1.19681 9.81581 1.17121 9.57489 1.13921 9.32778C1.13281 9.27218 1.12001 9.21658 1.12001 9.16099C1.11361 9.0745 1.12001 9.06832 1.20321 9.0745C1.40801 9.08685 1.40801 9.08685 1.42721 9.28454C1.44001 9.43898 1.44641 9.59342 1.45921 9.74168C1.46561 9.82817 1.47841 9.84052 1.56801 9.83435C1.82401 9.80963 1.77921 9.83434 1.76641 9.62431C1.76001 9.49458 1.74081 9.36485 1.72801 9.24129C1.72161 9.1857 1.73441 9.16099 1.79841 9.16099C2.01601 9.14863 2.01601 9.14863 2.02241 9.35867C2.02241 9.43898 2.02241 9.51929 2.02241 9.5996H2.03521Z" fill="#FF0000"/>
<path d="M8.42901 15.2278C8.42261 15.4069 8.40981 15.5861 8.40341 15.759C8.40341 15.8208 8.37781 15.8455 8.31381 15.8455C8.14101 15.8517 8.14101 15.8517 8.14741 15.6849C8.15381 15.3822 8.16661 15.0795 8.17301 14.7768C8.17301 14.7459 8.17941 14.715 8.17941 14.678C8.17941 14.6471 8.20501 14.6224 8.23701 14.6224C8.25621 14.6224 8.27541 14.6162 8.30101 14.6162C8.43541 14.6038 8.44821 14.61 8.44181 14.7397C8.44181 14.9065 8.42901 15.0671 8.42901 15.2278Z" fill="#FF0000"/>
<path d="M11.027 15.6846C11.0334 15.6846 11.0462 15.6846 11.0526 15.6907C11.1038 15.7587 11.1486 15.8267 11.1806 15.907C11.1742 15.9255 11.155 15.9379 11.1358 15.944C11.0398 15.9811 10.9438 16.012 10.8414 16.049C10.8094 16.0614 10.7838 16.0552 10.771 16.0243C10.7646 16.012 10.7582 15.9996 10.7518 15.9935C10.6494 15.8143 10.6494 15.8143 10.8414 15.7463L11.027 15.6846Z" fill="#FF0000"/>
<path d="M1.33088 12.1634C1.30528 12.1696 1.28608 12.151 1.27328 12.1325C1.22208 12.0336 1.17088 11.9348 1.11968 11.836C1.11328 11.8298 1.11328 11.8236 1.11328 11.8113C1.12608 11.7433 1.19648 11.7433 1.24768 11.7186C1.27968 11.7001 1.32448 11.6753 1.35648 11.7309C1.40768 11.8298 1.45888 11.9286 1.51008 12.0275C1.51648 12.046 1.52928 12.0707 1.50368 12.0831C1.45248 12.114 1.39488 12.1448 1.33088 12.1634Z" fill="#FF0000"/>
<path d="M1.54902 12.1699C1.57462 12.1699 1.59382 12.1823 1.60662 12.207C1.67062 12.3058 1.72822 12.3985 1.79222 12.4973C1.80502 12.5159 1.81142 12.5406 1.79222 12.5529C1.74102 12.5962 1.68342 12.6271 1.61942 12.6394C1.60662 12.6394 1.58742 12.6271 1.58102 12.6147C1.51702 12.5159 1.45302 12.417 1.39542 12.3182C1.37622 12.2811 1.37622 12.2564 1.41462 12.2379L1.54902 12.1699Z" fill="#FF0000"/>
<path d="M15.0144 6.91275C15.1168 6.91275 15.1168 6.91275 15.1488 6.99924C15.1808 7.08572 15.2 7.15985 15.2256 7.24016C15.2384 7.28341 15.2256 7.30194 15.1872 7.30812C15.1552 7.31429 15.1232 7.32047 15.0848 7.32047C14.9888 7.32665 14.9888 7.32665 14.9568 7.23398C14.9312 7.15985 14.9056 7.0919 14.8864 7.01777C14.8672 6.94364 14.8672 6.93128 14.9504 6.91893C14.976 6.90657 14.9952 6.90657 15.0144 6.91275Z" fill="#FF0000"/>
<path d="M4.69748 5.05309L4.67188 5.02838C4.69748 4.99132 4.73587 4.96043 4.78067 4.94189C4.76787 4.98514 4.73588 5.0222 4.69748 5.05309Z" fill="#FF0000"/>
<path d="M11.7571 5.2753H11.7123C11.6867 5.25677 11.6675 5.23206 11.6611 5.20117C11.6995 5.21353 11.7379 5.24442 11.7571 5.2753Z" fill="#FF0000"/>
<path d="M4.67219 5.02832C4.66579 5.04685 4.65299 5.05921 4.63379 5.05921C4.64019 5.04068 4.65299 5.02832 4.67219 5.02832Z" fill="#FF0000"/>
<path d="M7.2702 9.643C7.2574 9.59358 7.219 9.59976 7.1934 9.58741C7.155 9.57505 7.1038 9.58123 7.1038 9.52563C7.0974 9.47003 7.1358 9.42061 7.187 9.40208C7.2318 9.38972 7.283 9.37737 7.3342 9.36501C7.411 9.35266 7.4942 9.35883 7.571 9.38354C7.6478 9.40208 7.6606 9.43914 7.6414 9.51327C7.6222 9.56887 7.5774 9.60594 7.571 9.66771C7.7758 9.71713 7.827 9.68007 7.795 9.48856C7.795 9.45768 7.7886 9.43296 7.7758 9.40825C7.7246 9.31559 7.7566 9.24764 7.8462 9.1735C7.8846 9.33412 7.9486 9.47621 7.9038 9.63683C7.859 9.82215 7.6926 9.91482 7.507 9.84069C7.4302 9.8098 7.347 9.80362 7.2638 9.82215C7.1294 9.85922 6.995 9.87775 6.8542 9.87157C6.707 9.85922 6.5534 9.84686 6.4894 9.68007L6.3422 9.76038C6.259 9.81598 6.1502 9.82215 6.0542 9.78509C6.003 9.7542 5.939 9.76038 5.8942 9.80362C5.8622 9.84069 5.8046 9.85304 5.7662 9.82215C5.7662 9.82215 5.7662 9.82215 5.7598 9.81598C5.7086 9.77891 5.6766 9.79744 5.6446 9.83451C5.619 9.87158 5.5678 9.89011 5.523 9.87157C5.523 9.8654 5.5166 9.85304 5.5166 9.85304C5.5998 9.7542 5.6638 9.63683 5.6958 9.5071C5.7086 9.45768 5.7406 9.40825 5.7854 9.37737C5.843 9.3403 5.875 9.34648 5.907 9.40208C5.9198 9.42061 5.9262 9.44532 5.9326 9.47003C5.9454 9.55652 6.003 9.59358 6.0798 9.61212C6.1886 9.63683 6.2974 9.61829 6.3934 9.56269C6.4446 9.53798 6.4382 9.50092 6.4318 9.45768C6.419 9.36501 6.4126 9.27235 6.3934 9.17968C6.3806 9.13026 6.3934 9.08084 6.419 9.0376C6.4638 9.10555 6.4574 9.17968 6.4766 9.24764C6.5022 9.34648 6.5278 9.44532 6.547 9.54416C6.5598 9.59976 6.5982 9.64918 6.6558 9.66771C6.7838 9.71713 6.9182 9.72949 7.0526 9.6986C7.1294 9.68007 7.1934 9.66154 7.2702 9.643ZM5.8046 9.52563C5.7662 9.52563 5.7534 9.55034 5.7534 9.58123C5.7534 9.62447 5.7662 9.65536 5.8174 9.65536C5.8494 9.66154 5.875 9.63683 5.8814 9.60594C5.8814 9.59976 5.8814 9.59976 5.8814 9.59358C5.875 9.55034 5.8494 9.53181 5.8046 9.52563Z" fill="#FF0000"/>
<path d="M8.64648 8.74108C8.73608 8.68548 8.81288 8.64841 8.86408 8.57428C8.91528 8.50015 8.90888 8.41367 8.93448 8.33336C8.94088 8.31482 8.94728 8.30247 8.95368 8.29011C9.00488 8.17892 9.05608 8.17274 9.13928 8.25922C9.16488 8.28394 9.19048 8.31482 9.20968 8.34571C9.29288 8.46926 9.40808 8.49397 9.54888 8.46309C9.56808 8.45691 9.58088 8.45691 9.60008 8.45073C9.76648 8.38895 9.79208 8.36424 9.76008 8.19745C9.74728 8.12332 9.74088 8.05536 9.73448 7.98123C9.73448 7.94417 9.74088 7.91946 9.78568 7.91328C9.83048 7.9071 9.83688 7.94417 9.84328 7.97505C9.84968 8.04919 9.86248 8.12949 9.86888 8.20363C9.86888 8.25305 9.87528 8.30247 9.89448 8.34571C9.93288 8.45691 10.0545 8.52486 10.1761 8.4878C10.1825 8.4878 10.1825 8.4878 10.1889 8.48162C10.2145 8.47544 10.2337 8.45073 10.2273 8.41984C10.2209 8.38895 10.2145 8.35807 10.2081 8.321C10.1953 8.24687 10.2145 8.16656 10.2593 8.09861C10.3041 8.0183 10.4001 7.98741 10.4897 8.01212C10.5729 8.03065 10.6497 8.06772 10.7073 8.12949C10.6625 8.17892 10.5857 8.18509 10.5281 8.15421C10.5217 8.14803 10.5153 8.14803 10.5025 8.14803C10.3937 8.11096 10.3489 8.11714 10.3233 8.18509C10.2913 8.27158 10.3361 8.37042 10.4257 8.40131C10.4833 8.41984 10.5409 8.41366 10.5985 8.38895C10.6369 8.37042 10.6753 8.35807 10.7137 8.34571C10.7457 8.33336 10.7841 8.34571 10.7969 8.3766C10.7969 8.38278 10.8033 8.38278 10.8033 8.38895C10.8161 8.4322 10.8097 8.48162 10.7585 8.4878C10.5857 8.51251 10.4449 8.6237 10.2721 8.64841C10.0993 8.67312 9.94568 8.67312 9.82408 8.53104C9.77928 8.48162 9.74088 8.47544 9.68968 8.52486C9.58088 8.62988 9.42728 8.66695 9.28008 8.6237C9.24168 8.61135 9.20328 8.61135 9.17128 8.6237C9.12648 8.63606 9.08168 8.64224 9.03688 8.62988C8.98568 8.61753 8.92808 8.63606 8.89608 8.6793C8.82568 8.75343 8.72968 8.77814 8.64648 8.74108ZM9.04968 8.46309C9.07528 8.46309 9.10088 8.45691 9.10088 8.42602C9.10088 8.39513 9.08808 8.36424 9.04328 8.36424C8.99848 8.36424 9.00488 8.38278 9.00488 8.41367C9.00488 8.44455 9.01128 8.46309 9.04968 8.46309Z" fill="#FF0000"/>
<path d="M6.54102 7.69727C6.66902 7.82082 6.75222 8.19765 6.68182 8.34591C6.64342 8.4324 6.56022 8.48182 6.46422 8.488C6.35542 8.49418 6.24662 8.49418 6.13782 8.47564C6.09942 8.46329 6.05462 8.47564 6.02262 8.50653C5.98422 8.55595 5.90742 8.56831 5.84982 8.53124C5.79862 8.50035 5.72822 8.51271 5.68982 8.55595C5.63222 8.61155 5.54262 8.63626 5.46582 8.62391C5.47222 8.58066 5.51062 8.56831 5.53622 8.5436C5.65142 8.44476 5.76022 8.33356 5.78582 8.17912C5.79222 8.14823 5.80502 8.11734 5.83062 8.09263C5.86902 8.04939 5.93302 8.04321 5.97782 8.08028C5.98422 8.08645 5.99062 8.09263 5.99702 8.09881C6.02262 8.13588 6.04822 8.17294 6.06102 8.21618C6.07382 8.28414 6.14422 8.32738 6.20822 8.31503C6.31062 8.31503 6.41942 8.30885 6.52182 8.29032C6.56022 8.29032 6.59222 8.25943 6.58582 8.22236C6.58582 8.21618 6.58582 8.21001 6.58582 8.20383C6.57302 8.1297 6.56022 8.06174 6.53462 7.99379C6.50902 7.91348 6.49622 7.83317 6.50902 7.75286C6.51542 7.73433 6.50902 7.70962 6.54102 7.69727ZM5.90742 8.2409C5.87542 8.2409 5.86262 8.25325 5.85622 8.28414C5.84982 8.31503 5.86262 8.35827 5.91382 8.35827C5.94582 8.35827 5.95222 8.33356 5.95222 8.30885C5.95862 8.27178 5.95222 8.24707 5.90742 8.2409Z" fill="#FF0000"/>
<path d="M6.77107 7.61084C6.82227 7.66644 6.85427 7.74057 6.86067 7.8147C6.88627 7.93208 6.90547 8.05563 6.93107 8.173C6.99507 8.44482 7.17427 8.50659 7.41107 8.34598C7.50707 8.27802 7.59027 8.19771 7.67987 8.12358C7.82067 8.01238 7.87187 8.03092 7.92947 8.19153C7.95507 8.25949 7.96147 8.33362 7.94867 8.40775C7.94867 8.46953 7.89747 8.51895 7.83347 8.51895C7.81427 8.51895 7.80147 8.51895 7.78867 8.50659C7.75027 8.50042 7.71827 8.48188 7.68627 8.46335C7.63507 8.42011 7.55827 8.42011 7.50067 8.45717C7.42387 8.50042 7.34067 8.5313 7.25747 8.54366C7.07827 8.5869 6.89267 8.48188 6.84787 8.30891C6.84787 8.30273 6.84787 8.30273 6.84787 8.29655C6.79667 8.10505 6.76467 7.90736 6.74547 7.70968C6.73907 7.67879 6.74547 7.64173 6.77107 7.61084ZM7.78227 8.24713C7.75027 8.25331 7.72467 8.27802 7.72467 8.31509C7.72467 8.35215 7.75027 8.37686 7.78867 8.37686C7.79507 8.37686 7.79507 8.37686 7.80147 8.37686C7.83987 8.37069 7.85267 8.3398 7.85267 8.30891C7.84627 8.26567 7.81427 8.24096 7.78227 8.24713C7.78227 8.24096 7.78227 8.24096 7.78227 8.24713Z" fill="#FF0000"/>
<path d="M9.06847 9.58114C9.04287 9.46377 9.02367 9.3464 8.99807 9.22284C8.98527 9.1796 8.99807 9.13636 9.03007 9.10547C9.08127 9.2352 9.09407 9.36493 9.12607 9.48848C9.13887 9.5379 9.14527 9.58732 9.16447 9.63057C9.19647 9.71705 9.24767 9.72941 9.33087 9.68616C9.35647 9.66763 9.38847 9.6491 9.41407 9.63057C9.45247 9.6491 9.45887 9.69852 9.49727 9.7047C9.53567 9.71087 9.56127 9.68616 9.58687 9.66763C9.61247 9.6491 9.62527 9.66763 9.64447 9.66763C9.66367 9.66763 9.68927 9.67381 9.68927 9.66763C9.75327 9.56261 9.80447 9.6491 9.85567 9.67381C9.90687 9.69852 9.95807 9.74176 10.0029 9.7047C10.0477 9.66763 10.0029 9.59968 9.97727 9.55026C9.96447 9.51937 9.94527 9.49466 9.91967 9.46995C9.86207 9.41435 9.88127 9.36493 9.92607 9.30315C10.0605 9.40817 10.1629 9.51937 10.1693 9.68616C10.1757 9.81589 10.1117 9.87767 9.97727 9.85914C9.89407 9.8406 9.81087 9.84678 9.73407 9.89002C9.72127 9.8962 9.70847 9.90238 9.69567 9.8962C9.60607 9.85296 9.49727 9.90856 9.40767 9.85914C9.36927 9.83443 9.34367 9.85914 9.31807 9.87149C9.20927 9.91473 9.16447 9.90238 9.11967 9.79736C9.08767 9.74794 9.06847 9.68616 9.06847 9.62439C9.08127 9.61203 9.07487 9.5935 9.06847 9.58114Z" fill="#FF0000"/>
<path d="M9.04305 9.6244C9.10705 9.84061 8.84465 10.0692 8.57585 10.0136C8.50545 10.0012 8.44785 9.95181 8.41585 9.88386C8.33265 9.72942 8.35185 9.55027 8.46065 9.41436C8.47345 9.44525 8.47985 9.48231 8.46705 9.51938C8.46065 9.5688 8.46065 9.6244 8.46705 9.67382C8.47345 9.70471 8.48625 9.73559 8.50545 9.7603C8.58865 9.85915 8.87025 9.82826 8.93425 9.71706C8.95345 9.66146 8.94705 9.60587 8.91505 9.55644C8.88945 9.50085 8.86385 9.45142 8.91505 9.38965C8.97905 9.43289 9.01745 9.50085 9.03025 9.57498C9.02385 9.59351 9.03025 9.61204 9.04305 9.6244Z" fill="#FF0000"/>
<path d="M10.2783 10.0325L10.2847 10.0263C10.5407 9.92125 10.6047 9.82859 10.5855 9.56295C10.5727 9.47029 10.5535 9.37762 10.5279 9.29114C10.5023 9.20465 10.5023 9.20465 10.5727 9.11816C10.6623 9.37762 10.7583 9.61855 10.6559 9.88419C10.5983 10.0448 10.4511 10.1004 10.2783 10.0325Z" fill="#FF0000"/>
<path d="M10.8608 9.94562C10.8288 9.85296 10.8096 9.75412 10.7968 9.66145C10.7648 9.53172 10.7456 9.40199 10.72 9.27226C10.7072 9.19813 10.7072 9.18578 10.7584 9.10547C10.848 9.1796 10.8928 9.29697 10.8672 9.40817C10.8672 9.45141 10.8672 9.48848 10.88 9.52555C10.912 9.6491 10.912 9.77883 10.8928 9.90856C10.8864 9.92091 10.8864 9.93945 10.8608 9.94562Z" fill="#FF0000"/>
<path d="M6.29157 8.80273C6.30437 8.85833 6.27237 8.90775 6.22117 8.92629H6.21477C6.07397 8.98806 5.93317 9.04984 5.79237 9.10544C5.71557 9.13633 5.63877 9.17339 5.65157 9.27841C5.65797 9.32165 5.62597 9.35254 5.56837 9.35872C5.56837 9.29077 5.60677 9.22281 5.56837 9.15486C5.55557 9.13633 5.58757 9.12397 5.60677 9.11161C5.82437 9.00042 6.04837 8.8954 6.29157 8.80273Z" fill="#FF0000"/>
<path d="M5.677 8.07405C5.6834 8.0061 5.7154 7.94432 5.677 7.88255C5.6642 7.86401 5.6834 7.84548 5.7026 7.83313C5.9202 7.73428 6.1378 7.64162 6.3554 7.54278C6.3682 7.5366 6.3874 7.53042 6.4002 7.54278C6.413 7.56131 6.4066 7.57984 6.3938 7.59838C6.3746 7.62926 6.3362 7.6478 6.3042 7.66015C6.157 7.73428 5.997 7.79606 5.8434 7.85166C5.7986 7.85784 5.7666 7.90108 5.773 7.9505C5.773 8.0061 5.7666 8.05552 5.677 8.07405Z" fill="#FF0000"/>
<path d="M10.0098 9.14893C10.3298 9.26012 10.5346 9.48869 10.5346 9.72962C10.4898 9.7358 10.4834 9.69873 10.4706 9.67402C10.3874 9.53811 10.2722 9.42074 10.1378 9.34043C10.0418 9.28483 10.0354 9.2663 10.0098 9.14893Z" fill="#FF0000"/>
<path d="M7.60305 9.97058C7.66705 10.0138 7.73105 9.98911 7.79505 9.94587C7.81425 9.92733 7.92945 9.97058 7.94225 10.0015C7.96145 10.0447 7.92305 10.0756 7.90385 10.1065C7.88465 10.1374 7.86545 10.1497 7.83345 10.1312C7.77585 10.088 7.69905 10.0941 7.65425 10.1436C7.61585 10.1744 7.57745 10.125 7.54545 10.1065C7.51985 10.088 7.51345 10.0571 7.53265 10.0324C7.53905 10.0015 7.55185 9.97058 7.60305 9.97058Z" fill="#FF0000"/>
<path d="M7.09759 7.91934C7.07199 7.8761 7.09119 7.82668 7.12959 7.80197C7.13599 7.79579 7.14239 7.79579 7.14879 7.79579L7.60959 7.60429C7.62879 7.59811 7.64799 7.57957 7.66079 7.60429C7.67359 7.62282 7.66719 7.65371 7.64159 7.66606C7.64159 7.66606 7.64159 7.66606 7.63519 7.66606C7.59679 7.68459 7.55839 7.70313 7.52639 7.72166C7.39199 7.78344 7.25119 7.86374 7.09759 7.91934Z" fill="#FF0000"/>
<path d="M7.808 8.79686C7.808 8.82774 7.7888 8.85245 7.7632 8.86481C7.6032 8.94512 7.4432 9.01925 7.2832 9.09956C7.264 9.11191 7.232 9.12427 7.2192 9.09338C7.2128 9.06867 7.2192 9.04396 7.2384 9.02543C7.2512 9.01307 7.264 9.0069 7.2768 9.00072L7.7696 8.79068C7.7824 8.7845 7.7952 8.7845 7.808 8.79686Z" fill="#FF0000"/>
<path d="M10.534 7.62305C10.566 7.62305 10.5916 7.62305 10.598 7.66011C10.6044 7.69718 10.5916 7.72189 10.5532 7.72189C10.4316 7.74042 10.31 7.77749 10.2012 7.83926C10.1884 7.85162 10.1692 7.84544 10.1564 7.83309C10.1436 7.81455 10.1436 7.79602 10.1628 7.77749C10.2652 7.68482 10.3996 7.62922 10.534 7.62305Z" fill="#FF0000"/>
<path d="M9.3954 7.70932C9.3762 7.70932 9.357 7.70314 9.357 7.68461C9.3506 7.66607 9.357 7.65372 9.3698 7.64136C9.4786 7.57959 9.5874 7.52399 9.7026 7.48075C9.7218 7.47457 9.741 7.47457 9.7474 7.4931C9.7538 7.50546 9.7538 7.52399 9.7474 7.54252C9.741 7.56105 9.7218 7.57959 9.7026 7.58576C9.613 7.62901 9.5234 7.66607 9.4274 7.70932C9.4146 7.70314 9.4082 7.70932 9.3954 7.70932Z" fill="#FF0000"/>
<path d="M8.76172 7.91956C8.76172 7.88249 8.78092 7.8516 8.81292 7.83307C8.90252 7.78365 8.99852 7.74041 9.08812 7.69099C9.10732 7.67863 9.12652 7.67245 9.13932 7.69716C9.15212 7.7157 9.15212 7.74658 9.13292 7.76512C9.10732 7.78365 9.08172 7.79601 9.05612 7.80218L8.78092 7.91956C8.78092 7.92574 8.77452 7.92574 8.76172 7.91956Z" fill="#FF0000"/>
<path d="M9.8623 7.64744C9.8943 7.69068 9.8815 7.75246 9.8303 7.78335C9.8239 7.78952 9.8175 7.78952 9.8111 7.7957C9.7791 7.80806 9.7471 7.81424 9.7151 7.82041C9.6767 7.82659 9.6319 7.8513 9.6063 7.7957C9.5871 7.74628 9.5999 7.69068 9.6447 7.65362C9.6575 7.64744 9.6703 7.64126 9.6767 7.65362C9.7279 7.77717 9.7855 7.67215 9.8367 7.6598L9.8623 7.64744Z" fill="#FF0000"/>
<path d="M8.84441 9.03169C8.85081 9.05023 8.83801 9.06876 8.81881 9.08112C8.72281 9.13054 8.62681 9.17378 8.52441 9.21702C8.50521 9.2232 8.48601 9.22938 8.47321 9.19849C8.46681 9.18613 8.47321 9.1676 8.48601 9.15525C8.58841 9.09347 8.69081 9.03787 8.80601 8.99463C8.83161 8.99463 8.84441 9.00698 8.84441 9.03169Z" fill="#FF0000"/>
<path d="M9.58739 9.07471C9.58099 9.02529 9.62579 9.00058 9.62579 8.96351C9.62579 8.95116 9.62579 8.95116 9.61299 8.94498C9.58739 8.93263 9.54259 8.95734 9.52979 8.90792C9.52339 8.87703 9.58099 8.82761 9.62579 8.82761C9.66419 8.82143 9.70259 8.84614 9.71539 8.8832C9.72819 8.92027 9.72179 8.96351 9.68979 8.9944C9.66419 9.03147 9.63219 9.06236 9.58739 9.07471Z" fill="#FF0000"/>
<path d="M10.3486 9.13625C10.3422 9.09918 10.3806 9.07447 10.3806 9.03741C10.3806 9.02505 10.3742 9.02505 10.3678 9.01887C10.3422 9.00652 10.291 9.03741 10.291 8.98181C10.291 8.92621 10.3358 8.92003 10.3742 8.90768C10.4126 8.89532 10.451 8.91386 10.4638 8.94474C10.4638 8.94474 10.4638 8.94474 10.4638 8.95092C10.4958 9.03123 10.451 9.10536 10.3486 9.13625Z" fill="#FF0000"/>
<path d="M6.89256 9.19205C6.88616 9.13645 6.92456 9.11174 6.93096 9.07468C6.91176 9.03761 6.86056 9.06232 6.83496 9.02526C6.84776 8.97584 6.90536 8.93877 6.95656 8.95113C6.99496 8.9573 7.02056 8.98819 7.02056 9.02526C7.02696 9.11174 6.97576 9.16116 6.89256 9.19205Z" fill="#FF0000"/>
<path d="M10.6812 10.1063C10.6812 10.1001 10.6748 10.1125 10.662 10.1186C10.5852 10.1681 10.502 10.2113 10.4188 10.2422C10.406 10.2484 10.3868 10.2422 10.3804 10.2298C10.3804 10.2298 10.3804 10.2298 10.3804 10.2237C10.374 10.2113 10.3804 10.1928 10.3932 10.1804C10.47 10.131 10.5532 10.0939 10.6364 10.063C10.6556 10.0569 10.6684 10.0692 10.6812 10.1063Z" fill="#FF0000"/>
<path d="M8.62695 9.50716C8.63975 9.47627 8.61415 9.42067 8.67175 9.41449C8.71655 9.40832 8.78695 9.47009 8.78695 9.50716C8.78695 9.55658 8.75495 9.606 8.71655 9.606C8.66535 9.606 8.62695 9.56893 8.62695 9.51951C8.62695 9.51333 8.62695 9.50716 8.62695 9.50716Z" fill="#FF0000"/>
<path d="M9.84283 9.1861C9.83003 9.21698 9.83003 9.26023 9.78523 9.2664C9.74683 9.27258 9.66363 9.21081 9.65723 9.1861C9.65723 9.14903 9.68923 9.09961 9.72123 9.09961C9.78523 9.09961 9.84283 9.14285 9.84283 9.1861Z" fill="#FF0000"/>
<path d="M9.19719 9.087C9.17799 9.08082 9.16519 9.06846 9.17159 9.04993C9.17159 9.04375 9.17799 9.03758 9.18439 9.0314C9.23559 8.98198 9.29319 8.94491 9.36359 8.92638C9.38919 8.9202 9.41479 8.96344 9.40199 8.98815C9.34439 9.03758 9.27399 9.07464 9.19719 9.087Z" fill="#FF0000"/>
<path d="M9.04363 9.6243C9.03083 9.61194 9.02443 9.59341 9.03083 9.58105L9.06923 9.58723C9.08203 9.59959 9.08203 9.61194 9.08203 9.63048L9.04363 9.6243Z" fill="#FF0000"/>
<path d="M6.20188 6.12182C6.13148 6.08475 6.10588 6.06004 6.11228 6.01062C6.11228 6.00444 6.13148 5.99209 6.14428 5.99827C6.20188 6.01062 6.19548 6.06004 6.20188 6.12182Z" fill="#FF0000"/>
<path d="M6.45093 6.90027C6.45093 6.92499 6.43173 6.93116 6.41893 6.92499C6.38053 6.91881 6.35493 6.88174 6.36133 6.84468C6.36133 6.82614 6.37413 6.81379 6.39333 6.81997C6.43173 6.83232 6.45093 6.86321 6.45093 6.90027Z" fill="#FF0000"/>
<path d="M5.97731 5.59033C6.02211 5.60269 6.02851 5.63975 6.02851 5.67064C6.02851 5.68917 6.02211 5.70153 6.00291 5.70153C5.95811 5.68917 5.95171 5.65211 5.94531 5.61504C5.94531 5.59651 5.95811 5.59651 5.97731 5.59033Z" fill="#FF0000"/>
<path d="M6.32343 6.4862C6.25943 6.4862 6.24663 6.44295 6.24023 6.39971C6.24023 6.38736 6.25303 6.375 6.26583 6.375C6.27223 6.375 6.27223 6.375 6.27863 6.375C6.32983 6.39971 6.33623 6.44295 6.32343 6.4862Z" fill="#FF0000"/>
<path d="M5.70234 5.00374C5.69594 5.02228 5.68954 5.03463 5.67674 5.02845C5.63834 5.02228 5.61274 4.98521 5.61914 4.94814C5.61914 4.92961 5.63194 4.91108 5.65114 4.92343C5.67674 4.94197 5.69594 4.96668 5.70234 5.00374Z" fill="#FF0000"/>
<path d="M5.28659 4.33008C5.33139 4.34243 5.36339 4.38568 5.35059 4.42892C5.35059 4.4351 5.34419 4.44128 5.34419 4.44745C5.29939 4.4351 5.26739 4.39185 5.28019 4.34861C5.28019 4.34243 5.28019 4.33626 5.28659 4.33008Z" fill="#FF0000"/>
<path d="M5.51658 4.72542C5.51018 4.72542 5.50379 4.71925 5.49739 4.71925C5.46539 4.69454 5.43978 4.66983 5.45258 4.63276C5.45898 4.62658 5.46539 4.6204 5.47179 4.62658C5.52299 4.64512 5.53578 4.676 5.51658 4.72542Z" fill="#FF0000"/>
<path d="M5.87522 5.38691C5.86882 5.38691 5.86242 5.38691 5.85602 5.38691C5.81762 5.3622 5.79202 5.33749 5.81122 5.28807C5.81762 5.27571 5.83042 5.27571 5.84322 5.28189C5.86882 5.29425 5.87522 5.3066 5.87522 5.38691Z" fill="#FF0000"/>
<path d="M11.1041 4.75657C11.0785 4.70097 11.0977 4.67008 11.1489 4.65155C11.1617 4.64537 11.1809 4.65772 11.1809 4.67008V4.67626C11.1873 4.72568 11.1553 4.75039 11.1041 4.75657Z" fill="#FF0000"/>
<path d="M10.227 6.54199C10.259 6.59141 10.2334 6.6223 10.1886 6.64701C10.1758 6.65319 10.163 6.65319 10.1566 6.64083C10.1566 6.64083 10.1502 6.63466 10.1502 6.62848C10.1438 6.58524 10.1758 6.54817 10.2142 6.54199C10.2206 6.54199 10.2206 6.54199 10.227 6.54199Z" fill="#FF0000"/>
<path d="M10.9568 5.00987C10.9376 5.00987 10.9248 4.99751 10.9248 4.97898C10.9248 4.94192 10.9504 4.91103 10.9888 4.89867C11.0144 4.8925 11.0144 4.91103 11.0144 4.92956C11.0208 4.96663 10.9952 5.00369 10.9568 5.00987Z" fill="#FF0000"/>
<path d="M10.8611 5.18896C10.8675 5.25074 10.8611 5.28781 10.8035 5.30016C10.7971 5.30016 10.7715 5.29398 10.7715 5.28781C10.7715 5.23221 10.8035 5.20132 10.8611 5.18896Z" fill="#FF0000"/>
<path d="M10.6882 5.55367C10.6818 5.58456 10.6562 5.60927 10.6178 5.60927C10.605 5.60927 10.5986 5.60309 10.5986 5.59073V5.58456C10.6114 5.54749 10.6242 5.5166 10.669 5.5166C10.6818 5.52278 10.6882 5.52896 10.6882 5.55367Z" fill="#FF0000"/>
<path d="M10.0864 7.02977C10.0864 7.06684 10.048 7.11626 10.016 7.11008C10.0032 7.11008 9.99042 7.09772 9.99682 7.08537C10.0032 7.0483 10.0096 7.01124 10.0544 7.00506C10.0672 6.99888 10.08 7.01124 10.0864 7.02359C10.0864 7.02359 10.0864 7.02359 10.0864 7.02977Z" fill="#FF0000"/>
<path d="M10.3045 6.29481C10.2853 6.29481 10.2725 6.28863 10.2725 6.27628C10.2789 6.23921 10.2917 6.20833 10.3365 6.20215C10.3557 6.20215 10.3557 6.2145 10.3557 6.22068C10.3621 6.25775 10.3429 6.28863 10.3045 6.29481Z" fill="#FF0000"/>
<path d="M10.4891 5.8501C10.5147 5.85628 10.5147 5.87481 10.5147 5.88716C10.5147 5.91805 10.4891 5.94894 10.4571 5.94894C10.4379 5.94894 10.4315 5.93041 10.4379 5.91187C10.4379 5.88716 10.4571 5.86245 10.4891 5.8501Z" fill="#FF0000"/>
<path d="M9.25488 11.0144C9.25488 10.9527 9.27408 10.8909 9.30608 10.8415C9.31888 10.8168 9.35088 10.7982 9.37648 10.8106C9.41488 10.8229 9.40208 10.86 9.39568 10.8847C9.38288 10.9403 9.37648 10.9959 9.37648 11.0515C9.37648 11.0824 9.38928 11.1318 9.33168 11.1318C9.27408 11.1318 9.27408 11.0947 9.26128 11.0639C9.26128 11.0391 9.26128 11.0268 9.25488 11.0144Z" fill="#FF0000"/>
<path d="M9.19043 11.5582C9.19683 11.5026 9.20963 11.4532 9.23523 11.4099C9.24803 11.3852 9.28003 11.3729 9.31203 11.3852C9.33763 11.3914 9.33123 11.4223 9.32483 11.4408C9.31203 11.5088 9.29923 11.5767 9.30563 11.6447C9.30563 11.6632 9.31203 11.6879 9.28003 11.6941C9.25443 11.7003 9.22883 11.6879 9.21603 11.6694C9.19683 11.6323 9.19043 11.5953 9.19043 11.5582Z" fill="#FF0000"/>
<path d="M9.19651 12.0709C9.19011 12.003 9.20931 11.9412 9.25411 11.8856C9.26691 11.8671 9.28611 11.8609 9.31171 11.8671C9.33731 11.8732 9.33731 11.898 9.33091 11.9165C9.31811 11.9906 9.31171 12.0586 9.31171 12.1327C9.31171 12.1574 9.31171 12.1821 9.27331 12.1821C9.23491 12.1821 9.22211 12.1759 9.21571 12.1451C9.20291 12.1203 9.19651 12.0956 9.19651 12.0709Z" fill="#FF0000"/>
<path d="M7.13602 11.947C7.13602 11.9965 7.11682 12.0397 7.08482 12.0768C7.06562 12.0953 7.04002 12.1015 7.01442 12.0953C6.98882 12.083 6.99522 12.0644 6.99522 12.0397C7.01442 11.9718 7.00802 11.8976 6.98882 11.8235C6.98242 11.805 6.97602 11.7803 6.99522 11.7679C7.02082 11.7555 7.05282 11.7617 7.07202 11.7864C7.11682 11.8359 7.13602 11.8914 7.13602 11.947Z" fill="#FF0000"/>
<path d="M7.04617 11.4409C7.03977 11.4038 7.03977 11.3667 7.03977 11.3297C7.03977 11.3111 7.03337 11.2864 7.05897 11.2741C7.07817 11.2679 7.10377 11.2679 7.11657 11.2803C7.18697 11.3297 7.19337 11.5274 7.12297 11.5768C7.10377 11.5891 7.08457 11.5891 7.06537 11.583C7.04617 11.5768 7.04617 11.5582 7.04617 11.5459C7.03977 11.515 7.04617 11.4779 7.04617 11.4409Z" fill="#FF0000"/>
<path d="M7.14195 10.854C7.14835 10.9035 7.13555 10.9529 7.11635 10.9961C7.10355 11.0208 7.07155 11.0332 7.04595 11.027C7.01395 11.0208 7.01395 10.9961 7.01395 10.9714L7.00755 10.7676C7.00755 10.749 7.00115 10.7243 7.02675 10.7181C7.05235 10.712 7.07795 10.7181 7.09075 10.7367C7.12275 10.7737 7.14195 10.8108 7.14195 10.854Z" fill="#FF0000"/>
</g>
<defs>
<clipPath id="clip0_3177_7172">
<rect width="16" height="16" fill="white" transform="translate(0 0.5)"/>
</clipPath>
</defs>
</svg>
