<?xml version="1.0" encoding="UTF-8"?>
<svg version="1.1" xmlns="http://www.w3.org/2000/svg" width="512" height="512">
<path d="M0 0 C16.29095549 14.20752443 27.26972563 32.29962731 29.078125 54.09326172 C30.3926893 77.36515781 24.30783558 98.60424854 8.859375 116.45703125 C1.9583422 123.68871631 -5.33926069 128.81826682 -14.140625 133.45703125 C-10.4067874 134.90484583 -6.6881212 136.28455035 -2.8671875 137.48828125 C20.75111496 144.94139162 40.84035393 157.42615005 58.859375 174.45703125 C59.65859375 175.19179687 60.4578125 175.9265625 61.28125 176.68359375 C76.74409571 191.40776849 87.54906986 209.93747732 95.859375 229.45703125 C96.41399414 229.30556641 96.96861328 229.15410156 97.54003906 228.99804688 C100.06177034 228.31250721 102.58551766 227.63469977 105.109375 226.95703125 C105.98207031 226.71855469 106.85476563 226.48007812 107.75390625 226.234375 C108.59824219 226.00878906 109.44257813 225.78320312 110.3125 225.55078125 C111.08754883 225.34130859 111.86259766 225.13183594 112.66113281 224.91601562 C114.859375 224.45703125 114.859375 224.45703125 118.859375 224.45703125 C118.859375 247.22703125 118.859375 269.99703125 118.859375 293.45703125 C126.44292969 293.37001953 126.44292969 293.37001953 134.1796875 293.28125 C137.38805304 293.25569354 140.59629258 293.23162359 143.8046875 293.21289062 C148.89414627 293.18303352 153.98315406 293.14776387 159.07226562 293.07983398 C163.1766236 293.02539329 167.28049781 292.99558559 171.38518906 292.98264503 C172.9488982 292.97342662 174.51258169 292.95542462 176.07608414 292.92838097 C178.27151345 292.89192703 180.46495988 292.88709223 182.66064453 292.8894043 C184.53262009 292.87274971 184.53262009 292.87274971 186.44241333 292.85575867 C190.98711381 293.65547609 192.60775918 295.23411096 195.859375 298.45703125 C197.47768799 301.69365723 197.44660355 304.95891706 196.859375 308.45703125 C195.75450511 310.47531343 194.52239251 312.14896751 193.05078125 313.9140625 C190.68865935 316.97320398 190.41585506 320.43858629 190.4296875 324.21484375 C191.12400273 327.83790685 193.31156399 330.30507051 195.48046875 333.21875 C196.95516574 335.6125216 197.24113658 336.99863952 197.359375 339.76953125 C197.4526907 343.65128079 197.4526907 343.65128079 200.609375 345.64453125 C201.681875 346.24265625 202.754375 346.84078125 203.859375 347.45703125 C209.20041597 352.28940165 213.56294958 357.36052915 214.09765625 364.75 C214.23877775 372.15516498 214.34243662 378.23658934 209.859375 384.45703125 C209.26125 385.34390625 208.663125 386.23078125 208.046875 387.14453125 C205.30387175 390.04427754 202.31990279 392.4540164 198.859375 394.45703125 C198.199375 394.45703125 197.539375 394.45703125 196.859375 394.45703125 C196.9625 395.44703125 197.065625 396.43703125 197.171875 397.45703125 C197.20634432 401.69675718 195.43229952 404.26768009 193.05078125 407.66015625 C190.4924496 411.51862366 190.35902647 414.9538945 190.859375 419.45703125 C191.79858369 421.13829696 192.80547341 422.78268176 193.859375 424.39453125 C196.93184257 429.20392823 197.89724872 431.79590185 196.859375 437.45703125 C194.84111567 440.96605032 192.78059639 443.14995745 188.859375 444.45703125 C186.83174492 444.55690008 184.80096229 444.59638598 182.77088928 444.60420227 C181.49674164 444.61135757 180.22259399 444.61851288 178.90983582 444.62588501 C177.49465967 444.62872533 176.07948326 444.63143706 174.66430664 444.6340332 C173.17596274 444.64029897 171.68762041 444.64694587 170.19927979 444.65394592 C165.30604135 444.67498702 160.41280262 444.68535292 155.51953125 444.6953125 C153.83240683 444.69936097 152.14528258 444.70347792 150.45815849 444.70766258 C142.52599421 444.72671962 134.59383922 444.74094581 126.66165644 444.74927455 C117.52328496 444.75902917 108.38515686 444.78529989 99.24687105 444.82577544 C92.17406805 444.85602001 85.10133444 444.87075157 78.02846807 444.87405556 C73.8093409 444.87639787 69.59047353 444.88524977 65.37141609 444.91051674 C61.39455446 444.9339469 57.41812088 444.93797137 53.44120789 444.92775536 C51.99009202 444.92726338 50.53895403 444.93348279 49.08790398 444.9473114 C35.89345487 445.06590649 25.55856894 443.17038986 15.92578125 433.76953125 C10.50901386 427.7076668 8.70933171 422.26101404 8.796875 414.20703125 C8.80589844 413.129375 8.81492188 412.05171875 8.82421875 410.94140625 C8.84162109 409.71164062 8.84162109 409.71164062 8.859375 408.45703125 C8.1880957 408.64495239 7.51681641 408.83287354 6.82519531 409.02648926 C0.47314528 410.80273254 -5.88158914 412.56898732 -12.23945618 414.32430267 C-15.50736781 415.22689769 -18.77414862 416.1332097 -22.03857422 417.04833984 C-25.79914924 418.1004992 -29.56318392 419.13936911 -33.328125 420.17578125 C-34.48989258 420.50388794 -35.65166016 420.83199463 -36.84863281 421.17004395 C-37.94916992 421.47035522 -39.04970703 421.7706665 -40.18359375 422.08007812 C-41.14289795 422.34655151 -42.10220215 422.6130249 -43.09057617 422.88757324 C-49.71916866 424.12516165 -55.40594982 423.43614147 -61.8449707 421.66308594 C-62.94104834 421.37419023 -62.94104834 421.37419023 -64.05926895 421.07945824 C-66.48091696 420.43864774 -68.89853942 419.78382619 -71.31640625 419.12890625 C-73.05201129 418.666607 -74.78785225 418.20519268 -76.52391052 417.74459839 C-81.1996213 416.50148089 -85.87200783 415.24627296 -90.54386902 413.98877716 C-95.40984494 412.68124121 -100.27878342 411.38483514 -105.14746094 410.08740234 C-113.16381975 407.94976479 -121.17843809 405.80571729 -129.19189453 403.65722656 C-139.72149923 400.83451759 -150.25516669 398.02727554 -160.79068565 395.22673035 C-173.98497756 391.71935768 -187.17903859 388.21107626 -200.36958504 384.68964005 C-201.77367582 384.31492872 -203.17785247 383.940539 -204.5821209 383.56649399 C-206.48694967 383.05905 -208.39143386 382.55031303 -210.29589844 382.04150391 C-211.35919373 381.75779938 -212.42248901 381.47409485 -213.51800537 381.18179321 C-215.40758364 380.65960752 -217.28082245 380.07696543 -219.140625 379.45703125 C-219.140625 328.30703125 -219.140625 277.15703125 -219.140625 224.45703125 C-210.140625 225.58203125 -210.140625 225.58203125 -207.078125 226.4296875 C-206.42714844 226.60693359 -205.77617187 226.78417969 -205.10546875 226.96679688 C-204.13287109 227.24040039 -204.13287109 227.24040039 -203.140625 227.51953125 C-202.46128906 227.70580078 -201.78195313 227.89207031 -201.08203125 228.08398438 C-199.43353492 228.53674041 -197.78687309 228.99616753 -196.140625 229.45703125 C-195.73972656 228.54824219 -195.33882812 227.63945312 -194.92578125 226.703125 C-186.66165071 208.29800123 -176.02844035 192.1771643 -162.140625 177.45703125 C-161.4290625 176.66941406 -160.7175 175.88179687 -159.984375 175.0703125 C-141.60336397 155.52475112 -114.97869722 141.04419906 -88.94140625 134.9296875 C-87.13205759 134.6166053 -87.13205759 134.6166053 -86.140625 133.45703125 C-86.71167969 133.15152344 -87.28273437 132.84601563 -87.87109375 132.53125 C-107.37896578 121.52124274 -120.79587867 105.2164945 -126.953125 83.51953125 C-131.0345245 67.51549807 -130.26053279 51.08249379 -125.140625 35.45703125 C-124.84027344 34.52632812 -124.53992188 33.595625 -124.23046875 32.63671875 C-117.37369664 13.69896722 -101.60427978 -1.86265272 -83.640625 -10.41796875 C-77.31988366 -13.29227833 -70.95536805 -15.2404567 -64.140625 -16.54296875 C-63.026875 -16.76984375 -61.913125 -16.99671875 -60.765625 -17.23046875 C-38.88704053 -19.11655362 -17.20906722 -14.35688291 0 0 Z M-98.72265625 13.8828125 C-112.09951834 28.12409218 -118.92858054 46.40562903 -118.42578125 65.94921875 C-116.7614909 86.42226995 -107.69741638 103.1542068 -92.140625 116.45703125 C-77.07008136 127.64220036 -58.76370779 132.73234503 -40.06445312 130.17285156 C-24.01562337 127.29762894 -11.42615114 120.01206249 -0.140625 108.45703125 C0.53742188 107.79960937 1.21546875 107.1421875 1.9140625 106.46484375 C13.00873599 94.97569298 17.88503219 78.09504256 18.359375 62.45703125 C17.7551004 42.53546211 9.73704114 24.8941039 -4.66796875 11.0234375 C-32.64065196 -13.33456712 -71.97993582 -11.15925798 -98.72265625 13.8828125 Z M-158.140625 189.45703125 C-165.24637791 197.6623558 -171.47632418 206.48331464 -176.765625 215.95703125 C-177.16692627 216.6735083 -177.56822754 217.38998535 -177.98168945 218.12817383 C-179.92791577 221.74486574 -181.49933273 225.31062111 -182.76708984 229.22070312 C-183.15735855 230.41657043 -183.15735855 230.41657043 -183.55551147 231.63659668 C-183.74859894 232.23734009 -183.9416864 232.8380835 -184.140625 233.45703125 C-179.80178983 234.61137151 -175.46292626 235.76560494 -171.12404633 236.91977692 C-169.51742484 237.34716973 -167.91081174 237.77459406 -166.30420685 238.20204926 C-156.5721428 240.79137036 -146.83941962 243.37817324 -137.10522461 245.95947266 C-133.47635239 246.9220221 -129.84753432 247.88477548 -126.21875 248.84765625 C-124.86408725 249.2070611 -124.86408725 249.2070611 -123.48205757 249.57372665 C-112.41183452 252.51176241 -101.34891945 255.47454006 -90.29726601 258.48166275 C-86.0529762 259.63475642 -81.80600907 260.77796448 -77.55941772 261.92254639 C-75.33469837 262.52539862 -73.11138219 263.13345479 -70.88955688 263.74688721 C-67.84250478 264.58782751 -64.79118314 265.4110665 -61.73828125 266.23046875 C-60.87100403 266.47520935 -60.00372681 266.71994995 -59.11016846 266.97210693 C-58.301745 267.18546692 -57.49332153 267.3988269 -56.66040039 267.61865234 C-55.97490616 267.80624115 -55.28941193 267.99382996 -54.58314514 268.18710327 C-48.11367505 268.90205786 -41.66584647 266.96347783 -35.46606445 265.29907227 C-34.63675415 265.08090347 -33.80744385 264.86273468 -32.95300293 264.63795471 C-30.21862844 263.91725879 -27.4862813 263.18917385 -24.75390625 262.4609375 C-22.81384831 261.94781216 -20.87367564 261.43512039 -18.93339539 260.9228363 C-13.80896712 259.56847496 -8.6862567 258.20772104 -3.56384277 256.84576416 C0.50463394 255.76514239 4.57428888 254.68900247 8.6440258 253.6131382 C33.73873448 246.97896563 58.81014146 240.26084961 83.859375 233.45703125 C83.39898766 232.03469926 82.93497675 230.61353989 82.46948242 229.19287109 C82.21148361 228.40133636 81.9534848 227.60980164 81.68766785 226.79428101 C80.47974736 223.38581035 78.90033053 220.25165017 77.171875 217.08203125 C76.82229736 216.4370166 76.47271973 215.79200195 76.11254883 215.12744141 C58.43302655 183.19254104 27.53153927 158.27892414 -7.40283203 147.79614258 C-15.21441256 145.58028404 -23.07244584 143.47714586 -31.140625 142.45703125 C-31.97722656 142.34746094 -32.81382812 142.23789063 -33.67578125 142.125 C-80.42888322 136.96081348 -126.17416662 155.30510172 -158.140625 189.45703125 Z M-208.140625 295.45703125 C-208.140625 303.37703125 -208.140625 311.29703125 -208.140625 319.45703125 C-204.799375 321.00390625 -204.799375 321.00390625 -201.390625 322.58203125 C-200.69614258 322.91348145 -200.00166016 323.24493164 -199.28613281 323.58642578 C-195.62661466 325.22184621 -195.62661466 325.22184621 -191.75 324.82421875 C-189.50107827 322.91372699 -189.19443123 321.05821236 -188.9375 318.1875 C-188.83893044 312.84010131 -188.97919182 308.9884188 -192.140625 304.45703125 C-196.18133611 300.51029017 -202.20366138 295.45703125 -208.140625 295.45703125 Z M37.859375 351.45703125 C39.839375 355.41703125 41.819375 359.37703125 43.859375 363.45703125 C83.129375 363.45703125 122.399375 363.45703125 162.859375 363.45703125 C162.859375 367.08703125 162.859375 370.71703125 162.859375 374.45703125 C123.589375 374.45703125 84.319375 374.45703125 43.859375 374.45703125 C40.39041221 380.22829016 40.39041221 380.22829016 38.859375 386.45703125 C58.14835224 386.5505471 77.43728336 386.62104597 96.72644043 386.66427994 C105.68310126 386.68488941 114.63962109 386.71297905 123.59619141 386.75878906 C131.40438082 386.79870637 139.2124681 386.82447581 147.02075672 386.83338523 C151.15374715 386.83859172 155.28644541 386.85079493 159.41934204 386.87995148 C163.31323582 386.90719811 167.20671841 386.91545773 171.10069847 386.90946198 C172.52608669 386.9105581 173.95148933 386.91845709 175.37679482 386.93385315 C184.29814892 387.02545533 191.02298906 386.80702544 197.91796875 380.60546875 C198.37300781 380.02023437 198.82804688 379.435 199.296875 378.83203125 C200.00650391 377.94644531 200.00650391 377.94644531 200.73046875 377.04296875 C203.54656943 373.08678579 203.42453292 369.16933388 202.859375 364.45703125 C200.07846889 358.89521903 195.87885541 354.67229662 190.06269646 352.33143806 C186.7135121 351.41721523 183.94727348 351.21067729 180.48123169 351.21652222 C178.58829628 351.21239822 178.58829628 351.21239822 176.65711975 351.20819092 C175.27157496 351.2152678 173.88603115 351.22253739 172.50048828 351.22998047 C171.03164172 351.23054502 169.5627946 351.23022716 168.09394836 351.22909546 C164.11710803 351.22852267 160.14038884 351.24026498 156.1635766 351.25424337 C152.00357843 351.26676308 147.84357734 351.26792221 143.68356323 351.27029419 C135.81076679 351.27650531 127.93802604 351.29291116 120.06525409 351.31299317 C111.10035986 351.33536361 102.13546293 351.34634848 93.17054772 351.35638404 C74.73345773 351.37727771 56.29642289 351.41285038 37.859375 351.45703125 Z " fill="#727272" transform="translate(247.140625,39.54296875)"/>
<path d="M0 0 C5.28 1.32 10.56 2.64 16 4 C20.58727422 5.14040521 20.58727422 5.14040521 25.17456055 6.28076172 C37.33151929 9.3084395 49.44630137 12.4519413 61.515625 15.8125 C74.28595685 19.36361747 87.06183319 22.81911617 99.93286133 25.98730469 C107.34929525 27.81821116 114.6693682 29.84393182 122 32 C126.62 33.32 131.24 34.64 136 36 C136 79.89 136 123.78 136 169 C119.11589806 165.62317961 119.11589806 165.62317961 111.5625 163.3125 C102.4373975 160.61158018 93.23852069 158.27237862 84 156 C74.21369437 153.59015045 64.48546391 151.06685792 54.81518555 148.22094727 C47.52813153 146.0985811 40.18052489 144.25637252 32.8125 142.4375 C24.62239453 140.4150941 16.44426547 138.37207814 8.3125 136.125 C7.57040283 135.92189209 6.82830566 135.71878418 6.0637207 135.50952148 C1.12533638 134.12533638 1.12533638 134.12533638 0 133 C-0.08868299 130.04294679 -0.11520296 127.10934944 -0.09765625 124.15234375 C-0.0962413 123.2659169 -0.09482635 122.37949005 -0.09336853 121.46620178 C-0.08775215 118.62326746 -0.07519691 115.78041069 -0.0625 112.9375 C-0.05748711 111.01497509 -0.05292384 109.09244896 -0.04882812 107.16992188 C-0.03777741 102.44658451 -0.02050183 97.72330542 0 93 C3.17376326 94.01103262 5.96662182 94.98113407 8.875 96.625 C13.68099398 98.73963735 17.74469292 98.87136865 22.75 96.9375 C26.95801991 93.3139273 29.48375603 88.54962273 30 83 C30.65688039 73.68872048 29.17212235 65.30909226 23 58 C16.15495409 52.23017148 8.28741874 49.55175089 0 46 C0 30.82 0 15.64 0 0 Z " fill="#BBBBBB" transform="translate(38,277)"/>
<path d="M0 0 C0 18.48 0 36.96 0 56 C-5.20265625 56.01417969 -10.4053125 56.02835937 -15.765625 56.04296875 C-19.08339949 56.06305195 -22.40103865 56.08459385 -25.71875 56.11132812 C-30.97205823 56.15352256 -36.22502297 56.19063511 -41.47851562 56.19555664 C-45.71935004 56.19986999 -49.95941211 56.22858077 -54.20000458 56.27343178 C-55.80887077 56.28631062 -57.41782985 56.29074898 -59.02674103 56.28615379 C-70.90553391 56.26015573 -82.53946548 57.54331961 -91.53125 66.2265625 C-96.99571215 72.82460989 -98.85802515 79.28759541 -98.4765625 87.8203125 C-97.24036169 96.06840642 -93.2428992 101.46489092 -86.8671875 106.625 C-85.27744516 107.79568892 -83.64270273 108.90486485 -82 110 C-81.41015625 112.20703125 -81.41015625 112.20703125 -81.0625 114.8125 C-80.30622729 119.26040896 -79.13748451 121.66009714 -76 125 C-74.25635598 130.23093207 -74.46554526 134.38610555 -76.875 139.3125 C-78.11111702 141.64280949 -79.11366155 143.11366155 -81 145 C-81.12738321 146.97443978 -81.25057947 148.95120005 -81.265625 150.9296875 C-82.48822146 154.376369 -84.86003053 155.29433757 -88 157 C-90.76845773 157.99812243 -93.57573789 158.69711126 -96.4375 159.375 C-98.11729932 159.79382262 -99.7969814 160.21311564 -101.4765625 160.6328125 C-102.36504883 160.85098633 -103.25353516 161.06916016 -104.16894531 161.29394531 C-107.16943449 162.04225634 -110.15921116 162.8251222 -113.1484375 163.6171875 C-114.17396729 163.88869629 -115.19949707 164.16020508 -116.25610352 164.43994141 C-118.25677041 164.97019244 -120.25726564 165.50109166 -122.25756836 166.03271484 C-123.17932861 166.2745752 -124.10108887 166.51643555 -125.05078125 166.765625 C-125.86200439 166.97993164 -126.67322754 167.19423828 -127.5090332 167.41503906 C-130.31199298 168.07326621 -133.15996539 168.5266609 -136 169 C-136 125.11 -136 81.22 -136 36 C-112.03265277 29.1521865 -112.03265277 29.1521865 -102.625 26.875 C-100.59223324 26.37456913 -98.55968017 25.87326943 -96.52734375 25.37109375 C-95.57585449 25.13632324 -94.62436523 24.90155273 -93.64404297 24.65966797 C-88.96164993 23.49144766 -84.30345364 22.23894282 -79.64453125 20.98046875 C-77.0607845 20.28537718 -74.47597838 19.59959968 -71.88671875 18.92578125 C-62.16922527 16.39498275 -52.48663445 13.75451578 -42.8125 11.0625 C-32.3258148 8.14528608 -21.81269121 5.38532676 -11.2355957 2.81469727 C-10.30835693 2.58838623 -9.38111816 2.3620752 -8.42578125 2.12890625 C-7.61536377 1.93369385 -6.80494629 1.73848145 -5.9699707 1.53735352 C-0.33393912 0 -0.33393912 0 0 0 Z " fill="#BBBBBB" transform="translate(356,277)"/>
<path d="M0 0 C11.43102259 8.59092921 21.4382234 20.72417631 23.84765625 35.2890625 C25.5004741 54.70215941 20.46597193 69.14468392 9 84.875 C2.48252256 93.83079213 -1.51919418 101.67774091 -2.9375 112.8125 C-1.3596875 113.121875 -1.3596875 113.121875 0.25 113.4375 C4.74521216 114.70491276 6.43780099 117.02984555 9.0625 120.8125 C10.63090852 125.51772555 10.61145539 129.33898816 8.875 134 C6.12540143 138.26661847 3.74775608 140.43093259 -1.25 141.5625 C-2.136875 141.645 -3.02375 141.7275 -3.9375 141.8125 C-3.94007813 142.45316406 -3.94265625 143.09382812 -3.9453125 143.75390625 C-4.21600602 149.80841794 -5.25493065 153.13905534 -9.46484375 157.53515625 C-10.9375 158.8125 -10.9375 158.8125 -12.9375 159.8125 C-13.44169714 161.7127112 -13.86670393 163.63426208 -14.25 165.5625 C-15.45303054 170.67841773 -16.55993206 173.60940151 -20.9375 176.8125 C-25.35861334 179.38300774 -29.31316927 179.14405233 -34.3125 179.125 C-35.15039062 179.14111328 -35.98828125 179.15722656 -36.8515625 179.17382812 C-43.11148985 179.17874945 -47.38188685 178.08415614 -52.1875 173.8125 C-54.00536233 170.69616457 -54.36814385 168.71224279 -54.875 165.1875 C-55.25697631 162.31789129 -55.25697631 162.31789129 -55.9375 159.8125 C-58.27692344 158.0588436 -58.27692344 158.0588436 -60.9375 156.8125 C-64.41384977 151.97243746 -65.42593403 147.67370838 -64.9375 141.8125 C-65.96875 141.791875 -67 141.77125 -68.0625 141.75 C-73.16406395 140.51575066 -75.04023933 138.02227809 -77.9375 133.8125 C-79.6756808 130.33613841 -79.39258953 126.613459 -78.9375 122.8125 C-76.56198585 117.97010577 -73.6348157 115.41101507 -68.9375 112.8125 C-67.9475 112.8125 -66.9575 112.8125 -65.9375 112.8125 C-67.97775677 100.76526956 -72.64737723 92.11991548 -79.9375 82.4375 C-90.67105133 68.00776465 -94.5078519 53.62006022 -92.9375 35.8125 C-92.07518028 31.53352971 -90.76979746 27.76640504 -88.9375 23.8125 C-88.586875 23.02875 -88.23625 22.245 -87.875 21.4375 C-80.86500001 7.41750002 -68.35359746 -2.03301751 -53.8828125 -7.27734375 C-36.19608674 -12.74287041 -15.35486937 -10.35937062 0 0 Z M-71.3125 17.125 C-79.80912521 27.36273694 -83.14647574 38.64272431 -81.9375 51.8125 C-80.15955712 62.57516185 -74.55721557 70.26864517 -68.31835938 78.87548828 C-61.08591038 89.02086493 -56.07159051 98.33750437 -54.9375 110.8125 C-54.6075 110.8125 -54.2775 110.8125 -53.9375 110.8125 C-53.86273438 110.12542969 -53.78796875 109.43835938 -53.7109375 108.73046875 C-53.51371094 107.37888672 -53.51371094 107.37888672 -53.3125 106 C-53.13847656 104.66001953 -53.13847656 104.66001953 -52.9609375 103.29296875 C-51.9375 100.8125 -51.9375 100.8125 -45.9375 97.8125 C-45.9375 89.2325 -45.9375 80.6525 -45.9375 71.8125 C-49.8975 71.1525 -53.8575 70.4925 -57.9375 69.8125 C-62.05869599 66.01453507 -63.76569532 63.08891207 -64.1875 57.5 C-63.81936495 52.07000808 -62.36045624 49.13133749 -58.375 45.4375 C-53.75585142 43.25390249 -49.96174363 43.02005832 -44.9375 43.8125 C-40.32965361 45.90697563 -38.4342333 48.06557745 -36.54867554 52.72927856 C-35.39627418 56.65729442 -35.4552296 60.61621766 -35.42578125 64.68359375 C-35.40783005 65.605923 -35.38987885 66.52825226 -35.37138367 67.47853088 C-35.31753264 70.40230848 -35.28346615 73.3259252 -35.25 76.25 C-35.21680466 78.24155872 -35.18231296 80.23309629 -35.14648438 82.22460938 C-35.06182074 87.08712303 -34.99488974 91.94959107 -34.9375 96.8125 C-34.6075 96.8125 -34.2775 96.8125 -33.9375 96.8125 C-33.92291748 95.54132324 -33.90833496 94.27014648 -33.89331055 92.96044922 C-33.83520193 88.23018708 -33.75796952 83.5003947 -33.67504883 78.77050781 C-33.64185859 76.7259892 -33.61380837 74.68138026 -33.59106445 72.63671875 C-33.55741007 69.69231794 -33.50508834 66.74874046 -33.44921875 63.8046875 C-33.43963387 62.4402803 -33.43963387 62.4402803 -33.42985535 61.04830933 C-33.31158619 55.90722632 -32.80911195 52.25329646 -29.9375 47.8125 C-26.5481124 44.74591122 -23.9334132 43.54908418 -19.4375 43.375 C-15.32158604 43.58287444 -12.38092516 44.43489691 -8.9375 46.8125 C-5.77865444 50.62489981 -4.79782915 54.91470901 -4.9375 59.8125 C-6.14045912 64.05823808 -7.28999177 66.22665922 -10.5625 69.1875 C-13.9375 70.8125 -13.9375 70.8125 -22.9375 71.8125 C-22.9375 80.3925 -22.9375 88.9725 -22.9375 97.8125 C-21.2875 98.4725 -19.6375 99.1325 -17.9375 99.8125 C-16.45035367 102.05590845 -15.84135442 104.24365061 -14.9375 106.8125 C-14.6075 106.8125 -14.2775 106.8125 -13.9375 106.8125 C-13.71835937 106.00167969 -13.49921875 105.19085938 -13.2734375 104.35546875 C-9.9322931 92.68862713 -4.63592694 83.64697697 2.44189453 73.94482422 C9.58818652 64.05226371 14.59722643 53.28458059 13.0625 40.8125 C10.13031743 27.01192815 3.91161962 16.60564295 -7.9375 8.8125 C-28.58321635 -3.43125312 -54.60515244 -0.58353693 -71.3125 17.125 Z M-51.9375 53.8125 C-52.5975 55.1325 -53.2575 56.4525 -53.9375 57.8125 C-52.9475 59.2975 -52.9475 59.2975 -51.9375 60.8125 C-50.2875 60.4825 -48.6375 60.1525 -46.9375 59.8125 C-46.9375 58.1625 -46.9375 56.5125 -46.9375 54.8125 C-48.5875 54.4825 -50.2375 54.1525 -51.9375 53.8125 Z M-20.9375 53.8125 C-21.5975 55.4625 -22.2575 57.1125 -22.9375 58.8125 C-22.2775 59.4725 -21.6175 60.1325 -20.9375 60.8125 C-18.33469432 60.49208603 -18.33469432 60.49208603 -15.9375 59.8125 C-16.2675 58.1625 -16.5975 56.5125 -16.9375 54.8125 C-18.2575 54.4825 -19.5775 54.1525 -20.9375 53.8125 Z M-42.9375 108.8125 C-42.9375 110.1325 -42.9375 111.4525 -42.9375 112.8125 C-37.3275 112.8125 -31.7175 112.8125 -25.9375 112.8125 C-25.9375 111.4925 -25.9375 110.1725 -25.9375 108.8125 C-31.5475 108.8125 -37.1575 108.8125 -42.9375 108.8125 Z M-53.9375 141.8125 C-53.6075 143.7925 -53.2775 145.7725 -52.9375 147.8125 C-49.24775862 150.27232759 -47.36886906 150.07027165 -42.96875 150.078125 C-41.95367371 150.08099518 -41.95367371 150.08099518 -40.91809082 150.08392334 C-39.48917264 150.08528265 -38.06024201 150.08160394 -36.63134766 150.07324219 C-34.44535559 150.06253846 -32.26018528 150.07314544 -30.07421875 150.0859375 C-28.68489402 150.08461586 -27.2955698 150.08205337 -25.90625 150.078125 C-24.64232422 150.07586914 -23.37839844 150.07361328 -22.07617188 150.07128906 C-18.77533953 150.05427519 -18.77533953 150.05427519 -15.9375 147.8125 C-15.9375 145.8325 -15.9375 143.8525 -15.9375 141.8125 C-28.4775 141.8125 -41.0175 141.8125 -53.9375 141.8125 Z M-43.9375 160.8125 C-43.6075 162.7925 -43.2775 164.7725 -42.9375 166.8125 C-40.08911879 168.2366906 -37.60962092 167.98245508 -34.4375 168 C-33.2721875 168.01417969 -32.106875 168.02835938 -30.90625 168.04296875 C-27.81843282 168.12693714 -27.81843282 168.12693714 -25.9375 165.8125 C-25.9375 164.1625 -25.9375 162.5125 -25.9375 160.8125 C-31.8775 160.8125 -37.8175 160.8125 -43.9375 160.8125 Z " fill="#717171" transform="translate(412.9375,59.1875)"/>
<path d="M0 0 C1.44958478 0.00084761 2.89917085 0.00036853 4.34875488 -0.00132751 C8.2593689 -0.00218369 12.16970347 0.01538029 16.08025289 0.03639436 C20.17616286 0.05522464 24.27208015 0.05691658 28.36802673 0.06047058 C36.11326043 0.06977247 43.85836619 0.09436095 51.6035437 0.12451905 C60.42581556 0.15812105 69.24809372 0.17456361 78.07041371 0.18960536 C96.2083918 0.22091229 114.34625102 0.27363644 132.48413086 0.34057617 C131.4460962 3.03227644 130.42777764 5.43299545 128.92163086 7.90307617 C127.24943975 10.47494046 127.24943975 10.47494046 126.48413086 14.34057617 C87.21413086 14.34057617 47.94413086 14.34057617 7.48413086 14.34057617 C7.48413086 17.64057617 7.48413086 20.94057617 7.48413086 24.34057617 C46.75413086 24.34057617 86.02413086 24.34057617 126.48413086 24.34057617 C131.48413086 34.34057617 131.48413086 34.34057617 132.48413086 37.34057617 C113.09933608 37.45754257 93.71461323 37.5456294 74.32953835 37.59963703 C65.32805181 37.62538383 56.32678496 37.66046665 47.32543945 37.71777344 C39.47694445 37.76771669 31.62860859 37.7998928 23.77995908 37.81101865 C19.62671217 37.81751901 15.47392043 37.83272229 11.32081985 37.86922646 C7.40551975 37.90335912 3.49085896 37.91359476 -0.42457581 37.90611458 C-1.85558684 37.90748148 -3.28662096 37.91731126 -4.71750259 37.93660355 C-14.01836246 38.05577269 -22.08716116 37.35690025 -29.19226646 30.79152393 C-33.1361361 26.30748922 -33.87720207 22.37584499 -33.79321289 16.61791992 C-33.20019771 11.74851359 -30.16006771 8.98477474 -26.82836914 5.65307617 C-18.90887928 -0.449834 -9.56176605 -0.07875687 0 0 Z " fill="#BABABA" transform="translate(300.515869140625,342.659423828125)"/>
<path d="M0 0 C1.91199188 -0.002062 1.91199188 -0.002062 3.86260986 -0.00416565 C5.27793908 -0.00062649 6.69326805 0.00300832 8.1085968 0.00672913 C9.5967051 0.00701115 11.08481354 0.00685296 12.57292175 0.00628662 C16.61601574 0.00599925 20.65908017 0.01188628 24.70216727 0.01886058 C28.92625005 0.02510411 33.15033348 0.02569871 37.37442017 0.02688599 C45.37479382 0.02999634 53.37515384 0.03820577 61.37552148 0.04823548 C70.48303379 0.05940576 79.59054675 0.06490938 88.69806421 0.06993091 C107.43428138 0.08038861 126.17048584 0.09798236 144.9066925 0.12025452 C144.3826886 1.15085999 144.3826886 1.15085999 143.84809875 2.20228577 C143.39305969 3.10334045 142.93802063 4.00439514 142.4691925 4.93275452 C141.7905011 6.27273499 141.7905011 6.27273499 141.09809875 7.63978577 C139.823532 10.1602493 139.823532 10.1602493 138.9066925 13.12025452 C99.6366925 13.12025452 60.3666925 13.12025452 19.9066925 13.12025452 C19.9066925 16.42025452 19.9066925 19.72025452 19.9066925 23.12025452 C59.1766925 23.12025452 98.4466925 23.12025452 138.9066925 23.12025452 C139.8966925 25.43025452 140.8866925 27.74025452 141.9066925 30.12025452 C142.89206772 32.12750032 143.88732307 34.13005705 144.9066925 36.12025452 C125.37424261 36.23718183 105.84186399 36.32528867 86.30913639 36.37931538 C77.23924098 36.40507043 68.16956335 36.44016914 59.09980774 36.49745178 C51.1923587 36.54736963 43.28506742 36.57956515 35.37746519 36.59069699 C31.19239385 36.59720163 27.00777374 36.61243244 22.82284737 36.6489048 C18.87882441 36.68299717 14.93543592 36.6932811 10.9912796 36.68579292 C9.54856092 36.6871616 8.10581967 36.69701559 6.66322899 36.71628189 C-2.59359532 36.83378231 -9.81247279 36.20171009 -16.70313931 29.57120228 C-20.6850017 25.05721097 -21.46633111 21.20808102 -21.36283875 15.39369202 C-20.83136495 10.91082608 -18.48736714 8.31516278 -15.15190125 5.45619202 C-10.0016004 1.4535641 -6.61297365 -0.00548794 0 0 Z " fill="#BABABA" transform="translate(288.0933074951172,436.87974548339844)"/>
<path d="M0 0 C6 1 6 1 8.16796875 1.38671875 C14.98937773 2.40267328 18.5482066 1.35487153 26 0 C26 43.89 26 87.78 26 133 C14.46125274 136.84624909 11.53874726 136.84624909 0 133 C0 89.11 0 45.22 0 0 Z " fill="#BABABA" transform="translate(184,316)"/>
<path d="M0 0 C1.15249741 0.00222061 2.30499481 0.00444122 3.49241638 0.00672913 C5.4443264 0.00684242 5.4443264 0.00684242 7.43566895 0.00695801 C8.86661313 0.01206543 10.29755694 0.01728144 11.72850037 0.02259827 C13.18438672 0.02446249 14.64027369 0.02588637 16.09616089 0.02688599 C19.93488791 0.03071086 23.77357731 0.04054088 27.61228943 0.05158997 C31.52667227 0.06180474 35.44106117 0.06638375 39.35545349 0.07142639 C47.04101755 0.08216318 54.72655057 0.09923923 62.41209412 0.12025452 C63.03709412 2.99525452 63.03709412 2.99525452 63.41209412 6.12025452 C60.69304156 8.83930708 59.23792397 8.37358372 55.43357849 8.37904358 C54.17887756 8.3853479 52.92417664 8.39165222 51.63145447 8.39814758 C50.2562496 8.3945679 48.881046 8.39046597 47.50584412 8.38587952 C46.10101759 8.38722624 44.69619151 8.38916684 43.29136658 8.39167786 C40.34572415 8.39462878 37.40020294 8.3903326 34.45457458 8.3809967 C30.67470909 8.36960207 26.89512759 8.37616173 23.11527252 8.38814163 C20.21397249 8.39536117 17.31274003 8.3930719 14.41143799 8.38788605 C13.01754727 8.3865498 11.62365045 8.3881964 10.22976685 8.39284515 C8.2833823 8.39791162 6.33697631 8.38882322 4.39060974 8.37904358 C3.28189514 8.37745239 2.17318054 8.37586121 1.03086853 8.3742218 C-1.58790588 8.12025452 -1.58790588 8.12025452 -3.58790588 6.12025452 C-3.77540588 3.55775452 -3.77540588 3.55775452 -3.58790588 1.12025452 C-2.58790588 0.12025452 -2.58790588 0.12025452 0 0 Z " fill="#B8B8B8" transform="translate(348.58790588378906,182.87974548339844)"/>
<path d="M0 0 C3.96 0 7.92 0 12 0 C12 10.89 12 21.78 12 33 C8.04 33 4.08 33 0 33 C0 22.11 0 11.22 0 0 Z " fill="#727272" transform="translate(372,69)"/>
<path d="M0 0 C3 2 6 4 9 6 C7.53416665 10.54071365 4.95468267 13.76266969 1.875 17.3125 C1.17310547 18.13717773 1.17310547 18.13717773 0.45703125 18.97851562 C-0.68952483 20.32396409 -1.84397451 21.662679 -3 23 C-6.44094186 21.68753462 -9.13540882 20.33411133 -12 18 C-11.12565831 13.62056977 -8.73129025 10.73799319 -6 7.3125 C-5.30390625 6.42208008 -5.30390625 6.42208008 -4.59375 5.51367188 C-1.24503968 1.24503968 -1.24503968 1.24503968 0 0 Z " fill="#707070" transform="translate(403,78)"/>
<path d="M0 0 C5.17226615 4.6873662 8.98925493 10.31728181 13 16 C10.78071806 18.90802461 9.07030857 20.95312762 6 23 C4.10546875 22.98828125 4.10546875 22.98828125 2 22 C0.27970047 20.08887733 -1.19982212 18.26338659 -2.6875 16.1875 C-3.47511719 15.12917969 -4.26273437 14.07085937 -5.07421875 12.98046875 C-7 10 -7 10 -8 6 C-5.36 4.02 -2.72 2.04 0 0 Z " fill="#717171" transform="translate(355,78)"/>
</svg>
