<svg width="16" height="17" viewBox="0 0 16 17" fill="none" xmlns="http://www.w3.org/2000/svg">
<path d="M7.72314 1.7358C8.23224 2.17979 8.57532 2.74517 8.63184 3.42622C8.67292 4.15347 8.48276 4.81719 8 5.37509C7.78434 5.60108 7.55629 5.76138 7.28125 5.90634C7.39793 5.95158 7.51414 5.9947 7.63354 6.03231C8.37162 6.26522 8.99941 6.65537 9.5625 7.18759C9.58748 7.21055 9.61245 7.23351 9.63818 7.25717C10.1214 7.7173 10.4591 8.29635 10.7188 8.90634C10.7361 8.9016 10.7534 8.89687 10.7713 8.89199C10.8501 8.87057 10.9289 8.84939 11.0078 8.82821C11.0351 8.82076 11.0624 8.81331 11.0905 8.80563C11.1168 8.79858 11.1432 8.79153 11.1704 8.78427C11.1946 8.77772 11.2189 8.77117 11.2438 8.76443C11.3125 8.75009 11.3125 8.75009 11.4375 8.75009C11.4375 9.46165 11.4375 10.1732 11.4375 10.9063C11.6745 10.9036 11.6745 10.9036 11.9163 10.9008C12.0165 10.9 12.1168 10.8993 12.217 10.8987C12.3761 10.8978 12.5351 10.8967 12.6942 10.8945C12.8224 10.8928 12.9507 10.8919 13.0789 10.8915C13.1278 10.8912 13.1767 10.8907 13.2255 10.8898C13.2941 10.8887 13.3627 10.8885 13.4313 10.8886C13.4898 10.8881 13.4898 10.8881 13.5495 10.8875C13.6915 10.9125 13.7421 10.9619 13.8438 11.0626C13.8943 11.1637 13.8934 11.2658 13.875 11.3751C13.8405 11.4382 13.802 11.4905 13.756 11.5456C13.6822 11.6412 13.6736 11.7495 13.6741 11.8675C13.6958 11.9807 13.7641 12.0578 13.8319 12.1489C13.878 12.2237 13.8869 12.267 13.8906 12.3536C13.8935 12.4749 13.8935 12.4749 13.9922 12.5372C14.0257 12.5559 14.0592 12.5746 14.0938 12.5938C14.2607 12.7448 14.397 12.9033 14.4137 13.1342C14.4181 13.3657 14.4213 13.5557 14.2812 13.7501C14.2626 13.7778 14.2439 13.8055 14.2246 13.8341C14.1389 13.9247 14.0456 14 13.9375 14.0626C13.9169 14.0626 13.8963 14.0626 13.875 14.0626C13.8782 14.0935 13.8814 14.1245 13.8848 14.1563C13.8858 14.2888 13.8304 14.3692 13.756 14.4752C13.676 14.5958 13.6719 14.7031 13.6875 14.8438C13.7169 14.8964 13.7483 14.9478 13.7812 14.9981C13.8773 15.1484 13.9074 15.2294 13.875 15.4063C13.8119 15.516 13.7475 15.5842 13.625 15.6251C13.5616 15.6282 13.4982 15.6294 13.4347 15.6297C13.3949 15.6299 13.3551 15.6301 13.3141 15.6304C13.2699 15.6305 13.2256 15.6305 13.1814 15.6306C13.1349 15.6308 13.0884 15.631 13.0419 15.6312C12.889 15.6319 12.736 15.6322 12.5831 15.6325C12.5304 15.6327 12.4777 15.6328 12.425 15.6329C12.1771 15.6335 11.9292 15.634 11.6813 15.6342C11.3957 15.6345 11.1102 15.6353 10.8246 15.6366C10.6036 15.6376 10.3826 15.638 10.1615 15.6381C10.0297 15.6382 9.89785 15.6385 9.766 15.6393C9.64172 15.64 9.51746 15.6401 9.39318 15.6398C9.34784 15.6398 9.30249 15.64 9.25714 15.6404C8.84481 15.6441 8.52185 15.5849 8.22083 15.2911C8.05155 15.1017 7.99531 14.9315 7.99805 14.6798C7.99833 14.6461 7.99861 14.6124 7.9989 14.5777C7.99945 14.5393 7.99945 14.5393 8 14.5001C7.97902 14.506 7.95805 14.5118 7.93643 14.5179C7.73793 14.5734 7.53934 14.6286 7.34066 14.6834C7.23854 14.7116 7.13645 14.74 7.03444 14.7686C6.91692 14.8014 6.7993 14.8339 6.68164 14.8663C6.64534 14.8766 6.60903 14.8868 6.57162 14.8974C6.53723 14.9068 6.50284 14.9161 6.46741 14.9258C6.43743 14.9341 6.40745 14.9425 6.37656 14.951C6.16942 14.9897 5.99171 14.9682 5.79049 14.9128C5.75624 14.9037 5.75624 14.9037 5.72129 14.8945C5.64562 14.8745 5.57007 14.854 5.49451 14.8336C5.44027 14.8191 5.38602 14.8047 5.33177 14.7903C5.18566 14.7515 5.03964 14.7123 4.89365 14.673C4.74159 14.6321 4.58943 14.5916 4.43729 14.551C4.18678 14.4842 3.93632 14.4172 3.6859 14.3501C3.35685 14.2619 3.02767 14.1742 2.69844 14.0866C2.28611 13.977 1.8738 13.8674 1.4616 13.7574C1.41772 13.7456 1.37384 13.7339 1.32995 13.7223C1.27043 13.7064 1.21091 13.6905 1.1514 13.6746C1.11817 13.6657 1.08494 13.6569 1.05071 13.6477C0.991658 13.6314 0.933119 13.6132 0.875 13.5938C0.875 11.9954 0.875 10.397 0.875 8.75009C1.15625 8.78524 1.15625 8.78524 1.25195 8.81173C1.2723 8.81727 1.29264 8.82281 1.3136 8.82852C1.34399 8.83707 1.34399 8.83707 1.375 8.84579C1.39623 8.85161 1.41746 8.85743 1.43933 8.86343C1.49085 8.87758 1.5423 8.89193 1.59375 8.90634C1.60628 8.87794 1.61881 8.84954 1.63171 8.82028C1.88997 8.24512 2.22226 7.74134 2.65625 7.28134C2.67849 7.25672 2.70072 7.23211 2.72363 7.20675C3.29804 6.59595 4.13006 6.14344 4.94373 5.95236C5.00027 5.94257 5.00027 5.94257 5.03125 5.90634C5.0134 5.89679 4.99556 5.88724 4.97717 5.87741C4.36755 5.53334 3.94827 5.02382 3.75586 4.34579C3.62832 3.84566 3.6525 3.33213 3.8125 2.84384C3.82189 2.81475 3.83127 2.78567 3.84094 2.7557C4.05522 2.1639 4.54801 1.6776 5.10938 1.41024C5.3069 1.32042 5.50579 1.25954 5.71875 1.21884C5.75355 1.21175 5.78836 1.20466 5.82422 1.19735C6.50792 1.13841 7.18536 1.28715 7.72314 1.7358ZM4.63806 2.16964C4.22003 2.61468 4.00663 3.18598 4.02234 3.79672C4.07435 4.4365 4.3576 4.95937 4.84375 5.37509C5.3147 5.72462 5.88678 5.88369 6.47113 5.80371C6.97266 5.71386 7.36608 5.48618 7.71875 5.12509C7.73994 5.10454 7.76113 5.084 7.78296 5.06283C8.12967 4.70379 8.28205 4.17627 8.29688 3.68759C8.27799 3.06504 8.02743 2.51375 7.57727 2.08029C6.70312 1.3191 5.47377 1.38708 4.63806 2.16964ZM2.78125 7.65634C2.5592 7.91275 2.36451 8.18841 2.19922 8.48446C2.18668 8.50685 2.17414 8.52924 2.16122 8.55231C2.1004 8.66533 2.05129 8.77676 2.01167 8.89895C1.99948 8.93632 1.99948 8.93632 1.98703 8.97445C1.981 8.99322 1.97497 9.01199 1.96875 9.03134C2.10434 9.06741 2.23993 9.10348 2.37552 9.13955C2.42572 9.1529 2.47593 9.16626 2.52614 9.17962C2.83026 9.26054 3.13441 9.34137 3.43861 9.42204C3.55201 9.45212 3.66541 9.4822 3.77881 9.51229C3.82114 9.52353 3.82114 9.52353 3.86433 9.53498C4.21027 9.6268 4.55599 9.71938 4.90135 9.81336C5.03399 9.84939 5.16671 9.88512 5.29941 9.92088C5.36894 9.93972 5.43841 9.95873 5.50785 9.97789C5.60307 10.0042 5.69842 10.0299 5.79382 10.0555C5.82093 10.0632 5.84803 10.0708 5.87595 10.0787C5.90122 10.0854 5.92648 10.092 5.95251 10.0989C5.97393 10.1047 5.99535 10.1106 6.01742 10.1167C6.21959 10.139 6.42109 10.0784 6.61483 10.0264C6.64075 10.0196 6.66666 10.0128 6.69336 10.0057C6.77881 9.98322 6.8642 9.96047 6.94958 9.93771C7.01021 9.92167 7.07084 9.90565 7.13148 9.88964C7.29161 9.84732 7.4517 9.8048 7.61177 9.76223C7.73891 9.72847 7.86609 9.69484 7.99327 9.66121C8.77748 9.4539 9.56096 9.24396 10.3438 9.03134C10.3294 8.98689 10.3149 8.94248 10.3003 8.89808C10.2923 8.87335 10.2842 8.84861 10.2759 8.82313C10.2381 8.71661 10.1888 8.61867 10.1348 8.51962C10.1238 8.49946 10.1129 8.4793 10.1017 8.45854C9.54918 7.46057 8.58351 6.68202 7.49181 6.35443C7.24769 6.28519 7.00213 6.21947 6.75 6.18759C6.72386 6.18416 6.69771 6.18074 6.67078 6.17721C5.20974 6.01583 3.7802 6.58909 2.78125 7.65634ZM1.21875 10.9688C1.21875 11.2163 1.21875 11.4638 1.21875 11.7188C1.32316 11.7672 1.32316 11.7672 1.42969 11.8165C1.45139 11.8269 1.47309 11.8372 1.49545 11.8479C1.60981 11.899 1.60981 11.899 1.73096 11.8866C1.80124 11.8269 1.81082 11.7689 1.81885 11.6792C1.82193 11.5121 1.81754 11.3917 1.71875 11.2501C1.59248 11.1268 1.40428 10.9688 1.21875 10.9688ZM8.90625 12.7188C8.96813 12.8426 9.03 12.9663 9.09375 13.0938C10.3209 13.0938 11.5481 13.0938 12.8125 13.0938C12.8125 13.2073 12.8125 13.3207 12.8125 13.4376C11.5853 13.4376 10.3581 13.4376 9.09375 13.4376C8.98534 13.6179 8.98534 13.6179 8.9375 13.8126C9.54028 13.8155 10.1431 13.8177 10.7458 13.8191C11.0257 13.8197 11.3056 13.8206 11.5855 13.822C11.8295 13.8233 12.0735 13.8241 12.3175 13.8243C12.4467 13.8245 12.5758 13.8249 12.705 13.8258C12.8267 13.8267 12.9484 13.8269 13.07 13.8267C13.1146 13.8268 13.1591 13.827 13.2037 13.8275C13.4825 13.8304 13.6926 13.8235 13.9081 13.6297C13.9223 13.6114 13.9365 13.5931 13.9512 13.5743C13.9733 13.5466 13.9733 13.5466 13.996 13.5184C14.084 13.3948 14.0802 13.2723 14.0625 13.1251C13.9756 12.9513 13.8444 12.8193 13.6626 12.7462C13.5579 12.7176 13.4715 12.7111 13.3632 12.7113C13.304 12.7112 13.304 12.7112 13.2437 12.7111C13.2004 12.7113 13.1571 12.7115 13.1138 12.7117C13.0679 12.7118 13.022 12.7117 12.9761 12.7117C12.8518 12.7117 12.7275 12.7121 12.6033 12.7125C12.4733 12.7129 12.3433 12.7129 12.2133 12.713C11.9672 12.7132 11.7212 12.7137 11.4752 12.7143C11.195 12.715 10.9149 12.7154 10.6347 12.7157C10.0586 12.7163 9.48241 12.7175 8.90625 12.7188Z" fill="#FF0000"/>
<path d="M1.18681 9.15625C1.35181 9.1975 1.51681 9.23875 1.68681 9.28125C1.83016 9.31689 1.83016 9.31689 1.97351 9.35252C2.35342 9.44714 2.732 9.54537 3.10917 9.65039C3.50824 9.76136 3.90749 9.86935 4.30971 9.96835C4.54147 10.0256 4.77022 10.0889 4.99931 10.1562C5.14368 10.1975 5.28806 10.2387 5.43681 10.2812C5.43681 11.6528 5.43681 13.0244 5.43681 14.4375C4.90918 14.332 4.90918 14.332 4.67313 14.2598C4.38797 14.1754 4.10051 14.1023 3.81181 14.0312C3.50598 13.9559 3.20198 13.8771 2.89978 13.7882C2.67206 13.7218 2.44245 13.6643 2.2122 13.6074C1.95625 13.5442 1.70069 13.4804 1.44657 13.4102C1.42338 13.4038 1.40019 13.3975 1.3763 13.3909C1.22197 13.3477 1.22197 13.3477 1.18681 13.3125C1.18403 13.2201 1.1832 13.1284 1.18375 13.036C1.1838 13.0083 1.18384 12.9806 1.18389 12.9521C1.18406 12.8632 1.18446 12.7744 1.18485 12.6855C1.18501 12.6255 1.18515 12.5654 1.18528 12.5053C1.18562 12.3577 1.18616 12.2101 1.18681 12.0625C1.28599 12.0941 1.37326 12.1244 1.46415 12.1758C1.61434 12.2419 1.74133 12.246 1.89774 12.1855C2.02924 12.0723 2.10817 11.9234 2.12431 11.75C2.14483 11.459 2.09843 11.1972 1.90556 10.9688C1.69165 10.7884 1.44579 10.7047 1.18681 10.5938C1.18681 10.1194 1.18681 9.645 1.18681 9.15625Z" fill="#FF0000"/>
<path d="M11.125 9.15625C11.125 9.73375 11.125 10.3112 11.125 10.9062C10.9624 10.9067 10.7998 10.9071 10.6323 10.9076C10.5286 10.9082 10.425 10.9089 10.3213 10.9097C10.1571 10.911 9.99297 10.9122 9.8288 10.9124C9.69627 10.9125 9.56377 10.9134 9.43125 10.9148C9.38097 10.9152 9.33069 10.9153 9.28041 10.9152C8.9092 10.9144 8.54564 10.9545 8.26465 11.2258C8.09388 11.432 8.03569 11.634 8.04761 11.9006C8.08624 12.1584 8.21116 12.327 8.4104 12.4883C8.46008 12.5249 8.51117 12.5595 8.5625 12.5938C8.58093 12.6627 8.58093 12.6627 8.5918 12.7441C8.61543 12.8831 8.65195 12.9581 8.75 13.0625C8.80449 13.226 8.79795 13.3558 8.72266 13.5098C8.68403 13.5826 8.6527 13.6286 8.59375 13.6875C8.58977 13.7492 8.58592 13.811 8.58545 13.8728C8.54724 13.9805 8.47312 14.0092 8.375 14.0625C8.28849 14.0937 8.20076 14.1155 8.11133 14.1367C8.05883 14.1498 8.00634 14.1629 7.95386 14.176C7.92609 14.1828 7.89833 14.1897 7.86972 14.1967C7.77596 14.2201 7.68252 14.2445 7.58911 14.2693C7.55706 14.2778 7.52502 14.2863 7.492 14.295C7.42948 14.3116 7.36696 14.3282 7.30445 14.3448C7.27565 14.3523 7.24684 14.3599 7.21716 14.3677C7.19181 14.3744 7.16646 14.3811 7.14034 14.388C7.05275 14.4085 6.96375 14.4227 6.875 14.4375C6.875 13.0659 6.875 11.6944 6.875 10.2812C7.62398 10.0673 7.62398 10.0673 7.91797 9.99609C7.98149 9.98046 8.04501 9.96479 8.10852 9.9491C8.13825 9.94176 8.16799 9.93442 8.19862 9.92686C8.34495 9.89036 8.49052 9.85122 8.63611 9.81189C8.71685 9.79017 8.79763 9.76874 8.87854 9.74768C9.18221 9.66859 9.48479 9.58608 9.78711 9.50195C10.1148 9.41079 10.4434 9.32454 10.7739 9.24421C10.8029 9.23714 10.8318 9.23006 10.8617 9.22278C10.887 9.21668 10.9123 9.21058 10.9384 9.20429C11.1146 9.15625 11.1146 9.15625 11.125 9.15625Z" fill="#FF0000"/>
<path d="M12.9051 2.34965C13.2623 2.61812 13.575 2.99728 13.6503 3.45244C13.702 4.05909 13.5446 4.51042 13.1863 5.002C12.9827 5.28186 12.8576 5.52708 12.8133 5.87504C12.8626 5.88471 12.8626 5.88471 12.9129 5.89457C13.0534 5.93418 13.1063 6.00683 13.1883 6.12504C13.2373 6.27208 13.2367 6.3915 13.1824 6.53715C13.0965 6.67048 13.0222 6.73812 12.866 6.77348C12.8383 6.77606 12.8106 6.77864 12.782 6.78129C12.782 6.80131 12.7819 6.82133 12.7818 6.84196C12.7733 7.03117 12.7409 7.13525 12.6093 7.27263C12.5633 7.31254 12.5633 7.31254 12.5008 7.34379C12.485 7.40317 12.4717 7.46322 12.4598 7.52348C12.4222 7.68335 12.3876 7.77495 12.2508 7.87504C12.1126 7.95537 11.989 7.9479 11.8328 7.94731C11.8066 7.94781 11.7804 7.94832 11.7535 7.94883C11.5578 7.94899 11.4244 7.91478 11.2742 7.78129C11.2174 7.68391 11.2061 7.62191 11.1902 7.51176C11.1783 7.42209 11.1783 7.42209 11.157 7.34379C11.0839 7.28899 11.0839 7.28899 11.0008 7.25004C10.8921 7.09879 10.8605 6.96446 10.8758 6.78129C10.8436 6.78065 10.8113 6.78 10.7781 6.77934C10.6187 6.74077 10.5601 6.66285 10.4695 6.53129C10.4152 6.42266 10.4241 6.30632 10.4383 6.18754C10.5125 6.03622 10.604 5.95625 10.7508 5.87504C10.7817 5.87504 10.8127 5.87504 10.8445 5.87504C10.7808 5.49857 10.6349 5.2284 10.407 4.92582C10.0716 4.4749 9.95171 4.02528 10.0008 3.46879C10.0277 3.33508 10.0685 3.21735 10.1258 3.09379C10.1367 3.0693 10.1477 3.04481 10.159 3.01957C10.3781 2.58145 10.769 2.28612 11.2212 2.12224C11.774 1.95144 12.4252 2.02592 12.9051 2.34965ZM10.6766 2.88481C10.411 3.20474 10.3068 3.55724 10.3445 3.96879C10.4001 4.30513 10.5752 4.54555 10.7701 4.81451C10.9961 5.13155 11.1528 5.4227 11.1883 5.81254C11.1986 5.81254 11.2089 5.81254 11.2195 5.81254C11.2219 5.79107 11.2242 5.7696 11.2266 5.74748C11.2328 5.70524 11.2328 5.70524 11.2391 5.66215C11.2445 5.62028 11.2445 5.62028 11.2501 5.57756C11.282 5.50004 11.282 5.50004 11.4695 5.40629C11.4695 5.13817 11.4695 4.87004 11.4695 4.59379C11.3458 4.57317 11.222 4.55254 11.0945 4.53129C10.9657 4.41261 10.9124 4.32118 10.8992 4.14653C10.9107 3.97684 10.9563 3.88501 11.0809 3.76957C11.2252 3.70134 11.3438 3.69403 11.5008 3.71879C11.6448 3.78425 11.704 3.8517 11.7629 3.99744C11.7989 4.12019 11.7971 4.24391 11.798 4.37101C11.7986 4.39984 11.7991 4.42866 11.7997 4.45836C11.8014 4.54972 11.8025 4.64109 11.8035 4.73247C11.8046 4.7947 11.8056 4.85694 11.8068 4.91917C11.8094 5.07113 11.8115 5.22308 11.8133 5.37504C11.8236 5.37504 11.8339 5.37504 11.8445 5.37504C11.845 5.33532 11.8454 5.29559 11.8459 5.25467C11.8477 5.10685 11.8501 4.95904 11.8527 4.81123C11.8538 4.74734 11.8547 4.68345 11.8554 4.61955C11.8564 4.52754 11.858 4.43555 11.8598 4.34355C11.8601 4.30091 11.8601 4.30091 11.8604 4.25741C11.8641 4.09675 11.8798 3.98257 11.9695 3.84379C12.0755 3.74796 12.1572 3.71056 12.2977 3.70512C12.4263 3.71162 12.5182 3.73824 12.6258 3.81254C12.7245 3.93168 12.7551 4.06574 12.7508 4.21879C12.7132 4.35147 12.6773 4.41924 12.575 4.51176C12.4695 4.56254 12.4695 4.56254 12.1883 4.59379C12.1883 4.86192 12.1883 5.13004 12.1883 5.40629C12.2398 5.42692 12.2914 5.44754 12.3445 5.46879C12.391 5.5389 12.41 5.60727 12.4383 5.68754C12.4486 5.68754 12.4589 5.68754 12.4695 5.68754C12.4764 5.66221 12.4832 5.63687 12.4903 5.61076C12.5947 5.24617 12.7602 4.96362 12.9814 4.66043C13.2047 4.35129 13.3612 4.0148 13.3133 3.62504C13.2217 3.19378 13.0273 2.86858 12.657 2.62504C12.0119 2.24243 11.1987 2.33142 10.6766 2.88481ZM11.282 4.03129C11.2614 4.07254 11.2408 4.11379 11.2195 4.15629C11.2505 4.2027 11.2505 4.2027 11.282 4.25004C11.3336 4.23973 11.3852 4.22942 11.4383 4.21879C11.4383 4.16723 11.4383 4.11567 11.4383 4.06254C11.3867 4.05223 11.3352 4.04192 11.282 4.03129ZM12.2508 4.03129C12.2302 4.08286 12.2095 4.13442 12.1883 4.18754C12.2089 4.20817 12.2295 4.22879 12.2508 4.25004C12.3321 4.24003 12.3321 4.24003 12.407 4.21879C12.3967 4.16723 12.3864 4.11567 12.3758 4.06254C12.3345 4.05223 12.2933 4.04192 12.2508 4.03129ZM11.5633 5.75004C11.5633 5.79129 11.5633 5.83254 11.5633 5.87504C11.7386 5.87504 11.9139 5.87504 12.0945 5.87504C12.0945 5.83379 12.0945 5.79254 12.0945 5.75004C11.9192 5.75004 11.7439 5.75004 11.5633 5.75004ZM11.2195 6.78129C11.2298 6.84317 11.2402 6.90504 11.2508 6.96879C11.3661 7.04566 11.4248 7.03935 11.5623 7.03959C11.594 7.03968 11.594 7.03968 11.6264 7.03977C11.671 7.03982 11.7157 7.0397 11.7604 7.03944C11.8287 7.03911 11.897 7.03944 11.9653 7.03984C12.0087 7.0398 12.0521 7.03972 12.0955 7.03959C12.135 7.03952 12.1745 7.03945 12.2152 7.03938C12.3184 7.03885 12.3184 7.03885 12.407 6.96879C12.407 6.90692 12.407 6.84504 12.407 6.78129C12.0152 6.78129 11.6233 6.78129 11.2195 6.78129ZM11.532 7.37504C11.5423 7.43692 11.5527 7.49879 11.5633 7.56254C11.6523 7.60705 11.7298 7.5991 11.8289 7.59965C11.8653 7.6001 11.9017 7.60054 11.9393 7.601C12.0358 7.60362 12.0358 7.60362 12.0945 7.53129C12.0945 7.47973 12.0945 7.42817 12.0945 7.37504C11.9089 7.37504 11.7233 7.37504 11.532 7.37504Z" fill="#FF0000"/>
<path d="M9.39021 11.208C9.43551 11.2081 9.48081 11.2081 9.52611 11.208C9.64832 11.208 9.77052 11.2085 9.89272 11.2092C10.0207 11.2098 10.1487 11.2098 10.2767 11.2099C10.5188 11.2102 10.7608 11.211 11.0028 11.2119C11.2785 11.213 11.5542 11.2135 11.8299 11.214C12.3967 11.215 12.9635 11.2166 13.5303 11.2187C13.4979 11.3028 13.4661 11.3778 13.419 11.455C13.3668 11.5354 13.3668 11.5354 13.3428 11.6562C12.1157 11.6562 10.8885 11.6562 9.62409 11.6562C9.62409 11.7593 9.62409 11.8624 9.62409 11.9687C10.8513 11.9687 12.0785 11.9687 13.3428 11.9687C13.4991 12.2812 13.4991 12.2812 13.5303 12.3749C12.9246 12.3786 12.3188 12.3813 11.713 12.383C11.4317 12.3838 11.1504 12.3849 10.8691 12.3867C10.6239 12.3883 10.3786 12.3893 10.1333 12.3896C10.0035 12.3898 9.87377 12.3903 9.74399 12.3915C9.62164 12.3925 9.4993 12.3928 9.37695 12.3926C9.33223 12.3927 9.28751 12.393 9.24279 12.3936C8.95214 12.3973 8.69999 12.3755 8.47796 12.1703C8.35471 12.0302 8.33155 11.9073 8.33418 11.7274C8.35271 11.5752 8.44771 11.4888 8.55183 11.3847C8.79931 11.194 9.09141 11.2056 9.39021 11.208Z" fill="#FF0000"/>
<path d="M9.0038 14.1525C9.06355 14.1524 9.06355 14.1524 9.1245 14.1523C9.16873 14.1525 9.21296 14.1526 9.25719 14.1527C9.30369 14.1527 9.3502 14.1527 9.3967 14.1527C9.52305 14.1527 9.64939 14.1528 9.77574 14.1531C9.90774 14.1533 10.0397 14.1533 10.1717 14.1533C10.4218 14.1534 10.6718 14.1537 10.9218 14.154C11.2064 14.1543 11.491 14.1545 11.7756 14.1547C12.3611 14.155 12.9466 14.1555 13.5321 14.1562C13.5158 14.1884 13.5158 14.1884 13.4991 14.2213C13.4848 14.2495 13.4706 14.2776 13.456 14.3066C13.4348 14.3485 13.4348 14.3485 13.4131 14.3912C13.3733 14.47 13.3733 14.47 13.3446 14.5625C12.1174 14.5625 10.8903 14.5625 9.62588 14.5625C9.62588 14.6656 9.62588 14.7687 9.62588 14.875C10.8531 14.875 12.0803 14.875 13.3446 14.875C13.3756 14.9472 13.4065 15.0194 13.4384 15.0937C13.4692 15.1565 13.5003 15.219 13.5321 15.2812C12.9217 15.2849 12.3114 15.2876 11.701 15.2893C11.4175 15.2901 11.1341 15.2912 10.8507 15.293C10.6036 15.2946 10.3565 15.2956 10.1093 15.2959C9.97856 15.2961 9.84779 15.2966 9.71701 15.2978C9.59376 15.2988 9.47053 15.2991 9.34727 15.2989C9.30219 15.2989 9.2571 15.2993 9.21202 15.2999C8.92275 15.3035 8.69716 15.2838 8.48182 15.0766C8.35739 14.9355 8.33297 14.8152 8.33621 14.6335C8.35282 14.4934 8.42607 14.4123 8.5303 14.323C8.69125 14.1979 8.79714 14.1523 9.0038 14.1525Z" fill="#FF0000"/>
<path d="M5.75 10.375C5.9375 10.4062 5.9375 10.4062 6.00525 10.4183C6.21842 10.4501 6.32963 10.4173 6.5625 10.375C6.5625 11.7466 6.5625 13.1181 6.5625 14.5312C6.20191 14.6514 6.11059 14.6514 5.75 14.5312C5.75 13.1597 5.75 11.7881 5.75 10.375Z" fill="#FF0000"/>
<path d="M10.8939 6.21484C10.9299 6.21491 10.9659 6.21498 11.003 6.21505C11.064 6.21506 11.064 6.21506 11.1262 6.21506C11.1709 6.21522 11.2157 6.21538 11.2604 6.21555C11.3059 6.21561 11.3514 6.21565 11.3969 6.21568C11.5168 6.2158 11.6368 6.21611 11.7567 6.21646C11.8791 6.21678 12.0014 6.21692 12.1237 6.21708C12.3639 6.21741 12.6041 6.21794 12.8442 6.2186C12.8638 6.30845 12.8638 6.30845 12.8755 6.4061C12.7905 6.49107 12.745 6.47652 12.6262 6.47669C12.587 6.47689 12.5477 6.47708 12.5073 6.47729C12.4644 6.47717 12.4214 6.47705 12.3784 6.4769C12.3345 6.47694 12.2906 6.47701 12.2467 6.47708C12.1547 6.47718 12.0626 6.47704 11.9706 6.47675C11.8524 6.47639 11.7343 6.4766 11.6162 6.47697C11.5255 6.4772 11.4349 6.47713 11.3442 6.47697C11.3007 6.47692 11.2571 6.47697 11.2135 6.47712C11.1527 6.47728 11.0919 6.47699 11.0311 6.47669C10.9964 6.47664 10.9618 6.47659 10.9261 6.47654C10.8442 6.4686 10.8442 6.4686 10.7817 6.4061C10.7759 6.32602 10.7759 6.32602 10.7817 6.24985C10.813 6.2186 10.813 6.2186 10.8939 6.21484Z" fill="#FF0000"/>
<path d="M11.625 2.65625C11.7488 2.65625 11.8725 2.65625 12 2.65625C12 2.99656 12 3.33687 12 3.6875C11.8762 3.6875 11.7525 3.6875 11.625 3.6875C11.625 3.34719 11.625 3.00688 11.625 2.65625Z" fill="#FF0000"/>
<path d="M12.5938 2.9375C12.6875 3 12.7812 3.0625 12.875 3.125C12.8292 3.2669 12.7486 3.36758 12.6523 3.47852C12.6304 3.50429 12.6304 3.50429 12.608 3.53058C12.5722 3.57262 12.5361 3.61446 12.5 3.65625C12.3925 3.61524 12.3083 3.57294 12.2188 3.5C12.2461 3.36314 12.3209 3.27306 12.4062 3.16602C12.428 3.13819 12.428 3.13819 12.4502 3.1098C12.5548 2.97641 12.5548 2.97641 12.5938 2.9375Z" fill="#FF0000"/>
<path d="M11.0938 2.9375C11.2554 3.08398 11.3747 3.25992 11.5 3.4375C11.4306 3.52838 11.3772 3.59229 11.2812 3.65625C11.222 3.65588 11.222 3.65588 11.1562 3.625C11.1025 3.56528 11.0563 3.50823 11.0098 3.44336C10.9852 3.41029 10.9605 3.37721 10.9352 3.34314C10.875 3.25 10.875 3.25 10.8438 3.125C10.9263 3.06312 11.0087 3.00125 11.0938 2.9375Z" fill="#FF0000"/>
</svg>
